<svg width="428" height="926" viewBox="0 0 428 926" fill="none" xmlns="http://www.w3.org/2000/svg">
<g clip-path="url(#clip0_260_1062)" filter="url(#filter0_d_260_1062)">
<rect width="1266" height="1266" transform="translate(-410 -256)" fill="black"/>
<path d="M-410 431.806C-406.116 417.68 -401.991 403.648 -397.664 389.684C-397.196 392.107 -396.722 394.538 -396.251 396.968C-395.783 400.295 -395.269 403.617 -394.689 406.927C-394.411 408.507 -394.005 410.16 -393.565 411.844C-392.484 418.447 -391.595 425.056 -391.149 431.634C-391.109 432.239 -391.061 432.789 -391.018 433.315C-392.818 436.688 -395.54 438.318 -399.209 438.159C-403.384 439.977 -406.769 440.762 -409.998 442.496V1010H856.002V451.986C849.27 441.605 837.293 436.202 824.585 437.921C818.096 438.8 811.794 441.41 807.041 446.016C799.255 453.561 798.584 468.183 787.722 472.349C786.613 472.774 785.808 473.607 785.306 474.592C781.2 466.234 775.796 458.476 769.19 452.604C757.439 442.157 742.019 442.187 727.187 443.152C723.194 443.413 716.575 445.119 712.757 443.821C707.245 441.944 706.551 436.04 703.763 431.973C700.743 427.565 696.208 423.448 690.663 422.858C678.755 421.592 674.197 433.875 667.738 441.177C661.223 448.543 652.075 439.941 643.461 440.217C638.643 440.372 633.921 442.686 629.11 442.565C620.742 442.352 615.766 436.149 612.606 429.178C606.319 415.298 606.036 397.809 590.239 390.833C588.393 390.018 585.922 390.537 585.392 392.806C583.683 400.128 583.053 407.309 584.45 414.761C585.243 418.982 598.166 445.684 582.643 443.676C575.91 442.805 569.626 434.756 562.756 432.882C555.211 430.824 547.812 432.951 540.219 432.247C522.746 430.626 515.132 408.562 497.053 409.322C484.829 409.836 477.101 429.064 466.495 428.312C466.761 415.771 466.386 401.701 456.554 392.722C449.581 386.354 437.714 383.594 429.315 388.899C418.994 395.419 419.792 410.813 421.053 421.265C422.263 431.31 425.752 440.326 428.345 449.996C431.877 463.17 425.757 471.06 417.366 480.327C414.067 483.97 410.958 488.133 408.221 492.63C407.904 492.141 407.58 491.655 407.223 491.179C405.119 488.366 401.331 486.128 398.219 483.586L397.186 424.676L369.681 312.41L262.466 321.391C263.588 323.074 265.834 369.666 265.834 369.666C265.834 369.666 256.291 374.717 254.607 378.647C252.923 382.576 250.677 386.506 252.361 391.557C254.045 396.609 256.291 400.538 256.291 400.538L255.169 412.327C255.169 412.327 254.966 434.338 254.683 453.288C254.604 453.265 254.536 453.232 254.455 453.209C240.942 449.469 234.698 456.44 229.839 465.586C226.562 461.484 223.734 458.354 223.734 458.354L236.083 442.076L238.329 436.463L243.942 411.763L241.696 384.82L240.012 362.366C240.012 362.366 240.012 362.366 242.818 353.947C245.623 345.528 242.818 353.947 241.134 348.334C239.45 342.72 233.837 341.037 233.837 341.037L231.591 308.48L133.36 302.304L134.481 325.88C134.481 325.88 125.5 337.107 123.254 339.912C121.008 342.72 128.868 353.945 128.868 353.945L108.66 407.271L108.989 427.071C105.69 425.891 101.973 425.306 97.7774 425.552C90.9916 425.95 84.297 428.725 79.5242 433.614C76.7567 436.447 74.9564 439.693 73.5942 443.423C71.6446 448.768 71.7636 462.456 65.5931 463.871C61.119 464.899 62.5041 464.477 60.6253 460.144C59.7872 458.21 59.1669 456.086 58.1085 454.25C55.9487 450.502 53.199 447.363 49.1224 445.669C41.4961 442.501 32.9303 445.119 27.2029 450.725C19.8728 457.901 17.1053 469.047 14.5328 478.603C12.9098 484.631 11.9805 490.683 10.7323 496.77C9.8334 501.16 11.2108 504.29 6.1949 507.819C4.29083 509.159 2.26273 509.612 0.267517 509.452C-0.302183 506.852 -0.671879 504.156 -0.778223 501.35C-0.983315 495.937 -5.37378 491.713 -10.6024 491.891C-8.62233 488.984 -8.58183 484.743 -10.3036 481.775C-22.7155 460.405 -43.3791 488.206 -56.4214 492.032C-64.5669 494.423 -72.0489 488.09 -79.8678 483.925C-78.9689 478.934 -78.5663 473.969 -77.9789 470.827C-75.8014 459.205 -74.2695 447.449 -73.3124 435.65C-71.3931 422.569 -71.0513 408.856 -72.1831 395.821C-72.2616 392.778 -72.3705 389.739 -72.5528 386.706C-72.6896 384.453 -72.6971 382.498 -73.0896 380.751L-22.761 381.759L-12.6558 311.921L-118.79 306.543L-113.075 373.557C-116.797 374.494 -175.423 384.85 -175.423 384.85L-167.883 432.313L-166.87 432.181C-167.272 433.931 -167.69 435.705 -168.088 437.493C-170.718 435.437 -171.531 433.191 -173.192 429.039C-174.165 426.61 -174.922 424.58 -176.924 422.706C-180.234 419.602 -185.131 418.136 -189.564 419.025C-192.494 419.612 -195.117 423.088 -197.669 423.402C-202.52 424 -206.485 412.76 -207.949 409.071C-207.177 408.36 -206.794 407.284 -207.286 405.947C-210.815 396.34 -218.183 385.569 -229.881 391.013C-238.946 395.231 -240.303 403.82 -241.174 412.717C-242.66 409.778 -244.243 406.879 -245.825 403.982C-248.443 396.951 -251.793 390.172 -255.748 383.774C-258.252 377.675 -260.518 371.484 -263.212 365.473C-265.949 359.361 -271.938 350.61 -279.177 357.421C-285.595 363.46 -283.013 370.674 -277.992 375.365C-269.398 383.392 -266.008 394.497 -261.407 405.17C-260.349 407.626 -259.273 410.077 -258.209 412.533C-256.905 416.822 -255.92 421.25 -255.991 425.507C-256.553 425.539 -257.075 425.909 -257.022 426.613C-265.223 432.305 -271.059 431.642 -274.53 424.63C-275.346 423.496 -276.184 422.377 -277.042 421.276C-279.351 418.589 -281.668 415.698 -284.899 414.029C-290.358 411.211 -296.055 411.92 -301.403 414.568C-309.971 418.809 -315.44 426.752 -324.601 430.34C-333.632 433.877 -356.385 440.093 -363.626 430.616C-370.407 421.741 -372.668 404.592 -375.334 393.91C-377.96 383.387 -380.35 372.724 -382.062 362.014C-382.616 358.538 -382.409 352.899 -384.513 349.243C-381.363 340.062 -378.099 330.916 -374.772 321.793C-368.341 353.238 -359.135 383.903 -347.065 413.682C-345.239 418.187 -339.081 417.541 -338.608 412.538C-337.347 399.199 -328.199 388.241 -327.616 374.692C-326.905 358.186 -334.273 342.391 -334.331 325.751C-334.415 300.963 -331.427 274.82 -352.136 257.02C-353.81 255.579 -357.17 255.331 -358.236 257.807C-370.643 286.588 -381.616 316 -391.289 345.84C-394.114 346.219 -396.53 348.331 -397.879 350.762C-400.67 355.79 -399.791 363.131 -399.128 369.243C-400.102 370.886 -400.589 372.871 -400.31 375.14C-403.736 386.84 -406.967 398.596 -410.013 410.398V431.806H-410ZM283.234 411.201L362.381 402.22L372.484 456.668L365.749 455.546C365.749 455.546 351.155 457.792 344.419 462.281C337.684 466.771 337.684 473.508 334.317 480.243C330.949 486.978 331.511 496.522 331.511 496.522L319.722 498.205L311.303 497.084L282.677 461.719L283.798 446.563C283.798 446.563 282.115 431.406 281.552 425.793C280.988 420.184 283.234 411.201 283.234 411.201ZM130.552 411.763C130.552 411.763 136.727 395.485 138.411 387.063C140.095 378.642 141.216 360.12 141.216 360.12L212.16 364.782C212.343 365.427 212.525 366.065 212.702 366.736C215.358 376.783 218.25 386.767 220.891 396.814C223.949 408.446 224.653 416.677 218.64 427.241C216.771 430.522 214.994 433.647 213.535 436.913L208.016 441.514L207.453 429.165L205.208 417.379L201.84 413.449C201.84 413.449 194.543 406.714 184.438 406.714C174.335 406.714 174.335 412.327 170.965 418.503C167.597 424.679 165.913 446.008 165.913 446.008L160.3 447.692L142.9 443.203L128.306 422.433L130.552 411.763ZM-152.68 430.33L-102.729 423.808L-107.469 380.065L-81.8478 380.579C-82.1871 381.354 -82.5238 382.151 -82.9036 383.073C-83.1518 383.675 -83.0961 384.217 -82.8859 384.686C-83.4708 387.516 -83.6227 390.443 -83.5214 393.416C-85.3673 412.307 -84.3317 431.583 -89.5451 449.92C-90.3705 448.517 -91.3377 447.322 -92.6037 446.198C-100.088 439.554 -111.257 441.876 -115.503 450.867C-115.68 451.242 -115.746 451.596 -115.883 451.963C-121.37 448.981 -128.946 450.654 -133.954 454.432C-135.579 455.658 -136.693 457.878 -138.253 458.98C-139.575 461.777 -141.932 462.35 -145.325 460.699C-151.832 462.145 -154.916 458.835 -154.572 450.771C-155.486 444.41 -154.334 437.052 -152.68 430.33Z" fill="#9393C9" fill-opacity="0.6"/>
<path d="M856 205.262L767.783 206.454L768.575 265.161C768.575 265.161 759.847 255.641 757.467 261.193C755.087 266.746 756.675 279.439 756.675 279.439C756.675 279.439 746.362 284.992 747.154 292.132C747.947 299.272 752.707 312.758 752.707 312.758L749.534 333.383C749.534 333.383 716.213 421.444 714.628 428.584C713.041 435.724 725.736 469.838 725.736 469.838L731.289 480.151L760.642 523.785L757.644 548.96C751.866 552.252 746.233 555.85 740.31 558.833C736.581 560.711 731.327 564.492 729.982 556.673C729.565 554.245 732.859 548.826 733.312 546.373C735.596 534.014 730.529 521.106 725.835 509.904C717.277 489.476 693.258 476.624 673.812 492.459C669.827 495.705 666.581 499.824 664.474 504.526C662.099 509.828 662.902 516.28 658.912 520.549C652.331 527.583 645.333 530.624 647.449 542.073C648.336 546.866 650.936 550.839 653.291 555.024C654.617 557.382 658.375 561.987 657.517 565.036C655.896 570.794 649.217 569.882 645.181 568.507C638.321 566.173 632.893 560.577 625.839 558.478C622.079 557.359 617.091 558.086 612.581 557.972C614.065 554.148 615.138 551.274 615.465 549.968C617.053 543.62 617.053 532.515 617.053 532.515C617.053 532.515 640.058 484.121 644.819 476.188C649.579 468.255 663.859 429.381 670.204 418.274C676.552 407.168 683.692 379.4 683.692 379.4L656.719 370.672C656.719 370.672 633.713 424.619 625.778 434.139C617.845 443.659 617.845 443.659 617.845 443.659L606.737 469.84L601.185 483.326L585.317 504.746C585.317 504.746 572.624 526.96 564.691 532.512C556.758 538.065 540.098 529.34 536.13 522.992C532.162 516.644 535.337 504.746 535.337 501.571C536.925 503.951 541.685 500.779 541.685 492.844C541.685 484.911 540.098 473.803 537.72 470.63C535.34 467.458 529.787 468.25 529.787 468.25C529.787 468.25 524.235 439.689 510.747 434.137C503.832 431.288 496.714 430.123 490.559 430.612C478.266 429.863 464.702 441.188 460.811 452.372C459.043 457.449 458.425 462.915 458.749 468.268C458.909 470.891 459.983 474.195 459.623 476.755C459.593 476.968 459.532 477.173 459.481 477.383C459.228 477.5 458.99 477.619 458.818 477.748C455.888 479.948 453.886 483.478 452.946 486.982C450.705 495.335 454.759 503.111 459.382 509.828C459.155 517.68 459.281 525.681 459.972 533.305C444.104 521.404 408.406 390.505 403.646 383.365C398.885 376.225 368.739 308.792 368.739 308.792L350.491 259.606L336.211 264.366L358.424 319.9C358.424 319.9 412.371 468.255 420.304 506.334C423.995 524.05 415.318 543.828 404.906 561.271C404.82 561.284 404.737 561.281 404.648 561.296C400.946 561.929 397.24 562.534 393.535 563.152C388.36 561.947 383.179 560.663 378.201 560.845C370.243 561.139 362.528 564.005 357.464 570.295C355.869 572.277 355.396 574.45 355.745 576.382L351.018 576.146L342.556 570.857C342.556 570.857 342.556 570.857 329.863 548.644C317.17 526.431 331.98 531.72 331.98 531.72C331.98 531.72 333.038 524.316 335.152 514.796C337.269 505.276 331.98 491.524 322.46 476.715C312.939 461.905 288.612 458.732 268.513 461.905C248.416 465.078 249.472 486.233 248.416 492.58C236.782 489.408 238.896 515.852 238.896 515.852L245.244 526.431L244.185 545.471L231.492 570.857L203.99 574.03L187.066 590.953C187.066 590.953 187.066 590.953 160.622 585.664C134.177 580.375 137.849 597.489 137.849 597.489C137.849 597.489 116.193 605.763 92.9236 603.646C84.3274 602.864 77.4758 604.687 72.2371 607.29L64.0993 599.152L45.289 592.88C43.818 589.753 41.7392 586.717 39.7972 583.363C35.2674 575.541 30.9554 567.424 25.5622 560.144C17.9789 549.907 7.86358 545.375 -3.2519 541.635L-6.50553 538.065L-12.8533 520.612L-39.8267 499.191L-78.7004 500.779L-58.0748 459.525C-58.0748 459.525 -58.0748 459.525 -48.5544 461.113C-39.0341 462.7 -40.6217 472.218 -35.8615 480.153C-31.1014 488.086 -12.0607 507.127 -12.0607 507.127C-12.0607 507.127 3.80478 523.787 17.2927 531.72C30.7807 539.653 47.4387 566.626 47.4387 566.626L82.3449 594.392L194.999 428.584L197.379 396.058C197.379 396.058 170.405 332.591 148.985 290.544C127.564 248.498 64.8918 192.171 64.8918 192.171L66.4794 185.031L56.1665 177.891L-70.7677 430.171L-65.215 435.724L-87.4282 481.738L-95.361 485.706L-114.402 483.326L-139.942 501.503L-142.266 500.556C-137.506 493.492 -135.415 483.683 -132.624 475.958C-128.485 464.49 -124.451 452.985 -120.524 441.441C-113.161 419.805 -106.99 397.742 -99.5515 376.149C-97.1663 369.229 -94.0899 365.894 -89.7754 360.364C-87.8587 357.908 -86.1926 356.181 -85.271 353.039C-83.1872 345.939 -86.4332 338.754 -90.1603 332.91C-95.9307 323.86 -101.926 309.289 -113.938 318.685C-118.706 322.415 -122.182 328.479 -124.14 334.14C-126.958 342.301 -124.403 349.932 -126.092 358.009C-128.391 368.996 -133.906 380.24 -138.023 390.662C-142.702 402.504 -147.748 414.197 -153.053 425.773C-161.996 445.288 -172.025 464.267 -182.247 483.133C-180.92 476.978 -180.512 470.623 -182.206 464.51C-183.376 460.292 -185.51 456.692 -188.316 453.362C-192.618 448.252 -194.745 445.009 -196.747 438.59C-198.902 431.683 -203.012 425.181 -208.405 420.355C-215.071 412.946 -224.045 408.057 -233.836 408.586C-250.431 409.485 -260.136 421.697 -264.691 436.147C-270.975 439.801 -273.794 446.541 -273.563 453.334C-278.025 456.276 -284.679 457.613 -287.907 451.856C-290.231 447.711 -287.758 442.561 -286.347 438.676C-284.243 432.883 -282.01 427.551 -281.858 421.274C-281.62 411.387 -282.932 399.167 -285.818 388.743C-285.55 385.274 -285.605 381.149 -286.56 377.015C-288.94 366.702 -290.528 361.147 -301.633 356.389C-312.741 351.629 -334.954 346.869 -346.852 353.216C-358.752 359.564 -363.512 388.123 -363.512 388.123C-363.512 388.123 -363.512 388.123 -366.685 392.883C-369.858 397.643 -370.653 421.444 -370.653 427.789C-370.653 434.137 -364.305 458.73 -364.305 458.73L-375.413 467.458C-375.413 467.458 -375.413 467.458 -384.933 473.805C-394.454 480.153 -400.801 480.153 -400.801 480.153C-400.801 480.153 -404.845 480.753 -410 481.558V1010H856V205.262Z" fill="#5B5B99" fill-opacity="0.6"/>
<path d="M298.691 415.312C295.263 412.79 291.541 409.169 287.725 406.974C283.254 404.406 278.21 405.553 273.425 404.06C265.715 401.657 261.101 396.481 252.958 401.165C245.497 405.457 243.4 414.423 240.995 422.047C240.873 422.429 240.709 422.913 240.516 423.46C239.286 425.564 238.27 427.921 237.556 430.597C237.179 432.013 236.845 433.567 236.543 435.173C233.409 445.605 231.16 458.191 239.103 459.799C239.916 460.822 240.855 461.731 241.828 462.609C237.696 466.883 235.584 464.091 231.791 468.144C227.299 472.948 226.256 478.204 224.572 484.549C218.893 505.952 217.062 527.657 207.575 547.847C199.27 565.52 195.968 583.809 193.094 602.999C189.957 623.951 185.952 643.442 175.15 661.964C168.088 674.072 160.801 685.365 157.211 698.579C156.413 699.792 155.568 700.98 154.74 702.175C136.697 700.352 118.322 697.992 100.562 694.105C99.2761 693.265 98.5646 692.806 98.5646 692.806C98.5646 692.806 95.111 678.128 91.2269 671.654C87.3428 665.18 88.6367 657.409 88.6367 657.409C88.6367 657.409 101.588 650.935 101.588 637.983C101.588 625.032 92.5233 621.148 92.5233 621.148C92.5233 621.148 97.7038 584.887 91.2269 571.939C84.7526 558.987 53.6723 542.152 34.2468 548.629C14.8213 555.103 7.05308 556.4 0.576223 569.348C-5.8981 582.3 -8.48834 596.545 -8.48834 596.545C-8.48834 596.545 -4.60424 609.496 -3.30786 615.97C-2.01147 622.445 -4.60171 640.574 -3.30786 647.05C-2.01147 653.525 7.05308 672.95 7.05308 672.95L4.46285 684.605C4.46285 684.605 -66.7623 662.589 -78.4171 647.05C-90.2517 631.271 -128.923 553.81 -132.807 548.632C-136.691 543.451 -152.233 517.551 -152.233 517.551H-165.184C-165.184 517.551 -161.3 502.012 -167.774 487.767C-174.248 473.522 -191.084 463.161 -191.084 463.161L-231.228 245.602C-231.228 245.602 -123.742 224.883 -56.4039 248.192C10.9346 271.502 34.2468 293.517 36.837 333.662C39.4272 373.807 180.581 411.362 197.416 407.478C200.007 406.184 225.906 39.6971 225.906 39.6971C225.906 39.6971 92.7942 13.377 30.6361 -38.4227C-28.6127 -87.7967 -14.8335 -184.932 -139.423 -256H-359.211C-339.266 -126.617 -259.718 250.78 -259.718 250.78L-245.04 247.326L-203.599 470.066C-203.599 470.066 -212.233 492.512 -210.506 506.327C-208.78 520.142 -200.146 542.588 -200.146 542.588L-194.965 556.402L-151.797 772.235L-174.243 765.328C-174.243 765.328 -184.604 732.521 -186.331 718.709C-188.058 704.894 -184.604 696.262 -198.416 685.901C-212.231 675.541 -226.043 672.089 -226.043 672.089L-250.216 665.182L-274.389 672.089L-283.023 684.177L-291.657 704.897V730.796L-289.93 748.062L-302.016 756.696L-317.554 749.789L-340.001 737.704L-362.447 715.257C-362.447 715.257 -362.447 630.651 -362.447 625.47C-362.447 620.29 -321.008 527.051 -321.008 527.051C-321.008 527.051 -310.647 525.325 -302.016 509.786C-293.381 494.244 -288.201 485.613 -289.928 480.432C-291.655 475.252 -295.108 475.252 -302.016 470.071C-308.923 464.891 -321.008 461.437 -321.008 461.437L-341.727 468.344C-341.727 468.344 -357.269 490.791 -355.542 495.971C-353.815 501.152 -350.362 516.69 -350.362 516.69L-402.169 603.022L-410 650.722V733.43L-340.008 825.759L-331.422 934.919L-348.483 1010H186.635C186.759 1001.38 186.245 891.295 185.562 822.095C231.996 705.259 259.207 604.561 284.127 481.589C285.214 476.232 282.279 471.806 277.319 470.608C277.787 469.773 278.324 468.975 278.896 468.198C293.797 468.438 298.534 452.079 302.046 438.629C302.094 438.447 302.145 438.264 302.191 438.079C302.879 435.436 303.525 432.914 304.198 430.671C306.546 422.839 304.702 419.733 298.691 415.312ZM-68.0587 916.41L-83.5976 854.249L-101.727 820.579L-112.088 799.859L-118.562 786.908C-118.562 786.908 -113.381 773.957 -113.381 768.779C-113.381 763.598 -113.382 755.828 -118.562 745.469C-123.742 735.108 -135.397 732.518 -135.397 732.518L-167.771 601.723L-158.707 615.968L-137.987 670.358L-119.858 709.209L-65.4685 768.779L-62.8782 833.53L-68.0587 916.41ZM227.289 501.663C227.983 497.392 228.828 493.102 229.988 489.079C229.092 493.275 228.193 497.47 227.289 501.663Z" fill="#363263" fill-opacity="0.6"/>
<path d="M851.224 666.017L854.103 401.099L839.509 396.609L739.591 436.463L801.899 613.283L827.158 598.126C827.158 598.126 831.541 651.835 832.351 678.778C827.264 681.447 821.949 683.52 817.055 684.009C800.215 685.693 791.796 687.377 776.639 694.114C761.483 700.849 742.959 774.946 742.959 774.946L731.17 773.262L712.646 764.841L695.805 739.581L682.332 705.901L641.917 675.59L614.974 672.223L594.766 670.539L571.19 663.804L560.077 651.301C554.568 654.992 545.204 652.372 544.657 643.596C543.191 619.993 550 596.567 553.884 573.482C557.201 553.771 561.533 523.918 545.242 508.329C534.256 497.816 514.342 493.874 499.831 492.479C498.028 492.304 495.952 492.137 493.744 492.018C487.923 493.405 482.383 495.071 477.306 496.844C476.402 495.732 474.977 495.145 473.265 495.811C472.921 495.945 472.617 496.107 472.283 496.249C472.28 496.241 472.275 496.236 472.273 496.231C472.242 496.251 472.212 496.276 472.182 496.297C455.605 503.371 452.26 519.576 449.971 535.925C448.902 537.024 447.788 538.115 446.575 539.194C431.419 552.667 438.154 564.453 441.524 574.558C443.228 579.673 443.628 585.216 442.744 590.535C443.674 595.741 443.891 601.091 442.704 606.768C442.289 608.753 441.727 610.52 441.058 612.131C441.238 613.404 441.159 614.686 440.764 615.865C440.504 616.64 440.218 617.369 439.916 618.078C439.43 618.797 438.903 619.474 438.334 620.107C427.38 632.263 413.315 618.294 401.286 614.855C391.547 612.072 382.118 614.341 373.98 620.16C360.016 630.138 353.372 646.632 354.15 663.163C354.081 663.386 354.023 663.586 353.955 663.811C343.852 697.492 355.639 652.022 350.587 700.86C345.536 749.694 345.536 717.7 345.536 717.7L330.379 737.908C330.379 737.908 330.379 737.908 293.331 748.013C288.964 749.203 284.525 750.178 280.094 750.981C280.02 752.057 279.879 753.145 279.577 754.262C272.278 781.397 260.955 807.852 254.533 835.289C258.802 881.51 246.178 1009.03 246.178 1009.03H855.782V662.117C855.79 662.117 854.045 663.715 851.224 666.017Z" fill="#363263" fill-opacity="0.6"/>
<path d="M620.593 297.812C620.593 297.812 619.471 291.077 613.858 286.585C613.858 283.218 623.96 270.869 619.471 266.377C614.979 261.885 602.631 264.131 602.631 264.131L586.915 35.1094L69.3687 42.4066L91.8224 261.885C91.8224 261.885 80.5955 257.396 79.4739 264.131C78.3522 270.866 79.4739 276.48 79.4739 276.48C79.4739 276.48 73.8604 282.093 74.9846 286.585C74.9846 287.707 68.2495 292.199 71.6171 302.301C74.9846 312.406 89.5791 338.225 89.5791 338.225L87.3332 359.555L95.1925 362.922C95.1925 362.922 82.844 479.678 87.3332 506.623C91.825 533.567 103.052 547.039 103.052 547.039C103.052 547.039 171.535 682.881 188.373 699.721C198.478 714.316 196.232 806.374 206.335 832.196C216.437 858.017 209.702 951.197 209.702 951.197L202.967 1008.45H458.932C458.932 1008.45 436.478 854.649 437.603 833.32C438.724 811.99 452.197 791.782 453.321 770.45C454.443 749.121 456.689 725.543 456.689 725.543C456.689 725.543 527.418 623.382 537.52 599.806C547.625 576.231 543.134 567.25 552.115 558.269C561.096 549.288 594.776 439.267 594.776 439.267C594.776 439.267 592.53 386.503 594.776 373.03C597.022 359.557 607.125 355.068 607.125 355.068C607.125 355.068 626.211 311.285 627.333 307.917C628.449 304.55 620.593 297.812 620.593 297.812ZM545.375 375.276L540.883 387.625L545.375 404.465L542.007 422.427L537.518 441.513L531.218 456.211C529.803 460.663 527.84 466.818 525.169 475.191C508.329 527.956 517.31 490.91 508.329 514.485C499.348 538.061 499.348 543.674 499.348 543.674L481.386 568.371L460.056 604.295C460.056 604.295 430.867 630.117 415.149 637.976C399.433 645.835 397.187 668.287 397.187 668.287L381.471 671.654L388.206 652.568C388.206 652.568 400.554 637.974 403.922 621.133C407.289 604.293 405.043 597.558 402.8 582.963C400.554 568.369 402.8 542.548 396.065 529.075C389.33 515.602 360.141 496.518 330.95 503.253C301.761 509.989 296.147 543.669 296.147 543.669C296.147 543.669 295.026 556.018 292.78 559.385C290.534 562.753 288.29 567.245 283.799 572.858C279.307 578.472 282.677 609.906 283.799 615.52C284.92 621.133 291.658 621.133 292.78 616.641C292.78 624.501 295.026 644.709 295.026 644.709L282.677 657.057C282.677 657.057 273.696 650.322 262.469 644.709C251.242 639.095 218.686 602.047 208.581 591.944C198.478 581.839 198.478 576.228 189.494 560.51C180.513 544.793 158.06 514.48 158.06 514.48C158.06 514.48 161.427 494.272 156.938 472.943C152.449 451.613 152.449 425.792 146.835 405.584C141.222 385.376 143.468 365.168 143.468 365.168L555.482 356.187L545.375 375.276Z" fill="#272147" fill-opacity="0.6"/>
</g>
<defs>
<filter id="filter0_d_260_1062" x="-414" y="-256" width="1274" height="1274" filterUnits="userSpaceOnUse" color-interpolation-filters="sRGB">
<feFlood flood-opacity="0" result="BackgroundImageFix"/>
<feColorMatrix in="SourceAlpha" type="matrix" values="0 0 0 0 0 0 0 0 0 0 0 0 0 0 0 0 0 0 127 0" result="hardAlpha"/>
<feOffset dy="4"/>
<feGaussianBlur stdDeviation="2"/>
<feComposite in2="hardAlpha" operator="out"/>
<feColorMatrix type="matrix" values="0 0 0 0 0 0 0 0 0 0 0 0 0 0 0 0 0 0 0.25 0"/>
<feBlend mode="normal" in2="BackgroundImageFix" result="effect1_dropShadow_260_1062"/>
<feBlend mode="normal" in="SourceGraphic" in2="effect1_dropShadow_260_1062" result="shape"/>
</filter>
<clipPath id="clip0_260_1062">
<rect width="1266" height="1266" fill="white" transform="translate(-410 -256)"/>
</clipPath>
</defs>
</svg>
