<svg width="2400" height="2268" viewBox="0 0 2400 2268" fill="none" xmlns="http://www.w3.org/2000/svg">
<path d="M1380.26 112.759H1393.84L1396.56 107.325H1401.99V110.044L1406.07 116.837L1407.43 114.118L1412.86 115.478L1419.65 112.759L1426.45 105.966L1441.39 101.892L1444.11 97.8177L1445.47 91.0249H1434.6V88.3062L1440.03 84.2321L1450.9 77.4392L1460.41 74.7206L1461.77 69.2871H1457.7L1456.34 70.6464L1442.75 72.0057L1437.32 74.7243V78.7985L1419.66 80.1578L1414.22 86.9507L1407.43 89.6693L1402 95.1028L1395.2 97.8214L1393.84 101.896L1377.54 104.614L1368.03 107.333L1366.67 115.485L1373.46 116.844L1380.26 112.759ZM1422.37 97.8139H1426.45V104.607L1424.41 103.929L1422.37 101.892V97.8139ZM1408.79 101.892H1418.3V104.61H1414.22L1408.67 107.944L1404.72 105.966L1408.79 101.892Z" fill="black"/>
<path d="M146.679 1085.5L143.96 1081.42L146.679 1074.63L143.96 1071.91L135.812 1074.63L120.867 1084.14L105.922 1095V1104.51L107.281 1105.87L120.867 1104.51L139.886 1093.64L146.679 1085.5Z" fill="black"/>
<path d="M1960.36 745.847L1967.16 739.054L1980.74 734.98V728.187L1978.03 726.828L1972.59 728.187H1964.44L1945.42 722.754L1941.34 724.113L1937.27 729.547V737.699L1938.63 740.414L1944.06 747.207L1953.57 748.566L1960.36 745.847Z" fill="black"/>
<path d="M370.841 677.924L372.2 680.642L383.067 677.924L381.712 692.869L387.145 694.228L389.86 688.794L395.297 682.002L399.371 680.642V686.076L400.731 687.435L402.09 688.794H410.238L415.676 684.717V676.568L411.598 673.85L410.238 668.416H403.446L399.371 672.49L398.012 673.85L391.219 677.924L388.504 669.775L373.559 672.49L370.841 677.924Z" fill="black"/>
<path d="M146.679 1282.48L131.734 1296.07L133.094 1302.86L139.887 1306.94L149.398 1305.58L167.058 1304.22L172.491 1301.5L180.643 1290.64V1281.12L179.284 1278.41L172.491 1275.69H157.55L146.679 1282.48Z" fill="black"/>
<path d="M1329.99 119.554L1344.93 111.402L1346.29 105.969L1324.55 111.402L1309.61 114.121L1310.97 103.254L1306.89 100.535L1300.1 107.328V115.48V119.554L1319.12 122.273L1329.99 119.554Z" fill="black"/>
<path d="M1919.61 186.119L1926.4 179.326V169.818L1922.32 164.385L1914.17 163.025L1907.38 169.818V182.045L1910.09 184.763L1919.61 186.119Z" fill="black"/>
<path d="M612.667 324.699L619.46 319.265L624.894 311.113L623.534 305.68H612.667L609.949 307.039L600.441 312.473L599.082 321.984L601.797 324.699H612.667Z" fill="black"/>
<path d="M2124.75 671.129L2122.03 672.488L2117.96 679.281L2119.32 687.433L2126.11 694.226H2134.26L2138.34 690.152V680.64L2132.9 673.848L2124.75 671.129Z" fill="black"/>
<path d="M373.56 236.39L377.634 232.316V220.09L372.201 213.293H365.408L364.049 214.652L355.896 218.73L364.049 235.031L373.56 236.39Z" fill="black"/>
<path d="M1627.52 176.613L1637.03 177.972L1638.38 176.613V160.309L1634.31 156.234L1626.16 154.875L1623.44 156.234L1620.72 161.668L1622.08 168.461L1627.52 176.613Z" fill="black"/>
<path d="M2199.47 381.759H2210.34L2213.06 380.4L2219.85 374.966L2221.21 362.74L2218.49 355.947L2213.06 349.154L2203.54 347.795L2196.75 353.228L2188.6 364.095V373.607L2191.32 376.325L2199.47 381.759Z" fill="black"/>
<path d="M654.784 427.945L667.011 423.871L672.444 418.433L684.671 414.359L691.463 410.285L690.104 414.359L684.671 417.078L672.444 425.226L657.499 433.378L649.347 442.89L646.632 451.042H637.121L635.761 452.397V461.909H641.199L653.425 456.475L667.011 445.605L695.541 432.019L709.127 422.511L707.768 406.207L706.408 400.773H696.897L695.541 404.848L684.671 403.492L683.311 408.926L673.803 407.566L667.011 413L657.499 417.078L653.425 422.511L654.784 427.945Z" fill="black"/>
<path d="M622.175 331.488L628.968 338.281H638.479L649.346 330.129L654.784 319.262V311.109L649.346 308.395L647.991 309.75L627.612 316.543L622.175 323.336V331.488Z" fill="black"/>
<path d="M491.753 514.892L502.624 509.459L513.491 505.384L516.21 499.947L521.643 498.592L523.002 493.154L518.928 491.799L497.19 502.666L487.679 510.818L476.812 516.252V518.97L489.038 517.611L491.753 514.892Z" fill="black"/>
<path d="M252.649 766.228L258.083 763.513L273.028 754.002L270.309 748.568L260.798 747.209L251.29 754.002L243.138 758.08L244.497 764.873L252.649 766.228Z" fill="black"/>
<path d="M2175.02 773.023V760.797L2172.3 754.004L2165.51 747.211L2160.07 744.496L2157.35 745.852L2147.85 756.722L2146.49 766.23L2149.2 773.023L2156 778.46H2169.58L2175.02 773.023Z" fill="black"/>
<path d="M2082.63 173.892L2090.79 179.326H2098.94L2100.3 177.97V169.818L2096.22 157.592L2090.79 156.232L2083.99 167.099L2082.63 173.892Z" fill="black"/>
<path d="M1080.01 232.316L1082.73 235.031L1096.32 233.675L1107.18 228.238L1109.9 221.445L1104.47 220.09L1092.24 221.445L1081.37 226.883L1080.01 232.316Z" fill="black"/>
<path d="M108.641 1719.95L107.281 1710.44L100.489 1709.08L96.4106 1711.8V1718.59L99.1293 1722.66L101.848 1734.89L111.356 1736.25V1728.1L109.996 1725.38L108.641 1719.95Z" fill="black"/>
<path d="M749.883 157.597L751.239 150.804L747.165 148.086L740.372 141.293L734.938 139.934L730.86 145.367L729.505 154.879L730.86 156.238L749.883 157.597Z" fill="black"/>
<path d="M2234.79 609.996L2241.59 604.562V595.054L2237.51 592.336L2229.36 590.977L2225.28 595.054V604.562L2228 607.281L2234.79 609.996Z" fill="black"/>
<path d="M260.797 581.464L264.874 580.105L266.297 576.545L267.589 576.027V573.312H270.308L272.118 572.403L274.382 571.953V571.271L275.741 570.593V562.441L273.027 561.082L270.308 562.441L260.797 571.953L254.004 573.312L247.211 581.464H255.363H260.797Z" fill="black"/>
<path d="M778.41 275.789L781.128 273.074L782.488 267.64L777.054 260.848H768.902L766.183 264.922L764.824 271.715L767.543 275.789H778.41Z" fill="black"/>
<path d="M2169.58 78.7947L2173.66 74.7205V66.5683L2172.3 65.209L2165.51 62.4941L2158.71 66.5683L2157.35 73.3612L2160.07 77.4354L2169.58 78.7947Z" fill="black"/>
<path d="M1632.95 202.422L1637.03 198.347L1632.95 190.195L1624.8 188.836L1620.72 192.91L1619.36 202.422L1622.08 203.781L1632.95 202.422Z" fill="black"/>
<path d="M1363.96 14.9429L1365.31 8.15012L1362.6 5.43149L1354.44 2.71289L1349.01 5.43149L1347.65 12.2243L1354.44 16.2985L1363.96 14.9429Z" fill="black"/>
<path d="M1551.44 199.707L1552.79 194.273L1548.72 184.765L1541.92 182.047L1537.85 184.765V191.558L1546 198.351L1551.44 199.707Z" fill="black"/>
<path d="M1528.34 135.855L1532.42 133.136V124.984L1531.06 122.269L1524.26 115.477L1521.55 116.836L1522.9 135.855H1528.34Z" fill="black"/>
<path d="M2214.42 266.281V259.488L2210.34 255.41L2204.9 254.055L2202.19 256.77V264.922L2207.62 270.355L2214.42 266.281Z" fill="black"/>
<path d="M2162.79 631.732L2161.43 639.884L2165.51 643.959L2173.66 642.603L2175.02 634.451L2172.3 631.732L2165.51 630.373L2162.79 631.732Z" fill="black"/>
<path d="M240.418 596.41L239.062 589.617H233.625L224.117 595.054V601.847L229.551 603.203L240.418 596.41Z" fill="black"/>
<path d="M859.928 330.127L862.643 327.412L864.002 317.9L858.568 316.541L849.057 323.334L850.416 328.771L859.928 330.127Z" fill="black"/>
<path d="M2088.07 139.931L2089.43 138.572V131.779L2085.35 127.705H2078.56L2077.2 129.064L2075.84 135.857L2078.56 139.931H2088.07Z" fill="black"/>
<path d="M1357.16 139.931H1362.6L1366.67 137.217L1372.1 134.498L1378.9 133.139L1377.54 127.705H1369.39H1365.31L1358.52 134.498L1357.16 139.931Z" fill="black"/>
<path d="M292.046 740.418L296.12 737.703V732.266L289.327 730.91L283.894 739.059L282.535 745.851L287.968 747.211L292.046 740.418Z" fill="black"/>
<path d="M2017.42 154.877L2020.14 150.802L2018.78 142.65L2010.63 141.291L2009.27 142.65V150.802L2010.63 153.517L2017.42 154.877Z" fill="black"/>
<path d="M2153.28 796.119L2156 802.912L2162.79 804.271L2165.51 798.838L2164.15 792.045L2157.35 790.686L2153.28 796.119Z" fill="black"/>
<path d="M327.369 705.096L326.01 709.174L320.576 711.889L319.217 717.326H320.915L320.576 718.681H323.291L325.038 717.229L335.517 714.607V711.889L331.443 705.096H327.369Z" fill="black"/>
<path d="M297.48 557.012V550.219L296.12 548.859H289.328L285.253 552.937L283.894 558.371L289.328 561.086L297.48 557.012Z" fill="black"/>
<path d="M599.082 376.322L603.157 369.529L605.875 362.736L600.442 361.377L593.649 369.529L592.29 374.963L595.004 377.677L599.082 376.322Z" fill="black"/>
<path d="M311.066 505.388L316.499 501.31L315.14 495.877L309.707 493.158L304.273 497.236L305.632 504.029L311.066 505.388Z" fill="black"/>
<path d="M619.46 202.426L622.175 199.707V192.914L615.382 191.559L609.949 196.992L612.668 202.426H619.46Z" fill="black"/>
<path d="M1692.72 108.687L1698.16 105.969V99.1757L1691.37 95.1016L1687.29 99.1757L1688.65 104.609L1692.72 108.687Z" fill="black"/>
<path d="M309.705 726.832L308.346 734.984L312.424 736.343L317.857 732.266L320.576 725.473L313.783 724.117L309.705 726.832Z" fill="black"/>
<path d="M884.38 313.828L885.74 308.395H880.306L870.795 313.828L869.436 317.902L876.228 319.262L884.38 313.828Z" fill="black"/>
<path d="M1634.31 116.837L1635.67 114.119L1632.95 105.967L1627.52 104.607L1624.8 107.326L1626.16 115.478L1634.31 116.837Z" fill="black"/>
<path d="M1906.02 777.098L1904.66 783.89L1911.45 782.531L1916.89 778.457L1918.25 773.02L1914.17 771.664L1906.02 777.098Z" fill="black"/>
<path d="M1448.18 286.656L1446.82 294.808L1449.54 297.523L1454.98 294.808L1456.34 285.297L1450.9 283.938L1448.18 286.656Z" fill="black"/>
<path d="M279.82 425.228L278.461 415.721L274.383 413.002L268.949 418.435L271.668 423.873L279.82 425.228Z" fill="black"/>
<path d="M774.335 383.115L781.128 385.83L785.202 369.529H779.769L778.41 370.885L779.769 379.037H772.976L774.335 383.115Z" fill="black"/>
<path d="M510.775 313.828L508.056 308.395H495.83L494.471 309.75V313.828L503.982 315.187L510.775 313.828Z" fill="black"/>
<path d="M225.477 770.307L218.684 777.099L217.325 781.174L224.118 782.533L228.192 777.099L230.911 768.947H226.833L225.477 770.307Z" fill="black"/>
<path d="M2214.42 741.777L2215.78 747.211L2222.57 748.57L2225.28 744.496L2223.92 740.418L2218.49 737.703L2214.42 741.777Z" fill="black"/>
<path d="M251.289 676.57L249.93 683.363H254.004L260.797 677.926L263.515 672.492H256.723L251.289 676.57Z" fill="black"/>
<path d="M347.748 455.117L350.463 452.398V445.606L343.67 444.25L340.955 448.324L342.311 453.758L347.748 455.117Z" fill="black"/>
<path d="M340.955 668.416L339.596 669.775L336.877 675.209L331.444 676.568V680.642H338.237L346.389 669.775L340.955 668.416Z" fill="black"/>
<path d="M1085.45 217.371V211.938H1080.01L1073.22 216.012L1071.86 220.09L1077.3 221.445L1085.45 217.371Z" fill="black"/>
<path d="M1517.47 10.867V1.3593L1512.04 0L1510.68 1.3593V10.867L1513.4 13.5856L1517.47 10.867Z" fill="black"/>
<path d="M2026.93 39.3964L2025.58 32.6035H2020.14L2018.78 40.7557L2025.58 42.115L2026.93 39.3964Z" fill="black"/>
<path d="M194.228 801.553L188.794 800.193L187.435 801.553V811.064L192.869 812.423L194.228 801.553Z" fill="black"/>
<path d="M444.202 672.492H434.695L431.976 673.851V680.644L444.202 676.57V672.492Z" fill="black"/>
<path d="M745.805 354.59L744.446 361.383L751.238 360.023L753.957 353.23L749.883 351.871L745.805 354.59Z" fill="black"/>
<path d="M2143.77 705.096L2136.98 703.74L2135.62 705.096V710.533H2142.41L2143.77 705.096Z" fill="black"/>
<path d="M373.56 698.299L372.2 705.092L380.352 706.451H384.427L378.993 701.017L373.56 698.299Z" fill="black"/>
<path d="M368.127 654.83L364.049 653.471L361.334 654.83L359.975 660.264L366.767 661.623L368.127 654.83Z" fill="black"/>
<path d="M508.057 417.082L506.698 422.515H516.209V417.082L509.416 415.723L508.057 417.082Z" fill="black"/>
<path d="M173.849 654.83L169.775 653.471L164.342 654.83L162.982 660.264L172.49 658.904L173.849 654.83Z" fill="black"/>
<path d="M2138.34 615.43L2136.98 620.863L2142.41 622.222L2145.13 618.144L2143.77 614.07H2139.69L2138.34 615.43Z" fill="black"/>
<path d="M396.654 555.65V547.498L400.732 544.783L402.091 536.631L396.654 535.271L392.579 539.349L391.559 543.424L391.22 542.064L389.861 550.216L391.22 554.291L396.654 555.65Z" fill="black"/>
<path d="M489.038 474.139L490.397 467.346L484.96 464.631L483.604 465.986L484.96 472.779L489.038 474.139Z" fill="black"/>
<path d="M1154.73 201.062H1158.81L1161.53 199.703L1173.75 196.988L1179.19 194.27H1192.78L1196.85 191.555V182.043L1213.15 184.762H1222.66V190.195L1203.64 194.27L1202.28 196.988L1194.13 202.422L1190.06 206.496L1188.7 214.648L1199.57 221.441L1198.21 213.289L1210.43 216.007L1213.15 210.574L1224.02 205.14L1230.81 201.062L1243.04 192.91L1241.68 187.477V182.043L1255.27 176.61L1271.57 168.458L1291.95 157.591L1308.25 150.798L1316.41 149.439L1315.05 153.513L1312.33 154.872L1305.53 158.946L1287.87 164.383L1277 172.532L1263.42 176.61L1259.34 180.684L1257.98 186.118L1260.7 191.555L1267.5 192.91L1274.29 190.195L1278.36 186.118L1294.67 179.325L1308.25 173.891L1315.05 169.817L1327.27 165.739L1338.14 154.872L1346.29 156.231L1353.08 149.439L1351.72 141.286L1344.93 139.927L1334.06 142.646L1325.91 146.269L1321.84 147.625V145.361H1324.55L1334.06 135.853L1344.93 130.419L1351.72 124.982L1359.88 122.267L1362.6 118.189L1361.24 114.115L1353.08 112.756L1346.29 115.474L1340.86 122.267L1328.63 126.341L1324.55 130.419L1312.33 131.775L1305.53 133.134L1293.31 134.494L1277 141.286L1275.65 135.853H1268.86L1266.14 137.212L1264.78 141.286L1270.21 144.005L1263.42 146.72H1249.83L1230.81 156.231L1228.1 163.024L1211.79 167.098L1209.08 171.176L1199.57 172.532L1191.42 173.891L1190.06 180.684L1183.26 182.043L1181.9 186.118L1172.4 187.477L1165.6 191.555L1154.73 196.988V201.062Z" fill="black"/>
<path d="M168.417 794.76L162.983 793.4L160.265 794.76V800.193H167.057L168.417 794.76Z" fill="black"/>
<path d="M369.482 544.783L374.919 546.142L376.275 543.424L374.919 536.631H372.201L369.482 544.783Z" fill="black"/>
<path d="M453.715 457.836H448.281L446.922 465.984L452.355 464.629L453.715 457.836Z" fill="black"/>
<path d="M2169.58 373.605L2175.02 372.246L2176.37 364.094H2173.66L2170.94 365.453L2169.58 373.605Z" fill="black"/>
<path d="M671.084 347.795H673.803L680.596 343.717L683.311 338.283H679.236L671.084 343.717V347.795Z" fill="black"/>
<path d="M114.074 794.76L109.996 793.4L108.641 794.76L107.281 800.193L112.715 801.552L114.074 794.76Z" fill="black"/>
<path d="M1123.49 214.652V210.578H1116.69L1115.34 211.937L1116.69 217.371L1123.49 214.652Z" fill="black"/>
<path d="M1073.22 235.027L1074.58 240.465H1082.73V237.746L1074.58 233.672L1073.22 235.027Z" fill="black"/>
<path d="M676.518 175.256L675.162 171.182H669.725L668.37 176.615L673.803 177.974L676.518 175.256Z" fill="black"/>
<path d="M1354.44 104.606V108.684L1363.95 107.324V104.606L1358.52 103.25L1354.44 104.606Z" fill="black"/>
<path d="M2172.18 466.063L2170.82 471.496L2176.26 472.854L2177.62 467.421L2172.18 466.063Z" fill="black"/>
<path d="M650.706 353.225H643.913L642.554 357.299L649.347 358.658L650.706 353.225Z" fill="black"/>
<path d="M751.238 330.129H744.446V335.566H749.883L751.238 330.129Z" fill="black"/>
<path d="M1389.77 289.373H1395.2L1396.56 282.58H1392.48L1391.13 283.939L1389.77 289.373Z" fill="black"/>
<path d="M1415.58 315.187V311.109L1410.15 308.395L1408.79 313.828L1415.58 315.187Z" fill="black"/>
<path d="M1222.66 133.137L1218.59 131.777L1217.23 138.57L1221.31 139.929L1222.66 133.137Z" fill="black"/>
<path d="M122.226 763.517L118.148 762.158L115.434 767.592L120.867 768.951L122.226 763.517Z" fill="black"/>
<path d="M229.552 691.506L225.477 690.15L222.759 691.506V694.225H220.04L218.685 698.299L225.477 695.584L229.552 691.506Z" fill="black"/>
<path d="M811.018 343.715H805.581L802.866 349.152H809.659L811.018 343.715Z" fill="black"/>
<path d="M711.841 324.695L707.767 323.336L699.615 328.773L703.689 330.129L711.841 324.695Z" fill="black"/>
<path d="M2179.09 721.4L2175.02 720.041L2172.3 721.4V724.119L2177.73 726.834L2179.09 721.4Z" fill="black"/>
<path d="M354.542 686.07V690.148H359.975L361.334 684.711H358.616L354.542 686.07Z" fill="black"/>
<path d="M1391.13 129.062L1393.84 122.27H1388.41L1387.05 127.703L1391.13 129.062Z" fill="black"/>
<path d="M220.04 703.74H214.607L213.248 707.814L218.685 709.174L220.04 703.74Z" fill="black"/>
<path d="M399.372 650.75L393.938 649.395L392.579 654.828H398.013L399.372 650.75Z" fill="black"/>
<path d="M203.74 618.144L207.814 612.711H201.021L199.662 618.144H203.74Z" fill="black"/>
<path d="M199.661 567.879L198.305 563.805H192.868L191.513 565.164L194.228 569.238L199.661 567.879Z" fill="black"/>
<path d="M138.527 531.199V525.766H133.094L131.734 527.121L133.094 531.199H138.527Z" fill="black"/>
<path d="M647.991 388.549L649.347 381.756H645.273L643.913 387.189L647.991 388.549Z" fill="black"/>
<path d="M739.013 383.119V377.682L733.579 376.326V381.76L739.013 383.119Z" fill="black"/>
<path d="M1185.98 216.012V211.937L1180.55 210.578L1179.19 214.652L1185.98 216.012Z" fill="black"/>
<path d="M563.758 368.172L558.325 366.812L556.966 370.887L562.399 372.246L563.758 368.172Z" fill="black"/>
<path d="M1601.7 240.465V236.387L1594.91 235.027L1596.27 239.105L1601.7 240.465Z" fill="black"/>
<path d="M1950.86 171.18L1946.78 169.82L1945.42 176.613H1949.5L1950.86 171.18Z" fill="black"/>
<path d="M705.048 392.627L702.333 391.268L699.615 392.627L698.255 398.06L705.048 395.346V392.627Z" fill="black"/>
<path d="M819.167 343.715L820.526 336.922H817.811L815.093 342.359L819.167 343.715Z" fill="black"/>
<path d="M791.996 300.246H787.921L786.562 305.68H791.996V300.246Z" fill="black"/>
<path d="M306.991 724.119H311.065L312.425 717.326H309.706L306.991 724.119Z" fill="black"/>
<path d="M71.9574 499.951L67.8832 498.596L66.5239 504.029H71.9574V499.951Z" fill="black"/>
<path d="M437.41 275.785H431.976V279.863L436.054 281.222L437.41 275.785Z" fill="black"/>
<path d="M1931.83 192.916L1933.19 187.482L1929.12 186.123L1927.76 188.842L1929.12 192.916H1931.83Z" fill="black"/>
<path d="M2103.01 759.436L2107.09 760.795L2108.45 755.361H2104.37L2103.01 759.436Z" fill="black"/>
<path d="M2073.13 726.832L2078.56 725.473L2077.2 721.398H2073.13V726.832Z" fill="black"/>
<path d="M415.677 504.027L411.599 502.668L410.24 506.742L415.677 508.101V504.027Z" fill="black"/>
<path d="M827.319 233.675L828.678 229.598L823.245 224.164L824.604 232.316L827.319 233.675Z" fill="black"/>
<path d="M203.74 711.887H206.455L209.173 706.453H205.099L203.74 711.887Z" fill="black"/>
<path d="M2168.23 555.654H2170.94L2173.66 551.58L2168.23 550.221V555.654Z" fill="black"/>
<path d="M346.389 542.066H340.955L339.596 544.785L345.029 546.144L346.389 542.066Z" fill="black"/>
<path d="M548.814 476.855L546.099 475.496L543.38 476.855V480.93H547.454L548.814 476.855Z" fill="black"/>
<path d="M417.029 475.466L415.67 479.543L419.748 480.902L421.106 476.825L417.029 475.466Z" fill="black"/>
<path d="M465.94 444.25H461.866V449.684L465.94 448.324V444.25Z" fill="black"/>
<path d="M615.383 354.584H611.309V360.017H615.383V354.584Z" fill="black"/>
<path d="M1029.75 241.82L1025.67 240.465L1024.31 245.898H1028.39L1029.75 241.82Z" fill="black"/>
<path d="M1670.99 154.875H1668.27L1666.91 160.309L1669.63 161.668L1670.99 154.875Z" fill="black"/>
<path d="M199.662 774.381V770.307L196.947 768.947L194.228 773.021L199.662 774.381Z" fill="black"/>
<path d="M1877.49 770.304L1882.92 771.664V767.586H1877.49V770.304Z" fill="black"/>
<path d="M156.19 660.262L152.112 658.902L150.756 664.336H153.471L156.19 660.262Z" fill="black"/>
<path d="M285.253 615.432H282.534L281.175 620.865H285.253V615.432Z" fill="black"/>
<path d="M619.461 372.244L616.742 369.529L612.668 373.604L616.742 374.963L619.461 372.244Z" fill="black"/>
<path d="M575.986 354.584H571.911L570.552 355.943L574.626 360.017L575.986 354.584Z" fill="black"/>
<path d="M302.913 707.814V705.096L298.839 703.74L297.479 707.814H302.913Z" fill="black"/>
<path d="M752.598 389.91L756.676 391.266L758.032 387.191H752.598V389.91Z" fill="black"/>
<path d="M906.118 275.785L904.759 279.863H910.192L906.118 275.785Z" fill="black"/>
<path d="M2017.42 77.4357L2013.35 76.0801V81.5136H2016.06L2017.42 77.4357Z" fill="black"/>
<path d="M2066.33 76.082L2062.26 74.7227V80.1562H2064.97L2066.33 76.082Z" fill="black"/>
<path d="M167.057 1228.14L165.698 1232.22L168.416 1233.58L169.776 1228.14H167.057Z" fill="black"/>
<path d="M2270.11 730.91H2266.04V734.984H2270.11V730.91Z" fill="black"/>
<path d="M2200.83 733.621L2202.19 729.547L2199.47 728.188L2198.11 733.621H2200.83Z" fill="black"/>
<path d="M422.469 599.125H418.391L419.751 604.559L422.469 599.125Z" fill="black"/>
<path d="M335.517 552.937L331.443 548.859L330.084 550.219L331.443 554.293L335.517 552.937Z" fill="black"/>
<path d="M950.949 300.246L945.515 298.887V301.605L950.949 302.961V300.246Z" fill="black"/>
<path d="M1252.55 188.838L1255.27 186.119L1251.19 184.764L1248.48 187.479L1252.55 188.838Z" fill="black"/>
<path d="M277.101 480.928L278.461 476.854H274.383V480.928H277.101Z" fill="black"/>
<path d="M156.19 421.154L153.472 419.795L152.112 423.873L154.831 425.228L156.19 421.154Z" fill="black"/>
<path d="M271.668 1737.61L270.309 1741.68H274.383V1738.96L271.668 1737.61Z" fill="black"/>
<path d="M1941.34 771.664H1945.42V768.945L1942.7 767.586L1941.34 771.664Z" fill="black"/>
<path d="M236.344 638.527L234.984 634.453L232.27 639.887L236.344 638.527Z" fill="black"/>
<path d="M556.966 470.064H554.247L552.892 474.139H555.607L556.966 470.064Z" fill="black"/>
<path d="M859.927 339.642L854.49 338.283V341.002L859.927 339.642Z" fill="black"/>
<path d="M1397.92 315.183L1400.63 316.539L1401.99 312.465H1397.92V315.183Z" fill="black"/>
<path d="M2202.19 705.096L2199.47 703.74L2198.11 706.455L2202.19 707.814V705.096Z" fill="black"/>
<path d="M2151.92 637.166H2147.85V639.885H2151.92V637.166Z" fill="black"/>
<path d="M304.273 637.166H300.199V639.885H304.273V637.166Z" fill="black"/>
<path d="M103.204 626.297H99.1299V629.015H103.204V626.297Z" fill="black"/>
<path d="M366.767 452.398H364.048V456.473H366.767V452.398Z" fill="black"/>
<path d="M796.07 373.605H791.996V376.324H796.07V373.605Z" fill="black"/>
<path d="M633.046 366.812L630.328 364.094L628.968 368.172L633.046 366.812Z" fill="black"/>
<path d="M2175.02 176.615L2177.73 173.896L2173.66 172.537L2175.02 176.615Z" fill="black"/>
<path d="M2100.3 794.76L2097.58 792.045L2096.22 794.76H2100.3Z" fill="black"/>
<path d="M377.635 660.262H380.353L378.994 656.188L377.635 660.262Z" fill="black"/>
<path d="M177.928 630.373L176.568 633.092H180.643L177.928 630.373Z" fill="black"/>
<path d="M717.275 321.98L721.353 320.621L717.275 319.262V321.98Z" fill="black"/>
<path d="M1143.87 205.145H1141.15L1139.79 206.5L1143.87 207.859V205.145Z" fill="black"/>
<path d="M1157.45 177.975H1154.73L1153.37 179.33L1157.45 180.689V177.975Z" fill="black"/>
<path d="M1256.63 10.8691L1255.27 13.5878H1259.34L1256.63 10.8691Z" fill="black"/>
<path d="M157.549 1446.87H154.83V1449.59H157.549V1446.87Z" fill="black"/>
<path d="M115.433 1128.97H112.714V1131.69H115.433V1128.97Z" fill="black"/>
<path d="M95.054 874.914H92.3354V877.633H95.054V874.914Z" fill="black"/>
<path d="M2134.26 751.287L2136.98 749.928L2134.26 747.209V751.287Z" fill="black"/>
<path d="M2162.79 737.703H2160.07V740.422H2162.79V737.703Z" fill="black"/>
<path d="M2256.53 709.172H2253.81V711.89H2256.53V709.172Z" fill="black"/>
<path d="M355.901 653.471H353.182V656.189H355.901V653.471Z" fill="black"/>
<path d="M366.767 544.787H364.048V547.506H366.767V544.787Z" fill="black"/>
<path d="M207.818 421.156H205.099V423.875H207.818V421.156Z" fill="black"/>
<path d="M574.63 385.832H571.912V388.551H574.63V385.832Z" fill="black"/>
<path d="M1999.76 279.865V283.939L2002.48 282.58L1999.76 279.865Z" fill="black"/>
<path d="M815.093 259.486H812.375V262.205H815.093V259.486Z" fill="black"/>
<path d="M1483.51 256.77H1480.79V259.488H1483.51V256.77Z" fill="black"/>
<path d="M1052.84 251.334L1051.48 252.693L1055.56 254.053L1052.84 251.334Z" fill="black"/>
<path d="M1660.12 248.617H1657.41V251.336H1660.12V248.617Z" fill="black"/>
<path d="M1037.9 235.027H1035.18V237.746H1037.9V235.027Z" fill="black"/>
<path d="M1586.76 218.73H1584.04V221.449H1586.76V218.73Z" fill="black"/>
<path d="M1616.65 202.424H1613.93V205.142H1616.65V202.424Z" fill="black"/>
<path d="M1584.04 175.254H1581.32V177.973H1584.04V175.254Z" fill="black"/>
<path d="M1214.51 157.596V161.67L1217.23 160.311L1214.51 157.596Z" fill="black"/>
<path d="M1844.89 153.516H1842.17V156.234H1844.89V153.516Z" fill="black"/>
<path d="M717.279 124.984H714.56V127.703H717.279V124.984Z" fill="black"/>
<path d="M2202.19 800.193L2200.83 801.553L2203.54 802.912L2202.19 800.193Z" fill="black"/>
<path d="M345.029 691.506L343.669 688.791L342.31 690.15L345.029 691.506Z" fill="black"/>
<path d="M2149.2 680.64L2151.92 679.281L2149.2 677.922V680.64Z" fill="black"/>
<path d="M289.328 635.812L290.687 638.527L292.046 635.812H289.328Z" fill="black"/>
<path d="M279.82 596.408L282.535 595.053L279.82 593.693V596.408Z" fill="black"/>
<path d="M274.383 596.408L273.027 593.693L271.668 595.053L274.383 596.408Z" fill="black"/>
<path d="M556.965 442.893L555.606 444.252L558.325 445.607L556.965 442.893Z" fill="black"/>
<path d="M556.966 305.68V308.398H559.684L556.966 305.68Z" fill="black"/>
<path d="M940.082 285.297V288.015H942.797L940.082 285.297Z" fill="black"/>
<path d="M2300.83 933.355L2294.03 934.715L2292.67 927.922L2289.96 925.203L2281.8 926.562V918.41L2277.73 915.692L2275.01 907.54L2270.94 904.821L2247.84 915.688L2231.54 918.407V915.688L2236.97 914.329L2251.91 906.177L2253.27 900.743L2239.69 904.817L2227.46 907.536L2226.1 902.102H2228.82L2249.2 892.591L2279.09 881.724L2285.88 876.29V864.064H2275.01L2287.24 855.912L2306.26 845.045L2307.62 836.893L2304.9 834.174L2298.11 836.893V839.611L2292.67 840.971L2281.81 839.611L2273.66 842.33L2269.58 840.971L2268.22 830.104L2257.36 824.67H2243.77L2236.98 828.744L2227.47 830.104L2222.03 827.385L2213.88 817.874V811.081L2208.45 812.44L2204.37 819.233L2197.58 817.874L2186.71 819.233L2173.13 820.592L2171.77 819.233L2158.18 820.592L2154.11 816.518L2137.8 820.592L2136.44 816.518L2131.01 815.159L2118.78 824.67L2114.71 823.311H2107.92L2097.05 826.03L2102.48 816.518L2098.41 815.159L2091.62 819.233L2067.16 823.307L2060.37 826.026L2048.06 827.873L2048.68 826.003L2041.89 824.644V828.797L2033.2 830.1V823.307L2037.27 821.948L2050.86 815.155L2084.82 797.495L2090.26 792.062L2088.9 789.343L2073.95 794.777L2075.31 790.702L2080.75 786.628L2091.61 779.835L2102.48 771.683L2105.2 766.25L2101.12 764.891L2095.69 767.609L2090.26 766.25L2084.82 768.968L2071.24 771.687L2073.96 755.383L2078.03 748.59L2099.77 735.004L2102.29 732.841L2105.74 732.267H2130.19L2134.27 730.908L2141.06 725.474V718.681L2139.7 717.322L2130.19 720.041L2127.47 711.889L2119.32 706.455H2109.81L2101.65 710.529L2092.14 720.041L2093.5 729.552L2094.25 730.301L2084.81 736.367L2071.23 739.086L2069.87 733.653H2065.79L2048.13 741.805L2008.74 755.39L1998.55 758.716L1999.76 752.649H1994.33L1992.97 758.083L1997.23 759.148L1942.17 777.128L1897.34 790.714L1873.23 798.326L1870.7 797.484L1873.42 785.258L1874.78 779.824L1870.71 777.106L1872.07 773.031L1870.71 764.879L1876.14 763.52L1877.5 758.086H1869.35V754.012L1873.42 751.294L1874.78 747.219L1859.84 748.579L1861.2 745.86L1870.71 740.427L1907.39 729.56L1915.54 725.485L1910.11 724.126L1900.1 727.128L1884.3 729.56L1885.66 726.841L1899.24 718.689L1927.77 705.103V709.177H1931.85L1941.36 703.744H1954.94L1965.81 698.31L1994.34 691.518V695.592L2002.49 707.818L2013.36 715.97L2014.72 721.404H2012L2010.64 724.122V732.274L2014.72 736.349L2024.23 734.989L2025.59 726.837L2022.87 721.404L2024.23 715.97L2029.66 717.33L2033.74 728.197L2040.53 730.915L2041.89 714.611L2044.61 713.252H2056.83L2058.04 713.855L2057.66 714.63L2059.02 718.704H2061.73L2062.53 715.501L2073.14 718.681L2078.57 705.096V702.399H2079.4L2080.76 696.966L2078.58 696.24V694.229L2071.79 680.643L2066.35 668.417L2071.79 662.983L2094.88 650.757L2101.68 642.605L2117.98 631.738L2124.77 626.304L2122.05 620.871L2119.34 612.719H2122.05L2130.21 608.645V603.211L2119.34 605.93L2124.77 596.418V588.266L2117.98 582.833L2120.7 573.321L2122.06 563.81L2120.7 562.45L2108.47 565.169L2075.87 577.395V574.677H2078.59V571.958H2081.3L2093.53 563.806L2112.55 552.939L2115.27 547.506L2109.83 544.787L2103.04 535.275H2100.32V532.557L2098.96 527.123H2084.02L2088.09 523.049L2107.11 514.897L2109.83 509.463H2107.11L2104.39 510.823L2086.73 517.616V514.897H2089.45L2103.04 506.745L2122.06 490.441L2128.85 487.722L2139.72 486.363L2141.08 479.57H2143.8L2151.95 472.777L2153.31 461.91L2156.03 459.191L2160.1 452.399L2158.74 437.454L2165.53 429.302L2169.61 422.509L2179.12 408.923L2177.76 404.849L2170.97 407.568L2164.17 408.927L2162.81 402.134L2160.1 399.415L2151.94 400.775V392.623L2147.87 389.904L2145.15 381.752L2141.08 379.033L2117.98 389.9L2101.68 392.619V389.9L2107.11 388.541L2122.05 380.389L2123.41 374.955L2109.83 379.03L2097.6 381.748L2096.24 376.315H2098.96L2119.34 366.803L2149.23 355.936L2156.02 350.503V338.276H2145.15L2157.38 330.124L2176.4 319.257L2177.76 311.105L2175.04 308.386L2168.25 311.105V313.824L2162.81 315.183L2151.95 313.824L2143.8 316.542L2139.72 315.183L2138.36 304.316L2127.49 298.882H2113.91L2107.12 302.957L2097.6 304.316L2092.17 301.597L2084.02 292.086V285.293L2078.59 286.652L2074.51 293.445L2067.72 292.086L2056.85 293.445L2043.27 294.805L2041.91 293.445L2028.32 294.805L2024.25 290.73L2007.94 294.805L2006.58 290.73L2001.15 289.371L1988.92 298.882L1984.85 297.523H1978.06L1967.19 300.242L1972.62 290.73L1968.55 289.371L1961.76 293.445L1937.3 297.519L1930.51 300.238L1903.34 304.312V297.519L1907.41 296.16L1921 289.367L1954.96 271.708L1960.4 266.274L1959.04 263.555L1944.09 268.989L1945.45 264.915L1950.89 260.84L1961.75 254.048L1972.62 245.896L1975.34 240.462L1971.26 239.103L1965.83 241.821L1960.4 240.462L1954.96 243.181L1941.38 245.899L1944.1 229.595L1948.17 222.802L1969.91 209.217L1979.42 201.064L1980.78 195.631H1976.7L1973.99 198.35L1954.97 210.576L1941.38 213.295L1940.02 207.861H1935.95L1918.29 216.013L1878.89 229.599L1812.32 251.336L1767.49 264.922L1741.68 273.074L1730.81 278.508L1729.45 283.941L1743.04 281.223L1755.26 278.504L1753.9 282.578L1737.6 290.73L1706.36 300.242L1692.77 307.035L1699.56 300.242V297.523L1696.84 289.371L1684.62 290.73L1698.2 283.938L1705 278.504L1702.28 277.145L1683.26 283.938L1661.52 288.012L1642.5 294.805L1627.56 298.879L1637.07 292.086V288.012L1641.14 285.293L1656.09 282.575L1676.47 274.422L1694.13 267.63L1707.71 262.196L1718.58 256.763L1729.44 247.251L1726.73 244.533L1713.14 247.251L1691.4 258.118L1669.67 264.911L1658.8 263.552L1645.21 267.626L1645.32 267.697L1641.14 268.985L1619.4 278.497L1603.1 283.93L1588.15 289.364L1590.87 285.289L1597.66 278.497L1612.61 277.137L1619.4 273.063L1618.04 267.63H1600.38L1580 270.348L1577.28 271.708L1556.91 273.067L1547.39 275.785L1532.45 281.219L1510.71 289.371L1495.77 296.164L1487.61 298.882L1502.56 289.371L1509.35 282.578L1505.28 281.219L1498.49 286.652L1471.31 297.519L1468.6 302.953L1464.52 304.312L1448.22 311.105L1438.71 316.539L1430.55 320.613L1429.19 316.539H1418.33L1414.25 317.898L1400.67 326.05L1391.16 327.409L1381.64 331.484L1359.91 340.995L1343.6 349.147H1328.66L1327.3 355.94L1323.22 357.299V354.581L1319.15 353.221L1312.36 354.581L1305.56 358.655V362.729L1301.49 365.448V360.014H1294.7L1281.11 365.448L1262.09 373.6L1249.87 379.033L1239 380.393L1233.57 377.674L1230.85 383.107H1225.41L1218.62 385.826L1207.75 388.545L1186.02 399.412L1180.58 404.845L1173.79 408.919V406.201H1168.36L1165.64 411.634H1161.56L1150.7 412.994V408.919L1154.77 402.127L1158.84 400.767L1164.28 396.693L1172.43 392.619L1179.22 383.107L1190.09 377.674L1187.37 384.467L1192.81 387.185L1196.88 381.752L1199.6 376.318L1209.11 373.6V379.033L1215.9 376.315V369.522L1218.62 368.162L1217.26 373.596H1222.7L1225.41 369.522L1224.05 365.448L1226.77 366.807L1233.57 368.166L1241.72 362.733L1243.08 357.299H1239L1237.64 354.581H1241.72L1247.15 350.506L1249.87 355.94H1253.94L1260.74 351.866L1263.46 345.073L1272.97 346.432L1278.4 343.714L1283.83 342.354L1286.55 349.147H1283.83L1278.4 353.221L1264.82 362.733L1266.17 366.807L1272.97 364.088L1283.83 360.014L1290.63 354.581L1291.99 347.788H1289.27L1296.06 334.202L1306.93 331.484L1317.79 326.05H1330.02L1334.1 321.976L1343.61 319.257L1344.97 316.539L1354.48 312.464L1357.2 304.312L1350.4 302.953L1353.12 298.879L1355.84 293.445L1358.56 294.805L1365.35 293.445L1368.07 288.012H1374.86L1378.94 282.578L1387.09 279.86L1397.96 275.785L1407.47 273.067V270.348H1419.69V266.274L1415.62 264.915V259.481L1425.13 258.122L1429.21 263.555L1442.79 264.915L1444.15 270.348H1448.22L1446.87 259.481L1445.51 249.97L1452.3 248.61L1461.81 241.818L1460.45 235.025L1450.94 233.666L1453.66 226.873H1456.38L1463.17 221.439L1468.6 213.287L1476.76 207.854L1484.91 198.342L1480.83 196.983L1478.11 201.057L1468.6 202.416V199.698L1478.11 196.979L1484.91 192.905L1502.57 183.393V179.319L1488.98 183.393L1471.32 190.186L1457.74 194.26L1461.81 191.542L1482.19 183.39L1503.93 171.163L1516.15 163.011L1522.95 156.218L1521.59 148.066L1518.87 146.707L1516.15 148.066L1503.92 153.5L1490.34 152.141L1487.62 149.422L1480.83 150.781V153.5V158.933L1467.24 165.726L1453.65 167.085L1450.94 164.367L1445.5 163.008L1426.48 169.8L1422.41 173.875H1418.33L1415.62 168.441L1422.41 165.722L1430.56 158.93V153.496L1415.62 152.137L1414.26 153.496L1415.62 158.93H1400.67V156.211L1404.75 150.778L1399.31 149.418L1395.24 152.137H1387.09L1385.73 154.855L1373.5 157.574L1346.33 165.726L1324.59 175.238L1279.76 192.897L1262.1 199.69H1252.59V205.124L1245.8 206.483V202.409L1240.36 201.05L1229.5 205.124L1226.78 209.198L1224.06 217.35L1219.98 220.069L1207.76 226.862L1198.25 228.221L1195.53 232.295L1187.38 233.654L1168.36 239.088L1169.72 235.014L1179.23 232.295L1183.3 228.221L1184.66 222.787L1176.51 221.428L1169.72 220.069L1162.92 224.143L1152.06 228.217L1138.47 230.936L1133.04 224.143H1124.88L1109.94 230.936L1101.79 240.447L1084.13 241.806L1077.33 247.24L1063.75 249.959L1056.96 258.111H1050.16L1043.37 260.829L1044.73 256.755L1043.37 251.322H1033.86L1028.43 256.755L1022.99 255.396L1020.27 247.244L1017.56 245.884L1010.76 247.244L1001.25 251.318L998.532 259.47L991.74 255.396L991.062 255.735L990.384 255.396L989.025 256.755V264.907L993.099 273.059L994.458 275.778H1002.61L1014.84 273.059L1016.2 275.778L1005.33 278.497L1001.25 282.571L1002.61 289.364H998.54L989.028 290.723L984.954 289.364L987.673 283.93L989.032 275.778L986.313 273.059L976.802 271.7L972.728 274.419L976.802 264.907L982.236 263.548V260.829H979.517L971.365 262.189L964.572 275.774L960.498 288.001L961.857 293.434L975.443 292.075L972.724 301.586H968.65L961.857 302.946L953.705 307.02L949.631 312.453H940.119L931.967 319.246V326.039L925.174 321.965L911.589 326.039L904.796 330.113L893.929 334.187V331.469L903.44 328.75L908.874 320.598L921.1 315.164L929.252 309.731L930.612 304.297L919.745 307.016V298.864L926.537 300.223L925.178 292.071L929.252 293.43L934.686 287.997L933.326 285.278L926.534 283.919L922.459 289.352L904.8 294.786L902.081 300.219L908.874 304.294L907.514 313.805H899.362L893.929 316.524L887.136 317.883L884.417 326.035H874.906L865.395 330.109L859.961 338.261L866.754 339.621L878.98 334.187L890.428 335.226L887.132 339.621L874.906 340.98L859.961 349.132L858.602 355.925L843.657 364.077L836.864 365.436L838.223 351.851L834.149 343.699H825.997L812.411 350.491L801.544 358.644L794.752 365.436V370.87L801.544 369.511L798.826 376.303L801.544 377.663L806.978 376.303V373.585H809.697L819.208 368.151L826.001 366.792V370.866H820.567L815.134 373.585L802.907 380.378L785.248 389.889L781.173 398.041L774.381 403.475L771.662 408.908L778.455 411.627L781.173 417.06L771.662 415.701L770.303 410.267L764.869 407.549L758.076 406.19L755.358 411.623L749.924 410.264L737.698 411.623L726.831 422.49L707.812 427.924L691.508 436.076L673.848 446.943L660.262 457.81L658.903 464.603L661.621 468.677H669.774L679.285 464.603H690.152L695.585 465.962V471.395H691.511L686.078 475.47L679.285 482.262H671.133L672.492 478.188L682.004 475.47L684.722 467.317L676.57 468.677L652.117 479.544L643.965 486.337L635.813 487.696L631.739 482.262L618.153 483.622L616.794 486.34L611.361 487.7V482.266L601.849 487.7L600.49 495.852V506.719H592.338L586.904 504L580.212 502.887L581.471 489.059H586.904L590.978 486.34L593.697 475.473L599.13 476.833L603.205 475.473V465.962L609.998 461.888V456.454L607.085 455.482L605.99 454.607L607.279 445.583H603.205L599.13 449.658L590.978 453.732V457.806H597.771V460.525L592.338 463.243L588.263 470.036L578.752 472.755L562.448 482.266L555.655 487.7L548.862 490.418L532.558 498.57L517.613 508.082L504.027 517.593L497.235 520.312L483.649 528.464L461.911 539.331L456.478 540.69L453.759 533.898H449.685V539.331L452.404 543.405L445.611 546.124L438.818 550.198L437.459 555.632H434.74L403.495 573.291L374.964 588.236L368.171 593.67L343.719 607.255L321.981 619.482L308.395 630.349L304.321 637.142L316.547 639.86L319.266 634.427H321.985L336.929 627.634L335.57 633.067L317.91 639.86L315.192 643.934L302.965 652.087L300.247 657.52L304.321 664.313L307.04 665.672L308.399 662.954L319.266 664.313L321.985 657.52L313.832 654.801V650.727L324.699 649.368L326.059 652.087H330.133L328.774 645.294L334.539 638.378L345.078 634.427L344.907 634.341L349.152 633.067L354.586 631.708L350.511 634.427V637.145L355.945 638.505L358.663 631.712L358.436 631.034L360.023 626.278L366.816 622.204L384.475 616.771L385.835 612.696H388.553L389.913 607.263H392.631L407.576 599.111V596.392L414.369 595.033L417.088 590.959L430.673 581.447L433.392 574.654L442.903 573.295L456.489 566.502L468.715 556.991L478.227 552.917L485.019 543.405L491.812 540.687V537.968L497.246 539.327L486.379 546.12V550.194H490.453L497.246 547.476L512.191 540.683L517.624 535.249L527.136 532.531L539.362 524.379L555.666 516.227L561.245 512.793L562.459 512.149L575.829 504.857L577.65 504.492L584.197 517.582L577.404 514.863H570.611L563.818 517.582L558.385 521.656L548.873 525.731L548.602 526.546L547.514 527.09V529.808L546.155 533.883L540.721 539.316H528.495L517.628 543.39L512.194 548.824L504.042 551.542L491.816 559.695L479.59 566.487L472.797 573.28L459.211 580.073L457.852 574.64H453.778L448.344 578.714L444.27 586.866L437.477 588.225L434.759 593.659H441.551L446.985 589.584V592.303L444.266 599.096L434.755 601.814L423.888 608.607L419.814 612.681L411.662 616.756L403.509 615.396L402.15 624.908L395.357 627.626L392.851 633.477L392.642 633.06L391.283 637.134L383.131 639.853L380.412 645.286L384.487 646.646L392.639 642.571L395.357 638.497L404.869 637.138L407.587 630.345H418.454L421.173 628.986L426.607 630.345L427.966 635.779L418.454 645.29L419.814 654.801L417.095 657.52L415.736 665.672L422.529 667.031L434.755 658.879H445.622L448.341 657.52L459.208 650.727L483.66 641.216L490.453 643.934L497.246 641.216L502.679 638.497L499.961 642.571L494.527 645.29L482.301 650.723L476.867 656.157L464.641 658.876L453.774 664.309L451.055 673.821L446.981 676.539L444.263 683.332H441.544L434.751 688.766L432.033 694.199H429.314L427.955 696.918L422.521 699.636L421.162 696.918H417.088L414.369 705.07L404.858 710.503L402.139 709.144L395.346 710.503L393.987 715.937H399.42L398.061 720.011L391.268 724.085L385.835 730.878L373.608 737.671L369.534 741.745L347.796 758.049L334.211 764.842L331.492 770.276L326.059 774.35L312.473 775.709V782.502L296.169 793.369H286.657L281.224 797.443L278.505 804.236L275.787 805.595L270.353 804.236L262.201 802.877L259.482 808.31L252.69 809.669L230.952 823.255L217.366 828.689V824.614H220.085L228.237 819.181L233.671 811.029L232.311 804.236L237.745 802.877L241.819 805.595V797.443L240.46 790.65L228.233 787.932L218.722 789.291V793.365L228.233 794.724L222.8 800.158L218.726 812.384L206.499 816.459L194.273 821.892L173.894 836.837L158.95 847.704L134.497 862.649L101.892 881.668L80.1544 892.535L72.0023 903.402L54.3425 914.269L42.1162 922.421L38.042 930.573L39.4013 936.007H46.1941L57.0611 922.421L76.0802 908.836L97.818 895.25L95.0994 903.402L88.3066 906.121L67.9281 919.706L66.5688 926.499L73.3616 930.573L74.7209 945.518L67.9281 955.03L65.2095 961.822H69.2837L84.2286 952.311L104.607 937.366L114.119 931.933L110.044 941.444L100.533 950.955L81.5137 965.9L51.6239 990.353L54.3425 991.712L72.0023 980.845L91.0214 967.26L104.607 956.393L115.474 948.241L124.986 944.166L123.626 949.6H120.908L115.474 953.674L103.248 967.26L91.0214 976.771L77.4358 987.638L67.9244 990.357L54.3388 999.868L29.8861 1014.81L16.3005 1027.04L5.4335 1036.55L6.7928 1050.14L0 1054.21L1.3593 1059.64H9.51143L29.8899 1050.13L28.5306 1052.85L14.9449 1062.36L13.5856 1067.8H19.0191L28.5306 1062.36L44.8348 1056.93L43.4755 1059.65L20.3784 1074.59L17.6598 1080.03L25.8119 1085.46L38.0383 1082.74L51.6239 1078.67V1081.39L65.2095 1078.67L66.5688 1084.1H70.643L85.5879 1078.67L95.0994 1077.31L92.3807 1084.1H96.455L97.4754 1082.83L97.8142 1082.74L98.6298 1081.38L101.892 1077.31H110.044L112.763 1080.03L120.915 1078.67L134.501 1070.51L156.238 1059.65L168.465 1056.93H182.05L176.617 1061L169.824 1066.44L165.75 1075.95L160.316 1080.02L157.598 1085.46H163.031L168.465 1082.74L160.313 1093.6L156.238 1100.4L146.727 1111.26L144.008 1118.06L139.934 1119.42L137.216 1127.57L129.063 1137.08L130.423 1142.51L149.442 1145.23L150.801 1150.67H148.083L145.364 1154.74L144.005 1161.53H150.797L156.231 1157.46L161.664 1150.67L168.457 1143.87H179.324L182.043 1137.08L190.195 1130.29L207.855 1116.7L220.081 1111.27V1104.48L229.593 1094.96L239.104 1093.6V1099.04H236.385L228.233 1105.83L225.515 1111.26L220.081 1112.62V1119.42H225.515L228.233 1115.34L240.46 1107.19L251.327 1094.96L258.119 1088.17L273.064 1075.94L278.498 1067.79L283.931 1065.07L282.572 1070.51L283.931 1073.23L293.443 1066.43L289.369 1074.59L282.576 1078.66V1075.94H279.857L275.783 1080.02L267.631 1086.81L264.912 1094.96L256.76 1093.6L255.401 1099.03L249.967 1105.83L237.741 1115.34L236.382 1120.77L243.174 1123.49V1130.28L245.893 1133L247.252 1145.23L241.819 1150.66V1153.38L236.385 1156.1L233.667 1161.53L244.534 1156.1L258.119 1145.23L273.064 1128.93L274.424 1131.65L268.99 1139.8L228.233 1180.56L207.855 1196.86L196.988 1205.01L183.402 1215.88L177.969 1222.67L183.402 1224.03L188.836 1221.31L192.91 1217.24L195.629 1218.6L202.421 1215.88L202.876 1214.97L211.933 1210.45L225.518 1199.58L228.237 1194.14L222.804 1195.5L214.651 1200.94V1196.86H217.37L228.237 1188.71L263.56 1156.11L278.505 1146.6V1149.31L273.072 1153.39L260.845 1169.69L249.978 1180.56L235.034 1191.43L232.315 1199.58L225.522 1207.73L222.804 1215.88L214.651 1217.24L203.784 1222.68L196.992 1228.11L184.765 1234.9L183.406 1241.69H187.48L194.273 1236.26H195.632V1240.34L206.499 1238.98L205.14 1247.13L210.573 1252.56L209.214 1260.71L211.933 1268.87H218.726L217.366 1277.02L222.8 1281.09L239.104 1282.45L237.745 1289.24L241.819 1293.32H245.368L245.357 1293.34L250.79 1294.7L251.137 1293.32H251.327L258.119 1291.96L274.424 1285.17L273.064 1289.24L267.631 1294.67L266.272 1300.11H275.783L274.424 1306.9L275.783 1317.77L268.99 1323.2L267.631 1328.63H271.705L275.779 1325.92L289.365 1324.56L290.188 1323.73V1325.93H295.804L294.802 1327.27L293.443 1332.71L302.954 1334.06L297.521 1350.37L293.446 1355.8L294.806 1361.24L298.88 1362.59V1366.18L296.336 1368.03H296.165L286.654 1373.46L286.345 1375L264.38 1388.43L231.775 1407.44L210.037 1418.31L201.885 1429.18L184.225 1440.05L171.999 1448.2L167.925 1456.35L169.284 1461.78H176.077L186.944 1448.2L198.351 1440.05V1441.38H201.069L202.064 1437.4L205.967 1434.61L227.704 1421.03L224.986 1429.18L218.193 1431.9L197.815 1445.48L196.455 1452.28L203.248 1456.35L204.607 1471.29L197.815 1480.81L195.096 1487.6H199.17L214.115 1478.09L228.967 1467.2H232.315L231.797 1465.12L234.497 1463.15L244.009 1457.71L239.935 1467.22L230.423 1476.74L211.404 1491.68L181.514 1516.13L184.233 1517.49L189.122 1514.48L191.566 1516.11V1518.83L180.698 1526.98V1527.81L173.008 1532.51L172.546 1532.42L171.586 1533.38L169.791 1534.47L160.316 1539.21V1540.26L159.78 1540.59L146.194 1552.82L135.327 1562.33L136.687 1575.91L129.894 1579.99L131.253 1585.42H139.405L159.784 1575.91L158.424 1578.63L144.839 1588.14L143.48 1593.57H148.913L158.424 1588.14L174.729 1582.71L173.369 1585.42L150.272 1600.37L147.554 1605.8L155.706 1611.24L167.932 1608.52L181.518 1604.44V1607.16L195.103 1604.44L196.463 1609.88H200.537L215.482 1604.44L224.993 1603.08L222.275 1609.88H226.349L227.369 1608.6L227.708 1608.52L228.524 1607.16L231.786 1603.08H239.938L242.657 1605.8L250.809 1604.44L264.395 1596.29L286.132 1585.42L298.359 1582.71H311.944L306.511 1586.78L299.718 1592.21L295.644 1601.73L293.465 1603.36V1603.06L288.032 1601.7V1609.85L288.11 1610.01L287.495 1611.24H288.724L289.391 1612.57L293.465 1611.21V1610.97L298.362 1608.52L290.21 1619.38L286.136 1626.18L276.625 1637.04L273.906 1643.84L269.832 1645.2L267.113 1653.35L258.961 1662.86L260.32 1668.29L279.34 1671.01L280.699 1676.45H277.98L275.262 1680.52L273.902 1687.31H280.695L286.129 1683.24L291.562 1676.45L298.355 1669.65H309.222L311.941 1662.86L320.093 1656.07L337.752 1642.48L349.979 1637.05V1630.26L359.49 1620.74L369.002 1619.38V1624.82H366.283L358.131 1631.61L355.412 1637.04L349.979 1638.4V1645.2H355.412L358.131 1641.12L370.357 1632.97L381.224 1620.74L388.017 1613.95L402.962 1601.73L408.396 1593.57L413.829 1590.85L412.47 1596.29L413.829 1599.01L423.34 1592.21L419.266 1600.37L412.473 1604.44V1601.72H409.755L405.681 1605.8L397.528 1612.59L394.81 1620.74L386.658 1619.38L385.298 1624.81L379.865 1631.61L367.639 1641.12L366.279 1646.55L373.072 1649.27V1656.06L375.791 1658.78L377.15 1671.01L371.717 1676.44V1679.16L366.283 1681.88L363.564 1687.31L374.431 1681.88L388.017 1671.01L402.962 1654.71L404.321 1657.43L398.888 1665.58L358.131 1706.34L337.752 1722.64L326.885 1730.79L313.3 1741.66L307.866 1748.45L313.3 1749.81L318.733 1747.09L322.808 1743.02L325.526 1744.38L332.319 1741.66L332.773 1740.75L341.83 1736.23L355.416 1725.36L358.135 1719.93L352.701 1721.28L344.549 1726.72V1722.64H347.268L358.135 1714.49L393.458 1681.89L408.403 1672.38V1675.09L402.969 1679.17L390.743 1695.47L379.876 1706.34L364.931 1717.21L362.213 1725.36L355.42 1733.51L352.701 1741.66L344.549 1743.02L333.682 1748.46L326.889 1753.89L314.663 1760.68L313.304 1767.47H317.378L324.171 1762.04H325.53V1766.12L336.397 1764.76L335.038 1772.91L340.471 1778.34L339.112 1786.49L341.83 1794.65H348.623L347.264 1802.8L352.697 1806.87L369.002 1808.23L367.642 1815.02L371.717 1819.1H381.228L388.021 1817.74L404.325 1810.95L402.966 1815.02L397.532 1820.45L396.173 1825.89H405.684L404.325 1832.68L405.684 1843.55L398.892 1848.98L397.532 1854.41H401.606L405.681 1851.7L419.266 1850.34L420.626 1848.98L432.852 1842.18L424.7 1853.05L423.34 1858.49L432.852 1859.84L427.418 1876.15L423.344 1881.58L424.703 1887.02L428.778 1888.38V1893.81H426.059L416.548 1899.24L415.188 1906.03H421.981L420.622 1912.83H424.696L426.055 1908.75H430.13L431.489 1903.32V1899.25H441L445.074 1895.17L438.282 1908.76L431.489 1912.83L428.77 1918.26L415.185 1920.98V1927.78L412.466 1930.5L401.599 1934.57L402.958 1925.06L400.24 1916.91H397.521L393.447 1922.34V1927.77L396.165 1934.57H392.091L385.298 1938.64L382.58 1944.07L371.713 1946.79L367.639 1959.02H373.072L383.939 1960.38L385.298 1967.17L370.353 1979.4V1983.47L386.658 1980.75L393.451 1983.47L401.603 1976.68L420.622 1973.96L419.263 1979.39L407.036 1990.26L393.451 1994.33H382.531L378.457 1997.05L366.231 2002.49L362.157 2009.28L360.797 2016.07L363.516 2018.79L364.875 2026.94L355.364 2031.02L356.723 2026.94L359.442 2021.51L355.368 2017.43L349.934 2016.08L344.501 2021.51L340.426 2022.87L326.841 2029.66V2032.38L332.274 2033.74V2037.81L322.763 2039.17V2036.45L317.329 2039.17L321.404 2041.89V2044.61L310.537 2052.76V2059.55L305.103 2058.2L304.083 2058.53L302.384 2058.2L301.025 2059.55L290.158 2064.99V2069.06L291.179 2070.08L291.517 2071.78L293.327 2072.24L294.232 2073.14L295.592 2072.8L296.951 2073.14L298.582 2072.05L299.67 2071.78L305.103 2067.71L309.177 2064.99L315.97 2062.27L329.556 2055.48L334.989 2050.04L341.782 2044.61L355.368 2043.25L366.235 2032.38L375.746 2033.74L381.18 2039.18H383.898L392.05 2029.67L390.691 2025.59L392.05 2021.52L404.277 2018.8L409.71 2009.29L421.936 2006.57L426.011 2002.49L442.315 1997.06V1994.34L446.389 1995.7L447.748 2002.49H457.26L458.619 1995.7L454.545 1994.34L455.904 1991.62L464.056 1987.55L468.131 1980.76L472.205 1978.04L483.072 1975.32L488.505 1969.89L493.939 1968.53L492.579 1972.6L483.068 1978.03L481.709 1984.83L484.427 1988.9H481.709L474.916 1992.97L473.557 1999.77H477.631L483.064 1997.05L489.857 1995.69L491.216 2003.84L491.488 2003.03L492.576 2007.92L503.443 2009.28L504.802 2020.14H511.595L517.028 2016.07L533.333 2006.56L546.918 1997.05L557.785 1991.61L574.089 1980.74L583.601 1975.31L597.187 1967.16L618.924 1956.29L633.869 1945.43L640.662 1942.71L648.814 1935.91L663.759 1927.76L690.93 1908.74L708.59 1897.88L734.402 1881.57L752.062 1877.5L761.573 1872.06L773.8 1863.91L784.667 1854.4L798.252 1842.17L811.838 1835.38L826.783 1829.95L834.935 1824.51L848.521 1815L855.313 1809.57L874.333 1795.98L879.766 1790.55L868.899 1791.91L870.258 1789.19L879.77 1782.4L897.43 1770.17L913.734 1762.02L931.394 1760.66L939.546 1757.94L947.698 1756.58L950.417 1762.02L939.55 1770.17L935.475 1776.96L942.268 1775.6H955.854L973.514 1766.09L970.795 1789.19L938.19 1805.49L935.472 1810.92L930.038 1815L913.734 1824.51L897.43 1832.66L883.844 1836.74L877.051 1844.89L874.333 1850.32L867.54 1853.04V1847.61H860.747L844.443 1858.47V1862.55L849.876 1861.19L848.517 1863.91L834.931 1872.06L825.42 1881.57L813.193 1888.36L807.76 1893.8L799.608 1896.52L788.741 1901.95L773.796 1912.82L765.644 1914.18L768.362 1907.38L761.57 1908.74L733.039 1925.05L709.942 1939.99L697.716 1944.07L696.356 1939.99L700.431 1935.92L707.223 1927.77L703.149 1926.41L697.716 1929.12L693.641 1935.92L689.567 1937.28L675.982 1945.43L661.037 1959.01L658.318 1965.81L652.885 1968.53L639.299 1976.68L628.432 1988.9L620.28 1992.98L613.487 1998.41L602.62 1999.77L599.901 2006.56L594.468 2012L583.601 2021.51L574.089 2024.23L565.937 2029.66L559.145 2036.45L555.07 2045.97L548.278 2048.68L531.973 2051.4L533.333 2058.2L540.125 2060.91L548.278 2059.55L550.996 2052.76L555.07 2055.82V2064.99H567.297L564.578 2073.14L544.2 2074.5L534.688 2082.65L521.103 2084.01L511.684 2087.54L510.236 2085.37L504.802 2084.01L506.161 2078.57L498.009 2077.21L496.65 2084.01H491.216L477.631 2090.8L478.99 2096.23L485.783 2097.59L489.857 2098.95L496.65 2101.67L503.443 2103.03L508.876 2100.31L515.669 2098.95L518.388 2103.03L522.462 2101.67L521.103 2092.16L523.821 2093.52H531.973L536.047 2090.8L545.559 2089.44L544.2 2092.16L544.587 2092.35L544.2 2093.52L546.14 2093.13L546.914 2093.52L548.441 2092.67L550.989 2092.16L555.648 2088.66L559.141 2086.72L560.046 2085.36L561.856 2084L562.102 2082.28L564.571 2078.57L574.082 2075.85L587.668 2067.7V2060.91L593.101 2056.83V2063.63L599.894 2062.27L613.48 2051.4L627.065 2044.61L631.139 2039.17L635.214 2037.81L648.799 2029.66L659.666 2021.51L655.592 2020.15L648.799 2022.87L650.159 2018.79L661.026 2012L673.252 2009.28L674.611 2012L682.763 2006.57L685.482 2001.13L697.708 1999.78L720.805 1984.83L734.391 1976.68L762.921 1957.66L787.374 1942.71L790.093 1940.45L792.811 1938.64L793.199 1937.87L795.526 1935.92L809.112 1927.77L826.772 1915.55L833.564 1908.75L829.49 1907.39L826.772 1911.47L811.827 1919.62L802.315 1927.77L792.804 1930.49V1920.98L791.445 1919.62L784.652 1918.26L783.292 1912.83H786.011L794.163 1908.75L792.804 1911.47V1919.62L794.163 1920.98L800.956 1922.34L807.749 1918.27L818.616 1911.48L821.334 1906.04H824.053L826.772 1900.61H824.053L822.694 1904.68H813.182L807.749 1907.4L800.956 1908.76V1906.04L809.6 1898.63L824.049 1889.74L847.146 1877.51L862.091 1868L878.396 1863.93V1869.36L879.755 1872.08L885.188 1869.36L887.907 1855.77H890.626V1858.49H896.059L906.926 1853.06L920.512 1844.91L935.457 1835.4L943.609 1834.04L946.327 1836.76L955.839 1835.4L972.143 1831.32H989.803L999.314 1825.89H1004.75H1011.54L1023.77 1821.81L1040.07 1817.74L1036 1821.81L1016.98 1828.61L1015.62 1832.68H1021.05H1030.56L1042.79 1828.61L1057.73 1825.89L1060.45 1823.17L1063.17 1816.38H1069.96L1071.32 1810.94L1067.25 1809.58L1074.04 1805.51L1088.99 1804.15L1091.71 1798.72L1102.57 1800.08H1113.44L1110.72 1804.15L1102.57 1805.51V1809.58L1105.29 1816.38H1109.36L1116.16 1810.94L1121.59 1813.66L1127.02 1812.3L1133.82 1801.44L1139.25 1800.08V1793.28H1141.97L1150.12 1789.21L1165.06 1785.13L1171.86 1779.7L1170.5 1771.55H1173.22L1174.58 1766.12L1170.5 1760.68H1175.93L1177.29 1766.12L1182.73 1768.83L1178.65 1772.91L1177.29 1776.98H1189.52L1196.31 1774.26L1203.11 1768.83H1211.26L1212.62 1764.76L1207.18 1763.4L1208.54 1759.32L1220.77 1755.25L1226.2 1751.17L1233 1747.1V1738.95L1242.51 1737.59L1247.94 1732.16L1254.73 1729.44L1256.09 1734.87L1260.17 1736.23L1264.24 1729.44L1269.68 1728.08L1272.39 1725.36L1285.98 1724L1287.34 1719.93H1290.06L1294.13 1724L1302.28 1722.64L1317.23 1714.49L1322.66 1710.41L1348.47 1698.19L1355.27 1692.75L1368.85 1687.32L1370.21 1679.17L1363.42 1676.45L1349.83 1681.88V1679.16H1352.55L1362.06 1672.37L1374.29 1665.58H1382.44L1389.23 1661.5L1409.61 1653.35L1424.56 1647.92L1432.71 1646.56L1434.07 1651.99L1428.64 1660.15V1668.3L1431.35 1669.66L1435.43 1668.3L1438.15 1661.5L1443.58 1660.15L1444.94 1653.35L1449.01 1651.99L1447.65 1660.15L1459.88 1658.79L1469.39 1656.07L1480.26 1651.99L1485.69 1647.92L1510.15 1634.33L1518.3 1632.97L1519.66 1635.69H1523.73L1529.16 1632.97L1535.96 1627.54V1620.75L1529.16 1611.24L1523.73 1612.6L1522.37 1618.03H1516.94L1518.3 1613.96L1525.09 1609.88H1540.04V1599.01L1544.11 1601.73H1549.54L1548.18 1594.94L1554.98 1596.3L1559.05 1593.58H1567.2L1569.92 1590.86H1578.07L1594.38 1586.79L1603.89 1585.43L1612.04 1581.35L1610.68 1585.43L1605.25 1586.79L1601.17 1588.15L1590.31 1593.58L1586.23 1600.37L1584.87 1607.17L1590.31 1608.53L1593.03 1605.81L1605.25 1601.73L1613.4 1597.66L1633.78 1588.15L1640.58 1584.07L1647.37 1578.64L1646.01 1571.85H1636.5L1633.78 1573.21L1635.14 1569.13L1640.57 1565.06L1651.44 1555.55L1659.59 1550.11L1667.74 1551.47L1669.1 1548.75L1674.54 1543.32L1693.56 1537.89L1716.65 1529.73L1724.8 1524.3L1745.18 1516.15L1742.46 1522.94L1732.95 1531.09L1724.8 1535.17L1712.57 1540.6L1711.22 1546.03H1715.29L1737.03 1537.88L1749.25 1535.16L1758.76 1528.37L1760.12 1524.3L1756.05 1520.22V1508L1760.12 1501.2L1758.76 1490.34L1761.48 1483.54L1781.86 1475.39L1791.37 1471.32L1794.09 1467.24L1792.73 1463.17L1777.79 1465.89L1765.56 1471.32L1758.77 1472.68L1756.05 1469.96L1757.41 1456.38H1764.2L1761.48 1460.45L1762.84 1464.52L1768.28 1465.88L1769.64 1463.17L1773.71 1455.01L1776.43 1457.73H1779.15L1784.58 1453.66L1791.37 1444.15L1798.17 1437.35L1796.81 1431.92L1800.88 1429.2L1817.19 1425.13L1829.41 1421.05L1843 1415.62L1845.72 1408.83L1856.58 1402.03L1871.53 1396.6L1882.39 1392.53L1891.91 1388.45L1901.42 1381.66H1920.44V1384.38L1913.64 1385.74L1909.57 1388.46L1901.42 1397.97L1895.98 1404.76V1411.55L1898.7 1416.99L1905.5 1418.35L1908.21 1411.55L1912.29 1410.19L1910.93 1415.63L1912.29 1422.42H1919.08L1927.23 1418.35L1929.95 1412.91L1936.74 1410.19L1939.46 1404.76L1935.39 1399.33L1944.9 1397.97L1946.26 1391.17H1950.33V1403.4H1955.77L1958.49 1393.89L1963.92 1392.53V1395.25L1969.35 1397.97L1984.3 1392.53L1988.37 1387.1H1992.45L1999.24 1389.82L1995.17 1393.89L1981.58 1402.04H1967.99L1966.63 1403.4L1963.92 1412.92L1953.05 1421.07L1940.82 1423.79L1939.46 1426.5L1940.82 1434.66L1953.05 1431.94L1957.12 1427.86L1966.63 1425.15L1977.5 1419.71L1984.29 1414.28L1993.81 1412.92L1999.24 1407.49L2004.67 1404.77L2006.03 1402.05L2012.83 1399.33L2018.26 1404.76H2023.69L2026.41 1396.61L2031.84 1387.1L2033.2 1381.67H2027.77L2004.67 1388.46L2006.03 1385.74L2011.47 1383.02L2022.33 1373.51L2035.92 1366.72L2042.71 1364L2053.58 1359.92H2061.73L2063.09 1355.85L2061.73 1347.7L2057.64 1342.28L2049.49 1343.64L2030.47 1353.15L2027.75 1362.67L2022.32 1364.02L2018.25 1359.95L2012.81 1361.31L1995.15 1366.74L2000.59 1361.31L2010.1 1358.59L2012.82 1355.87L2011.46 1351.8L2012.82 1342.29H2006.02L1993.8 1345.01L1987.01 1349.08L1969.35 1354.51L1970.71 1346.36L1966.63 1347.72V1350.44H1963.91V1353.16L1959.84 1351.8L1962.56 1347.72L1965.28 1339.57H1973.43L1978.86 1342.29L1985.65 1332.78L1992.45 1328.71H2003.31L2004.67 1324.63L2000.6 1323.27L2003.32 1311.05L2004.68 1305.61L2000.6 1302.89L2001.96 1298.82L2000.6 1290.67L2006.04 1289.31L2007.4 1283.87H1999.24V1279.8L2003.32 1277.08L2004.68 1273.01L1989.73 1274.37L1991.09 1271.65L2000.6 1266.21L2037.29 1255.35L2045.44 1251.27L2040 1249.91L2029.97 1252.9L2014.17 1255.34L2015.53 1252.62L2029.11 1244.47L2057.64 1230.88V1234.95H2061.72L2071.23 1229.52H2084.82L2095.68 1224.09L2124.21 1217.29V1221.37L2132.37 1233.59L2143.23 1241.75L2144.59 1247.18H2141.87L2140.51 1249.9V1258.05L2144.59 1262.13L2154.1 1260.77L2155.46 1252.61L2152.74 1247.18L2154.1 1241.75L2159.53 1243.11L2163.61 1253.97L2170.4 1256.69L2171.76 1240.39L2174.48 1239.03H2186.7L2189.42 1240.39L2203.01 1244.46L2208.44 1230.88V1220.01L2201.65 1206.42L2196.22 1194.2L2201.65 1188.76L2224.75 1176.54L2231.54 1168.39L2247.84 1157.52L2254.64 1152.08L2251.92 1146.65L2249.2 1138.5H2251.92L2260.07 1134.42V1128.99L2249.2 1131.71L2254.64 1122.2V1114.05L2247.84 1108.61L2250.56 1099.1L2251.92 1089.59L2250.56 1088.23L2238.34 1090.95L2205.73 1103.18V1100.46H2208.45V1097.74H2211.17L2223.39 1089.59L2242.41 1078.72L2245.13 1073.29L2239.7 1070.57L2232.91 1061.06H2230.19V1058.34L2228.83 1052.9H2213.88L2217.96 1048.83L2236.98 1040.68L2239.7 1035.24H2236.98L2234.26 1036.6L2216.6 1043.4V1040.68H2219.32L2232.9 1032.53L2251.92 1016.22L2258.71 1013.5L2269.58 1012.14L2270.94 1005.35H2273.66L2281.81 998.557L2283.17 987.69L2285.89 984.972L2289.96 978.179L2288.6 963.234L2295.4 955.082L2299.47 948.289L2308.98 934.703L2307.62 930.629L2300.83 933.355ZM2245.13 835.537H2257.35V839.611L2245.13 843.686L2241.05 839.611L2245.13 835.537ZM2115.24 309.749H2127.46V313.824L2115.24 317.898L2111.16 313.824L2115.24 309.749ZM2077.2 528.479L2082.63 529.838L2074.48 533.912L2077.2 528.479ZM1884.28 715.963L1885.64 713.244L1889.72 714.603L1884.28 715.963ZM1891.08 285.297L1912.81 274.43H1915.53V277.148L1911.46 281.223L1895.15 289.375L1880.21 294.808L1877.49 293.449L1891.08 285.297ZM1635.67 277.145L1649.25 270.352L1658.76 268.993L1653.33 271.711L1654.96 272.255L1642.46 278.504L1635.67 279.863V277.145H1635.67ZM1414.22 176.612H1416.94L1418.3 179.33L1412.86 180.69L1414.22 176.612ZM1376.18 190.197L1378.9 188.838H1381.62V192.912L1376.19 194.272V190.197H1376.18ZM1358.52 202.424H1362.59V205.142H1358.52V202.424ZM1347.65 206.498H1351.73L1353.08 210.572H1346.29L1347.65 206.498ZM1316.41 313.827H1320.48V317.902H1316.41V313.827ZM1301.46 323.335L1298.74 324.694L1296.02 323.335L1297.38 319.261H1301.46V323.335H1301.46ZM1283.8 235.029L1294.66 230.954H1298.74L1297.38 233.673L1286.51 237.747L1281.08 239.106L1283.8 235.029ZM1253.91 345.073H1256.63V350.506H1252.56L1253.91 345.073ZM1160.17 237.747H1164.24L1162.88 241.821L1157.45 243.181L1160.17 237.747ZM999.858 268.993L996.752 268.218L995.78 266.278L998.499 262.204L998.838 260.844H1001.21L1002.57 267.637L999.858 268.993ZM1013.44 256.766H1010.73V254.048H1013.44V256.766ZM406.165 590.974L403.446 593.692L392.579 600.485L380.353 604.559L373.56 611.352L361.334 615.426L355.9 620.86L345.033 627.653L340.277 626.465L339.793 626.1L349.107 616.782L366.767 605.915L380.353 597.763L388.505 595.044L400.731 586.892H406.165V590.974ZM422.469 580.107H414.317L418.391 574.673H425.184L422.469 580.107ZM452.355 558.369V555.65L455.074 554.291L459.148 555.65L452.355 558.369ZM524.361 520.327V516.253L527.08 513.534H529.798L531.158 520.327H524.361ZM542.021 514.893L536.587 516.253L535.228 509.46L540.662 505.386H543.38L544.74 510.819L542.021 514.893ZM433.336 624.938H436.055L437.414 629.012L431.98 630.371L433.336 624.938ZM446.922 645.316V653.468L441.488 654.827L438.769 648.035L431.977 646.675V643.957L444.203 631.73L448.277 633.09L449.636 638.523L446.922 645.316ZM452.355 623.578L444.203 624.938V622.219L449.636 619.5L452.355 611.348H456.429L457.789 616.782L452.355 623.578ZM467.3 615.43H461.867L463.226 605.918L468.659 607.278L467.3 615.43ZM476.811 608.637L472.737 607.278V603.204L479.53 597.77L480.889 600.489L476.811 608.637ZM494.471 620.863V618.145L497.19 616.786L498.549 619.504L494.471 620.863ZM491.753 593.692V596.411L483.601 597.77V593.696L489.034 589.622L495.827 590.981L498.545 595.055L491.753 593.692ZM78.7504 1063.76L66.5241 1073.27L58.372 1074.63L62.4462 1070.55L76.0318 1061.04H78.7504V1063.76ZM124.941 1069.19L126.3 1066.47L127.659 1069.19H124.941ZM263.516 1179.23L258.082 1180.59L260.801 1175.16H263.519L263.516 1179.23ZM393.402 1705.02L387.969 1706.38L390.687 1700.95H393.406L393.402 1705.02ZM397.476 1971.3L390.684 1972.66V1965.87L393.402 1963.15L402.914 1960.43L404.273 1963.15L397.476 1971.3ZM564.582 2054.17H560.508L561.867 2048.74H564.585L564.582 2054.17ZM631.151 2037.87H627.076L625.717 2033.8L629.791 2029.72L632.365 2030.58L631.151 2037.87ZM642.018 2028.36L638.558 2028.85L636.58 2028.36L640.655 2022.92H646.088L642.018 2028.36ZM696.36 1995.75L690.927 1997.11L689.567 1986.25L690.927 1984.89L696.36 1990.32V1995.75ZM733.043 1969.94L731.683 1967.22H734.402L733.043 1969.94ZM731.683 1955L726.25 1961.79L714.024 1969.94L711.305 1975.37L715.379 1978.09L714.02 1982.17L709.946 1983.53V1986.25L703.153 1987.6L701.794 1982.17L705.868 1976.74L701.794 1972.66L703.153 1965.87H700.434L692.282 1969.94L693.641 1975.38L692.282 1980.81L681.415 1982.17L680.056 1983.53L667.83 1987.6L658.318 1994.4L655.6 1999.83H650.166L643.373 2001.19L637.94 2007.98L621.635 2017.49L608.05 2021.57V2024.29L601.257 2029.72L594.464 2033.8L593.105 2036.51L598.538 2035.15L608.05 2036.51L609.409 2031.08H612.128L613.487 2035.15H616.206L617.565 2039.23L606.698 2046.02H598.546L594.472 2048.74L583.605 2050.1L582.245 2041.95H572.734L574.093 2037.87L580.886 2031.08L594.472 2025.65L599.905 2021.57L608.057 2018.85L620.284 2009.34L631.151 2003.91L648.81 1993.04L656.963 1986.25L667.83 1979.46L674.622 1975.38L685.489 1967.23L697.716 1960.44L707.227 1952.28L715.379 1949.57L726.246 1937.34L735.758 1938.7L739.832 1945.49L741.191 1952.28L731.683 1955ZM776.515 1930.54L771.081 1933.26L761.57 1942.77L760.21 1953.64L750.699 1956.36L753.417 1944.13L747.984 1942.77L745.265 1937.34H741.191L739.832 1933.27L746.625 1926.47L760.21 1915.61H764.284L761.566 1919.68L760.207 1926.47L762.925 1927.83H776.511V1930.54H776.515ZM784.667 1933.26L786.026 1927.82L790.1 1929.18L788.741 1933.26L789.043 1933.41L788.741 1934.62L786.022 1937.34L779.229 1941.41V1935.98L784.667 1933.26ZM2019.6 1389.83H2023.68V1393.91L2019.6 1395.27V1389.83ZM1730.23 1384.4H1727.51L1728.87 1380.33L1730.23 1384.4ZM1723.44 1415.65H1726.16V1418.36L1723.44 1419.72V1415.65ZM512.135 584.181L513.494 580.107H516.213V582.825L512.135 584.181ZM505.342 588.259L508.061 586.899H509.42L510.779 590.974L506.705 593.692L505.342 588.259ZM345.029 1330.03L343.67 1335.47L332.997 1343.77L330.695 1344.79L326.007 1343.62L324.647 1338.19L331.44 1332.75L338.233 1328.68L345.029 1330.03ZM882.485 1721.32L900.145 1710.45L908.297 1703.66H911.015V1709.1L902.863 1714.53L885.203 1725.4L879.77 1728.11L878.411 1724.04L882.485 1721.32ZM1825.87 811.062L1828.59 813.781L1827.17 816.608L1826.69 815.163L1816.36 816.31V815.572L1825.37 811.062H1825.87ZM1719.9 813.777V814.47L1718 815.159L1718.92 813.777H1719.9ZM1893.26 828.744L1897.33 835.537L1892.52 838.211L1892.44 838.234L1888.36 834.159L1882.93 835.519L1865.27 840.952L1870.7 835.519L1880.21 832.8L1882.93 830.081L1882.67 829.288L1886.47 827.385L1893.26 828.744ZM1862.55 802.91H1863.41L1860.65 804.292L1859.29 809.725L1872.88 807.007L1885.1 804.288L1883.74 808.362L1867.44 816.514L1840.09 824.838L1840.8 820.57L1836.73 821.929V824.648H1834.01V827.117L1833.72 827.266L1829.94 826.007L1832.66 821.933L1835.37 813.781H1843.53L1848.96 816.499L1855.75 806.988L1862.55 802.91ZM1690.01 335.565L1694.08 332.847L1707.67 324.694L1734.84 312.468L1756.58 301.601L1763.37 302.96L1767.45 309.753L1755.22 316.546L1747.07 319.265L1742.99 323.339H1733.48L1702.24 334.206L1696.8 338.28H1690.01V335.565ZM1670.99 346.432H1673.71L1675.07 343.714L1677.79 345.073L1673.71 346.432L1672.35 349.151L1666.92 351.869L1670.99 346.432ZM1664.2 351.866L1666.92 353.225L1662.84 354.584L1664.2 351.866ZM1141.15 275.785H1145.22V278.504H1139.79L1141.15 275.785ZM1135.71 279.863H1138.43V282.582L1133 283.941L1135.71 279.863ZM1080.01 449.684L1086.81 445.61L1092.24 440.176L1099.03 437.457L1112.62 429.305L1124.84 423.872L1131.64 425.231V427.95L1128.92 429.309L1116.69 433.383L1111.26 438.817L1097.67 442.891L1094.95 445.61L1086.8 449.684L1080.01 452.402L1080.01 449.684ZM1070.5 456.477H1073.22L1067.79 461.91L1066.43 459.191L1070.5 456.477ZM1054.2 449.684L1055.56 452.402H1051.49L1054.2 449.684ZM1022.96 266.278L1027.03 263.559H1032.46L1029.74 268.993L1022.95 270.352V266.278H1022.96ZM986.272 366.811L993.065 365.451L1008.01 353.225H1009.37L1012.09 358.659L1003.94 361.377L993.069 369.529L986.276 370.889V366.811H986.272ZM868.076 366.811H870.795L872.154 370.885L866.72 372.244L868.076 366.811ZM766.184 505.386H770.258V509.46H764.825L766.184 505.386ZM730.86 543.424H734.935V546.142L730.86 547.502V543.424ZM709.126 442.891L711.845 441.532H714.564V446.965L709.13 448.324L709.126 442.891ZM696.896 456.477H700.971L699.611 460.551H695.537L696.896 456.477ZM555.413 529.257L556.966 528.483V527.395L558.325 525.764L570.552 521.69L571.911 524.408L566.477 529.842V532.561L558.325 533.92V536.638H552.892L552.058 533.294L555.413 529.257ZM574.626 542.065V547.498L571.907 550.217L566.474 551.576V546.142L569.192 542.068L574.626 542.065ZM555.607 547.498H562.399L563.759 561.084L561.04 563.802L559.681 569.236L566.474 567.877L570.548 558.365L577.341 557.006L580.059 574.666L582.778 576.025L585.496 570.591L592.289 571.951V574.669L585.496 580.107L584.137 593.692H580.063L578.704 590.974L567.837 585.54V576.029L561.044 577.388V585.54L555.61 581.466L550.177 573.314V558.369L548.818 552.935L555.607 547.498ZM546.099 595.051L552.892 592.333L559.685 586.899H561.044L562.403 593.692L558.329 597.766L546.103 599.126L546.099 595.051ZM546.099 634.449L551.532 629.016L567.837 620.863V618.145L575.989 614.071L580.063 609.996L600.441 604.563L608.594 600.489L611.312 601.848L607.238 607.282L596.371 614.074L592.297 620.867L586.863 622.226L581.43 619.508V624.941L577.356 623.582L569.203 624.941L567.844 627.66L561.051 629.019L552.899 639.886H555.618L556.977 642.605L547.466 646.679L543.391 650.753L536.599 656.187L528.447 660.261L521.654 658.902V661.62H517.58L518.939 657.546V650.753L525.732 649.394L529.806 642.601L546.099 634.449ZM536.587 584.181L528.435 588.255L521.643 589.614L517.568 581.462L520.287 574.669L529.798 563.802H535.232L536.587 584.181ZM503.983 558.369L509.416 552.935H518.928L521.646 547.502H529.798L531.158 548.861L527.084 552.935L517.572 557.009L510.779 561.084L503.986 562.443V558.369H503.983ZM448.281 686.073H453.714V691.506L448.281 695.581H442.847L448.281 686.073ZM327.37 790.684L335.522 785.25L347.748 774.383L361.334 767.59L369.486 764.872V762.153L372.204 760.794H378.997L380.357 764.868L376.282 768.942L368.13 773.016L362.697 779.809L350.47 782.528L340.959 786.602L334.166 790.676L327.373 793.395L327.37 790.684ZM306.991 1349.05H315.143L317.862 1350.41L316.789 1353.09L311.177 1357.21H309.706L305.632 1353.13L306.991 1349.05ZM287.968 1316.45L294.761 1308.3H296.12L294.761 1313.73L287.968 1316.45ZM297.532 1323.63L298.303 1320.55L296.396 1320.07L302.913 1316.45L297.532 1323.63ZM232.17 1484.04L230.907 1490.35L233.354 1492.79L233.09 1493.09L229.503 1495.88L229.552 1495.78L225.477 1491.71L223.276 1491.16L232.17 1484.04ZM200.455 1507.52L202.38 1508V1512.08L192.869 1513.44V1512.19L200.455 1507.52ZM208.637 1589.54L196.411 1599.05L188.258 1600.41L192.333 1596.34L205.918 1586.83H208.637V1589.54ZM254.827 1594.98L256.187 1592.26L257.546 1594.98H254.827ZM424.648 1839.52L417.855 1842.24L424.648 1834.08H426.007L424.648 1839.52ZM445.026 1882.99H439.593L435.518 1878.92L436.878 1874.85H445.03L447.748 1876.2L445.026 1882.99ZM462.686 1881.63H455.893L450.46 1878.92V1876.2H457.252L462.686 1878.92V1881.63ZM473.557 1861.26L461.33 1870.77L455.897 1869.41L454.537 1863.97L461.33 1858.54L468.123 1854.47L474.916 1855.83L473.557 1861.26ZM491.216 1979.45H493.935L495.294 1986.24H492.576L491.216 1979.45ZM507.521 1993.03L502.087 1997.11L495.294 1995.75L498.013 1991.68L507.524 1988.96V1993.03H507.521ZM542.844 1974.02H538.77L540.129 1968.58H544.203L542.844 1974.02ZM722.172 1859.9L711.305 1858.54L708.586 1862.61L701.794 1866.69L689.567 1877.55L674.622 1887.06L667.83 1893.86L646.092 1907.44L632.506 1916.95L621.639 1919.67L618.921 1922.39L603.976 1931.9L593.109 1941.41L582.242 1948.21L563.222 1957.72L555.07 1964.51L548.278 1967.23V1963.16L553.711 1957.72L561.863 1953.65L570.015 1948.21L576.808 1944.14L587.675 1935.99L599.901 1925.12L606.694 1922.4V1919.68L610.768 1915.61L620.28 1911.54L625.713 1904.74L635.225 1903.38L637.943 1896.59L644.736 1893.87L648.81 1889.8L655.603 1885.72L659.677 1880.29L669.189 1876.22L670.548 1873.5L677.341 1869.42L693.645 1858.56L707.231 1853.12L715.383 1847.69H723.535L724.894 1857.2L722.172 1859.9ZM826.783 1810.99H822.709L834.935 1801.48L837.654 1802.84L826.783 1810.99ZM864.825 1785.18L858.032 1789.25L844.446 1798.76L837.654 1801.48L841.728 1796.05L863.466 1782.46H866.184L864.825 1785.18ZM877.051 1745.78L872.977 1749.85L866.184 1751.21V1747.14L874.336 1740.34L881.129 1733.55L886.563 1732.19L891.996 1729.47L901.508 1726.76L908.3 1721.32L915.093 1722.68V1728.11L908.3 1730.83L900.148 1737.63L877.051 1745.78ZM936.827 1740.34L924.601 1745.78L921.882 1749.85L905.578 1758L881.125 1762.08L887.918 1755.29L921.882 1736.27L931.394 1728.11H935.468L934.109 1733.55H931.39V1737.62H938.183L936.827 1740.34ZM940.901 1709.1L928.675 1713.17L930.034 1709.1L942.261 1702.3L944.979 1703.66L940.901 1709.1ZM969.432 1820.5L957.206 1823.22L951.772 1825.94L950.413 1823.22L939.546 1821.86V1817.78L944.979 1813.71L954.491 1808.28L968.076 1801.48H972.151V1806.92L961.284 1812.35L959.924 1819.14L961.284 1817.78L973.51 1815.07L969.432 1820.5ZM974.865 1800.12L973.506 1797.4L978.94 1793.33L980.299 1796.05L974.865 1800.12ZM995.244 1661.55L978.94 1658.83L981.658 1657.47V1654.75L985.733 1650.68L991.166 1652.03V1649.32L995.24 1650.68V1661.55H995.244ZM1044.15 1805.55L1045.51 1801.48L1046.87 1805.55H1044.15ZM1082.19 1611.28L1069.97 1616.71L1068.61 1619.43L1059.1 1623.5L1050.95 1630.3L1042.79 1633.02L1036 1638.45L1029.21 1645.24L1010.19 1654.75L1003.4 1658.83L1000.68 1649.32L1004.75 1642.52L1015.62 1637.09L1026.49 1633.02L1034.64 1626.22L1040.07 1618.07L1046.86 1615.35L1052.3 1618.07L1059.09 1616.71L1064.52 1609.92H1072.68L1079.47 1603.13H1083.54L1084.9 1608.56L1082.19 1611.28ZM1118.87 1791.97L1112.08 1793.33V1790.61L1116.16 1787.89H1120.23L1118.87 1791.97ZM1233 1733.55L1231.64 1736.27L1224.84 1737.63V1733.56L1231.64 1729.48L1235.71 1725.41H1238.43L1239.79 1730.84L1233 1733.55ZM1504.71 1611.28L1503.35 1608.56H1506.07L1504.71 1611.28ZM1519.65 1604.48L1512.86 1605.84L1518.29 1600.41H1521.01L1519.65 1604.48ZM1556.33 1501.24L1550.9 1502.6V1497.16H1556.33V1501.24ZM1564.48 1498.52H1561.77V1493.08L1565.84 1494.44L1564.48 1498.52ZM1588.94 1495.8L1587.58 1489.01H1593.01L1594.37 1493.08L1588.94 1495.8ZM1605.24 1559.65L1606.6 1554.22H1607.96L1609.32 1558.29L1605.24 1559.65ZM1609.32 1527.05L1606.6 1528.41H1595.73V1524.33H1609.32V1527.05ZM1620.19 1580.03L1621.55 1577.31L1624.26 1578.67L1620.19 1580.03ZM1622.9 1527.05L1624.26 1521.62H1626.98L1628.34 1527.05H1622.9ZM1704.41 1499.88L1688.11 1508.03L1685.39 1506.67L1686.75 1502.6L1705.77 1493.08L1708.49 1494.44L1704.41 1499.88ZM1726.15 1503.95L1719.36 1505.31L1720.72 1501.24H1728.87L1726.15 1503.95ZM1734.3 1475.42L1727.51 1474.06L1723.44 1479.5H1715.29L1705.77 1483.57H1698.98V1479.5L1709.85 1475.42L1719.36 1471.35L1726.15 1467.27L1739.74 1463.2H1746.53L1734.3 1475.42ZM1756.04 1402.06L1747.89 1403.42L1735.66 1407.49L1723.44 1410.21L1724.8 1399.34L1727.52 1393.91L1747.89 1391.19L1750.61 1384.4H1753.33L1758.76 1388.47L1756.04 1402.06ZM1765.55 1387.11H1761.48L1762.84 1383.04H1765.55L1765.55 1387.11ZM1765.55 1369.45L1756.04 1368.1L1754.68 1365.38L1764.19 1361.3L1766.91 1362.66L1765.55 1369.45ZM1787.29 1380.32L1784.57 1381.68L1783.21 1377.61H1787.28L1787.29 1380.32ZM1792.72 1376.25H1788.65L1790.01 1372.17H1792.73L1792.72 1376.25ZM1802.23 1374.89H1795.44L1798.16 1369.45L1802.23 1370.81V1374.89ZM1807.67 1381.68L1809.03 1378.96L1811.74 1380.32L1807.67 1381.68ZM1862.01 1361.3L1855.22 1362.66L1847.06 1368.1L1841.63 1369.45L1834.84 1366.74V1364.02L1838.91 1359.94L1837.55 1353.15L1828.04 1351.79L1813.1 1358.58L1810.38 1355.87L1823.96 1347.71L1838.91 1343.64L1845.7 1339.56H1849.78V1342.28L1844.34 1346.36L1842.98 1350.43L1847.06 1351.79L1853.85 1354.51L1862 1355.87V1361.3H1862.01ZM1874.24 1354.51L1868.81 1357.23V1354.51L1872.88 1351.79L1871.52 1345L1872.88 1339.56H1876.95L1879.67 1353.15L1874.24 1354.51ZM1882.39 1372.17L1883.75 1369.45L1886.47 1370.81L1882.39 1372.17ZM1955.75 1345L1946.24 1343.64V1340.92L1950.32 1336.85H1955.75L1958.47 1339.56L1955.75 1345ZM2010.1 820.592L2007.38 819.233L2020.96 811.081L2042.7 800.214H2045.42V802.933L2041.34 807.007L2025.04 815.159L2010.1 820.592ZM2014.17 1241.75L2015.53 1239.03L2019.6 1240.39L2014.17 1241.75ZM2204.37 1059.7L2207.09 1054.27L2212.52 1055.63L2204.37 1059.7Z" fill="black"/>
<path d="M464.046 2033.79L470.839 2032.43L469.48 2035.15L468.124 2040.59H473.558L478.991 2036.51L485.784 2035.15V2037.87H489.862L492.577 2028.36L499.369 2024.28L500.729 2018.85L495.295 2016.13L491.217 2009.34H484.425L480.35 2012.06L472.198 2014.77L468.124 2020.2L451.82 2028.36L449.101 2035.15L447.746 2043.3L450.46 2044.66L442.308 2046.02L435.516 2050.09L427.367 2054.17L426.008 2058.25L427.367 2063.68L431.441 2065.04L438.234 2059.61L449.101 2054.17L449.28 2053.47L450.46 2052.81L451.82 2047.38H457.253L459.972 2044.66L464.046 2033.79Z" fill="black"/>
<path d="M2235.62 1258.05H2260.07L2264.14 1256.69L2270.94 1251.26V1244.46L2269.58 1243.11L2260.07 1245.82L2257.35 1237.67L2249.2 1232.24H2239.69L2231.54 1236.31L2222.03 1245.82L2223.39 1255.34L2227.47 1259.41L2235.62 1258.05Z" fill="black"/>
<path d="M276.564 1611.28L273.846 1607.2L276.564 1600.41L273.846 1597.69L265.694 1600.41L250.753 1609.92L235.808 1620.79V1630.3L237.167 1631.66L250.753 1630.3L269.772 1619.43L276.564 1611.28Z" fill="black"/>
<path d="M1405.53 1683.28L1412.32 1676.49L1409.61 1662.91L1415.04 1660.19L1416.4 1654.75H1409.61L1405.53 1657.47L1396.02 1665.62L1389.23 1676.49L1374.28 1688.72L1365.11 1692.79H1363.41L1362.06 1694.15L1360.7 1700.94H1364.77L1370.2 1698.23L1381.07 1690.07L1385.14 1691.43L1386.5 1691.16L1387.86 1691.43L1387.62 1690.94L1391.94 1690.07L1405.53 1683.28ZM1393.3 1679.21L1397.38 1680.57L1391.95 1683.29L1393.3 1679.21Z" fill="black"/>
<path d="M2102.48 1253.98H2094.32L2075.3 1248.54L2071.23 1249.9L2067.15 1255.34V1263.49L2068.51 1266.2L2073.95 1273L2083.46 1274.36L2090.25 1271.64L2097.04 1264.85L2110.63 1260.77V1253.98L2107.91 1252.62L2102.48 1253.98Z" fill="black"/>
<path d="M2079.38 1429.23L2083.46 1436.02L2088.89 1434.67L2092.96 1426.52L2082.1 1422.44L2087.53 1410.21L2086.17 1400.7L2079.38 1392.55L2072.59 1385.76H2056.29L2050.85 1389.83L2048.13 1402.06L2042.7 1403.42L2041.34 1415.65L2046.77 1429.23L2052.21 1436.02L2061.72 1437.38L2068.51 1434.67L2079.38 1426.52V1429.23Z" fill="black"/>
<path d="M2025.04 1498.52L2027.75 1493.09L2014.17 1491.73L2008.74 1494.45L1996.51 1505.31L1995.15 1514.82L1997.86 1516.18L1995.15 1522.97L1993.79 1529.76L1996.51 1532.48L2004.66 1528.41L2007.38 1522.97L2003.3 1520.26L2001.94 1516.18H2008.74L2015.53 1513.46L2026.4 1505.31V1502.59L2022.32 1501.24V1498.52H2025.04Z" fill="black"/>
<path d="M2330.72 1358.59H2317.13L2314.41 1359.94L2310.34 1373.53L2311.69 1380.32L2318.49 1381.68L2326.64 1385.76H2334.79L2340.22 1378.97V1370.81L2338.86 1368.1L2330.72 1358.59Z" fill="black"/>
<path d="M1334.89 1711.81L1325.38 1714.53L1314.51 1722.68L1292.77 1733.55L1276.47 1740.34V1745.78L1288.69 1744.42L1303.64 1737.63L1300.92 1744.42L1309.07 1743.06L1310.43 1738.99V1733.55L1324.02 1725.4L1345.75 1714.53V1709.1L1338.96 1707.74L1334.89 1711.81Z" fill="black"/>
<path d="M1859.29 1463.2L1848.42 1461.84L1845.71 1459.12L1830.76 1457.77L1822.61 1459.12L1819.89 1463.2L1810.39 1469.99L1809.03 1475.43L1815.82 1474.07L1825.33 1476.78L1840.27 1468.63L1848.42 1467.28L1851.14 1469.99H1857.93L1859.29 1463.2Z" fill="black"/>
<path d="M1902.77 1448.25L1898.69 1445.54L1894.61 1446.9L1886.47 1457.76H1884.42L1882.39 1455.04H1876.95L1868.8 1459.12L1867.44 1463.2L1874.24 1472.71L1879.67 1471.35L1882.39 1464.56H1885.11L1887.82 1471.35H1891.9L1898.69 1465.92L1902.77 1457.76V1448.25Z" fill="black"/>
<path d="M1982.92 1529.76H1974.77L1959.83 1535.2L1932.66 1551.5V1554.22L1939.45 1555.58L1959.83 1547.43L1985.64 1535.2L1987 1528.41L1982.92 1527.05V1529.76Z" fill="black"/>
<path d="M1438.14 1772.95L1424.55 1763.44H1412.32L1409.61 1764.8L1402.82 1771.59L1400.1 1781.1L1404.17 1790.61H1406.89V1793.33H1419.12L1432.7 1791.97L1440.85 1796.05L1450.37 1794.69L1451.72 1786.54L1447.65 1779.75L1438.14 1772.95Z" fill="black"/>
<path d="M302.377 1827.29L310.529 1816.42V1806.91L309.17 1804.2L302.377 1801.48H287.432L276.565 1808.27L261.62 1821.86L262.979 1828.65L269.772 1832.73L279.28 1831.37L296.944 1830.01L302.377 1827.29Z" fill="black"/>
<path d="M2159.54 1292.02L2152.74 1297.45L2151.38 1306.96L2158.18 1311.04L2159.54 1317.83L2163.61 1319.19L2167.69 1315.11L2171.76 1308.32L2173.12 1298.81L2167.69 1292.02H2159.54Z" fill="black"/>
<path d="M2264.14 1349.08L2257.35 1347.72L2251.92 1353.15L2250.56 1364.02L2253.28 1370.82L2258.71 1372.18L2269.58 1365.38L2280.45 1368.1V1365.38L2269.58 1355.87L2264.14 1349.08Z" fill="black"/>
<path d="M1981.56 1505.31V1497.16H1976.13L1970.69 1499.88V1503.95L1974.77 1505.31L1972.05 1510.75L1965.26 1513.47L1966.62 1517.54L1972.05 1518.9L1984.28 1521.62L1993.79 1520.26L1995.15 1514.83L1988.36 1510.75L1981.56 1505.31Z" fill="black"/>
<path d="M2254.64 1196.92L2251.92 1198.28L2247.84 1205.07L2249.2 1213.22L2255.99 1220.01H2264.14L2268.22 1215.94V1206.43L2262.79 1199.63L2254.64 1196.92Z" fill="black"/>
<path d="M2351.1 888.523L2348.38 881.73L2342.94 874.938L2333.43 873.582L2326.64 879.015L2318.49 889.882V899.394L2321.21 902.109L2329.36 907.546H2340.22L2342.94 906.187L2349.74 900.753L2351.1 888.523Z" fill="black"/>
<path d="M1108.01 1820.5L1102.57 1825.93V1835.44L1106.65 1839.52H1116.16L1121.59 1832.73L1122.95 1825.93L1116.16 1821.86L1108.01 1820.5Z" fill="black"/>
<path d="M2201.65 1317.83L2205.73 1311.03L2200.29 1305.6L2196.22 1297.45L2190.78 1294.73L2186.71 1298.81L2185.35 1308.32L2188.06 1311.03L2192.14 1319.19L2197.58 1320.55L2201.65 1317.83Z" fill="black"/>
<path d="M2304.9 1286.58L2302.19 1279.79L2295.39 1272.99L2289.96 1270.28L2287.24 1271.63L2277.73 1282.51L2276.37 1292.01L2279.09 1298.81L2285.88 1304.24H2299.47L2304.9 1298.81V1286.58Z" fill="black"/>
<path d="M359.438 2090.86L348.567 2097.65L354 2105.8L358.078 2103.08L367.586 2099.01L379.816 2090.86L382.531 2085.42H367.586L359.438 2090.86Z" fill="black"/>
<path d="M2230.18 703.761V695.609L2226.11 683.383L2220.67 682.023L2213.88 692.89L2212.52 699.683L2220.67 705.117H2228.82L2230.18 703.761Z" fill="black"/>
<path d="M238.523 2245.73L237.167 2236.22L230.374 2234.86L226.296 2237.58V2244.37L229.015 2248.45L231.73 2260.67L241.241 2262.03V2253.88L239.882 2251.17L238.523 2245.73Z" fill="black"/>
<path d="M1857.93 1662.91L1855.22 1664.27L1852.5 1672.41L1856.58 1677.85L1866.09 1679.21L1871.52 1676.49L1872.88 1666.98L1868.8 1662.91H1857.93Z" fill="black"/>
<path d="M2091.61 1377.61L2095.68 1373.53L2097.04 1368.1L2091.61 1358.59H2084.82L2079.38 1362.66L2078.02 1368.1L2086.17 1376.25L2091.61 1377.61Z" fill="black"/>
<path d="M2359.24 1116.76L2355.17 1120.83V1130.35L2357.89 1133.06L2364.68 1135.78L2371.47 1130.35V1120.83L2367.4 1118.12L2359.24 1116.76Z" fill="black"/>
<path d="M1828.05 1452.33L1838.92 1448.25L1847.06 1444.17V1438.74L1836.2 1437.38L1826.69 1441.46L1819.89 1448.25L1817.18 1453.69H1825.33L1828.05 1452.33Z" fill="black"/>
<path d="M2056.29 1501.24L2050.85 1503.95V1513.46L2054.93 1518.9H2063.08L2067.15 1514.82V1506.67L2063.08 1502.59L2056.29 1501.24Z" fill="black"/>
<path d="M1091.7 1854.46L1087.63 1855.82L1083.55 1859.9L1082.19 1870.76L1083.55 1872.12H1091.7L1095.78 1869.41L1099.85 1861.26L1098.5 1855.82L1091.7 1854.46Z" fill="black"/>
<path d="M2268.22 1400.7L2260.07 1399.34L2261.43 1406.14L2262.79 1417H2269.58L2276.37 1411.57V1403.42L2273.66 1399.34L2268.22 1400.7Z" fill="black"/>
<path d="M2088.89 1468.63L2078.02 1472.71V1478.14L2091.61 1479.5L2103.84 1474.07L2105.19 1467.28H2099.76L2088.89 1468.63Z" fill="black"/>
<path d="M2299.47 604.582L2303.55 600.507V592.355L2302.19 590.996L2295.39 588.277L2288.6 592.355L2287.24 599.148L2289.96 603.222L2299.47 604.582Z" fill="black"/>
<path d="M1578.07 1607.2L1568.56 1601.77L1561.77 1600.41L1556.33 1603.13L1554.97 1608.56L1561.77 1609.92L1564.48 1614L1569.92 1615.36L1578.07 1609.92V1607.2Z" fill="black"/>
<path d="M2205.73 1471.35L2203.01 1474.07L2201.65 1480.86L2204.37 1484.94L2211.16 1487.66L2216.59 1483.58V1475.43L2212.52 1471.35H2205.73Z" fill="black"/>
<path d="M2031.83 1327.34L2029.11 1334.13L2033.19 1338.21H2046.77V1332.77L2044.06 1327.34L2034.55 1325.98L2031.83 1327.34Z" fill="black"/>
<path d="M1953.03 1501.24L1951.67 1502.59L1947.6 1513.46L1939.45 1517.54L1938.09 1521.62L1944.88 1522.97L1947.6 1520.26L1957.11 1517.54V1512.11L1955.75 1502.59L1953.03 1501.24Z" fill="black"/>
<path d="M1908.2 1559.66L1900.05 1569.17L1909.56 1570.52L1913.64 1566.45L1925.86 1559.66V1556.94H1920.43L1908.2 1559.66Z" fill="black"/>
<path d="M2106.55 1320.55L2102.48 1324.62V1331.41L2110.63 1332.77L2116.06 1328.7L2117.42 1321.91L2110.63 1319.19L2106.55 1320.55Z" fill="black"/>
<path d="M2344.3 792.066V785.273L2340.22 781.195L2334.79 779.836L2332.07 782.555V790.707L2337.51 796.14L2344.3 792.066Z" fill="black"/>
<path d="M1934.01 1421.08L1940.81 1419.73L1942.17 1412.93H1935.37L1932.66 1417.01L1925.86 1423.8L1920.43 1431.95L1927.22 1433.31L1931.3 1427.87L1934.01 1421.08Z" fill="black"/>
<path d="M2292.67 1157.52L2291.31 1165.67L2295.39 1169.75L2303.54 1168.39L2304.9 1160.24L2302.19 1157.52L2295.39 1156.16L2292.67 1157.52Z" fill="black"/>
<path d="M2169.04 1452.33L2159.54 1461.84L2166.33 1463.2L2186.71 1453.69V1450.97H2179.92L2169.04 1452.33Z" fill="black"/>
<path d="M2198.93 1357.23L2197.58 1365.38L2200.29 1368.09H2207.09L2208.44 1366.73L2209.8 1354.51L2204.37 1353.15L2198.93 1357.23Z" fill="black"/>
<path d="M1239.79 1791.97L1238.43 1801.48L1241.14 1806.92H1249.3L1252.01 1801.48L1246.58 1793.33L1239.79 1791.97Z" fill="black"/>
<path d="M2219.31 664.355V657.562L2215.23 653.488H2208.44L2207.09 654.848L2205.73 661.64L2208.44 665.715H2217.95L2219.31 664.355Z" fill="black"/>
<path d="M2114.7 1372.18L2113.34 1384.4L2117.42 1385.76L2124.21 1376.25V1369.46L2118.78 1368.1L2114.7 1372.18Z" fill="black"/>
<path d="M1893.26 1431.95L1904.13 1429.23V1426.52L1898.69 1423.8L1891.9 1422.44L1883.75 1426.52L1885.11 1430.59L1893.26 1431.95Z" fill="black"/>
<path d="M2150.03 676.59L2148.67 668.437L2140.51 667.078L2139.16 668.437V676.59L2140.51 679.304L2147.31 680.664L2150.03 676.59Z" fill="black"/>
<path d="M1821.25 1486.29L1815.82 1494.45L1814.46 1499.88H1819.89V1497.16L1826.69 1494.45L1829.4 1486.29L1823.97 1484.93L1821.25 1486.29Z" fill="black"/>
<path d="M2079.38 1442.82V1450.97L2080.74 1453.69L2084.82 1455.04L2088.89 1450.97V1441.46L2083.46 1438.74L2079.38 1442.82Z" fill="black"/>
<path d="M2287.24 1316.47L2283.17 1321.91L2285.88 1328.7L2292.67 1330.06L2295.39 1324.62L2294.03 1317.83L2287.24 1316.47Z" fill="black"/>
<path d="M1770.99 1510.75L1761.48 1512.11L1758.76 1514.82L1762.84 1518.9L1773.7 1516.18V1513.46L1781.85 1512.11V1508.03L1775.06 1506.67L1770.99 1510.75Z" fill="black"/>
<path d="M1688.11 1552.87L1682.68 1558.3L1684.04 1561.02L1693.55 1559.66L1700.34 1550.15L1694.91 1548.79L1688.11 1552.87Z" fill="black"/>
<path d="M1575.35 1626.23L1571.28 1628.95L1572.64 1634.38L1586.22 1635.74L1583.5 1627.59L1575.35 1626.23Z" fill="black"/>
<path d="M518.388 2067.76H514.314L512.954 2074.55L507.521 2078.62L510.239 2084.06L517.032 2082.7L515.673 2074.55L519.747 2073.19L518.388 2067.76Z" fill="black"/>
<path d="M1948.96 1528.41L1946.24 1533.84L1951.67 1532.48L1963.9 1527.05L1965.26 1522.97L1955.75 1521.61L1948.96 1528.41Z" fill="black"/>
<path d="M2048.13 1298.81L2044.06 1297.45L2035.91 1302.89L2034.55 1309.68L2041.34 1308.32L2046.77 1304.25L2048.13 1298.81Z" fill="black"/>
<path d="M459.971 2135.69L458.611 2139.76L461.33 2141.12L477.63 2130.25L478.99 2124.82H476.271L459.971 2135.69Z" fill="black"/>
<path d="M2147.31 1312.39H2140.51L2136.44 1317.83L2133.72 1323.27L2140.51 1324.62L2145.95 1317.83L2147.31 1312.39Z" fill="black"/>
<path d="M2012.81 1456.4L2007.38 1448.25H2003.3L2001.94 1449.61L2000.58 1456.4L2003.3 1459.12H2010.09L2012.81 1456.4Z" fill="black"/>
<path d="M393.403 2075.91L390.684 2081.35H400.196L404.27 2074.55L406.988 2069.12H404.27L393.403 2075.91Z" fill="black"/>
<path d="M2348.38 1263.49L2344.3 1267.56L2345.66 1273L2352.45 1274.36L2355.17 1270.28L2353.81 1266.2L2348.38 1263.49Z" fill="black"/>
<path d="M1158.27 1838.16L1152.84 1843.59L1159.63 1844.95L1167.78 1840.88L1171.86 1836.8H1162.35L1158.27 1838.16Z" fill="black"/>
<path d="M2228.82 1412.93V1417.01H2238.33L2239.69 1415.65L2242.41 1408.85H2236.97L2228.82 1412.93Z" fill="black"/>
<path d="M1540.03 1699.59L1538.67 1703.66L1544.11 1709.1L1549.54 1710.46L1550.9 1703.66L1545.47 1700.94L1540.03 1699.59Z" fill="black"/>
<path d="M487.143 2118.03L485.783 2124.82H491.217L496.654 2122.1L499.369 2116.67L496.654 2115.31L487.143 2118.03Z" fill="black"/>
<path d="M1352.55 1703.66L1349.83 1711.82H1355.27L1362.06 1709.1L1363.41 1703.66H1352.55Z" fill="black"/>
<path d="M1083.55 1929.19L1082.19 1934.62L1086.27 1938.69L1090.34 1937.34L1091.7 1930.54L1086.27 1927.83L1083.55 1929.19Z" fill="black"/>
<path d="M1230.28 1797.4L1226.2 1808.28H1233L1237.07 1804.2L1235.71 1798.76L1230.28 1797.4Z" fill="black"/>
<path d="M2207.09 1385.76L2200.29 1384.4L2197.58 1388.48L2198.93 1393.91L2205.73 1392.55L2207.09 1385.76Z" fill="black"/>
<path d="M1435.42 1694.15L1434.06 1687.36L1427.27 1684.64L1424.55 1686V1690.08L1427.27 1692.79L1435.42 1694.15Z" fill="black"/>
<path d="M1845.71 1484.93H1836.2L1833.48 1486.29V1491.73H1838.92L1845.71 1489.01V1484.93Z" fill="black"/>
<path d="M2122.85 1298.81L2120.14 1302.89L2126.93 1309.68L2129.65 1308.32L2128.29 1300.17L2122.85 1298.81Z" fill="black"/>
<path d="M2156.82 565.187L2155.46 558.395H2150.03L2148.67 566.547L2155.46 567.902L2156.82 565.187Z" fill="black"/>
<path d="M1442.21 1703.67L1443.57 1709.1L1450.37 1710.46L1451.72 1703.67L1444.93 1702.31L1442.21 1703.67Z" fill="black"/>
<path d="M531.973 2074.55L540.125 2071.83V2067.76H531.973L525.18 2074.55H531.973Z" fill="black"/>
<path d="M1352.55 1767.52L1348.47 1770.23L1349.83 1775.67L1355.27 1777.03L1357.98 1772.95L1356.62 1768.87L1352.55 1767.52Z" fill="black"/>
<path d="M417.856 2027L416.496 2028.36V2033.79L423.289 2032.44L426.008 2027H417.856Z" fill="black"/>
<path d="M2265.5 1230.88V1236.32H2272.3L2273.66 1230.88L2266.86 1229.52L2265.5 1230.88Z" fill="black"/>
<path d="M417.854 2135.69L419.213 2138.41L423.288 2137.05V2128.9L417.854 2127.54V2135.69Z" fill="black"/>
<path d="M1290.05 1747.14L1288.69 1751.21L1292.77 1752.57L1300.92 1745.78L1295.49 1744.42L1290.05 1747.14Z" fill="black"/>
<path d="M1751.96 1620.79L1750.61 1622.15L1751.96 1627.58L1758.76 1628.94L1757.4 1622.15L1751.96 1620.79Z" fill="black"/>
<path d="M1863.37 1575.96V1580.04L1875.59 1578.68V1575.96L1866.09 1574.6L1863.37 1575.96Z" fill="black"/>
<path d="M2178.56 1433.31L2178.88 1433.47L2177.2 1434.67L2163.61 1440.11L2162.25 1434.67L2155.46 1436.03V1445.54L2152.74 1450.97L2159.54 1449.61L2179.92 1441.46L2186.71 1434.67L2189.42 1429.23L2186.71 1427.88L2178.56 1433.31Z" fill="black"/>
<path d="M2273.66 1139.86H2269.58L2268.22 1141.22L2266.86 1146.65L2272.3 1148.01L2275.02 1143.94L2273.66 1139.86Z" fill="black"/>
<path d="M2072.59 1355.87L2078.02 1353.15L2079.38 1347.72L2073.95 1346.36L2071.23 1351.79L2072.59 1355.87Z" fill="black"/>
<path d="M2299.47 899.392L2304.9 898.033L2306.26 889.881H2303.55L2300.83 891.24L2299.47 899.392Z" fill="black"/>
<path d="M1127.03 1828.65V1836.8H1131.1L1132.46 1828.65L1128.39 1827.29L1127.03 1828.65Z" fill="black"/>
<path d="M239.882 1319.19L238.523 1320.55L237.167 1325.98L242.601 1327.34L243.96 1320.55L239.882 1319.19Z" fill="black"/>
<path d="M601.261 1978.1H598.546L594.468 1983.53L591.753 1990.32L599.901 1983.53L601.261 1978.1Z" fill="black"/>
<path d="M1910.92 1474.06L1909.56 1480.86H1914.99L1916.35 1475.42L1910.92 1474.06Z" fill="black"/>
<path d="M1038.72 1912.88L1044.15 1915.6L1045.51 1908.8L1041.44 1907.45L1038.72 1912.88Z" fill="black"/>
<path d="M806.405 1885.71L800.971 1884.35L799.612 1885.71L796.893 1891.15H800.971L806.405 1885.71Z" fill="black"/>
<path d="M1166.42 1791.97H1159.63L1158.27 1796.05L1165.06 1797.41L1166.42 1791.97Z" fill="black"/>
<path d="M2088.89 1328.7H2094.32L2095.68 1323.26L2090.25 1321.9L2088.89 1328.7Z" fill="black"/>
<path d="M2302.04 991.836L2300.68 997.27L2306.12 998.628L2307.48 993.194L2302.04 991.836Z" fill="black"/>
<path d="M502.087 2113.95L504.802 2115.31L511.595 2108.52H504.802L502.087 2113.95Z" fill="black"/>
<path d="M2359.24 1392.55L2357.89 1399.34H2361.96L2364.68 1393.91L2360.6 1391.19L2359.24 1392.55Z" fill="black"/>
<path d="M2084.82 1301.53L2086.17 1305.6H2091.61V1300.17L2086.17 1298.81L2084.82 1301.53Z" fill="black"/>
<path d="M2122.85 1283.87L2128.29 1285.22L2129.65 1278.43H2124.21L2122.85 1283.87Z" fill="black"/>
<path d="M446.385 2143.84L445.026 2149.27H449.1L451.819 2143.84L447.744 2142.48L446.385 2143.84Z" fill="black"/>
<path d="M406.988 1912.88V1918.31L411.062 1919.67L412.421 1912.88H406.988Z" fill="black"/>
<path d="M1194.95 1825.93L1201.75 1823.21V1820.5H1193.59L1194.95 1825.93Z" fill="black"/>
<path d="M2117.42 1478.14H2122.85V1474.07L2117.42 1471.35V1478.14Z" fill="black"/>
<path d="M2171.76 1355.87H2177.2L2178.56 1351.79L2171.76 1350.44V1355.87Z" fill="black"/>
<path d="M2302.19 1247.19V1249.9L2307.62 1252.62L2308.98 1247.19L2304.9 1245.83L2302.19 1247.19Z" fill="black"/>
<path d="M707.23 1959.07V1964.51L711.304 1963.15L712.664 1957.72H708.586L707.23 1959.07Z" fill="black"/>
<path d="M991.17 1866.69V1870.77L997.963 1872.12L996.603 1866.69H991.17Z" fill="black"/>
<path d="M1800.87 1480.86H1804.95L1806.31 1475.42L1800.87 1474.06V1480.86Z" fill="black"/>
<path d="M1560.41 1700.95L1565.84 1702.3L1567.2 1698.23L1560.41 1696.87V1700.95Z" fill="black"/>
<path d="M2094.32 1490.37H2098.4L2101.12 1484.93H2095.68L2094.32 1490.37Z" fill="black"/>
<path d="M450.459 2123.46V2120.75L445.026 2119.39L443.667 2120.75L446.385 2124.82L450.459 2123.46Z" fill="black"/>
<path d="M314.603 2085.42L318.68 2086.78L320.036 2081.35H315.962L314.603 2085.42Z" fill="black"/>
<path d="M1648.72 1666.98H1652.79L1654.15 1662.91L1650.07 1661.55L1648.72 1666.98Z" fill="black"/>
<path d="M2232.9 1285.22L2236.97 1286.58L2238.33 1281.15H2234.26L2232.9 1285.22Z" fill="black"/>
<path d="M2207.09 1247.19H2203.01V1252.62L2208.44 1251.26L2207.09 1247.19Z" fill="black"/>
<path d="M364.872 1978.1L362.153 1980.81V1987.6L366.231 1982.17L364.872 1978.1Z" fill="black"/>
<path d="M1477.54 1733.55L1482.97 1736.27V1730.83H1478.89L1477.54 1733.55Z" fill="black"/>
<path d="M1618.83 1681.92L1624.26 1684.64V1680.56L1618.83 1679.21V1681.92Z" fill="black"/>
<path d="M2298.11 1081.44H2300.83L2303.55 1077.36L2298.11 1076V1081.44Z" fill="black"/>
<path d="M328.189 1961.79V1967.23H330.908L332.267 1961.79H328.189Z" fill="black"/>
<path d="M1208.54 1836.8H1212.62V1832.73L1208.54 1831.37V1836.8Z" fill="black"/>
<path d="M2007.38 1296.1L2012.81 1297.45V1293.38H2007.38V1296.1Z" fill="black"/>
<path d="M360.793 1987.6L358.078 1988.96V1993.04H362.152L360.793 1987.6Z" fill="black"/>
<path d="M830.857 1896.58L836.294 1893.86L833.575 1891.14L830.857 1892.5V1896.58Z" fill="black"/>
<path d="M1776.42 1489.01H1769.63V1491.72H1776.42V1489.01Z" fill="black"/>
<path d="M2059 1472.71L2053.57 1471.35V1475.43H2057.64L2059 1472.71Z" fill="black"/>
<path d="M2114.7 1359.94L2109.27 1358.59V1362.66H2113.34L2114.7 1359.94Z" fill="black"/>
<path d="M2147.31 603.223L2143.23 601.863V607.301H2145.95L2147.31 603.223Z" fill="black"/>
<path d="M2194.86 605.943L2196.22 601.865L2192.14 600.51V605.943H2194.86Z" fill="black"/>
<path d="M386.609 1926.47L382.531 1931.9L387.965 1930.54L386.609 1926.47Z" fill="black"/>
<path d="M821.346 1873.48H817.271V1877.56H821.346V1873.48Z" fill="black"/>
<path d="M839.009 1840.88H834.935V1844.96H839.009V1840.88Z" fill="black"/>
<path d="M296.943 1753.93L295.583 1758.01L298.302 1759.37L299.658 1753.93H296.943Z" fill="black"/>
<path d="M1610.68 1684.64H1606.6V1688.72H1610.68V1684.64Z" fill="black"/>
<path d="M2400 1256.69H2395.93V1260.77H2400V1256.69Z" fill="black"/>
<path d="M2330.72 1259.41L2332.07 1255.34L2329.36 1253.98L2328 1259.41H2330.72Z" fill="black"/>
<path d="M461.331 2113.95L465.405 2112.59L461.331 2108.52V2113.95Z" fill="black"/>
<path d="M465.404 1991.68L464.045 1997.12L469.479 1993.04L465.404 1991.68Z" fill="black"/>
<path d="M1087.63 1836.8H1091.7V1834.09L1087.63 1832.73V1836.8Z" fill="black"/>
<path d="M1315.87 1785.18H1318.58L1319.94 1781.1H1315.87V1785.18Z" fill="black"/>
<path d="M1440.85 1684.64H1436.78V1687.36L1440.85 1688.72V1684.64Z" fill="black"/>
<path d="M1920.43 1448.25V1452.33H1923.14L1924.5 1448.25H1920.43Z" fill="black"/>
<path d="M2344.3 1364.02H2348.38V1361.3L2344.3 1359.94V1364.02Z" fill="black"/>
<path d="M400.195 2267.47H404.27V2264.75L401.551 2263.39L400.195 2267.47Z" fill="black"/>
<path d="M523.825 2060.96L529.259 2062.32V2059.61H525.181L523.825 2060.96Z" fill="black"/>
<path d="M461.33 1999.83L459.971 2002.55L464.045 2003.91V1999.83H461.33Z" fill="black"/>
<path d="M1421.84 1741.7H1425.91V1738.99L1423.19 1737.63L1421.84 1741.7Z" fill="black"/>
<path d="M1931.3 1509.39H1928.58L1929.94 1514.83L1931.3 1509.39Z" fill="black"/>
<path d="M2276.37 1384.4L2279.09 1385.76L2280.45 1381.68H2276.37V1384.4Z" fill="black"/>
<path d="M2075.3 1294.74L2072.59 1293.38L2071.23 1297.45H2075.3V1294.74Z" fill="black"/>
<path d="M1662.3 1660.19L1666.38 1661.55V1658.83L1663.66 1657.47L1662.3 1660.19Z" fill="black"/>
<path d="M1029.21 1635.74H1026.49V1639.81H1029.21V1635.74Z" fill="black"/>
<path d="M1928.58 1533.84L1929.94 1537.92L1932.66 1535.2L1928.58 1533.84Z" fill="black"/>
<path d="M2328 1232.24L2332.07 1233.6V1230.88L2329.36 1229.52L2328 1232.24Z" fill="black"/>
<path d="M2281.8 1162.95H2277.73V1165.67H2281.8V1162.95Z" fill="black"/>
<path d="M233.09 1152.09H229.016V1154.8H233.09V1152.09Z" fill="black"/>
<path d="M2304.9 702.398L2307.62 699.68L2303.55 698.32L2304.9 702.398Z" fill="black"/>
<path d="M843.087 1895.22L844.446 1891.14H841.728L843.087 1895.22Z" fill="black"/>
<path d="M2122.85 1467.27L2124.21 1463.2H2121.49L2122.85 1467.27Z" fill="black"/>
<path d="M2216.59 1417.01L2220.67 1418.37V1415.65H2217.95L2216.59 1417.01Z" fill="black"/>
<path d="M2155.46 1389.84H2159.54L2156.82 1387.12L2155.46 1389.84Z" fill="black"/>
<path d="M2302.19 1364.02L2306.26 1362.66L2302.19 1361.3V1364.02Z" fill="black"/>
<path d="M2227.47 1317.83L2226.11 1320.55H2230.18L2227.47 1317.83Z" fill="black"/>
<path d="M540.129 2094.93H537.41V2097.65H540.129V2094.93Z" fill="black"/>
<path d="M287.436 1972.65H284.717V1975.37H287.436V1972.65Z" fill="black"/>
<path d="M1143.33 1855.82H1140.61V1858.54H1143.33V1855.82Z" fill="black"/>
<path d="M1366.13 1786.54H1363.42V1789.26H1366.13V1786.54Z" fill="black"/>
<path d="M1417.76 1751.21H1421.84L1419.12 1749.86L1417.76 1751.21Z" fill="black"/>
<path d="M245.32 1654.75H242.601V1657.47H245.32V1654.75Z" fill="black"/>
<path d="M1730.23 1635.74H1727.51V1638.45H1730.23V1635.74Z" fill="black"/>
<path d="M1785.93 1484.93L1790.01 1486.29L1787.29 1483.57L1785.93 1484.93Z" fill="black"/>
<path d="M224.941 1400.7H222.222V1403.42H224.941V1400.7Z" fill="black"/>
<path d="M2126.93 1325.98H2124.21V1328.7H2126.93V1325.98Z" fill="black"/>
<path d="M2264.14 1277.07L2266.86 1275.71L2264.14 1273V1277.07Z" fill="black"/>
<path d="M2292.68 1263.49H2289.96V1266.2H2292.68V1263.49Z" fill="black"/>
<path d="M2386.42 1234.96H2383.7V1237.68H2386.42V1234.96Z" fill="black"/>
<path d="M2129.65 809.727L2132.37 808.367L2129.65 805.652V809.727Z" fill="black"/>
<path d="M1093.06 1808.27H1090.34L1091.7 1810.99L1093.06 1808.27Z" fill="black"/>
<path d="M1449.01 1744.42L1451.72 1745.78L1450.37 1743.06L1449.01 1744.42Z" fill="black"/>
<path d="M1844.35 1590.9L1847.06 1592.26L1845.71 1589.55L1844.35 1590.9Z" fill="black"/>
<path d="M1730.23 1586.83H1732.95L1730.23 1584.11V1586.83Z" fill="black"/>
<path d="M2145.95 1377.61L2148.67 1376.25L2145.95 1374.89V1377.61Z" fill="black"/>
<path d="M2330.72 1327.34L2333.43 1328.7L2332.07 1325.98L2330.72 1327.34Z" fill="black"/>
<path d="M2281.81 1205.07L2279.09 1203.71V1206.43L2281.81 1205.07Z" fill="black"/>
</svg>
