<svg width="622" height="326" viewBox="0 0 622 326" fill="none" xmlns="http://www.w3.org/2000/svg">
<path d="M258 27C258 22.5817 254.418 19 250 19C245.582 19 242 22.5817 242 27C242 31.4183 245.582 35 250 35C254.418 35 258 31.4183 258 27ZM250 27L250 25.5L59 25.5L59 27L59 28.5L250 28.5L250 27Z" fill="#694C55"/>
<path d="M355 24.4788C354.942 28.8967 358.477 32.4876 362.896 32.4993C367.314 32.511 370.942 28.9391 371 24.5212C371.058 20.1033 367.523 16.5124 363.104 16.5007C358.686 16.489 355.058 20.0609 355 24.4788ZM363 24.5L362.98 25.9999L557.98 26.5175L558 25.0176L558.02 23.5178L363.02 23.0001L363 24.5Z" fill="#694C55"/>
<g filter="url(#filter0_d_317_1419)">
<rect x="250" width="115" height="50" rx="8" fill="white"/>
<rect x="250.5" y="0.5" width="114" height="49" rx="7.5" stroke="#EDEDED"/>
<path d="M282.523 23H281.483C281.472 22.696 281.409 22.429 281.295 22.1989C281.182 21.9688 281.028 21.7756 280.835 21.6193C280.645 21.4602 280.426 21.3409 280.179 21.2614C279.932 21.1818 279.668 21.142 279.386 21.142C278.847 21.142 278.335 21.2798 277.852 21.5554C277.369 21.8281 276.956 22.2301 276.612 22.7614C276.268 23.2898 276.034 23.9375 275.909 24.7045C275.784 25.4489 275.803 26.0753 275.964 26.5838C276.126 27.0923 276.395 27.4773 276.77 27.7386C277.145 28 277.591 28.1307 278.108 28.1307C278.406 28.1307 278.699 28.0909 278.986 28.0114C279.276 27.9318 279.545 27.8139 279.795 27.6577C280.048 27.4986 280.273 27.304 280.469 27.0739C280.668 26.8409 280.824 26.5739 280.938 26.2727H281.994C281.838 26.7187 281.626 27.1179 281.359 27.4702C281.095 27.8224 280.79 28.1222 280.443 28.3693C280.097 28.6136 279.723 28.7997 279.322 28.9276C278.922 29.0554 278.506 29.1193 278.074 29.1193C277.318 29.1193 276.675 28.9347 276.143 28.5653C275.615 28.1932 275.237 27.6676 275.01 26.9886C274.786 26.3068 274.75 25.5 274.903 24.5682C275.057 23.6591 275.351 22.875 275.786 22.2159C276.22 21.554 276.753 21.0455 277.384 20.6903C278.014 20.3324 278.699 20.1534 279.438 20.1534C279.881 20.1534 280.288 20.2173 280.661 20.3452C281.033 20.473 281.357 20.6605 281.632 20.9077C281.908 21.152 282.122 21.4503 282.276 21.8026C282.432 22.152 282.514 22.5511 282.523 23ZM286.559 25.0625L285.911 29H284.905L286.354 20.2727H287.36L286.832 23.4773H286.917C287.121 23.1364 287.394 22.8665 287.735 22.6676C288.079 22.4688 288.511 22.3693 289.03 22.3693C289.474 22.3693 289.847 22.4588 290.151 22.6378C290.458 22.8139 290.674 23.0852 290.799 23.4517C290.927 23.8153 290.945 24.2784 290.854 24.8409L290.155 29H289.15L289.832 24.9091C289.917 24.3892 289.847 23.9872 289.623 23.7031C289.401 23.4162 289.056 23.2727 288.587 23.2727C288.258 23.2727 287.951 23.3423 287.667 23.4815C287.386 23.6207 287.147 23.8239 286.951 24.0909C286.758 24.358 286.627 24.6818 286.559 25.0625ZM295.704 29.1534C295.29 29.1534 294.926 29.0753 294.613 28.919C294.301 28.7599 294.069 28.5312 293.919 28.233C293.768 27.9318 293.727 27.5682 293.795 27.142C293.861 26.767 293.987 26.4631 294.175 26.2301C294.362 25.9943 294.589 25.8097 294.856 25.6761C295.126 25.5398 295.416 25.4389 295.726 25.3736C296.038 25.3054 296.349 25.2528 296.659 25.2159C297.062 25.1648 297.39 25.125 297.643 25.0966C297.896 25.0682 298.087 25.0213 298.214 24.956C298.342 24.8906 298.42 24.7784 298.449 24.6193V24.5852C298.517 24.1676 298.462 23.8423 298.283 23.6094C298.104 23.3736 297.784 23.2557 297.324 23.2557C296.846 23.2557 296.447 23.3608 296.126 23.571C295.805 23.7812 295.568 24.0057 295.415 24.2443L294.528 23.9034C294.761 23.5057 295.04 23.196 295.363 22.9744C295.687 22.75 296.027 22.5937 296.382 22.5057C296.737 22.4148 297.079 22.3693 297.409 22.3693C297.619 22.3693 297.856 22.3949 298.121 22.446C298.385 22.4943 298.632 22.5952 298.862 22.7486C299.095 22.902 299.27 23.1335 299.386 23.4432C299.506 23.7528 299.523 24.1676 299.437 24.6875L298.721 29H297.716L297.869 28.1136H297.818C297.727 28.2557 297.588 28.4077 297.4 28.5696C297.216 28.7315 296.981 28.8693 296.697 28.983C296.416 29.0966 296.085 29.1534 295.704 29.1534ZM295.994 28.25C296.392 28.25 296.74 28.1719 297.038 28.0156C297.339 27.8594 297.581 27.6577 297.763 27.4105C297.947 27.1634 298.062 26.9034 298.108 26.6307L298.261 25.7102C298.21 25.7614 298.109 25.8082 297.959 25.8509C297.808 25.8906 297.638 25.9261 297.447 25.9574C297.26 25.9858 297.077 26.0114 296.898 26.0341C296.721 26.054 296.579 26.071 296.471 26.0852C296.204 26.1193 295.95 26.1747 295.709 26.2514C295.47 26.3253 295.268 26.4375 295.104 26.5881C294.942 26.7358 294.841 26.9375 294.801 27.1932C294.741 27.5426 294.825 27.8068 295.052 27.9858C295.28 28.1619 295.594 28.25 295.994 28.25ZM302.357 29L303.448 22.4545H304.454L303.363 29H302.357ZM304.258 21.3466C304.062 21.3466 303.893 21.2798 303.75 21.1463C303.611 21.0128 303.542 20.8523 303.542 20.6648C303.542 20.4773 303.611 20.3168 303.75 20.1832C303.893 20.0497 304.062 19.983 304.258 19.983C304.454 19.983 304.621 20.0497 304.76 20.1832C304.902 20.3168 304.974 20.4773 304.974 20.6648C304.974 20.8523 304.902 21.0128 304.76 21.1463C304.621 21.2798 304.454 21.3466 304.258 21.3466ZM307.005 29L308.096 22.4545H309.067L308.897 23.4432H308.965C309.135 23.1193 309.395 22.8565 309.745 22.6548C310.094 22.4531 310.465 22.3523 310.857 22.3523C310.934 22.3523 311.026 22.3537 311.134 22.3565C311.242 22.3565 311.326 22.3608 311.385 22.3693L311.215 23.392C311.181 23.3835 311.104 23.3707 310.985 23.3537C310.865 23.3338 310.738 23.3239 310.601 23.3239C310.283 23.3239 309.989 23.3906 309.719 23.5241C309.449 23.6548 309.223 23.8366 309.042 24.0696C308.86 24.2997 308.743 24.5625 308.692 24.858L308.01 29H307.005ZM313.293 29L314.384 22.4545H315.355L315.185 23.4773H315.27C315.466 23.1278 315.732 22.8565 316.067 22.6634C316.405 22.4673 316.787 22.3693 317.213 22.3693C317.64 22.3693 317.982 22.4673 318.24 22.6634C318.499 22.8565 318.679 23.1278 318.782 23.4773H318.85C319.071 23.1364 319.367 22.8665 319.736 22.6676C320.108 22.4688 320.529 22.3693 320.998 22.3693C321.577 22.3693 322.023 22.5526 322.336 22.919C322.651 23.2855 322.745 23.8523 322.617 24.6193L321.884 29H320.878L321.611 24.6193C321.688 24.1335 321.611 23.7884 321.381 23.5838C321.154 23.3764 320.861 23.2727 320.503 23.2727C320.043 23.2727 319.664 23.4105 319.365 23.6861C319.067 23.9616 318.884 24.3125 318.816 24.7386L318.1 29H317.077L317.827 24.517C317.887 24.142 317.816 23.8409 317.614 23.6136C317.412 23.3864 317.12 23.2727 316.736 23.2727C316.475 23.2727 316.219 23.3437 315.969 23.4858C315.719 23.625 315.505 23.8182 315.326 24.0653C315.147 24.3097 315.032 24.5909 314.98 24.9091L314.299 29H313.293ZM327.432 29.1534C327.017 29.1534 326.653 29.0753 326.341 28.919C326.028 28.7599 325.797 28.5312 325.646 28.233C325.496 27.9318 325.454 27.5682 325.523 27.142C325.588 26.767 325.714 26.4631 325.902 26.2301C326.089 25.9943 326.317 25.8097 326.584 25.6761C326.854 25.5398 327.143 25.4389 327.453 25.3736C327.766 25.3054 328.077 25.2528 328.386 25.2159C328.79 25.1648 329.118 25.125 329.371 25.0966C329.624 25.0682 329.814 25.0213 329.942 24.956C330.07 24.8906 330.148 24.7784 330.176 24.6193V24.5852C330.244 24.1676 330.189 23.8423 330.01 23.6094C329.831 23.3736 329.511 23.2557 329.051 23.2557C328.574 23.2557 328.175 23.3608 327.854 23.571C327.533 23.7812 327.295 24.0057 327.142 24.2443L326.256 23.9034C326.489 23.5057 326.767 23.196 327.091 22.9744C327.415 22.75 327.754 22.5937 328.109 22.5057C328.464 22.4148 328.807 22.3693 329.136 22.3693C329.347 22.3693 329.584 22.3949 329.848 22.446C330.112 22.4943 330.359 22.5952 330.589 22.7486C330.822 22.902 330.997 23.1335 331.114 23.4432C331.233 23.7528 331.25 24.1676 331.165 24.6875L330.449 29H329.443L329.597 28.1136H329.545C329.454 28.2557 329.315 28.4077 329.128 28.5696C328.943 28.7315 328.709 28.8693 328.425 28.983C328.143 29.0966 327.812 29.1534 327.432 29.1534ZM327.722 28.25C328.119 28.25 328.467 28.1719 328.766 28.0156C329.067 27.8594 329.308 27.6577 329.49 27.4105C329.675 27.1634 329.79 26.9034 329.835 26.6307L329.989 25.7102C329.937 25.7614 329.837 25.8082 329.686 25.8509C329.535 25.8906 329.365 25.9261 329.175 25.9574C328.987 25.9858 328.804 26.0114 328.625 26.0341C328.449 26.054 328.307 26.071 328.199 26.0852C327.932 26.1193 327.677 26.1747 327.436 26.2514C327.197 26.3253 326.996 26.4375 326.831 26.5881C326.669 26.7358 326.568 26.9375 326.528 27.1932C326.469 27.5426 326.552 27.8068 326.78 27.9858C327.007 28.1619 327.321 28.25 327.722 28.25ZM335.738 25.0625L335.09 29H334.084L335.175 22.4545H336.147L335.976 23.4773H336.062C336.266 23.1449 336.543 22.8778 336.893 22.6761C337.242 22.4716 337.664 22.3693 338.158 22.3693C338.596 22.3693 338.965 22.4602 339.266 22.642C339.57 22.821 339.785 23.0938 339.91 23.4602C340.037 23.8239 340.056 24.2841 339.965 24.8409L339.266 29H338.261L338.942 24.9091C339.028 24.3977 338.961 23.9972 338.742 23.7074C338.526 23.4176 338.184 23.2727 337.715 23.2727C337.391 23.2727 337.091 23.3423 336.816 23.4815C336.543 23.6207 336.312 23.8239 336.121 24.0909C335.934 24.358 335.806 24.6818 335.738 25.0625Z" fill="black"/>
</g>
<g filter="url(#filter1_d_317_1419)">
<rect x="4" y="102" width="117" height="68" rx="8" fill="white"/>
<rect x="4.5" y="102.5" width="116" height="67" rx="7.5" stroke="#EDEDED"/>
<path d="M42.5405 125C42.4979 124.713 42.424 124.456 42.3189 124.229C42.2167 123.999 42.0803 123.804 41.9098 123.645C41.7394 123.483 41.5334 123.359 41.2919 123.274C41.0533 123.186 40.7763 123.142 40.461 123.142C39.9439 123.142 39.4439 123.276 38.961 123.543C38.4809 123.81 38.0647 124.203 37.7124 124.723C37.363 125.243 37.1257 125.881 37.0007 126.636C36.8757 127.392 36.8885 128.03 37.0391 128.55C37.1925 129.07 37.4553 129.463 37.8275 129.73C38.2025 129.997 38.6598 130.131 39.1996 130.131C39.6996 130.131 40.1655 130.024 40.5973 129.811C41.0292 129.595 41.3914 129.291 41.684 128.899C41.9766 128.504 42.1655 128.04 42.2507 127.506L42.5576 127.574H39.9326L40.103 126.636H43.4269L43.2564 127.574C43.1428 128.295 42.89 128.922 42.4979 129.453C42.1059 129.984 41.6172 130.395 41.032 130.685C40.4468 130.974 39.8076 131.119 39.1144 131.119C38.3417 131.119 37.6939 130.938 37.1712 130.574C36.6485 130.21 36.2806 129.693 36.0675 129.023C35.8544 128.352 35.8246 127.557 35.978 126.636C36.0888 125.946 36.282 125.325 36.5576 124.774C36.836 124.22 37.1769 123.749 37.5803 123.359C37.9865 122.97 38.4397 122.672 38.9397 122.464C39.4425 122.257 39.9723 122.153 40.5292 122.153C40.9894 122.153 41.407 122.223 41.782 122.362C42.1598 122.499 42.4851 122.693 42.7578 122.946C43.0306 123.196 43.2422 123.496 43.3928 123.845C43.5434 124.192 43.6229 124.577 43.6314 125H42.5405ZM48.8949 131.136C48.267 131.136 47.7485 130.997 47.3395 130.719C46.9304 130.438 46.6449 130.045 46.4829 129.543C46.321 129.037 46.2954 128.449 46.4062 127.778C46.517 127.108 46.7372 126.517 47.0667 126.006C47.3963 125.491 47.8068 125.091 48.2983 124.804C48.7897 124.514 49.3295 124.369 49.9176 124.369C50.2585 124.369 50.5866 124.426 50.902 124.54C51.2173 124.653 51.49 124.838 51.7201 125.094C51.9503 125.347 52.1108 125.682 52.2017 126.099C52.2926 126.517 52.2869 127.031 52.1846 127.642L52.1164 128.068H47.071L47.2074 127.199H51.2301C51.2954 126.83 51.2784 126.5 51.1789 126.21C51.0824 125.92 50.9133 125.692 50.6718 125.524C50.4332 125.357 50.1306 125.273 49.7642 125.273C49.3863 125.273 49.0341 125.375 48.7074 125.58C48.3806 125.781 48.1079 126.037 47.8892 126.347C47.6704 126.653 47.5341 126.966 47.4801 127.284L47.3608 128.034C47.2755 128.577 47.2883 129.009 47.3991 129.33C47.5128 129.651 47.7102 129.882 47.9914 130.024C48.2727 130.163 48.625 130.233 49.0483 130.233C49.3181 130.233 49.5667 130.196 49.794 130.122C50.0213 130.045 50.2244 129.932 50.4034 129.781C50.5824 129.628 50.7329 129.437 50.8551 129.21L51.7755 129.483C51.6193 129.812 51.3991 130.102 51.115 130.352C50.8338 130.599 50.5042 130.793 50.1264 130.932C49.7514 131.068 49.3409 131.136 48.8949 131.136ZM56.6288 127.062L55.9811 131H54.9754L56.0663 124.455H57.0379L56.8674 125.477H56.9527C57.1572 125.145 57.4342 124.878 57.7836 124.676C58.1331 124.472 58.5549 124.369 59.0493 124.369C59.4868 124.369 59.8561 124.46 60.1572 124.642C60.4612 124.821 60.6757 125.094 60.8007 125.46C60.9285 125.824 60.947 126.284 60.8561 126.841L60.1572 131H59.1515L59.8333 126.909C59.9186 126.398 59.8518 125.997 59.6331 125.707C59.4172 125.418 59.0748 125.273 58.6061 125.273C58.2822 125.273 57.9825 125.342 57.7069 125.482C57.4342 125.621 57.2027 125.824 57.0123 126.091C56.8248 126.358 56.697 126.682 56.6288 127.062ZM66.5222 131.136C65.8944 131.136 65.3759 130.997 64.9668 130.719C64.5577 130.438 64.2722 130.045 64.1103 129.543C63.9483 129.037 63.9228 128.449 64.0336 127.778C64.1444 127.108 64.3645 126.517 64.6941 126.006C65.0236 125.491 65.4341 125.091 65.9256 124.804C66.4171 124.514 66.9569 124.369 67.5449 124.369C67.8858 124.369 68.214 124.426 68.5293 124.54C68.8446 124.653 69.1174 124.838 69.3475 125.094C69.5776 125.347 69.7381 125.682 69.829 126.099C69.9199 126.517 69.9142 127.031 69.812 127.642L69.7438 128.068H64.6983L64.8347 127.199H68.8574C68.9228 126.83 68.9057 126.5 68.8063 126.21C68.7097 125.92 68.5407 125.692 68.2992 125.524C68.0605 125.357 67.758 125.273 67.3915 125.273C67.0137 125.273 66.6614 125.375 66.3347 125.58C66.008 125.781 65.7353 126.037 65.5165 126.347C65.2978 126.653 65.1614 126.966 65.1074 127.284L64.9881 128.034C64.9029 128.577 64.9157 129.009 65.0265 129.33C65.1401 129.651 65.3375 129.882 65.6188 130.024C65.9 130.163 66.2523 130.233 66.6756 130.233C66.9455 130.233 67.1941 130.196 67.4213 130.122C67.6486 130.045 67.8517 129.932 68.0307 129.781C68.2097 129.628 68.3603 129.437 68.4824 129.21L69.4029 129.483C69.2466 129.812 69.0265 130.102 68.7424 130.352C68.4611 130.599 68.1316 130.793 67.7537 130.932C67.3787 131.068 66.9682 131.136 66.5222 131.136ZM72.6027 131L73.6936 124.455H74.6652L74.4948 125.443H74.563C74.7334 125.119 74.9934 124.857 75.3428 124.655C75.6922 124.453 76.063 124.352 76.455 124.352C76.5317 124.352 76.624 124.354 76.732 124.357C76.84 124.357 76.9238 124.361 76.9834 124.369L76.813 125.392C76.7789 125.384 76.7022 125.371 76.5829 125.354C76.4635 125.334 76.3357 125.324 76.1993 125.324C75.8811 125.324 75.5871 125.391 75.3172 125.524C75.0473 125.655 74.8215 125.837 74.6397 126.07C74.4579 126.3 74.3414 126.562 74.2902 126.858L73.6084 131H72.6027ZM80.8001 131.153C80.3853 131.153 80.0217 131.075 79.7092 130.919C79.3967 130.76 79.1652 130.531 79.0146 130.233C78.864 129.932 78.8228 129.568 78.891 129.142C78.9564 128.767 79.0828 128.463 79.2703 128.23C79.4578 127.994 79.685 127.81 79.9521 127.676C80.222 127.54 80.5118 127.439 80.8214 127.374C81.1339 127.305 81.445 127.253 81.7547 127.216C82.1581 127.165 82.4862 127.125 82.739 127.097C82.9919 127.068 83.1822 127.021 83.31 126.956C83.4379 126.891 83.516 126.778 83.5444 126.619V126.585C83.6126 126.168 83.5572 125.842 83.3782 125.609C83.1993 125.374 82.8797 125.256 82.4194 125.256C81.9422 125.256 81.543 125.361 81.222 125.571C80.901 125.781 80.6637 126.006 80.5103 126.244L79.624 125.903C79.8569 125.506 80.1353 125.196 80.4592 124.974C80.7831 124.75 81.1225 124.594 81.4777 124.506C81.8328 124.415 82.1751 124.369 82.5047 124.369C82.7149 124.369 82.9521 124.395 83.2163 124.446C83.4805 124.494 83.7277 124.595 83.9578 124.749C84.1907 124.902 84.3654 125.134 84.4819 125.443C84.6012 125.753 84.6183 126.168 84.5331 126.688L83.8172 131H82.8115L82.9649 130.114H82.9137C82.8228 130.256 82.6836 130.408 82.4961 130.57C82.3115 130.732 82.0771 130.869 81.793 130.983C81.5118 131.097 81.1808 131.153 80.8001 131.153ZM81.0899 130.25C81.4876 130.25 81.8356 130.172 82.1339 130.016C82.435 129.859 82.6765 129.658 82.8583 129.411C83.043 129.163 83.1581 128.903 83.2035 128.631L83.3569 127.71C83.3058 127.761 83.2049 127.808 83.0544 127.851C82.9038 127.891 82.7333 127.926 82.543 127.957C82.3555 127.986 82.1723 128.011 81.9933 128.034C81.8172 128.054 81.6751 128.071 81.5672 128.085C81.3001 128.119 81.0458 128.175 80.8044 128.251C80.5657 128.325 80.364 128.437 80.1993 128.588C80.0373 128.736 79.9365 128.937 79.8967 129.193C79.837 129.543 79.9208 129.807 80.1481 129.986C80.3754 130.162 80.6893 130.25 81.0899 130.25ZM89.9073 122.273L88.4584 131H87.4527L88.9016 122.273H89.9073ZM34.2808 143.92L33.3263 144.176C33.2922 144.023 33.2325 143.875 33.1473 143.733C33.0649 143.588 32.9371 143.47 32.7638 143.379C32.5933 143.286 32.3604 143.239 32.0649 143.239C31.6643 143.239 31.3163 143.331 31.0209 143.516C30.7254 143.697 30.5564 143.929 30.5138 144.21C30.4712 144.457 30.528 144.655 30.6842 144.803C30.8405 144.95 31.1018 145.071 31.4683 145.165L32.4058 145.403C32.9683 145.548 33.3689 145.766 33.6075 146.055C33.849 146.342 33.9314 146.716 33.8547 147.176C33.7922 147.551 33.6288 147.886 33.3646 148.182C33.1004 148.477 32.7624 148.71 32.3504 148.881C31.9385 149.051 31.4797 149.136 30.974 149.136C30.3007 149.136 29.7695 148.991 29.3803 148.702C28.9911 148.409 28.7837 147.986 28.7581 147.432L29.7638 147.193C29.7893 147.543 29.9143 147.807 30.1388 147.986C30.3661 148.162 30.6842 148.25 31.0933 148.25C31.5621 148.25 31.9527 148.151 32.2652 147.952C32.5777 147.75 32.7553 147.509 32.7979 147.227C32.8405 146.997 32.795 146.805 32.6615 146.652C32.5308 146.499 32.3036 146.384 31.9797 146.307L30.9399 146.051C30.3604 145.906 29.9541 145.685 29.7212 145.386C29.4911 145.088 29.4143 144.713 29.4911 144.261C29.5536 143.892 29.7126 143.565 29.9683 143.281C30.2268 142.997 30.5507 142.774 30.9399 142.612C31.332 142.45 31.7581 142.369 32.2183 142.369C32.8661 142.369 33.3504 142.511 33.6714 142.795C33.9925 143.077 34.1956 143.452 34.2808 143.92ZM39.589 149.136C38.9612 149.136 38.4427 148.997 38.0336 148.719C37.6245 148.438 37.339 148.045 37.1771 147.543C37.0151 147.037 36.9896 146.449 37.1004 145.778C37.2112 145.108 37.4313 144.517 37.7609 144.006C38.0904 143.491 38.5009 143.091 38.9924 142.804C39.4839 142.514 40.0237 142.369 40.6117 142.369C40.9526 142.369 41.2808 142.426 41.5961 142.54C41.9114 142.653 42.1842 142.838 42.4143 143.094C42.6444 143.347 42.8049 143.682 42.8958 144.099C42.9867 144.517 42.981 145.031 42.8788 145.642L42.8106 146.068H37.7651L37.9015 145.199H41.9242C41.9896 144.83 41.9725 144.5 41.8731 144.21C41.7765 143.92 41.6075 143.692 41.366 143.524C41.1273 143.357 40.8248 143.273 40.4583 143.273C40.0805 143.273 39.7282 143.375 39.4015 143.58C39.0748 143.781 38.8021 144.037 38.5833 144.347C38.3646 144.653 38.2282 144.966 38.1742 145.284L38.0549 146.034C37.9697 146.577 37.9825 147.009 38.0933 147.33C38.2069 147.651 38.4043 147.882 38.6856 148.024C38.9668 148.163 39.3191 148.233 39.7424 148.233C40.0123 148.233 40.2609 148.196 40.4881 148.122C40.7154 148.045 40.9185 147.932 41.0975 147.781C41.2765 147.628 41.4271 147.437 41.5492 147.21L42.4697 147.483C42.3134 147.812 42.0933 148.102 41.8092 148.352C41.5279 148.599 41.1984 148.793 40.8205 148.932C40.4455 149.068 40.035 149.136 39.589 149.136ZM48.3116 149.136C47.6951 149.136 47.1894 148.991 46.7945 148.702C46.4025 148.412 46.1298 148.013 45.9763 147.504C45.8229 146.996 45.8002 146.415 45.9082 145.761C46.0161 145.097 46.2349 144.51 46.5644 144.001C46.894 143.49 47.3045 143.091 47.796 142.804C48.2874 142.514 48.8286 142.369 49.4195 142.369C49.8798 142.369 50.2803 142.455 50.6212 142.625C50.9621 142.795 51.2249 143.034 51.4096 143.341C51.5942 143.648 51.6809 144.006 51.6695 144.415H50.6638C50.6354 144.116 50.5076 143.852 50.2803 143.622C50.0559 143.389 49.7235 143.273 49.2832 143.273C48.8911 143.273 48.5303 143.375 48.2008 143.58C47.8712 143.781 47.5942 144.067 47.3698 144.436C47.1454 144.803 46.9934 145.233 46.9138 145.727C46.8286 146.233 46.8357 146.673 46.9352 147.048C47.0346 147.423 47.215 147.714 47.4763 147.922C47.7377 148.129 48.0673 148.233 48.465 148.233C48.7263 148.233 48.9707 148.188 49.1979 148.097C49.4252 148.006 49.6269 147.875 49.8031 147.705C49.9792 147.534 50.1184 147.33 50.2207 147.091H51.2263C51.1013 147.477 50.9011 147.825 50.6255 148.135C50.3499 148.442 50.0161 148.686 49.6241 148.868C49.232 149.047 48.7945 149.136 48.3116 149.136ZM54.1727 149L55.2636 142.455H56.2352L56.0647 143.443H56.1329C56.3033 143.119 56.5633 142.857 56.9127 142.655C57.2621 142.453 57.6329 142.352 58.0249 142.352C58.1016 142.352 58.194 142.354 58.3019 142.357C58.4099 142.357 58.4937 142.361 58.5533 142.369L58.3829 143.392C58.3488 143.384 58.2721 143.371 58.1528 143.354C58.0335 143.334 57.9056 143.324 57.7692 143.324C57.4511 143.324 57.157 143.391 56.8871 143.524C56.6173 143.655 56.3914 143.837 56.2096 144.07C56.0278 144.3 55.9113 144.562 55.8602 144.858L55.1783 149H54.1727ZM62.989 149.136C62.3612 149.136 61.8427 148.997 61.4336 148.719C61.0245 148.438 60.739 148.045 60.5771 147.543C60.4151 147.037 60.3896 146.449 60.5004 145.778C60.6112 145.108 60.8313 144.517 61.1609 144.006C61.4904 143.491 61.9009 143.091 62.3924 142.804C62.8839 142.514 63.4237 142.369 64.0117 142.369C64.3526 142.369 64.6808 142.426 64.9961 142.54C65.3114 142.653 65.5842 142.838 65.8143 143.094C66.0444 143.347 66.2049 143.682 66.2958 144.099C66.3867 144.517 66.381 145.031 66.2788 145.642L66.2106 146.068H61.1651L61.3015 145.199H65.3242C65.3896 144.83 65.3725 144.5 65.2731 144.21C65.1765 143.92 65.0075 143.692 64.766 143.524C64.5273 143.357 64.2248 143.273 63.8583 143.273C63.4805 143.273 63.1282 143.375 62.8015 143.58C62.4748 143.781 62.2021 144.037 61.9833 144.347C61.7646 144.653 61.6282 144.966 61.5742 145.284L61.4549 146.034C61.3697 146.577 61.3825 147.009 61.4933 147.33C61.6069 147.651 61.8043 147.882 62.0856 148.024C62.3668 148.163 62.7191 148.233 63.1424 148.233C63.4123 148.233 63.6609 148.196 63.8881 148.122C64.1154 148.045 64.3185 147.932 64.4975 147.781C64.6765 147.628 64.8271 147.437 64.9492 147.21L65.8697 147.483C65.7134 147.812 65.4933 148.102 65.2092 148.352C64.9279 148.599 64.5984 148.793 64.2205 148.932C63.8455 149.068 63.435 149.136 62.989 149.136ZM73.007 142.455L72.8707 143.307H69.4786L69.615 142.455H73.007ZM70.8593 140.886H71.865L70.8252 147.125C70.7798 147.409 70.7869 147.622 70.8465 147.764C70.909 147.903 71.0028 147.997 71.1278 148.045C71.2556 148.091 71.3934 148.114 71.5411 148.114C71.6519 148.114 71.7428 148.108 71.8138 148.097C71.8849 148.082 71.9417 148.071 71.9843 148.062L72.0525 148.966C71.9758 148.991 71.8721 149.017 71.7414 149.043C71.6136 149.071 71.4559 149.085 71.2684 149.085C70.9843 149.085 70.7173 149.024 70.4673 148.902C70.2173 148.78 70.0255 148.594 69.892 148.344C69.7585 148.094 69.7229 147.778 69.7854 147.398L70.8593 140.886ZM77.138 149.153C76.7232 149.153 76.3596 149.075 76.0471 148.919C75.7346 148.76 75.5031 148.531 75.3525 148.233C75.2019 147.932 75.1607 147.568 75.2289 147.142C75.2942 146.767 75.4207 146.463 75.6082 146.23C75.7957 145.994 76.0229 145.81 76.29 145.676C76.5599 145.54 76.8496 145.439 77.1593 145.374C77.4718 145.305 77.7829 145.253 78.0925 145.216C78.496 145.165 78.8241 145.125 79.0769 145.097C79.3298 145.068 79.5201 145.021 79.6479 144.956C79.7758 144.891 79.8539 144.778 79.8823 144.619V144.585C79.9505 144.168 79.8951 143.842 79.7161 143.609C79.5371 143.374 79.2175 143.256 78.7573 143.256C78.28 143.256 77.8809 143.361 77.5599 143.571C77.2388 143.781 77.0016 144.006 76.8482 144.244L75.9619 143.903C76.1948 143.506 76.4732 143.196 76.7971 142.974C77.121 142.75 77.4604 142.594 77.8156 142.506C78.1707 142.415 78.513 142.369 78.8425 142.369C79.0528 142.369 79.29 142.395 79.5542 142.446C79.8184 142.494 80.0656 142.595 80.2957 142.749C80.5286 142.902 80.7033 143.134 80.8198 143.443C80.9391 143.753 80.9562 144.168 80.871 144.688L80.155 149H79.1494L79.3028 148.114H79.2516C79.1607 148.256 79.0215 148.408 78.834 148.57C78.6494 148.732 78.415 148.869 78.1309 148.983C77.8496 149.097 77.5187 149.153 77.138 149.153ZM77.4278 148.25C77.8255 148.25 78.1735 148.172 78.4718 148.016C78.7729 147.859 79.0144 147.658 79.1962 147.411C79.3809 147.163 79.496 146.903 79.5414 146.631L79.6948 145.71C79.6437 145.761 79.5428 145.808 79.3923 145.851C79.2417 145.891 79.0712 145.926 78.8809 145.957C78.6934 145.986 78.5102 146.011 78.3312 146.034C78.155 146.054 78.013 146.071 77.905 146.085C77.638 146.119 77.3837 146.175 77.1423 146.251C76.9036 146.325 76.7019 146.437 76.5371 146.588C76.3752 146.736 76.2744 146.937 76.2346 147.193C76.1749 147.543 76.2587 147.807 76.486 147.986C76.7133 148.162 77.0272 148.25 77.4278 148.25ZM83.7906 149L84.8815 142.455H85.8531L85.6827 143.443H85.7509C85.9213 143.119 86.1812 142.857 86.5307 142.655C86.8801 142.453 87.2509 142.352 87.6429 142.352C87.7196 142.352 87.8119 142.354 87.9199 142.357C88.0278 142.357 88.1116 142.361 88.1713 142.369L88.0009 143.392C87.9668 143.384 87.8901 143.371 87.7707 143.354C87.6514 143.334 87.5236 143.324 87.3872 143.324C87.069 143.324 86.775 143.391 86.5051 143.524C86.2352 143.655 86.0094 143.837 85.8276 144.07C85.6457 144.3 85.5293 144.562 85.4781 144.858L84.7963 149H83.7906ZM90.5253 151.455C90.3548 151.455 90.2043 151.44 90.0736 151.412C89.9457 151.386 89.8577 151.361 89.8094 151.335L90.2185 150.449C90.4514 150.511 90.6588 150.53 90.8406 150.504C91.0253 150.482 91.2 150.392 91.3648 150.236C91.5324 150.082 91.7071 149.841 91.8889 149.511L92.1702 149L90.8577 142.455H91.906L92.8435 147.688H92.9116L95.5878 142.455H96.7213L92.7071 149.946C92.5196 150.295 92.3136 150.581 92.0892 150.803C91.8648 151.024 91.6219 151.188 91.3605 151.293C91.0991 151.401 90.8207 151.455 90.5253 151.455Z" fill="black"/>
</g>
<g filter="url(#filter2_d_317_1419)">
<rect x="501" y="102" width="117" height="68" rx="8" fill="white"/>
<rect x="501.5" y="102.5" width="116" height="67" rx="7.5" stroke="#EDEDED"/>
<path d="M554.523 134H553.483C553.472 133.696 553.409 133.429 553.295 133.199C553.182 132.969 553.028 132.776 552.835 132.619C552.645 132.46 552.426 132.341 552.179 132.261C551.932 132.182 551.668 132.142 551.386 132.142C550.847 132.142 550.335 132.28 549.852 132.555C549.369 132.828 548.956 133.23 548.612 133.761C548.268 134.29 548.034 134.937 547.909 135.705C547.784 136.449 547.803 137.075 547.964 137.584C548.126 138.092 548.395 138.477 548.77 138.739C549.145 139 549.591 139.131 550.108 139.131C550.406 139.131 550.699 139.091 550.986 139.011C551.276 138.932 551.545 138.814 551.795 138.658C552.048 138.499 552.273 138.304 552.469 138.074C552.668 137.841 552.824 137.574 552.938 137.273H553.994C553.838 137.719 553.626 138.118 553.359 138.47C553.095 138.822 552.79 139.122 552.443 139.369C552.097 139.614 551.723 139.8 551.322 139.928C550.922 140.055 550.506 140.119 550.074 140.119C549.318 140.119 548.675 139.935 548.143 139.565C547.615 139.193 547.237 138.668 547.01 137.989C546.786 137.307 546.75 136.5 546.903 135.568C547.057 134.659 547.351 133.875 547.786 133.216C548.22 132.554 548.753 132.045 549.384 131.69C550.014 131.332 550.699 131.153 551.438 131.153C551.881 131.153 552.288 131.217 552.661 131.345C553.033 131.473 553.357 131.661 553.632 131.908C553.908 132.152 554.122 132.45 554.276 132.803C554.432 133.152 554.514 133.551 554.523 134ZM557.042 140L558.491 131.273H563.758L563.604 132.21H559.394L558.9 135.159H562.837L562.684 136.097H558.746L558.252 139.062H562.53L562.377 140H557.042ZM566.014 140L567.463 131.273H572.696L572.542 132.21H568.366L567.872 135.159H571.656L571.502 136.097H567.718L567.071 140H566.014Z" fill="black"/>
</g>
<g filter="url(#filter3_d_317_1419)">
<rect x="67" y="268" width="68" height="50" rx="8" fill="white"/>
<rect x="67.5" y="268.5" width="67" height="49" rx="7.5" stroke="#EDEDED"/>
<path d="M99.5227 291H98.483C98.4716 290.696 98.4091 290.429 98.2955 290.199C98.1818 289.969 98.0284 289.776 97.8352 289.619C97.6449 289.46 97.4261 289.341 97.179 289.261C96.9318 289.182 96.6676 289.142 96.3864 289.142C95.8466 289.142 95.3352 289.28 94.8523 289.555C94.3693 289.828 93.956 290.23 93.6122 290.761C93.2685 291.29 93.0341 291.937 92.9091 292.705C92.7841 293.449 92.8026 294.075 92.9645 294.584C93.1264 295.092 93.3949 295.477 93.7699 295.739C94.1449 296 94.5909 296.131 95.108 296.131C95.4063 296.131 95.6989 296.091 95.9858 296.011C96.2756 295.932 96.5455 295.814 96.7955 295.658C97.0483 295.499 97.2727 295.304 97.4688 295.074C97.6676 294.841 97.8239 294.574 97.9375 294.273H98.9943C98.8381 294.719 98.6264 295.118 98.3594 295.47C98.0952 295.822 97.7898 296.122 97.4432 296.369C97.0966 296.614 96.723 296.8 96.3224 296.928C95.9219 297.055 95.5057 297.119 95.0739 297.119C94.3182 297.119 93.6747 296.935 93.1435 296.565C92.6151 296.193 92.2372 295.668 92.0099 294.989C91.7855 294.307 91.75 293.5 91.9034 292.568C92.0568 291.659 92.3509 290.875 92.7855 290.216C93.2202 289.554 93.7528 289.045 94.3835 288.69C95.0142 288.332 95.6989 288.153 96.4375 288.153C96.8807 288.153 97.2884 288.217 97.6605 288.345C98.0327 288.473 98.3565 288.661 98.6321 288.908C98.9077 289.152 99.1222 289.45 99.2756 289.803C99.4318 290.152 99.5142 290.551 99.5227 291ZM110.053 291H109.013C109.002 290.696 108.94 290.429 108.826 290.199C108.712 289.969 108.559 289.776 108.366 289.619C108.175 289.46 107.957 289.341 107.709 289.261C107.462 289.182 107.198 289.142 106.917 289.142C106.377 289.142 105.866 289.28 105.383 289.555C104.9 289.828 104.486 290.23 104.143 290.761C103.799 291.29 103.565 291.937 103.44 292.705C103.315 293.449 103.333 294.075 103.495 294.584C103.657 295.092 103.925 295.477 104.3 295.739C104.675 296 105.121 296.131 105.638 296.131C105.937 296.131 106.229 296.091 106.516 296.011C106.806 295.932 107.076 295.814 107.326 295.658C107.579 295.499 107.803 295.304 107.999 295.074C108.198 294.841 108.354 294.574 108.468 294.273H109.525C109.369 294.719 109.157 295.118 108.89 295.47C108.626 295.822 108.32 296.122 107.974 296.369C107.627 296.614 107.253 296.8 106.853 296.928C106.452 297.055 106.036 297.119 105.604 297.119C104.849 297.119 104.205 296.935 103.674 296.565C103.146 296.193 102.768 295.668 102.54 294.989C102.316 294.307 102.28 293.5 102.434 292.568C102.587 291.659 102.881 290.875 103.316 290.216C103.751 289.554 104.283 289.045 104.914 288.69C105.545 288.332 106.229 288.153 106.968 288.153C107.411 288.153 107.819 288.217 108.191 288.345C108.563 288.473 108.887 288.661 109.163 288.908C109.438 289.152 109.653 289.45 109.806 289.803C109.962 290.152 110.045 290.551 110.053 291Z" fill="black"/>
</g>
<g filter="url(#filter4_d_317_1419)">
<rect x="150" y="268" width="68" height="50" rx="8" fill="white"/>
<rect x="150.5" y="268.5" width="67" height="49" rx="7.5" stroke="#EDEDED"/>
<path d="M182.523 291H181.483C181.472 290.696 181.409 290.429 181.295 290.199C181.182 289.969 181.028 289.776 180.835 289.619C180.645 289.46 180.426 289.341 180.179 289.261C179.932 289.182 179.668 289.142 179.386 289.142C178.847 289.142 178.335 289.28 177.852 289.555C177.369 289.828 176.956 290.23 176.612 290.761C176.268 291.29 176.034 291.937 175.909 292.705C175.784 293.449 175.803 294.075 175.964 294.584C176.126 295.092 176.395 295.477 176.77 295.739C177.145 296 177.591 296.131 178.108 296.131C178.406 296.131 178.699 296.091 178.986 296.011C179.276 295.932 179.545 295.814 179.795 295.658C180.048 295.499 180.273 295.304 180.469 295.074C180.668 294.841 180.824 294.574 180.938 294.273H181.994C181.838 294.719 181.626 295.118 181.359 295.47C181.095 295.822 180.79 296.122 180.443 296.369C180.097 296.614 179.723 296.8 179.322 296.928C178.922 297.055 178.506 297.119 178.074 297.119C177.318 297.119 176.675 296.935 176.143 296.565C175.615 296.193 175.237 295.668 175.01 294.989C174.786 294.307 174.75 293.5 174.903 292.568C175.057 291.659 175.351 290.875 175.786 290.216C176.22 289.554 176.753 289.045 177.384 288.69C178.014 288.332 178.699 288.153 179.438 288.153C179.881 288.153 180.288 288.217 180.661 288.345C181.033 288.473 181.357 288.661 181.632 288.908C181.908 289.152 182.122 289.45 182.276 289.803C182.432 290.152 182.514 290.551 182.523 291ZM193.053 291H192.013C192.002 290.696 191.94 290.429 191.826 290.199C191.712 289.969 191.559 289.776 191.366 289.619C191.175 289.46 190.957 289.341 190.709 289.261C190.462 289.182 190.198 289.142 189.917 289.142C189.377 289.142 188.866 289.28 188.383 289.555C187.9 289.828 187.486 290.23 187.143 290.761C186.799 291.29 186.565 291.937 186.44 292.705C186.315 293.449 186.333 294.075 186.495 294.584C186.657 295.092 186.925 295.477 187.3 295.739C187.675 296 188.121 296.131 188.638 296.131C188.937 296.131 189.229 296.091 189.516 296.011C189.806 295.932 190.076 295.814 190.326 295.658C190.579 295.499 190.803 295.304 190.999 295.074C191.198 294.841 191.354 294.574 191.468 294.273H192.525C192.369 294.719 192.157 295.118 191.89 295.47C191.626 295.822 191.32 296.122 190.974 296.369C190.627 296.614 190.253 296.8 189.853 296.928C189.452 297.055 189.036 297.119 188.604 297.119C187.849 297.119 187.205 296.935 186.674 296.565C186.146 296.193 185.768 295.668 185.54 294.989C185.316 294.307 185.28 293.5 185.434 292.568C185.587 291.659 185.881 290.875 186.316 290.216C186.751 289.554 187.283 289.045 187.914 288.69C188.545 288.332 189.229 288.153 189.968 288.153C190.411 288.153 190.819 288.217 191.191 288.345C191.563 288.473 191.887 288.661 192.163 288.908C192.438 289.152 192.653 289.45 192.806 289.803C192.962 290.152 193.045 290.551 193.053 291Z" fill="black"/>
</g>
<line x1="101" y1="268" x2="101" y2="218" stroke="#694C55" stroke-width="2"/>
<line x1="183" y1="268" x2="183" y2="218" stroke="#694C55" stroke-width="2"/>
<line x1="266" y1="270" x2="266" y2="220" stroke="#694C55" stroke-width="2"/>
<line x1="349" y1="268" x2="349" y2="218" stroke="#694C55" stroke-width="2"/>
<line x1="432" y1="268" x2="432" y2="218" stroke="#694C55" stroke-width="2"/>
<line x1="515" y1="268" x2="515" y2="218" stroke="#694C55" stroke-width="2"/>
<g filter="url(#filter5_d_317_1419)">
<rect x="233" y="268" width="68" height="50" rx="8" fill="white"/>
<rect x="233.5" y="268.5" width="67" height="49" rx="7.5" stroke="#EDEDED"/>
<path d="M265.523 291H264.483C264.472 290.696 264.409 290.429 264.295 290.199C264.182 289.969 264.028 289.776 263.835 289.619C263.645 289.46 263.426 289.341 263.179 289.261C262.932 289.182 262.668 289.142 262.386 289.142C261.847 289.142 261.335 289.28 260.852 289.555C260.369 289.828 259.956 290.23 259.612 290.761C259.268 291.29 259.034 291.937 258.909 292.705C258.784 293.449 258.803 294.075 258.964 294.584C259.126 295.092 259.395 295.477 259.77 295.739C260.145 296 260.591 296.131 261.108 296.131C261.406 296.131 261.699 296.091 261.986 296.011C262.276 295.932 262.545 295.814 262.795 295.658C263.048 295.499 263.273 295.304 263.469 295.074C263.668 294.841 263.824 294.574 263.938 294.273H264.994C264.838 294.719 264.626 295.118 264.359 295.47C264.095 295.822 263.79 296.122 263.443 296.369C263.097 296.614 262.723 296.8 262.322 296.928C261.922 297.055 261.506 297.119 261.074 297.119C260.318 297.119 259.675 296.935 259.143 296.565C258.615 296.193 258.237 295.668 258.01 294.989C257.786 294.307 257.75 293.5 257.903 292.568C258.057 291.659 258.351 290.875 258.786 290.216C259.22 289.554 259.753 289.045 260.384 288.69C261.014 288.332 261.699 288.153 262.438 288.153C262.881 288.153 263.288 288.217 263.661 288.345C264.033 288.473 264.357 288.661 264.632 288.908C264.908 289.152 265.122 289.45 265.276 289.803C265.432 290.152 265.514 290.551 265.523 291ZM276.053 291H275.013C275.002 290.696 274.94 290.429 274.826 290.199C274.712 289.969 274.559 289.776 274.366 289.619C274.175 289.46 273.957 289.341 273.709 289.261C273.462 289.182 273.198 289.142 272.917 289.142C272.377 289.142 271.866 289.28 271.383 289.555C270.9 289.828 270.486 290.23 270.143 290.761C269.799 291.29 269.565 291.937 269.44 292.705C269.315 293.449 269.333 294.075 269.495 294.584C269.657 295.092 269.925 295.477 270.3 295.739C270.675 296 271.121 296.131 271.638 296.131C271.937 296.131 272.229 296.091 272.516 296.011C272.806 295.932 273.076 295.814 273.326 295.658C273.579 295.499 273.803 295.304 273.999 295.074C274.198 294.841 274.354 294.574 274.468 294.273H275.525C275.369 294.719 275.157 295.118 274.89 295.47C274.626 295.822 274.32 296.122 273.974 296.369C273.627 296.614 273.253 296.8 272.853 296.928C272.452 297.055 272.036 297.119 271.604 297.119C270.849 297.119 270.205 296.935 269.674 296.565C269.146 296.193 268.768 295.668 268.54 294.989C268.316 294.307 268.28 293.5 268.434 292.568C268.587 291.659 268.881 290.875 269.316 290.216C269.751 289.554 270.283 289.045 270.914 288.69C271.545 288.332 272.229 288.153 272.968 288.153C273.411 288.153 273.819 288.217 274.191 288.345C274.563 288.473 274.887 288.661 275.163 288.908C275.438 289.152 275.653 289.45 275.806 289.803C275.962 290.152 276.045 290.551 276.053 291Z" fill="black"/>
</g>
<g filter="url(#filter6_d_317_1419)">
<rect x="316" y="268" width="68" height="50" rx="8" fill="white"/>
<rect x="316.5" y="268.5" width="67" height="49" rx="7.5" stroke="#EDEDED"/>
<path d="M348.523 291H347.483C347.472 290.696 347.409 290.429 347.295 290.199C347.182 289.969 347.028 289.776 346.835 289.619C346.645 289.46 346.426 289.341 346.179 289.261C345.932 289.182 345.668 289.142 345.386 289.142C344.847 289.142 344.335 289.28 343.852 289.555C343.369 289.828 342.956 290.23 342.612 290.761C342.268 291.29 342.034 291.937 341.909 292.705C341.784 293.449 341.803 294.075 341.964 294.584C342.126 295.092 342.395 295.477 342.77 295.739C343.145 296 343.591 296.131 344.108 296.131C344.406 296.131 344.699 296.091 344.986 296.011C345.276 295.932 345.545 295.814 345.795 295.658C346.048 295.499 346.273 295.304 346.469 295.074C346.668 294.841 346.824 294.574 346.938 294.273H347.994C347.838 294.719 347.626 295.118 347.359 295.47C347.095 295.822 346.79 296.122 346.443 296.369C346.097 296.614 345.723 296.8 345.322 296.928C344.922 297.055 344.506 297.119 344.074 297.119C343.318 297.119 342.675 296.935 342.143 296.565C341.615 296.193 341.237 295.668 341.01 294.989C340.786 294.307 340.75 293.5 340.903 292.568C341.057 291.659 341.351 290.875 341.786 290.216C342.22 289.554 342.753 289.045 343.384 288.69C344.014 288.332 344.699 288.153 345.438 288.153C345.881 288.153 346.288 288.217 346.661 288.345C347.033 288.473 347.357 288.661 347.632 288.908C347.908 289.152 348.122 289.45 348.276 289.803C348.432 290.152 348.514 290.551 348.523 291ZM359.053 291H358.013C358.002 290.696 357.94 290.429 357.826 290.199C357.712 289.969 357.559 289.776 357.366 289.619C357.175 289.46 356.957 289.341 356.709 289.261C356.462 289.182 356.198 289.142 355.917 289.142C355.377 289.142 354.866 289.28 354.383 289.555C353.9 289.828 353.486 290.23 353.143 290.761C352.799 291.29 352.565 291.937 352.44 292.705C352.315 293.449 352.333 294.075 352.495 294.584C352.657 295.092 352.925 295.477 353.3 295.739C353.675 296 354.121 296.131 354.638 296.131C354.937 296.131 355.229 296.091 355.516 296.011C355.806 295.932 356.076 295.814 356.326 295.658C356.579 295.499 356.803 295.304 356.999 295.074C357.198 294.841 357.354 294.574 357.468 294.273H358.525C358.369 294.719 358.157 295.118 357.89 295.47C357.626 295.822 357.32 296.122 356.974 296.369C356.627 296.614 356.253 296.8 355.853 296.928C355.452 297.055 355.036 297.119 354.604 297.119C353.849 297.119 353.205 296.935 352.674 296.565C352.146 296.193 351.768 295.668 351.54 294.989C351.316 294.307 351.28 293.5 351.434 292.568C351.587 291.659 351.881 290.875 352.316 290.216C352.751 289.554 353.283 289.045 353.914 288.69C354.545 288.332 355.229 288.153 355.968 288.153C356.411 288.153 356.819 288.217 357.191 288.345C357.563 288.473 357.887 288.661 358.163 288.908C358.438 289.152 358.653 289.45 358.806 289.803C358.962 290.152 359.045 290.551 359.053 291Z" fill="black"/>
</g>
<g filter="url(#filter7_d_317_1419)">
<rect x="399" y="268" width="68" height="50" rx="8" fill="white"/>
<rect x="399.5" y="268.5" width="67" height="49" rx="7.5" stroke="#EDEDED"/>
<path d="M431.523 291H430.483C430.472 290.696 430.409 290.429 430.295 290.199C430.182 289.969 430.028 289.776 429.835 289.619C429.645 289.46 429.426 289.341 429.179 289.261C428.932 289.182 428.668 289.142 428.386 289.142C427.847 289.142 427.335 289.28 426.852 289.555C426.369 289.828 425.956 290.23 425.612 290.761C425.268 291.29 425.034 291.937 424.909 292.705C424.784 293.449 424.803 294.075 424.964 294.584C425.126 295.092 425.395 295.477 425.77 295.739C426.145 296 426.591 296.131 427.108 296.131C427.406 296.131 427.699 296.091 427.986 296.011C428.276 295.932 428.545 295.814 428.795 295.658C429.048 295.499 429.273 295.304 429.469 295.074C429.668 294.841 429.824 294.574 429.938 294.273H430.994C430.838 294.719 430.626 295.118 430.359 295.47C430.095 295.822 429.79 296.122 429.443 296.369C429.097 296.614 428.723 296.8 428.322 296.928C427.922 297.055 427.506 297.119 427.074 297.119C426.318 297.119 425.675 296.935 425.143 296.565C424.615 296.193 424.237 295.668 424.01 294.989C423.786 294.307 423.75 293.5 423.903 292.568C424.057 291.659 424.351 290.875 424.786 290.216C425.22 289.554 425.753 289.045 426.384 288.69C427.014 288.332 427.699 288.153 428.438 288.153C428.881 288.153 429.288 288.217 429.661 288.345C430.033 288.473 430.357 288.661 430.632 288.908C430.908 289.152 431.122 289.45 431.276 289.803C431.432 290.152 431.514 290.551 431.523 291ZM442.053 291H441.013C441.002 290.696 440.94 290.429 440.826 290.199C440.712 289.969 440.559 289.776 440.366 289.619C440.175 289.46 439.957 289.341 439.709 289.261C439.462 289.182 439.198 289.142 438.917 289.142C438.377 289.142 437.866 289.28 437.383 289.555C436.9 289.828 436.486 290.23 436.143 290.761C435.799 291.29 435.565 291.937 435.44 292.705C435.315 293.449 435.333 294.075 435.495 294.584C435.657 295.092 435.925 295.477 436.3 295.739C436.675 296 437.121 296.131 437.638 296.131C437.937 296.131 438.229 296.091 438.516 296.011C438.806 295.932 439.076 295.814 439.326 295.658C439.579 295.499 439.803 295.304 439.999 295.074C440.198 294.841 440.354 294.574 440.468 294.273H441.525C441.369 294.719 441.157 295.118 440.89 295.47C440.626 295.822 440.32 296.122 439.974 296.369C439.627 296.614 439.253 296.8 438.853 296.928C438.452 297.055 438.036 297.119 437.604 297.119C436.849 297.119 436.205 296.935 435.674 296.565C435.146 296.193 434.768 295.668 434.54 294.989C434.316 294.307 434.28 293.5 434.434 292.568C434.587 291.659 434.881 290.875 435.316 290.216C435.751 289.554 436.283 289.045 436.914 288.69C437.545 288.332 438.229 288.153 438.968 288.153C439.411 288.153 439.819 288.217 440.191 288.345C440.563 288.473 440.887 288.661 441.163 288.908C441.438 289.152 441.653 289.45 441.806 289.803C441.962 290.152 442.045 290.551 442.053 291Z" fill="black"/>
</g>
<g filter="url(#filter8_d_317_1419)">
<rect x="482" y="268" width="68" height="50" rx="8" fill="white"/>
<rect x="482.5" y="268.5" width="67" height="49" rx="7.5" stroke="#EDEDED"/>
<path d="M514.523 291H513.483C513.472 290.696 513.409 290.429 513.295 290.199C513.182 289.969 513.028 289.776 512.835 289.619C512.645 289.46 512.426 289.341 512.179 289.261C511.932 289.182 511.668 289.142 511.386 289.142C510.847 289.142 510.335 289.28 509.852 289.555C509.369 289.828 508.956 290.23 508.612 290.761C508.268 291.29 508.034 291.937 507.909 292.705C507.784 293.449 507.803 294.075 507.964 294.584C508.126 295.092 508.395 295.477 508.77 295.739C509.145 296 509.591 296.131 510.108 296.131C510.406 296.131 510.699 296.091 510.986 296.011C511.276 295.932 511.545 295.814 511.795 295.658C512.048 295.499 512.273 295.304 512.469 295.074C512.668 294.841 512.824 294.574 512.938 294.273H513.994C513.838 294.719 513.626 295.118 513.359 295.47C513.095 295.822 512.79 296.122 512.443 296.369C512.097 296.614 511.723 296.8 511.322 296.928C510.922 297.055 510.506 297.119 510.074 297.119C509.318 297.119 508.675 296.935 508.143 296.565C507.615 296.193 507.237 295.668 507.01 294.989C506.786 294.307 506.75 293.5 506.903 292.568C507.057 291.659 507.351 290.875 507.786 290.216C508.22 289.554 508.753 289.045 509.384 288.69C510.014 288.332 510.699 288.153 511.438 288.153C511.881 288.153 512.288 288.217 512.661 288.345C513.033 288.473 513.357 288.661 513.632 288.908C513.908 289.152 514.122 289.45 514.276 289.803C514.432 290.152 514.514 290.551 514.523 291ZM525.053 291H524.013C524.002 290.696 523.94 290.429 523.826 290.199C523.712 289.969 523.559 289.776 523.366 289.619C523.175 289.46 522.957 289.341 522.709 289.261C522.462 289.182 522.198 289.142 521.917 289.142C521.377 289.142 520.866 289.28 520.383 289.555C519.9 289.828 519.486 290.23 519.143 290.761C518.799 291.29 518.565 291.937 518.44 292.705C518.315 293.449 518.333 294.075 518.495 294.584C518.657 295.092 518.925 295.477 519.3 295.739C519.675 296 520.121 296.131 520.638 296.131C520.937 296.131 521.229 296.091 521.516 296.011C521.806 295.932 522.076 295.814 522.326 295.658C522.579 295.499 522.803 295.304 522.999 295.074C523.198 294.841 523.354 294.574 523.468 294.273H524.525C524.369 294.719 524.157 295.118 523.89 295.47C523.626 295.822 523.32 296.122 522.974 296.369C522.627 296.614 522.253 296.8 521.853 296.928C521.452 297.055 521.036 297.119 520.604 297.119C519.849 297.119 519.205 296.935 518.674 296.565C518.146 296.193 517.768 295.668 517.54 294.989C517.316 294.307 517.28 293.5 517.434 292.568C517.587 291.659 517.881 290.875 518.316 290.216C518.751 289.554 519.283 289.045 519.914 288.69C520.545 288.332 521.229 288.153 521.968 288.153C522.411 288.153 522.819 288.217 523.191 288.345C523.563 288.473 523.887 288.661 524.163 288.908C524.438 289.152 524.653 289.45 524.806 289.803C524.962 290.152 525.045 290.551 525.053 291Z" fill="black"/>
</g>
<path d="M553.5 87L546.34 102L563.66 102L556.5 87L553.5 87ZM555 25L553.5 25L553.5 88.5L555 88.5L556.5 88.5L556.5 25L555 25Z" fill="#694C55"/>
<path d="M57.5 87L50.3397 102L67.6602 102L60.5 87L57.5 87ZM59 27L57.5 27L57.5 88.5L59 88.5L60.5 88.5L60.5 27L59 27Z" fill="#694C55"/>
<line x1="58" y1="220" x2="58" y2="170" stroke="#694C55" stroke-width="2"/>
<line x1="557" y1="220" x2="557" y2="170" stroke="#694C55" stroke-width="2"/>
<line x1="59" y1="219" x2="558" y2="219" stroke="#694C55" stroke-width="2"/>
<defs>
<filter id="filter0_d_317_1419" x="246" y="0" width="123" height="58" filterUnits="userSpaceOnUse" color-interpolation-filters="sRGB">
<feFlood flood-opacity="0" result="BackgroundImageFix"/>
<feColorMatrix in="SourceAlpha" type="matrix" values="0 0 0 0 0 0 0 0 0 0 0 0 0 0 0 0 0 0 127 0" result="hardAlpha"/>
<feOffset dy="4"/>
<feGaussianBlur stdDeviation="2"/>
<feComposite in2="hardAlpha" operator="out"/>
<feColorMatrix type="matrix" values="0 0 0 0 0 0 0 0 0 0 0 0 0 0 0 0 0 0 0.25 0"/>
<feBlend mode="normal" in2="BackgroundImageFix" result="effect1_dropShadow_317_1419"/>
<feBlend mode="normal" in="SourceGraphic" in2="effect1_dropShadow_317_1419" result="shape"/>
</filter>
<filter id="filter1_d_317_1419" x="0" y="102" width="125" height="76" filterUnits="userSpaceOnUse" color-interpolation-filters="sRGB">
<feFlood flood-opacity="0" result="BackgroundImageFix"/>
<feColorMatrix in="SourceAlpha" type="matrix" values="0 0 0 0 0 0 0 0 0 0 0 0 0 0 0 0 0 0 127 0" result="hardAlpha"/>
<feOffset dy="4"/>
<feGaussianBlur stdDeviation="2"/>
<feComposite in2="hardAlpha" operator="out"/>
<feColorMatrix type="matrix" values="0 0 0 0 0 0 0 0 0 0 0 0 0 0 0 0 0 0 0.25 0"/>
<feBlend mode="normal" in2="BackgroundImageFix" result="effect1_dropShadow_317_1419"/>
<feBlend mode="normal" in="SourceGraphic" in2="effect1_dropShadow_317_1419" result="shape"/>
</filter>
<filter id="filter2_d_317_1419" x="497" y="102" width="125" height="76" filterUnits="userSpaceOnUse" color-interpolation-filters="sRGB">
<feFlood flood-opacity="0" result="BackgroundImageFix"/>
<feColorMatrix in="SourceAlpha" type="matrix" values="0 0 0 0 0 0 0 0 0 0 0 0 0 0 0 0 0 0 127 0" result="hardAlpha"/>
<feOffset dy="4"/>
<feGaussianBlur stdDeviation="2"/>
<feComposite in2="hardAlpha" operator="out"/>
<feColorMatrix type="matrix" values="0 0 0 0 0 0 0 0 0 0 0 0 0 0 0 0 0 0 0.25 0"/>
<feBlend mode="normal" in2="BackgroundImageFix" result="effect1_dropShadow_317_1419"/>
<feBlend mode="normal" in="SourceGraphic" in2="effect1_dropShadow_317_1419" result="shape"/>
</filter>
<filter id="filter3_d_317_1419" x="63" y="268" width="76" height="58" filterUnits="userSpaceOnUse" color-interpolation-filters="sRGB">
<feFlood flood-opacity="0" result="BackgroundImageFix"/>
<feColorMatrix in="SourceAlpha" type="matrix" values="0 0 0 0 0 0 0 0 0 0 0 0 0 0 0 0 0 0 127 0" result="hardAlpha"/>
<feOffset dy="4"/>
<feGaussianBlur stdDeviation="2"/>
<feComposite in2="hardAlpha" operator="out"/>
<feColorMatrix type="matrix" values="0 0 0 0 0 0 0 0 0 0 0 0 0 0 0 0 0 0 0.25 0"/>
<feBlend mode="normal" in2="BackgroundImageFix" result="effect1_dropShadow_317_1419"/>
<feBlend mode="normal" in="SourceGraphic" in2="effect1_dropShadow_317_1419" result="shape"/>
</filter>
<filter id="filter4_d_317_1419" x="146" y="268" width="76" height="58" filterUnits="userSpaceOnUse" color-interpolation-filters="sRGB">
<feFlood flood-opacity="0" result="BackgroundImageFix"/>
<feColorMatrix in="SourceAlpha" type="matrix" values="0 0 0 0 0 0 0 0 0 0 0 0 0 0 0 0 0 0 127 0" result="hardAlpha"/>
<feOffset dy="4"/>
<feGaussianBlur stdDeviation="2"/>
<feComposite in2="hardAlpha" operator="out"/>
<feColorMatrix type="matrix" values="0 0 0 0 0 0 0 0 0 0 0 0 0 0 0 0 0 0 0.25 0"/>
<feBlend mode="normal" in2="BackgroundImageFix" result="effect1_dropShadow_317_1419"/>
<feBlend mode="normal" in="SourceGraphic" in2="effect1_dropShadow_317_1419" result="shape"/>
</filter>
<filter id="filter5_d_317_1419" x="229" y="268" width="76" height="58" filterUnits="userSpaceOnUse" color-interpolation-filters="sRGB">
<feFlood flood-opacity="0" result="BackgroundImageFix"/>
<feColorMatrix in="SourceAlpha" type="matrix" values="0 0 0 0 0 0 0 0 0 0 0 0 0 0 0 0 0 0 127 0" result="hardAlpha"/>
<feOffset dy="4"/>
<feGaussianBlur stdDeviation="2"/>
<feComposite in2="hardAlpha" operator="out"/>
<feColorMatrix type="matrix" values="0 0 0 0 0 0 0 0 0 0 0 0 0 0 0 0 0 0 0.25 0"/>
<feBlend mode="normal" in2="BackgroundImageFix" result="effect1_dropShadow_317_1419"/>
<feBlend mode="normal" in="SourceGraphic" in2="effect1_dropShadow_317_1419" result="shape"/>
</filter>
<filter id="filter6_d_317_1419" x="312" y="268" width="76" height="58" filterUnits="userSpaceOnUse" color-interpolation-filters="sRGB">
<feFlood flood-opacity="0" result="BackgroundImageFix"/>
<feColorMatrix in="SourceAlpha" type="matrix" values="0 0 0 0 0 0 0 0 0 0 0 0 0 0 0 0 0 0 127 0" result="hardAlpha"/>
<feOffset dy="4"/>
<feGaussianBlur stdDeviation="2"/>
<feComposite in2="hardAlpha" operator="out"/>
<feColorMatrix type="matrix" values="0 0 0 0 0 0 0 0 0 0 0 0 0 0 0 0 0 0 0.25 0"/>
<feBlend mode="normal" in2="BackgroundImageFix" result="effect1_dropShadow_317_1419"/>
<feBlend mode="normal" in="SourceGraphic" in2="effect1_dropShadow_317_1419" result="shape"/>
</filter>
<filter id="filter7_d_317_1419" x="395" y="268" width="76" height="58" filterUnits="userSpaceOnUse" color-interpolation-filters="sRGB">
<feFlood flood-opacity="0" result="BackgroundImageFix"/>
<feColorMatrix in="SourceAlpha" type="matrix" values="0 0 0 0 0 0 0 0 0 0 0 0 0 0 0 0 0 0 127 0" result="hardAlpha"/>
<feOffset dy="4"/>
<feGaussianBlur stdDeviation="2"/>
<feComposite in2="hardAlpha" operator="out"/>
<feColorMatrix type="matrix" values="0 0 0 0 0 0 0 0 0 0 0 0 0 0 0 0 0 0 0.25 0"/>
<feBlend mode="normal" in2="BackgroundImageFix" result="effect1_dropShadow_317_1419"/>
<feBlend mode="normal" in="SourceGraphic" in2="effect1_dropShadow_317_1419" result="shape"/>
</filter>
<filter id="filter8_d_317_1419" x="478" y="268" width="76" height="58" filterUnits="userSpaceOnUse" color-interpolation-filters="sRGB">
<feFlood flood-opacity="0" result="BackgroundImageFix"/>
<feColorMatrix in="SourceAlpha" type="matrix" values="0 0 0 0 0 0 0 0 0 0 0 0 0 0 0 0 0 0 127 0" result="hardAlpha"/>
<feOffset dy="4"/>
<feGaussianBlur stdDeviation="2"/>
<feComposite in2="hardAlpha" operator="out"/>
<feColorMatrix type="matrix" values="0 0 0 0 0 0 0 0 0 0 0 0 0 0 0 0 0 0 0.25 0"/>
<feBlend mode="normal" in2="BackgroundImageFix" result="effect1_dropShadow_317_1419"/>
<feBlend mode="normal" in="SourceGraphic" in2="effect1_dropShadow_317_1419" result="shape"/>
</filter>
</defs>
</svg>
