<svg width="45" height="80" viewBox="0 0 45 80" fill="none" xmlns="http://www.w3.org/2000/svg">
<path d="M44.5914 42.421C44.3757 42.2616 44.1415 42.0328 43.9014 41.8941C43.6201 41.7318 43.3027 41.8043 43.0016 41.7099C42.5165 41.5581 42.2262 41.231 41.7139 41.527C41.2444 41.7982 41.1124 42.3648 40.9611 42.8466C40.9534 42.8707 40.9431 42.9013 40.931 42.9358C40.8536 43.0688 40.7897 43.2178 40.7447 43.3869C40.721 43.4763 40.7 43.5746 40.681 43.676C40.4838 44.3352 40.3423 45.1306 40.8421 45.2322C40.8932 45.2968 40.9523 45.3542 41.0135 45.4098C40.7535 45.6798 40.6206 45.5034 40.382 45.7595C40.0994 46.063 40.0337 46.3952 39.9278 46.7962C39.5704 48.1486 39.4552 49.5202 38.8583 50.796C38.3357 51.9128 38.128 53.0685 37.9472 54.2811C37.7498 55.6051 37.4977 56.8368 36.8181 58.0072C36.3738 58.7723 35.9153 59.4859 35.6894 60.321C35.6392 60.3976 35.586 60.4726 35.5339 60.5482C34.3986 60.433 33.2424 60.2838 32.125 60.0382C32.0441 59.9851 31.9993 59.9562 31.9993 59.9562C31.9993 59.9562 31.782 59.0286 31.5376 58.6195C31.2932 58.2104 31.3746 57.7194 31.3746 57.7194C31.3746 57.7194 32.1895 57.3102 32.1895 56.4918C32.1895 55.6734 31.6192 55.428 31.6192 55.428C31.6192 55.428 31.9451 53.1366 31.5376 52.3184C31.1302 51.5 29.1746 50.4362 27.9524 50.8454C26.7301 51.2546 26.2413 51.3365 25.8338 52.1547C25.4264 52.9731 25.2634 53.8733 25.2634 53.8733C25.2634 53.8733 25.5078 54.6917 25.5894 55.1008C25.671 55.5099 25.508 56.6555 25.5894 57.0648C25.671 57.4739 26.2413 58.7014 26.2413 58.7014L26.0783 59.4379C26.0783 59.4379 21.5968 58.0467 20.8635 57.0648C20.1188 56.0677 17.6856 51.1728 17.4412 50.8456C17.1968 50.5182 16.2189 48.8816 16.2189 48.8816H15.404C15.404 48.8816 15.6484 47.8997 15.2411 46.9995C14.8337 46.0994 13.7744 45.4446 13.7744 45.4446L11.2485 31.6968C11.2485 31.6968 18.0116 30.3875 22.2486 31.8605C26.4855 33.3334 27.9524 34.7246 28.1153 37.2614C28.2783 39.7982 37.1598 42.1714 38.2191 41.9259C38.3821 41.8442 40.0117 18.6854 40.0117 18.6854C40.0117 18.6854 31.6362 17.0222 27.7252 13.749C23.9972 10.629 24.8642 4.49088 17.0249 0H3.19571C4.45063 8.17584 9.45585 32.024 9.45585 32.024L10.3794 31.8058L12.9869 45.881C12.9869 45.881 12.4436 47.2994 12.5523 48.1723C12.661 49.0453 13.2042 50.4637 13.2042 50.4637L13.5302 51.3366L16.2463 64.9754L14.834 64.5389C14.834 64.5389 14.1821 62.4658 14.0734 61.593C13.9648 60.72 14.1821 60.1746 13.313 59.5198C12.4438 58.8651 11.5747 58.647 11.5747 58.647L10.0538 58.2106L8.53277 58.647L7.98951 59.4109L7.44624 60.7202V62.3568L7.55489 63.4478L6.79448 63.9934L5.81676 63.557L4.40443 62.7933L2.9921 61.3749C2.9921 61.3749 2.9921 56.0285 2.9921 55.7011C2.9921 55.3738 5.59946 49.4819 5.59946 49.4819C5.59946 49.4819 6.25138 49.3728 6.79448 48.3909C7.33775 47.4088 7.66371 46.8634 7.55505 46.536C7.4464 46.2086 7.22909 46.2086 6.79448 45.8813C6.35987 45.5539 5.59946 45.3357 5.59946 45.3357L4.29578 45.7722C4.29578 45.7722 3.3179 47.1906 3.42655 47.5179C3.53521 47.8453 3.75251 48.8272 3.75251 48.8272L0.492762 54.2826L0 57.2968V62.5232L4.40395 68.3576L4.94419 75.2555L3.87073 80H37.5408C37.5486 79.455 37.5162 72.4989 37.4732 68.1261C40.3949 60.743 42.1071 54.3798 43.675 46.6091C43.7434 46.2706 43.5587 45.9909 43.2466 45.9152C43.2761 45.8624 43.3099 45.812 43.3459 45.7629C44.2835 45.7781 44.5815 44.7443 44.8025 43.8944C44.8055 43.8829 44.8087 43.8714 44.8116 43.8597C44.8549 43.6926 44.8956 43.5333 44.9379 43.3915C45.0856 42.8966 44.9696 42.7003 44.5914 42.421ZM21.5152 74.0859L20.5375 70.1579L19.3968 68.0302L18.7449 66.721L18.3375 65.9026C18.3375 65.9026 18.6635 65.0842 18.6635 64.757C18.6635 64.4296 18.6635 63.9386 18.3375 63.284C18.0116 62.6293 17.2782 62.4656 17.2782 62.4656L15.2412 54.2005L15.8116 55.1006L17.1153 58.5376L18.2559 60.9926L21.6782 64.757L21.8412 68.8486L21.5152 74.0859ZM40.0987 47.8776C40.1424 47.6077 40.1956 47.3366 40.2686 47.0824C40.2122 47.3475 40.1556 47.6126 40.0987 47.8776Z" fill="#363263" fill-opacity="0.4"/>
</svg>
