<svg width="17" height="11" viewBox="0 0 17 11" fill="none" xmlns="http://www.w3.org/2000/svg">
<path fill-rule="evenodd" clip-rule="evenodd" d="M15.4946 5.67681L15.9711 5.43799V5.43569L15.9677 5.43225L15.9608 5.41847L15.9367 5.37254L15.8448 5.20721C15.7327 5.01386 15.6136 4.82467 15.4877 4.64001C15.0676 4.02339 14.5847 3.45199 14.0468 2.93499C12.7539 1.69497 10.7642 0.429688 8.03153 0.429688C5.3012 0.429688 3.31028 1.69382 2.01744 2.93499C1.47948 3.45199 0.996582 4.02339 0.576493 4.64001C0.406034 4.89151 0.248158 5.15132 0.103448 5.41847L0.0965593 5.43225L0.094263 5.43569V5.43684C0.094263 5.43684 0.0931149 5.43799 0.569604 5.67681L0.0931148 5.43684C0.0562752 5.51127 0.0371094 5.59319 0.0371094 5.67623C0.0371094 5.75928 0.0562752 5.8412 0.0931148 5.91562L0.0919667 5.91792L0.0954113 5.92137L0.1023 5.93514C0.138102 6.00688 0.176398 6.07734 0.217117 6.14641C0.711516 6.98159 1.31631 7.74628 2.01514 8.41977C3.30913 9.65979 5.2989 10.9228 8.03153 10.9228C10.763 10.9228 12.7539 9.65979 14.0479 8.41863C14.5849 7.901 15.0673 7.32967 15.4877 6.7136C15.6487 6.47656 15.7985 6.23212 15.9367 5.98107L15.9608 5.93514L15.9677 5.92137L15.97 5.91792V5.91677C15.97 5.91677 15.9711 5.91562 15.4946 5.67681ZM15.4946 5.67681L15.9711 5.91677C16.0079 5.84235 16.0271 5.76042 16.0271 5.67738C16.0271 5.59434 16.0079 5.51241 15.9711 5.43799L15.4946 5.67681ZM7.96264 3.91322C7.49491 3.91322 7.04634 4.09903 6.7156 4.42976C6.38487 4.7605 6.19906 5.20907 6.19906 5.67681C6.19906 6.14454 6.38487 6.59311 6.7156 6.92385C7.04634 7.25458 7.49491 7.44039 7.96264 7.44039C8.43038 7.44039 8.87895 7.25458 9.20969 6.92385C9.54042 6.59311 9.72623 6.14454 9.72623 5.67681C9.72623 5.20907 9.54042 4.7605 9.20969 4.42976C8.87895 4.09903 8.43038 3.91322 7.96264 3.91322ZM5.13586 5.67681C5.13586 4.92649 5.43392 4.2069 5.96448 3.67634C6.49503 3.14579 7.21462 2.84772 7.96494 2.84772C8.71526 2.84772 9.43485 3.14579 9.9654 3.67634C10.496 4.2069 10.794 4.92649 10.794 5.67681C10.794 6.42712 10.496 7.14671 9.9654 7.67727C9.43485 8.20782 8.71526 8.50589 7.96494 8.50589C7.21462 8.50589 6.49503 8.20782 5.96448 7.67727C5.43392 7.14671 5.13586 6.42712 5.13586 5.67681Z" fill="#6D6D6D"/>
</svg>
