<svg width="25" height="25" viewBox="0 0 25 25" fill="none" xmlns="http://www.w3.org/2000/svg">
<path d="M21.193 5.98291C21.1405 5.98291 21.0905 5.99366 21.0447 6.01241V6.01016C20.1764 6.46398 19.2112 6.70105 18.2315 6.70116C16.3515 6.70116 14.6705 5.85091 13.5505 4.51441C12.5385 3.55941 11.1755 2.97266 9.67449 2.97266C8.28596 2.97099 6.94579 3.48251 5.91149 4.40891C5.70099 3.96541 5.25274 3.65666 4.72924 3.65666C4.38136 3.65679 4.04776 3.79503 3.80175 4.04099C3.55574 4.28696 3.41744 4.62053 3.41724 4.96841V20.7119C3.41724 21.0599 3.55546 21.3936 3.80151 21.6396C4.04756 21.8857 4.38127 22.0239 4.72924 22.0239C5.0772 22.0239 5.41091 21.8857 5.65696 21.6396C5.90301 21.3936 6.04124 21.0599 6.04124 20.7119V13.6229C6.89257 13.1925 7.83329 12.9686 8.78724 12.9694C10.6697 12.9694 12.3525 13.8219 13.4725 15.1612C14.5192 16.1495 15.9047 16.6993 17.3442 16.6977C18.9667 16.6977 20.4262 16.0109 21.457 14.9157C21.4966 14.8794 21.5283 14.8353 21.55 14.7862C21.5717 14.737 21.5829 14.6839 21.583 14.6302V6.37266C21.5829 6.26927 21.5418 6.17014 21.4687 6.09705C21.3955 6.02397 21.2964 5.98291 21.193 5.98291Z" fill="#5F2021"/>
</svg>
