<svg width="205" height="277" viewBox="0 0 205 277" fill="none" xmlns="http://www.w3.org/2000/svg">
<g clip-path="url(#clip0_39_2176)">
<path d="M121.94 31.5732L153.684 31.5732V20.4295L121.94 20.4295V31.5732Z" fill="#EBEBEB"/>
<path d="M-21.0828 42.7178L10.6614 42.7178L10.6614 31.5741L-21.0828 31.5741V42.7178Z" fill="#EBEBEB"/>
<path d="M-21.2732 131.868H10.4705L10.4705 120.724H-21.2732V131.868Z" fill="#EBEBEB"/>
<path d="M186.208 221.098H154.465V232.241H186.208V221.098Z" fill="#EBEBEB"/>
<path d="M121.588 243.386H89.8438V254.529H121.588V243.386Z" fill="#EBEBEB"/>
<path d="M10.4706 221.098C10.0739 221.816 9.49054 222.408 8.94429 223.012C8.38365 223.608 7.80472 224.187 7.20972 224.75C6.91112 225.031 6.61029 225.309 6.29839 225.576C5.97763 225.834 5.6962 226.136 5.25909 226.29C4.4569 226.546 3.64529 226.661 2.83424 226.782C1.21101 227.011 -0.417187 227.176 -2.04373 227.341L-4.47746 227.597L-5.07633 227.676C-5.16718 227.695 -5.26026 227.707 -5.34004 227.734C-5.4104 227.768 -5.48075 227.794 -5.56496 227.853C-5.88849 228.051 -6.21203 228.305 -6.5256 228.557C-7.78207 229.58 -8.98259 230.69 -10.1814 231.797L-10.6307 232.214L-10.8579 232.423C-10.9554 232.491 -11.0673 232.557 -11.1737 232.62C-11.5626 232.806 -11.9437 232.959 -12.3282 233.108C-13.0971 233.401 -13.8683 233.677 -14.6417 233.945C-17.7341 235.022 -20.8565 235.99 -23.9805 236.96L-24.0292 236.975L-24.0796 236.97C-28.3305 236.572 -32.5813 236.166 -36.8288 235.726L-38.4221 235.565L-38.8177 235.527C-38.9152 235.525 -39.0343 235.546 -39.1529 235.584C-39.3916 235.654 -39.6299 235.769 -39.8636 235.885C-40.7966 236.372 -41.6869 236.965 -42.5666 237.564C-44.3211 238.775 -46.0197 240.071 -47.7039 241.382C-46.0812 239.993 -44.4142 238.656 -42.6935 237.385C-41.8281 236.755 -40.9561 236.133 -40.0021 235.617C-39.7606 235.492 -39.5185 235.368 -39.2465 235.281C-39.1113 235.236 -38.9667 235.201 -38.7966 235.202L-38.3944 235.234L-36.7984 235.365C-32.5409 235.704 -28.2862 236.078 -24.0325 236.46L-24.1317 236.47C-21.0166 235.489 -17.9086 234.476 -14.8151 233.439C-14.0428 233.177 -13.2733 232.907 -12.5132 232.623C-12.1343 232.479 -11.7565 232.329 -11.4069 232.164L-11.1997 232.044L-10.9748 231.839L-10.5233 231.425C-9.31387 230.323 -8.10616 229.219 -6.82143 228.186C-6.49623 227.929 -6.17546 227.675 -5.79985 227.451C-5.71453 227.393 -5.59543 227.342 -5.47798 227.296C-5.36441 227.261 -5.2525 227.248 -5.14336 227.228L-4.52566 227.158L-2.07919 226.947C-0.450989 226.812 1.17666 226.678 2.79434 226.481C3.5993 226.376 4.41535 226.271 5.17987 226.057C5.53166 225.955 5.84799 225.659 6.16488 225.416C6.48121 225.161 6.78869 224.894 7.09449 224.624C7.70334 224.082 8.29833 223.522 8.87505 222.945C9.43847 222.36 10.0473 221.798 10.4706 221.098Z" fill="#EBEBEB"/>
<path d="M154.273 76.1491C156.951 74.5048 159.659 72.9154 162.399 71.3741L163.432 70.8019C163.606 70.7077 163.779 70.6157 163.961 70.5276C164.063 70.4816 164.114 70.4418 164.264 70.3902C164.399 70.3254 164.52 70.3426 164.642 70.3515C165.435 70.4412 166.206 70.5509 166.986 70.6523C168.542 70.8567 170.097 71.0534 171.654 71.2102C172.431 71.2949 173.21 71.3719 173.986 71.4185C174.375 71.445 174.76 71.4556 175.144 71.4556C175.334 71.4545 175.518 71.4356 175.705 71.4273C175.869 71.3869 176.04 71.3902 176.176 71.2816C176.318 71.2124 176.47 71.091 176.62 70.973C176.772 70.8611 176.919 70.7376 177.064 70.6074C177.359 70.357 177.646 70.0927 177.93 69.8252L179.619 68.1964C180.737 67.0978 181.833 65.9749 182.924 64.8469L186.208 61.4697C184.186 63.8752 182.094 66.2186 179.923 68.4956C179.381 69.0656 178.832 69.6296 178.259 70.1731C177.974 70.4467 177.687 70.7176 177.386 70.9791C177.24 71.1126 177.088 71.2428 176.925 71.3664C176.766 71.4916 176.615 71.6207 176.405 71.7298C176.221 71.8666 175.98 71.886 175.765 71.9337C175.561 71.9464 175.354 71.9686 175.152 71.9719C174.75 71.9763 174.352 71.9691 173.956 71.9464C173.165 71.9071 172.379 71.8395 171.595 71.7597C170.03 71.5852 168.472 71.3714 166.917 71.1503C166.141 71.0412 165.358 70.9215 164.592 70.8268C164.519 70.8201 164.44 70.8063 164.398 70.8451C164.36 70.855 164.242 70.9171 164.165 70.9525L163.644 71.2118L162.599 71.7475L154.273 76.1491Z" fill="#EBEBEB"/>
<path d="M122.537 156.864V168.01H138.404V179.151H154.464V190.109H138.404V201.095H122.537V212.236H106.466V223.383H122.532V234.668H106.466V245.809H10.4684V234.668H-5.40365V223.288H10.4684V212.148H-5.40365V201.156H-21.4641V190.298H-5.40365V179.151H10.4684V168.01H26.5345V156.864H-21.4641V145.717H-5.40365V134.576H10.4684V123.43H26.5345V112.289H90.5935V123.43H106.466V134.576H154.464V145.717H138.404V156.864H122.537Z" fill="#C7454E"/>
<g opacity="0.3">
<path d="M122.537 156.864V168.01H138.404V179.151H154.464V190.109H138.404V201.095H122.537V212.236H106.466V223.383H122.532V234.668H106.466V245.809H10.4684V234.668H-5.40365V223.288H10.4684V212.148H-5.40365V201.156H-21.4641V190.298H-5.40365V179.151H10.4684V168.01H26.5345V156.864H-21.4641V145.717H-5.40365V134.576H10.4684V123.43H26.5345V112.289H90.5935V123.43H106.466V134.576H154.464V145.717H138.404V156.864H122.537Z" fill="black"/>
</g>
<path d="M90.4031 67.4297H58.6589V78.5734H90.4031V67.4297Z" fill="white"/>
<path d="M58.659 67.4301L74.4647 67.2705C79.7609 67.2212 85.0815 67.1825 90.4027 67.1797H90.6525L90.6531 67.4306L90.6791 78.5744L90.6797 78.8519L90.4021 78.8514L74.53 78.8148L58.6579 78.7145L58.5161 78.7134L58.5178 78.5744L58.659 67.4301ZM58.659 67.4301L58.7987 78.5738L58.659 78.4342L74.5311 78.3339L90.4032 78.2974L90.1268 78.5738L90.1528 67.4301L90.4032 67.6805C85.143 67.6777 79.8822 67.6384 74.5976 67.5896L58.659 67.4301Z" fill="#EBEBEB"/>
<path d="M74.3406 78.5732H42.5964V89.717H74.3406V78.5732Z" fill="white"/>
<path d="M42.5965 78.5737L58.4022 78.4141C63.6984 78.3648 69.019 78.326 74.3402 78.3232H74.59L74.5906 78.5742L74.6166 89.7179L74.6172 89.9955L74.3396 89.9949L58.4675 89.9584L42.5954 89.8581L42.4536 89.857L42.4553 89.7179L42.5965 78.5737ZM42.5965 78.5737L42.7362 89.7174L42.5965 89.5778L58.4686 89.4775L74.3408 89.4409L74.0643 89.7174L74.0903 78.5737L74.3408 78.8241C69.0805 78.8213 63.8197 78.782 58.5351 78.7332L42.5965 78.5737Z" fill="#EBEBEB"/>
<path d="M42.4053 78.5732H10.6616V89.717H42.4053V78.5732Z" fill="white"/>
<path d="M10.6617 78.5737L26.4673 78.4141C31.7636 78.3648 37.0842 78.326 42.4054 78.3232H42.6552L42.6558 78.5742L42.6818 89.7179L42.6824 89.9955L42.4048 89.9949L26.5327 89.9584L10.6606 89.8581L10.5188 89.857L10.5205 89.7179L10.6617 78.5737ZM10.6617 78.5737L10.8013 89.7174L10.6617 89.5778L26.5338 89.4775L42.4059 89.4409L42.1295 89.7174L42.1555 78.5737L42.4059 78.8241C37.1457 78.8213 31.8849 78.782 26.6003 78.7332L10.6617 78.5737Z" fill="#EBEBEB"/>
<path d="M58.468 89.7168H26.7244V100.861H58.468V89.7168Z" fill="white"/>
<path d="M26.7245 89.7172L42.5301 89.5577C47.8263 89.5083 53.1469 89.4696 58.4681 89.4668H58.718L58.7185 89.7178L58.7446 100.861L58.7451 101.139L58.4676 101.138L42.5955 101.102L26.7234 101.002L26.5815 101.001L26.5832 100.861L26.7245 89.7172ZM26.7245 89.7172L26.8641 100.861L26.7245 100.721L42.5966 100.621L58.4687 100.584L58.1922 100.861L58.2183 89.7172L58.4687 89.9676C53.2084 89.9648 47.9477 89.9255 42.6631 89.8768L26.7245 89.7172Z" fill="#EBEBEB"/>
<path d="M90.4031 89.7168H58.6589V100.861H90.4031V89.7168Z" fill="white"/>
<path d="M58.659 89.7172L74.4647 89.5577C79.7609 89.5083 85.0815 89.4696 90.4027 89.4668H90.6525L90.6531 89.7178L90.6791 100.861L90.6797 101.139L90.4021 101.138L74.53 101.102L58.6579 101.002L58.5161 101.001L58.5178 100.861L58.659 89.7172ZM58.659 89.7172L58.7987 100.861L58.659 100.721L74.5311 100.621L90.4032 100.584L90.1268 100.861L90.1528 89.7172L90.4032 89.9676C85.143 89.9648 79.8822 89.9255 74.5976 89.8768L58.659 89.7172Z" fill="#EBEBEB"/>
<path d="M122.338 89.7168H90.5945V100.861H122.338V89.7168Z" fill="white"/>
<path d="M90.5946 89.7172L106.4 89.5577C111.696 89.5083 117.017 89.4696 122.338 89.4668H122.588L122.589 89.7178L122.615 100.861L122.615 101.139L122.338 101.138L106.466 101.102L90.5935 101.002L90.4517 101.001L90.4533 100.861L90.5946 89.7172ZM90.5946 89.7172L90.7342 100.861L90.5946 100.721L106.467 100.621L122.339 100.584L122.062 100.861L122.088 89.7172L122.339 89.9676C117.079 89.9648 111.818 89.9255 106.533 89.8768L90.5946 89.7172Z" fill="#EBEBEB"/>
<path d="M154.273 89.7168H122.529V100.861H154.273V89.7168Z" fill="white"/>
<path d="M122.529 89.7172L138.335 89.5577C143.631 89.5083 148.952 89.4696 154.273 89.4668H154.523L154.523 89.7178L154.549 100.861L154.55 101.139L154.272 101.138L138.4 101.102L122.528 101.002L122.386 101.001L122.388 100.861L122.529 89.7172ZM122.529 89.7172L122.669 100.861L122.529 100.721L138.401 100.621L154.273 100.584L153.997 100.861L154.023 89.7172L154.273 89.9676C149.013 89.9648 143.752 89.9255 138.468 89.8768L122.529 89.7172Z" fill="#EBEBEB"/>
<path d="M170.152 78.5732H138.408V89.717H170.152V78.5732Z" fill="white"/>
<path d="M138.408 78.5737L154.214 78.4141C159.51 78.3648 164.83 78.326 170.152 78.3232H170.402L170.403 78.5742L170.429 89.7179L170.429 89.9955L170.152 89.9949L154.28 89.9584L138.407 89.8581L138.266 89.857L138.267 89.7179L138.408 78.5737ZM138.408 78.5737L138.548 89.7174L138.408 89.5778L154.28 89.4775L170.152 89.4409L169.876 89.7174L169.902 78.5737L170.152 78.8241C164.892 78.8213 159.631 78.782 154.347 78.7332L138.408 78.5737Z" fill="#EBEBEB"/>
<path d="M106.275 100.861H74.5312V112.005H106.275V100.861Z" fill="white"/>
<path d="M74.5314 100.862L90.337 100.702C95.6332 100.653 100.954 100.614 106.275 100.611H106.525L106.525 100.862L106.551 112.006L106.552 112.284L106.274 112.283L90.4023 112.246L74.5302 112.146L74.3884 112.145L74.3901 112.006L74.5314 100.862ZM74.5314 100.862L74.671 112.005L74.5314 111.866L90.4035 111.766L106.276 111.729L105.999 112.005L106.025 100.862L106.276 101.112C101.015 101.109 95.7545 101.07 90.4699 101.021L74.5314 100.862Z" fill="#EBEBEB"/>
<path d="M74.3406 100.861H42.5964V112.005H74.3406V100.861Z" fill="white"/>
<path d="M42.5965 100.862L58.4022 100.702C63.6984 100.653 69.019 100.614 74.3402 100.611H74.59L74.5906 100.862L74.6166 112.006L74.6172 112.284L74.3396 112.283L58.4675 112.246L42.5954 112.146L42.4536 112.145L42.4553 112.006L42.5965 100.862ZM42.5965 100.862L42.7362 112.005L42.5965 111.866L58.4686 111.766L74.3408 111.729L74.0643 112.005L74.0903 100.862L74.3408 101.112C69.0805 101.109 63.8197 101.07 58.5351 101.021L42.5965 100.862Z" fill="#EBEBEB"/>
<path d="M42.4053 100.861H10.6616V112.005H42.4053V100.861Z" fill="white"/>
<path d="M10.6617 100.862L26.4673 100.702C31.7636 100.653 37.0842 100.614 42.4054 100.611H42.6552L42.6558 100.862L42.6818 112.006L42.6824 112.284L42.4048 112.283L26.5327 112.246L10.6606 112.146L10.5188 112.145L10.5205 112.006L10.6617 100.862ZM10.6617 100.862L10.8013 112.005L10.6617 111.866L26.5338 111.766L42.4059 111.729L42.1295 112.005L42.1555 100.862L42.4059 101.112C37.1457 101.109 31.8849 101.07 26.6003 101.021L10.6617 100.862Z" fill="#EBEBEB"/>
<path d="M10.47 100.861H-21.2737V112.005H10.47V100.861Z" fill="white"/>
<path d="M-21.2736 100.862L-5.46802 100.702C-0.171776 100.653 5.14884 100.614 10.47 100.611H10.7204L10.721 100.862L10.747 112.006L10.7476 112.284L10.47 112.283L-5.40209 112.246L-21.2742 112.146L-21.416 112.145L-21.4144 112.006L-21.2736 100.862ZM-21.2736 100.862L-21.134 112.005L-21.2736 111.866L-5.40154 111.766L10.4706 111.729L10.1941 112.005L10.2202 100.862L10.4706 101.112C5.21033 101.109 -0.0504513 101.07 -5.33506 101.021L-21.2736 100.862Z" fill="#EBEBEB"/>
<path d="M26.5332 112.005H-5.21045V123.149H26.5332V112.005Z" fill="white"/>
<path d="M-5.21041 112.005L10.5952 111.846C15.8915 111.796 21.2121 111.758 26.5332 111.755H26.7836L26.7842 112.006L26.8102 123.15L26.8108 123.427L26.5332 123.427L10.6611 123.39L-5.21096 123.29L-5.35278 123.289L-5.35112 123.15L-5.21041 112.005ZM-5.21041 112.005L-5.0708 123.149L-5.21041 123.009L10.6617 122.909L26.5338 122.873L26.2573 123.149L26.2834 112.005L26.5338 112.256C21.2736 112.253 16.0128 112.214 10.7282 112.165L-5.21041 112.005Z" fill="#EBEBEB"/>
<path d="M122.338 112.005H90.5945V123.149H122.338V112.005Z" fill="white"/>
<path d="M90.5946 112.005L106.4 111.846C111.696 111.796 117.017 111.758 122.338 111.755H122.588L122.589 112.006L122.615 123.15L122.615 123.427L122.338 123.427L106.466 123.39L90.5935 123.29L90.4517 123.289L90.4533 123.15L90.5946 112.005ZM90.5946 112.005L90.7342 123.149L90.5946 123.009L106.467 122.909L122.339 122.873L122.062 123.149L122.088 112.005L122.339 112.256C117.079 112.253 111.818 112.214 106.533 112.165L90.5946 112.005Z" fill="#EBEBEB"/>
<path d="M154.273 112.005H122.529V123.149H154.273V112.005Z" fill="white"/>
<path d="M122.529 112.005L138.335 111.846C143.631 111.796 148.952 111.758 154.273 111.755H154.523L154.523 112.006L154.549 123.15L154.55 123.427L154.272 123.427L138.4 123.39L122.528 123.29L122.386 123.289L122.388 123.15L122.529 112.005ZM122.529 112.005L122.669 123.149L122.529 123.009L138.401 122.909L154.273 122.873L153.997 123.149L154.023 112.005L154.273 112.256C149.013 112.253 143.752 112.214 138.468 112.165L122.529 112.005Z" fill="#EBEBEB"/>
<path d="M170.145 123.149H138.401V134.293H170.145V123.149Z" fill="white"/>
<path d="M138.401 123.15L154.207 122.99C159.503 122.941 164.824 122.902 170.145 122.899H170.395L170.396 123.15L170.422 134.294L170.422 134.572L170.145 134.571L154.272 134.535L138.4 134.434L138.259 134.433L138.26 134.294L138.401 123.15ZM138.401 123.15L138.541 134.294L138.401 134.154L154.274 134.054L170.146 134.017L169.869 134.294L169.895 123.15L170.146 123.4C164.885 123.397 159.625 123.358 154.34 123.309L138.401 123.15Z" fill="#EBEBEB"/>
<path d="M138.21 123.149H106.467V134.293H138.21V123.149Z" fill="white"/>
<path d="M106.467 123.15L122.272 122.99C127.569 122.941 132.889 122.902 138.21 122.899H138.46L138.461 123.15L138.487 134.294L138.487 134.572L138.21 134.571L122.338 134.535L106.466 134.434L106.324 134.433L106.325 134.294L106.467 123.15ZM106.467 123.15L106.606 134.294L106.467 134.154L122.339 134.054L138.211 134.017L137.934 134.294L137.96 123.15L138.211 123.4C132.951 123.397 127.69 123.358 122.405 123.309L106.467 123.15Z" fill="#EBEBEB"/>
<path d="M10.47 123.149H-21.2737V134.293H10.47V123.149Z" fill="white"/>
<path d="M-21.2736 123.15L-5.46802 122.99C-0.171776 122.941 5.14884 122.902 10.47 122.899H10.7204L10.721 123.15L10.747 134.294L10.7476 134.572L10.47 134.571L-5.40209 134.535L-21.2742 134.434L-21.416 134.433L-21.4144 134.294L-21.2736 123.15ZM-21.2736 123.15L-21.134 134.294L-21.2736 134.154L-5.40154 134.054L10.4706 134.017L10.1941 134.294L10.2202 123.15L10.4706 123.4C5.21033 123.397 -0.0504513 123.358 -5.33506 123.309L-21.2736 123.15Z" fill="#EBEBEB"/>
<path d="M10.47 167.725H-21.2737V178.868H10.47V167.725Z" fill="white"/>
<path d="M-21.2736 167.725L-5.46802 167.565C-0.171776 167.516 5.14884 167.477 10.47 167.475H10.7204L10.721 167.726L10.747 178.869L10.7476 179.147L10.47 179.146L-5.40209 179.11L-21.2742 179.009L-21.416 179.008L-21.4144 178.869L-21.2736 167.725ZM-21.2736 167.725L-21.134 178.869L-21.2736 178.729L-5.40154 178.629L10.4706 178.592L10.1941 178.869L10.2202 167.725L10.4706 167.975C5.21033 167.973 -0.0504513 167.933 -5.33506 167.885L-21.2736 167.725Z" fill="#EBEBEB"/>
<path d="M186.208 134.293H154.465V145.437H186.208V134.293Z" fill="white"/>
<path d="M154.465 134.293L170.27 134.134C175.567 134.085 180.887 134.046 186.208 134.043H186.459L186.459 134.294L186.485 145.438L186.486 145.715L186.208 145.715L170.336 145.678L154.464 145.578L154.322 145.577L154.324 145.438L154.465 134.293ZM154.465 134.293L154.605 145.437L154.465 145.297L170.337 145.197L186.209 145.161L185.933 145.437L185.959 134.293L186.209 134.544C180.949 134.541 175.688 134.502 170.404 134.453L154.465 134.293Z" fill="#EBEBEB"/>
<path d="M186.208 156.581H154.465V167.725H186.208V156.581Z" fill="white"/>
<path d="M154.465 156.581L170.27 156.422C175.567 156.373 180.887 156.334 186.208 156.331H186.459L186.459 156.582L186.485 167.726L186.486 168.003L186.208 168.003L170.336 167.966L154.464 167.866L154.322 167.865L154.324 167.726L154.465 156.581ZM154.465 156.581L154.605 167.725L154.465 167.586L170.337 167.485L186.209 167.449L185.933 167.725L185.959 156.581L186.209 156.832C180.949 156.829 175.688 156.79 170.404 156.741L154.465 156.581Z" fill="#EBEBEB"/>
<path d="M154.281 156.581H122.536V167.725H154.281V156.581Z" fill="white"/>
<path d="M122.536 156.581L138.342 156.422C143.638 156.373 148.959 156.334 154.28 156.331H154.53L154.531 156.582L154.557 167.726L154.557 168.003L154.28 168.003L138.407 167.966L122.535 167.866L122.394 167.865L122.395 167.726L122.536 156.581ZM122.536 156.581L122.677 167.725L122.537 167.586L138.409 167.485L154.281 167.449L154.005 167.725L154.031 156.581L154.281 156.832C149.021 156.829 143.76 156.79 138.476 156.741L122.536 156.581Z" fill="#EBEBEB"/>
<path d="M170.145 145.437H138.401V156.58H170.145V145.437Z" fill="white"/>
<path d="M138.401 145.437L154.207 145.277C159.503 145.228 164.824 145.189 170.145 145.187H170.395L170.396 145.437L170.422 156.581L170.422 156.859L170.145 156.858L154.272 156.822L138.4 156.721L138.259 156.72L138.26 156.581L138.401 145.437ZM138.401 145.437L138.541 156.581L138.401 156.441L154.274 156.341L170.146 156.304L169.869 156.581L169.895 145.437L170.146 145.687C164.885 145.685 159.625 145.645 154.34 145.596L138.401 145.437Z" fill="#EBEBEB"/>
<path d="M186.208 178.868H154.465V190.012H186.208V178.868Z" fill="white"/>
<path d="M154.465 178.869L170.27 178.709C175.567 178.66 180.887 178.621 186.208 178.618H186.459L186.459 178.869L186.485 190.013L186.486 190.29L186.208 190.29L170.336 190.253L154.464 190.153L154.322 190.152L154.324 190.013L154.465 178.869ZM154.465 178.869L154.605 190.012L154.465 189.873L170.337 189.772L186.209 189.736L185.933 190.012L185.959 178.869L186.209 179.119C180.949 179.116 175.688 179.077 170.404 179.028L154.465 178.869Z" fill="#EBEBEB"/>
<path d="M170.145 167.725H138.401V178.868H170.145V167.725Z" fill="white"/>
<path d="M138.401 167.725L154.207 167.565C159.503 167.516 164.824 167.477 170.145 167.475H170.395L170.396 167.726L170.422 178.869L170.422 179.147L170.145 179.146L154.272 179.11L138.4 179.009L138.259 179.008L138.26 178.869L138.401 167.725ZM138.401 167.725L138.541 178.869L138.401 178.729L154.274 178.629L170.146 178.592L169.869 178.869L169.895 167.725L170.146 167.975C164.885 167.973 159.625 167.933 154.34 167.885L138.401 167.725Z" fill="#EBEBEB"/>
<path d="M170.145 189.825H138.401V200.969H170.145V189.825Z" fill="white"/>
<path d="M138.401 189.826L154.207 189.666C159.503 189.617 164.824 189.578 170.145 189.575H170.395L170.396 189.826L170.422 200.97L170.422 201.247L170.145 201.247L154.272 201.21L138.4 201.11L138.259 201.109L138.26 200.97L138.401 189.826ZM138.401 189.826L138.541 200.969L138.401 200.83L154.274 200.729L170.146 200.693L169.869 200.969L169.895 189.826L170.146 190.076C164.885 190.073 159.625 190.034 154.34 189.985L138.401 189.826Z" fill="#EBEBEB"/>
<path d="M26.5332 156.581H-5.21045V167.725H26.5332V156.581Z" fill="white"/>
<path d="M-5.21041 156.581L10.5952 156.422C15.8915 156.373 21.2121 156.334 26.5332 156.331H26.7836L26.7842 156.582L26.8102 167.726L26.8108 168.003L26.5332 168.003L10.6611 167.966L-5.21096 167.866L-5.35278 167.865L-5.35112 167.726L-5.21041 156.581ZM-5.21041 156.581L-5.0708 167.725L-5.21041 167.586L10.6617 167.485L26.5338 167.449L26.2573 167.725L26.2834 156.581L26.5338 156.832C21.2736 156.829 16.0128 156.79 10.7282 156.741L-5.21041 156.581Z" fill="#EBEBEB"/>
<path d="M58.468 268.099H26.7244V279.242H58.468V268.099Z" fill="white"/>
<path d="M58.4687 279.242L42.663 279.402C37.3668 279.451 32.0462 279.49 26.725 279.493H26.4752L26.4746 279.242L26.4486 268.098L26.448 267.82L26.7256 267.821L42.5977 267.857L58.4698 267.958L58.6116 267.959L58.6099 268.098L58.4687 279.242ZM58.4687 279.242L58.329 268.098L58.4687 268.238L42.5965 268.338L26.7244 268.375L27.0009 268.098L26.9749 279.242L26.7244 278.992C31.9847 278.994 37.2455 279.034 42.5301 279.083L58.4687 279.242Z" fill="#EBEBEB"/>
<path d="M90.4034 268.099H58.6592V279.242H90.4034V268.099Z" fill="white"/>
<path d="M90.4035 279.242L74.5978 279.402C69.3016 279.451 63.981 279.49 58.6598 279.493H58.41L58.4094 279.242L58.3834 268.098L58.3828 267.82L58.6604 267.821L74.5325 267.857L90.4046 267.958L90.5464 267.959L90.5447 268.098L90.4035 279.242ZM90.4035 279.242L90.2638 268.098L90.4035 268.238L74.5314 268.338L58.6593 268.375L58.9357 268.098L58.9097 279.242L58.6593 278.992C63.9195 278.994 69.1803 279.034 74.4649 279.083L90.4035 279.242Z" fill="#EBEBEB"/>
<path d="M138.21 256.954H106.467V268.098H138.21V256.954Z" fill="white"/>
<path d="M138.21 268.099L122.405 268.258C117.108 268.307 111.788 268.346 106.467 268.349H106.216L106.216 268.098L106.19 256.954L106.189 256.677L106.467 256.677L122.339 256.714L138.211 256.814L138.353 256.815L138.351 256.954L138.21 268.099ZM138.21 268.099L138.071 256.955L138.21 257.094L122.338 257.195L106.466 257.231L106.742 256.955L106.716 268.099L106.466 267.848C111.726 267.851 116.987 267.89 122.272 267.939L138.21 268.099Z" fill="#EBEBEB"/>
<path d="M106.275 256.954H74.5312V268.098H106.275V256.954Z" fill="white"/>
<path d="M106.276 268.099L90.4699 268.258C85.1737 268.307 79.8531 268.346 74.5319 268.349H74.282L74.2815 268.098L74.2554 256.954L74.2549 256.677L74.5324 256.677L90.4045 256.714L106.277 256.814L106.418 256.815L106.417 256.954L106.276 268.099ZM106.276 268.099L106.136 256.955L106.276 257.094L90.4034 257.195L74.5313 257.231L74.8078 256.955L74.7817 268.099L74.5313 267.848C79.7916 267.851 85.0524 267.89 90.337 267.939L106.276 268.099Z" fill="#EBEBEB"/>
<path d="M74.3409 256.954H42.5967V268.098H74.3409V256.954Z" fill="white"/>
<path d="M74.3402 268.099L58.5346 268.258C53.2384 268.307 47.9177 268.346 42.5966 268.349H42.3467L42.3462 268.098L42.3201 256.954L42.3196 256.677L42.5971 256.677L58.4692 256.714L74.3413 256.814L74.4832 256.815L74.4815 256.954L74.3402 268.099ZM74.3402 268.099L74.2006 256.955L74.3402 257.094L58.4681 257.195L42.596 257.231L42.8725 256.955L42.8464 268.099L42.596 267.848C47.8563 267.851 53.117 267.89 58.4017 267.939L74.3402 268.099Z" fill="#EBEBEB"/>
<path d="M42.4055 256.954H10.6619V268.098H42.4055V256.954Z" fill="white"/>
<path d="M42.4054 268.099L26.5998 268.258C21.3035 268.307 15.9829 268.346 10.6618 268.349H10.4119L10.4114 268.098L10.3853 256.954L10.3848 256.677L10.6623 256.677L26.5344 256.714L42.4065 256.814L42.5483 256.815L42.5467 256.954L42.4054 268.099ZM42.4054 268.099L42.2658 256.955L42.4054 257.094L26.5333 257.195L10.6612 257.231L10.9377 256.955L10.9116 268.099L10.6612 267.848C15.9214 267.851 21.1822 267.89 26.4668 267.939L42.4054 268.099Z" fill="#EBEBEB"/>
<path d="M10.47 256.954H-21.2737V268.098H10.47V256.954Z" fill="white"/>
<path d="M10.4706 268.099L-5.33502 268.258C-10.6313 268.307 -15.9519 268.346 -21.273 268.349H-21.5229L-21.5235 268.098L-21.5495 256.954L-21.55 256.677L-21.2725 256.677L-5.40039 256.714L10.4717 256.814L10.6135 256.815L10.6119 256.954L10.4706 268.099ZM10.4706 268.099L10.331 256.955L10.4706 257.094L-5.4015 257.195L-21.2736 257.231L-20.9972 256.955L-21.0232 268.099L-21.2736 267.848C-16.0134 267.851 -10.7526 267.89 -5.46798 267.939L10.4706 268.099Z" fill="#EBEBEB"/>
<path d="M26.5334 245.811H-5.21021V256.954H26.5334V245.811Z" fill="white"/>
<path d="M26.5333 256.954L10.7277 257.114C5.43148 257.163 0.110865 257.202 -5.2103 257.204H-5.46016L-5.46071 256.953L-5.48675 245.81L-5.4873 245.532L-5.20975 245.533L10.6624 245.569L26.5345 245.67L26.6763 245.671L26.6746 245.81L26.5333 256.954ZM26.5333 256.954L26.3937 245.81L26.5333 245.95L10.6612 246.05L-5.21086 246.087L-4.93441 245.81L-4.96045 256.954L-5.21086 256.704C0.0493717 256.706 5.31016 256.746 10.5948 256.794L26.5333 256.954Z" fill="#EBEBEB"/>
<path d="M58.468 245.811H26.7244V256.954H58.468V245.811Z" fill="white"/>
<path d="M58.4687 256.954L42.663 257.114C37.3668 257.163 32.0462 257.202 26.725 257.204H26.4752L26.4746 256.953L26.4486 245.81L26.448 245.532L26.7256 245.533L42.5977 245.569L58.4698 245.67L58.6116 245.671L58.6099 245.81L58.4687 256.954ZM58.4687 256.954L58.329 245.81L58.4687 245.95L42.5965 246.05L26.7244 246.087L27.0009 245.81L26.9749 256.954L26.7244 256.704C31.9847 256.706 37.2455 256.746 42.5301 256.794L58.4687 256.954Z" fill="#EBEBEB"/>
<path d="M90.4034 245.811H58.6592V256.954H90.4034V245.811Z" fill="white"/>
<path d="M90.4035 256.954L74.5978 257.114C69.3016 257.163 63.981 257.202 58.6598 257.204H58.41L58.4094 256.953L58.3834 245.81L58.3828 245.532L58.6604 245.533L74.5325 245.569L90.4046 245.67L90.5464 245.671L90.5447 245.81L90.4035 256.954ZM90.4035 256.954L90.2638 245.81L90.4035 245.95L74.5314 246.05L58.6593 246.087L58.9357 245.81L58.9097 256.954L58.6593 256.704C63.9195 256.706 69.1803 256.746 74.4649 256.794L90.4035 256.954Z" fill="#EBEBEB"/>
<path d="M122.338 245.811H90.5945V256.954H122.338V245.811Z" fill="white"/>
<path d="M122.338 256.954L106.532 257.114C101.236 257.163 95.9156 257.202 90.5944 257.204H90.3445L90.344 256.953L90.3179 245.81L90.3174 245.532L90.5949 245.533L106.467 245.569L122.339 245.67L122.481 245.671L122.479 245.81L122.338 256.954ZM122.338 256.954L122.198 245.81L122.338 245.95L106.466 246.05L90.5938 246.087L90.8703 245.81L90.8442 256.954L90.5938 256.704C95.8541 256.706 101.115 256.746 106.399 256.794L122.338 256.954Z" fill="#EBEBEB"/>
<path d="M154.273 245.811H122.529V256.954H154.273V245.811Z" fill="white"/>
<path d="M154.273 256.954L138.468 257.114C133.172 257.163 127.851 257.202 122.53 257.204H122.279L122.279 256.953L122.253 245.81L122.252 245.532L122.53 245.533L138.402 245.569L154.274 245.67L154.416 245.671L154.414 245.81L154.273 256.954ZM154.273 256.954L154.134 245.81L154.273 245.95L138.401 246.05L122.529 246.087L122.806 245.81L122.78 256.954L122.529 256.704C127.789 256.706 133.05 256.746 138.335 256.794L154.273 256.954Z" fill="#EBEBEB"/>
<path d="M170.145 234.667H138.402V245.811H170.145V234.667Z" fill="white"/>
<path d="M170.146 245.81L154.34 245.97C149.044 246.019 143.723 246.058 138.402 246.061H138.152L138.151 245.81L138.125 234.666L138.125 234.389L138.402 234.389L154.274 234.426L170.146 234.526L170.288 234.527L170.286 234.666L170.146 245.81ZM170.146 245.81L170.006 234.667L170.146 234.806L154.274 234.907L138.402 234.943L138.678 234.667L138.652 245.81L138.402 245.56C143.662 245.563 148.923 245.602 154.207 245.651L170.146 245.81Z" fill="#EBEBEB"/>
<path d="M138.21 234.667H106.467V245.811H138.21V234.667Z" fill="white"/>
<path d="M138.21 245.81L122.405 245.97C117.108 246.019 111.788 246.058 106.467 246.061H106.216L106.216 245.81L106.19 234.666L106.189 234.389L106.467 234.389L122.339 234.426L138.211 234.526L138.353 234.527L138.351 234.666L138.21 245.81ZM138.21 245.81L138.071 234.667L138.21 234.806L122.338 234.907L106.466 234.943L106.742 234.667L106.716 245.81L106.466 245.56C111.726 245.563 116.987 245.602 122.272 245.651L138.21 245.81Z" fill="#EBEBEB"/>
<path d="M154.273 223.522H122.529V234.666H154.273V223.522Z" fill="white"/>
<path d="M154.273 234.667L138.468 234.826C133.172 234.876 127.851 234.915 122.53 234.917H122.279L122.279 234.666L122.253 223.523L122.252 223.245L122.53 223.246L138.402 223.282L154.274 223.383L154.416 223.384L154.414 223.523L154.273 234.667ZM154.273 234.667L154.134 223.523L154.273 223.663L138.401 223.763L122.529 223.8L122.806 223.523L122.78 234.667L122.529 234.417C127.789 234.419 133.05 234.459 138.335 234.507L154.273 234.667Z" fill="#EBEBEB"/>
<path d="M170.145 212.239H138.402V223.383H170.145V212.239Z" fill="white"/>
<path d="M170.146 223.383L154.34 223.542C149.044 223.592 143.723 223.63 138.402 223.633H138.152L138.151 223.382L138.125 212.238L138.125 211.961L138.402 211.961L154.274 211.998L170.146 212.098L170.288 212.099L170.286 212.238L170.146 223.383ZM170.146 223.383L170.006 212.239L170.146 212.379L154.274 212.479L138.402 212.515L138.678 212.239L138.652 223.383L138.402 223.132C143.662 223.135 148.923 223.174 154.207 223.223L170.146 223.383Z" fill="#EBEBEB"/>
<path d="M138.21 212.239H106.467V223.383H138.21V212.239Z" fill="white"/>
<path d="M138.21 223.383L122.405 223.542C117.108 223.592 111.788 223.63 106.467 223.633H106.216L106.216 223.382L106.19 212.238L106.189 211.961L106.467 211.961L122.339 211.998L138.211 212.098L138.353 212.099L138.351 212.238L138.21 223.383ZM138.21 223.383L138.071 212.239L138.21 212.379L122.338 212.479L106.466 212.515L106.742 212.239L106.716 223.383L106.466 223.132C111.726 223.135 116.987 223.174 122.272 223.223L138.21 223.383Z" fill="#EBEBEB"/>
<path d="M186.208 201.095H154.465V212.238H186.208V201.095Z" fill="white"/>
<path d="M186.208 212.239L170.403 212.399C165.106 212.448 159.786 212.487 154.465 212.49H154.214L154.214 212.239L154.188 201.095L154.187 200.817L154.465 200.818L170.337 200.854L186.209 200.955L186.351 200.956L186.349 201.095L186.208 212.239ZM186.208 212.239L186.069 201.095L186.208 201.235L170.336 201.335L154.464 201.372L154.74 201.095L154.714 212.239L154.464 211.989C159.724 211.992 164.985 212.031 170.27 212.08L186.208 212.239Z" fill="#EBEBEB"/>
<path d="M154.281 201.095H122.537V212.238H154.281V201.095Z" fill="white"/>
<path d="M154.28 212.239L138.475 212.399C133.178 212.448 127.858 212.487 122.537 212.49H122.287L122.286 212.239L122.26 201.095L122.26 200.817L122.537 200.818L138.409 200.854L154.281 200.955L154.423 200.956L154.421 201.095L154.28 212.239ZM154.28 212.239L154.14 201.095L154.28 201.235L138.408 201.335L122.535 201.372L122.812 201.095L122.786 212.239L122.535 211.989C127.796 211.992 133.056 212.031 138.341 212.08L154.28 212.239Z" fill="#EBEBEB"/>
<path d="M10.47 234.667H-21.2737V245.811H10.47V234.667Z" fill="white"/>
<path d="M10.4706 245.81L-5.33502 245.97C-10.6313 246.019 -15.9519 246.058 -21.273 246.061H-21.5229L-21.5235 245.81L-21.5495 234.666L-21.55 234.389L-21.2725 234.389L-5.40039 234.426L10.4717 234.526L10.6135 234.527L10.6119 234.666L10.4706 245.81ZM10.4706 245.81L10.331 234.667L10.4706 234.806L-5.4015 234.907L-21.2736 234.943L-20.9972 234.667L-21.0232 245.81L-21.2736 245.56C-16.0134 245.563 -10.7526 245.602 -5.46798 245.651L10.4706 245.81Z" fill="#EBEBEB"/>
<path d="M10.47 212.146H-21.2737V223.29H10.47V212.146Z" fill="white"/>
<path d="M10.4706 223.29L-5.33502 223.45C-10.6313 223.499 -15.9519 223.538 -21.273 223.54H-21.5229L-21.5235 223.289L-21.5495 212.146L-21.55 211.868L-21.2725 211.869L-5.40039 211.905L10.4717 212.006L10.6135 212.007L10.6119 212.146L10.4706 223.29ZM10.4706 223.29L10.331 212.146L10.4706 212.286L-5.4015 212.386L-21.2736 212.423L-20.9972 212.146L-21.0232 223.29L-21.2736 223.04C-16.0134 223.042 -10.7526 223.082 -5.46798 223.13L10.4706 223.29Z" fill="#EBEBEB"/>
<path d="M170.148 201.096H154.464V201.251H170.148V201.096Z" fill="white"/>
<path d="M170.148 201.096H154.464V201.251H170.148V201.096Z" fill="white"/>
<path d="M71.009 154.517C70.106 159.014 69.2107 163.533 68.1321 168.001C67.4734 170.731 66.6568 173.379 65.7626 176.014C64.6945 176.697 63.4657 177.306 62.048 177.806C62.2818 177.138 62.5068 176.471 62.7295 175.818C63.8109 172.665 64.6142 169.48 65.3964 166.251C65.4247 166.142 65.2734 166.129 65.2452 166.237C64.3327 169.526 63.1788 172.789 62.0054 176.003C61.75 176.702 61.4736 177.398 61.1921 178.086C60.0747 178.432 58.8531 178.713 57.5091 178.914C57.8083 178.153 58.0925 177.385 58.3739 176.637C59.0415 174.869 59.6742 173.09 60.2581 171.291C61.4109 167.742 62.3494 164.153 63.1239 160.52C63.1572 160.369 62.9566 160.359 62.9173 160.503C61.9118 164.189 60.7788 167.857 59.5384 171.479C58.9512 173.191 58.3385 174.902 57.6903 176.594C57.3789 177.405 57.0393 178.209 56.7058 179.021C54.7125 179.263 52.4727 179.335 49.9481 179.193C43.5162 178.831 37.3685 176.122 31.9465 172.788C27.3084 169.929 23.1888 165.986 20.3368 160.928C22.7888 158.814 24.9555 156.085 26.7161 153.408C26.7721 153.317 26.6718 153.234 26.6048 153.311C25.181 154.982 23.7035 156.584 22.1661 158.121C21.4432 158.844 20.6936 159.525 19.9424 160.211C19.9014 160.133 19.8632 160.057 19.8222 159.98C19.5568 159.472 19.2787 158.933 19.0183 158.363C20.5108 156.942 21.8891 155.328 23.2198 153.754C25.1306 151.497 26.9039 149.142 28.4352 146.575C28.5366 146.407 28.356 146.246 28.2308 146.399C26.3932 148.616 24.6098 150.882 22.7445 153.073C21.4321 154.614 20.0283 156.072 18.6782 157.578C17.9701 155.816 17.5624 153.849 18.338 151.866C18.9795 150.232 20.2271 148.988 21.3241 147.732C22.5628 146.325 23.7306 144.847 24.8353 143.313C27.1172 140.155 29.1111 136.751 30.7664 133.178C32.2988 129.865 33.3303 126.335 34.9203 123.051C36.2798 120.23 38.1762 117.833 40.7744 116.517C42.9849 115.399 45.3344 115.078 47.5898 115.227C47.6512 115.152 61.4359 108.839 72.4411 119.774C81.4253 128.702 73.2222 165.393 71.7724 168.852C70.9126 170.89 69.4545 173.273 66.8667 175.244C67.6119 173.012 68.2096 170.727 68.7431 168.501C69.8545 163.873 70.5459 159.217 71.2134 154.536C71.2345 154.387 71.0373 154.368 71.009 154.517Z" fill="#263238"/>
<path d="M64.9201 184.976C76.564 194.425 91.5569 205.242 98.847 205.242C106.501 205.242 138.251 202.291 144.756 180.42C145.948 176.414 108.258 164.109 105.585 167.69C102.313 172.075 99.2204 176.824 96.8277 179.332C95.8322 180.376 76.4278 173.511 68.8762 171.391C53.9442 167.198 55.6926 177.488 64.9201 184.976Z" fill="#F7A9A0"/>
<path d="M139.896 193.457L104.195 167.768C104.195 167.768 97.8652 176.297 95.8609 178.333C95.0155 179.193 77.2853 173.194 67.8335 170.613C56.9939 167.653 50.1453 174.084 64.92 186.143C80.9184 199.201 94.364 207.459 100.639 207.176C122.338 206.196 139.896 193.457 139.896 193.457Z" fill="#C7454E"/>
<path d="M114.991 187.799C112.598 186.049 103.078 178.991 100.855 177.079C100.819 177.048 100.86 176.987 100.904 177.013C103.404 178.474 113.013 185.196 115.414 186.945C120.199 190.431 125.089 193.85 129.45 197.786C129.526 197.855 129.44 197.992 129.341 197.931C124.327 194.843 119.708 191.248 114.991 187.799Z" fill="#263238"/>
<path opacity="0.1" d="M99.1472 207.097C92.3829 206.222 79.7517 198.25 64.9211 186.145C55.6527 178.583 54.8937 173.231 58.2897 171.026L99.1472 207.097Z" fill="black"/>
<path d="M96.3866 177.747C95.1645 179.616 93.97 181.47 92.8986 183.403C92.3496 184.361 91.8454 185.344 91.3452 186.33C90.8554 187.322 90.3657 188.316 89.9192 189.339C90.1613 188.248 90.5225 187.183 90.9518 186.151C91.3773 185.116 91.8682 184.108 92.4161 183.132C92.9712 182.16 93.5606 181.207 94.2293 180.309C94.8764 179.398 95.6143 178.552 96.3866 177.747Z" fill="#263238"/>
<path d="M89.4023 187.475C89.4516 187.13 89.5985 186.817 89.7652 186.528C89.9314 186.235 90.1381 185.972 90.3558 185.722C90.8056 185.234 91.317 184.802 91.9491 184.53C91.7846 184.835 91.5901 185.099 91.3884 185.354C91.1923 185.613 90.9757 185.85 90.7674 186.092C90.3342 186.567 89.8998 187.013 89.4023 187.475Z" fill="#263238"/>
<path d="M104.933 180.283C104.994 181.672 102.575 192.38 103.164 195.325C103.753 198.27 112.735 207.031 116.416 207.326C120.097 207.62 123.641 205.632 127.17 205.117C130.699 204.602 134.38 203.276 132.319 199.448C130.257 195.62 125.987 195.177 122.232 194.736C118.478 194.294 114.502 190.172 114.502 190.172L104.933 180.283Z" fill="#F7A9A0"/>
<path d="M124.209 194.985C122.528 195.326 120.993 195.584 119.505 196.022C118.758 196.226 118.046 196.504 117.33 196.809C116.598 197.101 115.938 197.519 115.161 197.922C115.524 197.146 116.085 196.434 116.792 195.914C117.492 195.39 118.291 194.975 119.134 194.747C119.973 194.507 120.844 194.4 121.703 194.428C122.561 194.469 123.421 194.61 124.209 194.985Z" fill="#263238"/>
<path d="M111.741 161.789C107.712 162.472 104.205 166.488 104.195 177.435C104.193 179.589 104.933 180.283 104.933 180.283C104.29 191.096 107.452 195.671 111.41 196.19C116.198 196.817 118.256 193.043 118.256 193.043C118.256 193.043 120.741 196.963 124.662 197.129C128.582 197.295 129.576 195.638 129.576 195.638C129.576 195.638 131.067 197.405 133.607 197.847C136.147 198.288 140.123 196.651 140.123 196.651C140.123 196.651 141.89 198.288 145.148 197.019C148.406 195.749 150.393 191.828 149.951 185.037C149.51 178.245 147.632 168.748 141.89 168.803C141.89 168.803 139.681 165.987 136.202 165.545C132.724 165.103 131.73 165.269 131.509 164.993C131.288 164.717 129.687 161.237 125.38 161.348C121.073 161.459 119.251 163.502 118.036 163.502C116.821 163.501 114.999 161.237 111.741 161.789Z" fill="#F7A9A0"/>
<path d="M104.933 180.283C104.807 178.988 104.912 177.709 105.099 176.441C105.205 175.809 105.331 175.179 105.514 174.559C105.697 173.943 105.917 173.316 106.293 172.778C106.175 173.417 106.108 174.039 106.021 174.666C105.944 175.295 105.848 175.918 105.754 176.545C105.548 177.795 105.328 179.045 104.933 180.283Z" fill="#263238"/>
<path d="M104.861 182.048C104.947 184.121 105.21 186.176 105.668 188.167C106.134 190.145 106.842 192.098 108.056 193.623C108.676 194.368 109.439 194.958 110.3 195.318C111.162 195.678 112.139 195.762 113.085 195.662C114.029 195.563 114.952 195.26 115.76 194.741C116.561 194.238 117.311 193.536 117.831 192.786L118.281 192.137L118.684 192.786C119.179 193.586 119.838 194.369 120.556 195.023C121.285 195.676 122.114 196.221 123.035 196.528L123.381 196.641L123.737 196.714C123.97 196.774 124.226 196.79 124.474 196.827C124.973 196.885 125.477 196.923 125.981 196.911C126.484 196.902 126.99 196.856 127.484 196.752C127.976 196.642 128.476 196.512 128.918 196.246C128.096 196.887 127.036 197.149 126.007 197.285C124.965 197.403 123.917 197.426 122.847 197.164C121.787 196.909 120.831 196.349 119.997 195.68C119.156 195 118.444 194.224 117.83 193.297L118.683 193.298C118.056 194.272 117.28 195.038 116.336 195.647C115.406 196.259 114.314 196.636 113.202 196.763C112.097 196.868 110.943 196.759 109.891 196.31C108.838 195.87 107.949 195.112 107.277 194.241C106.61 193.361 106.129 192.38 105.775 191.373C105.418 190.367 105.172 189.334 105.016 188.294C104.851 187.255 104.767 186.21 104.748 185.167C104.725 184.124 104.743 183.081 104.861 182.048Z" fill="#263238"/>
<path d="M118.726 175.719C118.997 177.157 119.137 178.604 119.228 180.052C119.326 181.499 119.346 182.949 119.331 184.399C119.295 185.849 119.233 187.3 119.064 188.747C118.903 190.191 118.679 191.638 118.257 193.042C118.221 191.58 118.202 190.142 118.201 188.701C118.193 187.26 118.208 185.821 118.224 184.381C118.261 182.941 118.288 181.5 118.367 180.057C118.439 178.614 118.538 177.17 118.726 175.719Z" fill="#263238"/>
<path d="M130.211 178.333C130.473 179.773 130.608 181.219 130.696 182.667C130.791 184.115 130.807 185.564 130.794 187.013C130.763 188.462 130.699 189.913 130.539 191.359C130.382 192.803 130.172 194.254 129.742 195.657C129.715 194.196 129.682 192.758 129.675 191.316C129.658 189.876 129.675 188.436 129.687 186.995C129.721 185.554 129.752 184.113 129.834 182.67C129.91 181.227 130.014 179.782 130.211 178.333Z" fill="#263238"/>
<path d="M140.596 179.863C140.927 181.246 141.104 182.65 141.216 184.055C141.334 185.461 141.354 186.872 141.333 188.283C141.294 189.693 141.198 191.103 141.005 192.503C140.825 193.903 140.539 195.294 140.123 196.651C140.082 195.229 140.126 193.835 140.143 192.437L140.226 188.257C140.269 186.864 140.296 185.47 140.355 184.074C140.406 182.676 140.47 181.277 140.596 179.863Z" fill="#263238"/>
<path d="M8.88379 248.753L87.2532 248.81L82.547 229.762C82.547 229.762 89.7069 223.283 88.2166 214.634C86.1253 202.494 71.7179 183.427 65.5081 176.317C57.8302 167.526 43.7465 166.015 35.4215 178.022C15.0587 207.395 8.88379 248.753 8.88379 248.753Z" fill="#F7A9A0"/>
<path d="M69.6449 242.115C69.2255 242.413 68.9424 242.839 68.7225 243.283C68.497 243.725 68.3391 244.197 68.2389 244.675C68.1253 245.155 68.112 245.639 68.1042 246.141C68.0981 246.638 68.1402 247.132 68.2416 247.594C68.3452 248.051 68.5746 248.476 68.9175 248.491C69.2715 248.563 69.5208 248.149 69.6144 247.685C69.7075 247.219 69.7042 246.715 69.6344 246.223C69.5673 245.731 69.4338 245.234 69.1352 244.817C69.5297 245.161 69.7352 245.673 69.8892 246.169C70.0272 246.676 70.0975 247.208 70.0294 247.754C69.99 248.024 69.9308 248.31 69.7491 248.57C69.5851 248.837 69.2167 249.042 68.8809 249.004C68.5391 248.996 68.21 248.773 68.0488 248.517C67.8732 248.262 67.7779 247.992 67.7087 247.725C67.5752 247.19 67.5585 246.657 67.5674 246.133C67.5724 245.615 67.6383 245.071 67.7873 244.561C67.9436 244.052 68.1613 243.561 68.4688 243.13C68.7757 242.709 69.1535 242.297 69.6449 242.115Z" fill="#263238"/>
<path d="M8.03564 245.435L69.4803 237.736L86.769 243.979L82.5475 229.763C82.5475 229.763 89.7074 223.284 88.2172 214.635C86.1258 202.495 71.7185 183.428 65.5087 176.318C57.8308 167.527 43.747 166.016 35.4221 178.023C15.0587 207.395 8.03564 245.435 8.03564 245.435Z" fill="#C7454E"/>
<path opacity="0.1" d="M56.1178 170.18H45.553C46.6887 169.819 47.8355 169.581 48.9878 169.465H52.611C53.7965 169.587 54.971 169.825 56.1178 170.18ZM64.3724 175.116H37.7859C37.5699 175.348 37.3483 175.587 37.1322 175.83H65.0649C64.8378 175.587 64.6051 175.348 64.3724 175.116ZM69.1922 180.766H33.57C33.4149 181.005 33.2598 181.243 33.1102 181.481H69.7517C69.5634 181.237 69.375 180.999 69.1922 180.766ZM73.4802 186.423H30.0687C29.9302 186.661 29.7917 186.894 29.6588 187.132H73.9898C73.8236 186.894 73.6519 186.655 73.4802 186.423ZM77.4136 192.074H26.922C26.7946 192.306 26.6727 192.544 26.5508 192.783H77.8789C77.7238 192.544 77.5687 192.306 77.4136 192.074ZM80.9702 197.724H24.0689C23.9526 197.957 23.8362 198.195 23.731 198.434H81.3913C81.2528 198.195 81.1143 197.957 80.9702 197.724ZM84.0893 203.375H21.4651C21.3543 203.613 21.2546 203.852 21.1493 204.09H84.4494C84.3275 203.852 84.2111 203.613 84.0893 203.375ZM86.61 209.026H19.0829C18.9832 209.264 18.889 209.502 18.7948 209.741H86.8703C86.7872 209.502 86.7041 209.264 86.61 209.026ZM88.2221 214.677H16.9001C16.8115 214.915 16.7229 215.153 16.6342 215.391H88.3218C88.2997 215.153 88.2664 214.915 88.2221 214.677ZM14.8947 220.333C14.8116 220.571 14.734 220.81 14.6564 221.042H87.8509C87.9174 220.81 87.9783 220.577 88.0337 220.333H14.8947ZM13.0609 225.984C12.9889 226.222 12.9169 226.46 12.8449 226.693H85.1363C85.297 226.466 85.4521 226.233 85.6072 225.984H13.0609ZM83.1031 231.635H11.3934C11.3269 231.873 11.2604 232.111 11.1939 232.344H83.3137L83.1031 231.635ZM84.7818 237.286H9.88096C9.82002 237.529 9.76463 237.768 9.70923 238H84.9978L84.7818 237.286ZM8.39624 243.651H22.2684L27.9746 242.936H8.55136C8.49596 243.197 8.4461 243.435 8.39624 243.651ZM86.4604 242.936H83.8843L85.8676 243.651H86.6709L86.4604 242.936Z" fill="#030402"/>
<path d="M60.7172 226.997C63.8694 227.15 67.0433 227.432 70.1612 228.143C71.7124 228.497 73.242 228.935 74.7727 229.413C75.5356 229.651 76.2995 229.858 77.0685 230.061C77.8574 230.269 78.7017 230.455 79.5067 230.425C79.5792 230.423 79.5875 230.553 79.5155 230.561C78.7366 230.645 77.9909 230.723 77.2042 230.682C76.4563 230.643 75.7051 230.507 74.9655 230.347C73.3894 230.005 71.8254 229.577 70.2526 229.217C67.0788 228.489 63.906 227.763 60.7028 227.311C60.5549 227.29 60.5682 226.99 60.7172 226.997Z" fill="#263238"/>
<path d="M53.2372 230.919C55.78 230.412 58.3861 230.043 60.971 229.888C62.2718 229.809 63.5676 229.822 64.8723 229.876C65.495 229.901 66.1177 229.941 66.7398 229.989C67.4246 230.043 68.1071 230.206 68.7913 230.247C68.8627 230.251 68.8733 230.384 68.8001 230.382C68.1542 230.367 67.5066 230.48 66.8623 230.51C66.2146 230.54 65.5664 230.563 64.9188 230.593C63.6219 230.651 62.3266 230.728 61.0286 230.772C58.4304 230.861 55.8454 230.98 53.2538 231.177C53.1131 231.187 53.1053 230.946 53.2372 230.919Z" fill="#263238"/>
<path d="M68.8755 238.969C68.8755 238.969 71.3524 245.388 77.0741 247.137C77.0741 247.137 77.9218 241.299 76.2226 239.007C75.3778 237.867 70.8727 236.617 70.1951 237.278C69.517 237.939 68.8755 238.969 68.8755 238.969Z" fill="#C7454E"/>
<path d="M68.8755 238.969C68.8755 238.969 71.3524 245.388 77.0741 247.137C77.0741 247.137 77.9218 241.299 76.2226 239.007C75.3778 237.867 70.8727 236.617 70.1951 237.278C69.517 237.939 68.8755 238.969 68.8755 238.969Z" fill="#C7454E"/>
<path d="M68.8755 238.969C69.3043 239.866 69.8084 240.723 70.3746 241.534C70.9474 242.339 71.5613 243.113 72.2521 243.811C72.9286 244.525 73.7175 245.114 74.5219 245.658C75.3307 246.205 76.2348 246.579 77.1495 246.89L76.8171 247.1C76.9805 245.719 77.0475 244.306 76.9899 242.917C76.955 242.222 76.8897 241.527 76.7301 240.86C76.5755 240.201 76.3368 239.529 75.9373 239.048C75.5041 238.607 74.8349 238.296 74.2072 238.029C73.5634 237.765 72.8942 237.552 72.2139 237.397C71.8732 237.323 71.5303 237.258 71.1868 237.226C70.8538 237.195 70.4694 237.178 70.235 237.357C69.7275 237.834 69.2893 238.396 68.8755 238.969ZM68.8755 238.969C69.23 238.356 69.6262 237.763 70.1176 237.236C70.2705 237.096 70.471 237.037 70.6516 237.01C70.8361 236.986 71.0195 236.977 71.2001 236.984C71.5635 236.989 71.9208 237.038 72.2737 237.101C72.9795 237.232 73.6715 237.42 74.3485 237.664C74.6864 237.788 75.0221 237.921 75.3473 238.089C75.6725 238.254 75.9983 238.435 76.2825 238.726C76.7971 239.332 77.0348 240.038 77.2176 240.743C77.3966 241.451 77.4736 242.17 77.5195 242.887C77.6148 244.324 77.5201 245.749 77.3301 247.174L77.288 247.487L76.9977 247.385C76.0371 247.045 75.0952 246.637 74.2598 246.056C73.4211 245.487 72.6499 244.82 71.9823 244.066C71.312 243.316 70.6965 242.518 70.184 241.657C69.6721 240.798 69.2107 239.907 68.8755 238.969Z" fill="#263238"/>
<path opacity="0.1" d="M68.8767 238.966C68.8767 238.966 69.5205 237.943 70.1919 237.285C70.2152 237.258 70.2512 237.23 70.3005 237.214C70.3365 237.186 70.3858 237.17 70.4479 237.152C70.4855 237.149 70.5227 237.134 70.5725 237.13C71.1337 237.024 72.1193 237.178 73.1281 237.469C72.8561 238.223 72.4484 239.19 72.0312 239.866C71.6705 240.45 70.8157 240.856 69.9891 241.134C69.2241 239.888 68.8767 238.966 68.8767 238.966Z" fill="#050400"/>
<path d="M68.2522 239.18C68.2522 239.18 63.7299 246.233 59.7483 248.031C59.7483 248.031 57.95 243.549 59.8929 239.734C60.7632 238.025 66.8916 236.181 67.4273 237.047C67.963 237.912 68.2522 239.18 68.2522 239.18Z" fill="#C7454E"/>
<path d="M68.2522 239.18C68.2522 239.18 63.7299 246.233 59.7483 248.031C59.7483 248.031 57.95 243.549 59.8929 239.734C60.7632 238.025 66.8916 236.181 67.4273 237.047C67.963 237.912 68.2522 239.18 68.2522 239.18Z" fill="#C7454E"/>
<path d="M68.2521 239.18C67.7269 240.072 67.143 240.928 66.5442 241.772C65.9481 242.621 65.3021 243.433 64.6246 244.221C63.9465 245.007 63.2418 245.777 62.4556 246.469C61.6667 247.155 60.828 247.804 59.8535 248.264L59.6048 248.381L59.5117 248.126C58.9449 246.577 58.6624 244.954 58.7328 243.31C58.7726 242.49 58.915 241.674 59.1616 240.888C59.2303 240.693 59.2879 240.495 59.3665 240.304L59.6219 239.74C59.797 239.322 60.1538 239.013 60.4762 238.764C61.1488 238.263 61.8989 237.933 62.6501 237.633C63.4057 237.342 64.1786 237.101 64.9686 236.925C65.3636 236.838 65.7625 236.763 66.1702 236.733C66.5735 236.722 66.9979 236.653 67.4101 236.902C67.584 237.096 67.6283 237.264 67.7242 237.453C67.8062 237.638 67.8787 237.827 67.9436 238.017C68.0738 238.399 68.1735 238.788 68.2521 239.18ZM68.2521 239.18C68.1424 238.795 68.0051 238.42 67.8522 238.052C67.7763 237.868 67.6932 237.688 67.6017 237.513C67.5137 237.351 67.4062 237.135 67.3031 237.04C67.009 236.879 66.573 236.937 66.1979 236.982C65.8101 237.04 65.4234 237.124 65.0412 237.224C64.2766 237.425 63.5271 237.691 62.8024 238.003C62.08 238.316 61.3748 238.686 60.7637 239.143C60.4657 239.383 60.192 239.623 60.0629 239.956L59.8297 240.488C59.7582 240.667 59.7072 240.855 59.6446 241.038C59.4225 241.78 59.2967 242.553 59.269 243.332C59.238 244.884 59.4629 246.479 59.9854 247.936L59.6435 247.799C60.5499 247.386 61.372 246.772 62.1471 246.114C62.9288 245.459 63.6589 244.735 64.357 243.981C65.06 243.231 65.7181 242.438 66.3719 241.641C67.0212 240.841 67.6461 240.018 68.2521 239.18Z" fill="#263238"/>
<path opacity="0.1" d="M67.1758 240.744C66.4988 240.349 65.6191 239.684 65.2185 238.82C64.9931 238.341 64.9199 237.726 64.9199 237.106C66.1781 236.79 67.2157 236.717 67.4301 237.049C67.9603 237.907 68.2533 239.182 68.2533 239.182C68.2533 239.182 67.8534 239.814 67.1758 240.744Z" fill="#050400"/>
<path d="M66.1928 237.288C66.4488 235.806 67.8565 234.813 69.3379 235.068C70.8193 235.324 71.8132 236.732 71.5572 238.213C71.3013 239.695 69.8936 240.688 68.4122 240.433C66.9313 240.177 65.9375 238.769 66.1928 237.288Z" fill="#C7454E"/>
<path d="M66.193 237.288C66.3088 236.584 66.7104 235.932 67.2893 235.504C67.8638 235.069 68.6211 234.863 69.3558 234.967C70.0892 235.065 70.7906 235.468 71.2449 236.079C71.7019 236.688 71.8925 237.493 71.7623 238.249C71.6316 239.005 71.1828 239.701 70.548 240.121C69.9158 240.545 69.1186 240.689 68.3946 240.536C67.6672 240.387 67.0229 239.939 66.6273 239.337C66.2262 238.738 66.0661 237.99 66.193 237.288ZM66.193 237.288C66.0722 237.992 66.2495 238.738 66.6749 239.304C67.0982 239.87 67.7497 240.241 68.43 240.33C69.112 240.424 69.81 240.231 70.3413 239.828C70.8759 239.43 71.2455 238.829 71.3529 238.178C71.4698 237.529 71.3241 236.839 70.9535 236.284C70.589 235.726 69.9945 235.31 69.3203 235.171C68.6494 235.027 67.9109 235.158 67.3226 235.551C66.732 235.94 66.3154 236.584 66.193 237.288Z" fill="#263238"/>
<path d="M48.1008 173.413C48.4898 174.843 55.7078 183.951 62.2849 183.404C64.4267 183.222 63.9563 171.488 63.9563 171.488L64.1203 170.614L66.3973 158.375L51.806 149.739L49.7014 148.603C49.7014 148.603 49.2991 151.992 48.841 156.217C48.8183 156.413 48.7961 156.609 48.7751 156.819C48.7429 157.057 48.7097 157.282 48.6898 157.505C48.6127 158.136 48.5374 158.78 48.4759 159.423C48.4272 159.912 48.3767 160.387 48.3441 160.903C48.2981 161.419 48.2637 161.921 48.2177 162.438C47.872 167.539 47.9446 172.806 48.1008 173.413Z" fill="#F7A9A0"/>
<path d="M48.8403 156.217C52.6668 165.754 60.5275 169.415 64.1197 170.614L66.3966 158.375L51.8053 149.739L49.7007 148.603C49.7007 148.603 49.2985 151.992 48.8403 156.217Z" fill="#263238"/>
<path d="M80.2561 135.18C86.8227 156.017 75.0835 162.304 70.5889 163.715C66.5081 164.995 52.452 168.839 43.7675 148.791C35.0835 128.743 42.6955 119.104 51.8725 115.681C61.0501 112.257 73.6896 114.343 80.2561 135.18Z" fill="#F7A9A0"/>
<path d="M71.534 130.972C71.1262 131.301 70.6952 131.538 70.2592 131.822C69.7667 132.143 69.4066 132.45 68.7933 132.442C68.4642 132.438 68.1313 132.087 68.1052 131.767C68.0449 131.021 68.5507 130.478 69.1279 130.067C69.7545 129.621 70.3517 129.439 71.1173 129.488C71.8592 129.537 72.0708 130.536 71.534 130.972Z" fill="#263238"/>
<path d="M57.5465 138.169C58.0712 138.17 58.5548 138.083 59.0733 138.03C59.6584 137.97 60.1304 137.983 60.6029 137.591C60.8561 137.381 60.8949 136.899 60.7143 136.634C60.2932 136.015 59.5581 135.911 58.8512 135.954C58.0833 136.001 57.5039 136.234 56.9399 136.754C56.3925 137.258 56.8551 138.168 57.5465 138.169Z" fill="#263238"/>
<path d="M61.4748 141.082C61.4454 141.031 61.3862 141.188 61.4078 141.246C61.9391 142.662 62.3097 144.372 61.1768 145.287C61.1419 145.315 61.1701 145.385 61.2155 145.363C62.7196 144.604 62.2055 142.338 61.4748 141.082Z" fill="#263238"/>
<path d="M59.6898 140.022C57.3293 140.629 58.7165 145.305 60.9037 144.743C63.056 144.19 61.6682 139.513 59.6898 140.022Z" fill="#263238"/>
<path d="M58.8451 140.541C58.5149 140.927 58.2534 141.513 57.7759 141.708C57.223 141.933 56.6474 141.571 56.1349 141.211C56.0818 141.174 56.0541 141.226 56.0712 141.288C56.3239 142.188 56.941 143.005 57.941 142.854C58.854 142.716 59.2473 141.735 59.2041 140.769C59.1958 140.59 58.9781 140.386 58.8451 140.541Z" fill="#263238"/>
<path d="M70.1527 137.892C70.1477 137.833 70.2862 137.928 70.3012 137.987C70.674 139.452 71.3472 141.068 72.7997 141.171C72.8446 141.174 72.8618 141.248 72.8108 141.255C71.1433 141.493 70.2707 139.339 70.1527 137.892Z" fill="#263238"/>
<path d="M71.012 136.001C73.2961 135.151 74.829 139.781 72.7133 140.57C70.6308 141.345 69.0973 136.714 71.012 136.001Z" fill="#263238"/>
<path d="M72.0785 135.986C72.5261 136.11 73.0352 136.436 73.4818 136.321C73.9992 136.186 74.208 135.561 74.3726 134.974C74.3898 134.913 74.4391 134.94 74.4607 135C74.7781 135.877 74.7909 136.896 73.9964 137.348C73.2724 137.76 72.4513 137.189 71.9483 136.377C71.8558 136.226 71.8984 135.936 72.0785 135.986Z" fill="#263238"/>
<path d="M64.1552 154.391C64.5918 154.648 65.0593 155.033 65.6028 154.946C66.1241 154.863 66.6648 154.484 67.0875 154.186C67.1296 154.157 67.1889 154.194 67.1701 154.245C66.9291 154.903 66.215 155.454 65.5059 155.503C64.8128 155.553 64.3425 155.06 64.0311 154.492C63.9868 154.413 64.0915 154.354 64.1552 154.391Z" fill="#263238"/>
<path d="M66.6754 150.76C68.1458 149.424 70.4504 148.809 71.9224 148.454C72.0708 148.372 72.0963 148.009 72.067 147.85L72.0625 147.84C72.0431 147.791 70.8897 144.993 70.8897 144.993C71.3396 145.04 73.5988 145.181 73.3639 144.651C71.4055 140.267 69.2283 135.393 66.3541 131.445C66.266 131.31 66.0527 131.429 66.1209 131.572C67.8361 135.859 70.2942 139.815 72.0852 144.094C71.3806 144.093 70.2122 144.038 69.6737 144.253C69.5424 144.351 71.0692 147.203 71.195 147.687C71.195 147.687 68.1347 147.899 66.4289 150.174C65.9868 150.765 65.9741 151.397 66.6754 150.76Z" fill="#263238"/>
<path d="M70.5599 151.25C71.2712 150.747 71.3693 147.67 69.9183 147.965C68.4674 148.26 65.591 150.054 65.1639 152.138C64.7894 153.964 68.3599 151.511 69.1128 151.514C69.7411 151.516 70.048 151.612 70.5599 151.25Z" fill="#263238"/>
<path d="M69.1196 151.515C69.2641 151.518 69.3738 151.527 69.4797 151.521C69.1506 150.647 67.9345 149.891 66.0111 150.483C65.5922 150.992 65.2737 151.551 65.1584 152.134C64.795 153.957 68.3667 151.512 69.1196 151.515Z" fill="#FF9ABB"/>
<path d="M58.7754 119.132C58.7754 119.132 60.6524 122.142 60.254 124.859C59.4347 130.443 53.1745 130.98 51.7657 133.524C50.4449 135.909 52.2582 139.442 51.1153 141.774C49.533 145.002 47.3802 143.706 47.512 145.508C47.6439 147.31 48.1846 153.01 46.2517 154.356C44.3188 155.701 23.4562 123.136 51.8271 115.578C51.8271 115.578 55.2331 112.575 62.0828 113.974C71.8343 115.966 76.6674 126.548 76.6674 126.548C76.6674 126.548 74.8608 126.706 73.6409 126.158C71.9191 125.384 70.975 124.699 69.7446 124.234C67.8123 123.502 67.1181 124.657 65.1331 123.977C62.1094 122.94 58.7754 119.132 58.7754 119.132Z" fill="#263238"/>
<path d="M58.1527 118.022C59.0192 119.285 59.7516 120.64 60.2978 122.054C60.8513 123.448 61.2402 124.97 60.9898 126.404C60.7216 127.807 59.7073 129.02 58.5483 129.901C57.3666 130.805 55.9406 131.399 54.6841 132.417C54.0792 132.944 53.5135 133.579 53.2421 134.41C52.9784 135.227 53.0244 136.052 53.0847 136.818C53.2327 138.347 53.3673 139.857 52.7318 141.178C52.1119 142.493 50.9153 143.54 49.4632 143.919C48.0522 144.359 46.3686 144.445 45.1836 145.493C46.4506 144.545 48.0472 144.603 49.5569 144.26C51.107 143.934 52.4842 142.856 53.2299 141.426C54.0354 139.966 53.852 138.252 53.7418 136.771C53.6903 136.019 53.6753 135.274 53.8986 134.628C54.1096 133.994 54.6005 133.433 55.1501 132.973C56.2647 132.033 57.7007 131.4 58.9488 130.427C59.5737 129.943 60.1494 129.372 60.6075 128.715C61.0601 128.074 61.4618 127.312 61.5421 126.494C61.746 124.87 61.2546 123.318 60.6258 121.915C59.956 120.515 59.115 119.216 58.1527 118.022Z" fill="#263238"/>
<path d="M59.0835 119.132C59.7666 120.386 60.633 121.533 61.6369 122.574C62.6296 123.617 63.9321 124.47 65.4046 124.791C66.1431 124.96 66.9143 124.926 67.5752 124.944C68.2112 124.97 68.9297 125.141 69.4029 125.489C69.9264 125.894 70.4726 126.438 71.1336 126.765C71.7956 127.091 72.5219 127.252 73.2332 127.252C72.5407 127.089 71.8704 126.861 71.3136 126.458C70.728 126.089 70.3031 125.573 69.7563 125.056C69.1242 124.498 68.3735 124.358 67.619 124.266C66.8683 124.217 66.2074 124.251 65.5597 124.088C64.2468 123.793 63.0728 123.072 62.0363 122.147C60.9826 121.239 60.0259 120.197 59.0835 119.132Z" fill="#263238"/>
<path d="M47.5835 149.348C47.5835 149.348 41.4496 143.726 38.7976 146.058C36.1461 148.389 41.7909 157.261 45.6306 157.792C49.4698 158.324 50.0322 154.78 50.0322 154.78L47.5835 149.348Z" fill="#F7A9A0"/>
<path d="M40.4789 148.56C40.4207 148.567 40.4274 148.65 40.4811 148.659C43.1918 149.114 45.0128 151.129 46.4616 153.315C45.517 152.56 44.3985 152.279 43.3614 153.433C43.3071 153.494 43.3913 153.581 43.4583 153.551C44.4284 153.107 45.2023 153.12 46.0715 153.783C46.687 154.252 47.1823 154.908 47.6798 155.497C47.8455 155.694 48.2205 155.486 48.0787 155.249C48.0687 155.231 48.0565 155.213 48.046 155.196C47.4039 152.011 43.9536 148.123 40.4789 148.56Z" fill="#263238"/>
<path d="M31.9731 177.022C7.02151 195.051 -22.9975 223.441 -15.9385 234.26C-11.25 241.446 17.286 224.584 17.6921 224.206C19.0821 222.914 31.8269 202.913 43.6858 184.741C54.645 167.947 43.1207 168.968 31.9731 177.022Z" fill="#C7454E"/>
<path d="M38.4593 194.655C37.5264 195.803 36.6051 196.964 35.7104 198.144C35.8866 197.827 36.0699 197.514 36.2439 197.197C37.6594 194.61 39.0499 192.009 40.4399 189.41C40.4693 189.356 40.3778 189.312 40.3457 189.364C37.5873 193.804 34.7858 198.219 32.0113 202.649C29.2458 207.066 26.4841 211.487 23.4953 215.778C21.8011 218.21 20.0893 220.665 18.1996 222.972C18.1608 223.019 18.2378 223.085 18.2788 223.037C20.0051 221.035 21.7479 219.058 23.3634 216.977C24.9678 214.911 26.5279 212.813 27.9948 210.66C30.2125 207.406 32.3011 204.088 34.2661 200.702C35.8395 198.801 37.2732 196.793 38.6106 194.752C38.6627 194.674 38.5197 194.581 38.4593 194.655Z" fill="#263238"/>
<path d="M-15.405 235.325C-7.28063 243.879 26.5882 240.831 48.3255 235.258C52.4633 234.198 40.708 197.262 36.4416 198.892C12.0961 208.191 -24.3012 225.959 -15.405 235.325Z" fill="#F7A9A0"/>
<path d="M78.4685 198.956C78.2635 203.041 75.7772 202.461 75.7772 202.461C75.7772 202.461 78.0985 204.073 78.6164 206.738C79.2098 209.79 74.6847 212.058 74.6847 212.058C74.6847 212.058 76.6968 214.176 76.9605 217.046C77.2348 220.024 72.995 222.964 72.995 222.964C72.995 222.964 73.785 225.967 72.2338 228.611C69.5818 233.131 45.172 237.052 38.59 237.349L32.6865 200.639C32.6865 200.639 54.9634 189.028 60.9749 189.648C66.039 190.17 78.7821 192.712 78.4685 198.956Z" fill="#F7A9A0"/>
<path d="M75.6997 202.341C70.4488 200.493 64.7659 199.906 59.2758 199.4C59.1539 199.389 59.1378 199.58 59.2603 199.59C64.726 200.03 70.2056 201.942 75.6426 202.599C75.7933 202.618 75.8409 202.39 75.6997 202.341Z" fill="#263238"/>
<path d="M74.5607 211.636C73.3607 211.254 72.0377 211.269 70.7896 211.216C69.4461 211.159 68.1021 211.127 66.757 211.115C64.0646 211.09 61.3716 211.127 58.6819 211.243C58.5628 211.248 58.5406 211.432 58.6664 211.434C61.3494 211.462 64.0319 211.532 66.7116 211.674C68.0523 211.745 69.393 211.828 70.7325 211.92C71.979 212.004 73.2865 212.198 74.5296 212.003C74.713 211.974 74.7413 211.694 74.5607 211.636Z" fill="#263238"/>
<path d="M72.882 222.96C71.8521 222.586 70.5475 222.75 69.4666 222.763C68.2395 222.777 67.0129 222.785 65.7858 222.786C63.3322 222.787 60.8791 222.787 58.427 222.703C58.3046 222.699 58.288 222.889 58.4115 222.894C60.9023 222.992 63.392 223.124 65.8839 223.2C67.1077 223.237 68.3315 223.268 69.5553 223.292C70.5957 223.311 71.8942 223.456 72.8876 223.083C72.9424 223.062 72.9335 222.979 72.882 222.96Z" fill="#263238"/>
<path d="M33.9314 198.628L40.3617 239.704C40.3617 239.704 -12.8251 246.316 -16.8056 233.481C-20.7861 220.644 33.9314 198.628 33.9314 198.628Z" fill="#C7454E"/>
<path d="M26.9373 204.496C28.1007 222.363 30.1299 234.874 30.5731 237.261C30.5848 237.325 30.6773 237.321 30.6745 237.254C30.1576 224.729 27.4419 205.584 27.1444 204.455C27.1123 204.332 26.9295 204.38 26.9373 204.496Z" fill="#263238"/>
<path d="M34.5375 199.718C34.3901 199.243 34.148 197.9 33.9203 197.985C33.1187 198.288 32.2955 198.527 31.4949 198.835C30.7376 199.127 29.9825 199.424 29.2291 199.726C27.6834 200.345 26.1516 201 24.627 201.668C21.5966 202.997 18.6039 204.408 15.6511 205.902C12.6983 207.396 9.79197 208.978 6.9289 210.638C4.08078 212.289 1.25317 214.014 -1.46199 215.878C-1.63317 215.995 -1.80325 216.114 -1.97388 216.232C-3.12343 216.459 -4.24029 216.759 -5.33832 217.194C-6.60532 217.697 -7.82523 218.29 -9.03849 218.909C-9.09056 218.935 -9.05123 219.015 -8.9986 218.99C-7.78202 218.411 -6.50227 217.948 -5.21367 217.558C-4.4425 217.324 -3.66801 217.092 -2.89241 216.866C-5.47959 218.656 -8.04572 220.483 -10.495 222.457C-10.5415 222.494 -10.4828 222.556 -10.4357 222.525C-7.6618 220.674 -4.91285 218.783 -2.07083 217.036C0.744044 215.305 3.56003 213.577 6.43197 211.942C12.1459 208.689 17.9884 205.67 23.9838 202.969C25.6574 202.215 27.3416 201.485 29.0363 200.781C29.9033 200.421 30.7692 200.059 31.6395 199.708C32.3835 199.407 32.9586 199.135 33.7021 198.835C33.8118 199.176 33.917 199.485 34.0289 199.826C34.1658 200.24 34.6699 200.146 34.5375 199.718Z" fill="#263238"/>
<path d="M40.3245 237.358C40.4242 237.846 40.9683 239.77 40.7273 239.804C39.8791 239.925 39.0431 240.115 38.1922 240.226C19.5418 242.672 7.98699 241.49 4.67961 241.381C4.35385 241.371 3.13894 241.075 4.73612 240.995C11.3032 240.666 18.9695 240.982 40.1284 239.165C40.0603 238.813 39.8935 237.861 39.8276 237.509C39.7478 237.08 40.2348 236.919 40.3245 237.358Z" fill="#263238"/>
<path d="M93.5112 106.353C94.6419 106.793 95.7455 107.288 96.8446 107.791C97.9466 108.288 99.0291 108.824 100.112 109.36C101.188 109.908 102.264 110.458 103.321 111.045L104.905 111.928C105.424 112.24 105.952 112.536 106.463 112.863C105.895 112.648 105.344 112.401 104.783 112.171L103.129 111.426C102.027 110.929 100.945 110.392 99.8623 109.855C98.7859 109.306 97.71 108.758 96.6535 108.17C95.5948 107.587 94.5395 106.997 93.5112 106.353Z" fill="#263238"/>
<path d="M91.646 156.196C92.7911 155.795 93.9506 155.452 95.1124 155.118C96.2724 154.778 97.4436 154.48 98.6142 154.182C99.7881 153.897 100.963 153.613 102.147 153.371L103.924 153.01C104.522 152.909 105.114 152.79 105.716 152.705C105.145 152.912 104.565 153.083 103.99 153.273L102.25 153.785C101.089 154.124 99.9183 154.422 98.7477 154.72C97.5738 155.004 96.3993 155.288 95.2149 155.53C94.0315 155.777 92.846 156.016 91.646 156.196Z" fill="#263238"/>
<path d="M134.482 152.941C135.219 153.905 135.905 154.902 136.582 155.903C137.265 156.901 137.911 157.922 138.557 158.943C139.191 159.971 139.825 160.999 140.422 162.051L141.316 163.629C141.597 164.165 141.894 164.692 142.161 165.237C141.787 164.758 141.445 164.26 141.086 163.772L140.061 162.276C139.378 161.277 138.732 160.257 138.087 159.235C137.453 158.207 136.819 157.179 136.222 156.127C135.62 155.08 135.026 154.027 134.482 152.941Z" fill="#263238"/>
<path d="M138.944 115.336C139.524 114.27 140.154 113.238 140.792 112.212C141.425 111.181 142.093 110.175 142.762 109.169C143.442 108.17 144.123 107.172 144.839 106.198L145.915 104.739C146.29 104.263 146.65 103.777 147.039 103.312C146.754 103.848 146.439 104.364 146.14 104.89L145.192 106.437C144.559 107.467 143.891 108.473 143.221 109.479C142.541 110.477 141.86 111.475 141.144 112.449C140.432 113.426 139.713 114.398 138.944 115.336Z" fill="#263238"/>
<path d="M93.9146 93.2197C95.2297 94.4845 96.5001 95.7903 97.7638 97.1022C99.0319 98.4102 100.268 99.747 101.504 101.084C102.731 102.431 103.956 103.777 105.15 105.153L106.94 107.219C107.521 107.921 108.117 108.61 108.686 109.323C108.024 108.695 107.389 108.042 106.74 107.402L104.836 105.442C103.568 104.134 102.332 102.797 101.097 101.459C99.8706 100.112 98.6452 98.7653 97.4513 97.3891C96.253 96.0169 95.0613 94.6385 93.9146 93.2197Z" fill="#263238"/>
<path d="M149.571 118.95C151.109 118.52 152.659 118.15 154.211 117.789C155.761 117.422 157.321 117.097 158.88 116.773C160.442 116.462 162.004 116.151 163.575 115.883L165.931 115.482C166.721 115.369 167.507 115.236 168.3 115.139C167.532 115.359 166.757 115.544 165.986 115.748L163.66 116.3C162.109 116.667 160.55 116.992 158.99 117.316C157.428 117.627 155.866 117.937 154.295 118.205C152.726 118.479 151.154 118.744 149.571 118.95Z" fill="#263238"/>
<path d="M111.163 91.6123C111.55 93.1613 111.876 94.7214 112.194 96.2825C112.518 97.8426 112.799 99.4104 113.081 100.978C113.349 102.548 113.616 104.118 113.84 105.696L114.176 108.063C114.267 108.855 114.378 109.644 114.453 110.439C114.254 109.666 114.09 108.886 113.908 108.109L113.42 105.769C113.097 104.209 112.815 102.641 112.535 101.074C112.268 99.5035 112.001 97.9334 111.776 96.3557C111.546 94.779 111.325 93.2006 111.163 91.6123Z" fill="#263238"/>
<path d="M98.6807 169.759C99.5383 168.413 100.445 167.102 101.359 165.797C102.267 164.487 103.211 163.204 104.155 161.921C105.11 160.646 106.065 159.372 107.055 158.123L108.541 156.251C109.053 155.639 109.549 155.016 110.074 154.414C109.65 155.091 109.197 155.746 108.759 156.413L107.397 158.378C106.488 159.686 105.544 160.97 104.6 162.252C103.644 163.527 102.689 164.802 101.699 166.05C100.714 167.302 99.7222 168.549 98.6807 169.759Z" fill="#263238"/>
<path d="M144.784 116.015C146.648 114.238 148.551 112.507 150.461 110.783C152.369 109.058 154.311 107.371 156.235 105.663C158.187 103.988 160.125 102.296 162.093 100.638L165.052 98.1603C166.052 97.3498 167.039 96.5243 168.05 95.7266C167.122 96.6191 166.17 97.485 165.23 98.3647L162.373 100.959C160.463 102.683 158.523 104.372 156.598 106.079C154.644 107.752 152.708 109.446 150.739 111.103C148.772 112.76 146.798 114.41 144.784 116.015Z" fill="#263238"/>
<path d="M135.588 151.065C138.032 151.874 140.456 152.739 142.876 153.613C145.296 154.485 147.699 155.404 150.111 156.298C152.508 157.234 154.913 158.147 157.301 159.103L160.88 160.548C162.066 161.049 163.258 161.531 164.438 162.047C163.213 161.648 162.002 161.216 160.783 160.801L157.149 159.501C154.729 158.626 152.326 157.71 149.914 156.814C147.518 155.877 145.113 154.966 142.724 154.008C140.337 153.053 137.951 152.088 135.588 151.065Z" fill="#263238"/>
<path d="M181.007 190.639L172.837 189.443L173.078 189.459L181.248 190.655L181.007 190.639Z" fill="#DBDBDB"/>
<path d="M179.705 204.557L171.535 203.361L172.56 189.925L180.73 191.121L179.705 204.557Z" fill="#DBDBDB"/>
<path d="M160.97 203.329L152.8 202.133L171.535 203.362L179.705 204.558L160.97 203.329Z" fill="#DBDBDB"/>
<path d="M162.042 189.769L153.872 188.573C160.114 189.045 166.336 189.505 172.56 189.925L180.73 191.121C174.506 190.701 168.284 190.241 162.042 189.769Z" fill="white"/>
<path d="M161.939 189.445L153.769 188.249C160.113 188.625 166.476 189.019 172.837 189.443L181.007 190.64C174.646 190.215 168.282 189.821 161.939 189.445Z" fill="#DBDBDB"/>
<path d="M142.096 202.156L133.926 200.96L152.8 202.133L160.97 203.329L142.096 202.156Z" fill="#DBDBDB"/>
<path d="M141.809 202.413L133.639 201.217L133.652 201.081L141.822 202.277L141.809 202.413Z" fill="#DBDBDB"/>
<path d="M142.992 188.323L162.042 189.77C168.284 190.242 174.507 190.701 180.73 191.122L179.705 204.558L160.97 203.329L142.096 202.157L142.992 188.323Z" fill="white"/>
<path d="M142.992 188.323L134.821 187.127L153.872 188.573L162.042 189.77L142.992 188.323Z" fill="white"/>
<path d="M181.007 190.64L181.248 190.655L181.229 190.907L180.213 204.865L180.192 205.142L179.928 205.124L160.936 203.807L141.944 202.424L141.809 202.413L141.822 202.277L142.991 188.323L142.095 202.156L160.97 203.328L179.705 204.557L180.73 191.121C174.506 190.701 168.284 190.241 162.042 189.769L142.991 188.322L161.939 189.444C168.283 189.821 174.646 190.215 181.007 190.64Z" fill="#DBDBDB"/>
<path d="M142.096 202.156L133.926 200.96L134.821 187.127L142.992 188.323L142.096 202.156Z" fill="white"/>
<path d="M141.822 202.277L133.652 201.081L134.821 187.127L142.992 188.323L141.822 202.277Z" fill="#DBDBDB"/>
<path d="M142.992 188.323L134.821 187.127L153.769 188.249L161.939 189.445L142.992 188.323Z" fill="#DBDBDB"/>
<path d="M-0.170542 132.37L8.23475 133.557L-10.6722 136.423L-19.0769 135.236L-0.170542 132.37Z" fill="#DBDBDB"/>
<path d="M1.553 145.814L9.95773 147.001L-8.72093 150.092L-17.1262 148.905L1.553 145.814Z" fill="white"/>
<path d="M1.6149 146.289L10.0196 147.476L-8.81249 150.39L-17.2178 149.203L1.6149 146.289Z" fill="#DBDBDB"/>
<path d="M18.364 129.495L26.7688 130.682L28.5111 143.997L20.1063 142.81L18.364 129.495Z" fill="white"/>
<path d="M18.364 129.495L26.7687 130.682C20.6049 131.668 14.4322 132.617 8.23407 133.557L-0.170654 132.37C6.0275 131.43 12.2002 130.481 18.364 129.495Z" fill="#DBDBDB"/>
<path d="M18.769 128.928L27.1738 130.114L27.2092 130.361L18.8045 129.174L18.769 128.928Z" fill="#DBDBDB"/>
<path d="M-19.0769 135.236L-0.170544 132.369C6.02761 131.429 12.2003 130.48 18.3641 129.494L20.1059 142.809L1.55295 145.814L-17.1263 148.905L-19.0769 135.236Z" fill="white"/>
<path d="M20.1064 142.81L28.5112 143.996L9.95772 147.001L1.55298 145.814L20.1064 142.81Z" fill="white"/>
<path d="M20.4421 143.311L28.8474 144.498L10.0197 147.477L1.61499 146.289L20.4421 143.311Z" fill="#DBDBDB"/>
<path d="M18.8044 129.174L27.2092 130.36L29.0706 144.184L20.6659 142.997L18.8044 129.174Z" fill="#EBEBEB"/>
<path d="M20.702 143.27L29.1072 144.457L28.8474 144.498L20.4421 143.311L20.702 143.27Z" fill="#DBDBDB"/>
<path d="M20.666 142.998L29.0708 144.185L29.1073 144.457L20.702 143.27L20.666 142.998Z" fill="#DBDBDB"/>
<path d="M18.5325 128.963L18.7691 128.928L18.8045 129.174L20.6659 142.998L20.702 143.27L20.4421 143.311L1.61444 146.29L-17.2177 149.204L-17.3551 149.224L-17.3711 149.084L-19.0769 135.236L-17.1263 148.905L1.55295 145.814L20.1059 142.809L18.3641 129.494C12.2003 130.481 6.02761 131.43 -0.170544 132.37L-19.0769 135.236L-0.338961 132.076C5.93509 131.022 12.2352 129.977 18.5325 128.963Z" fill="#DBDBDB"/>
<path d="M129.449 126.704L121.019 127.69L121.156 127.713L129.586 126.727L129.449 126.704Z" fill="#DBDBDB"/>
<path d="M131.641 112.785L123.21 113.772L120.934 127.39L129.365 126.404L131.641 112.785Z" fill="#DBDBDB"/>
<path d="M112.808 109.47L104.377 110.456L123.21 113.772L131.641 112.785L112.808 109.47Z" fill="#DBDBDB"/>
<path d="M110.765 122.87L102.334 123.856L120.934 127.391L129.365 126.405L110.765 122.87Z" fill="white"/>
<path d="M110.692 123.343L102.261 124.329L121.019 127.691L129.449 126.704L110.692 123.343Z" fill="#DBDBDB"/>
<path d="M94.3473 106.154L85.9166 107.141L83.8579 120.41L92.2887 119.424L94.3473 106.154Z" fill="white"/>
<path d="M94.3473 106.154L85.9165 107.14C92.0554 108.273 98.2031 109.369 104.377 110.456L112.808 109.47C106.634 108.382 100.486 107.287 94.3473 106.154Z" fill="#DBDBDB"/>
<path d="M93.9562 105.577L85.5254 106.563L85.4839 106.809L93.9147 105.823L93.9562 105.577Z" fill="#DBDBDB"/>
<path d="M131.641 112.786L112.808 109.47C106.634 108.382 100.486 107.287 94.3472 106.154L92.2886 119.424L110.765 122.87L129.365 126.405L131.641 112.786Z" fill="white"/>
<path d="M92.2887 119.424L83.8579 120.41L102.334 123.856L110.765 122.87L92.2887 119.424Z" fill="white"/>
<path d="M91.9408 119.917L83.51 120.903L102.261 124.33L110.692 123.343L91.9408 119.917Z" fill="#DBDBDB"/>
<path d="M93.9147 105.822L85.4839 106.809L83.2939 120.584L91.7247 119.597L93.9147 105.822Z" fill="#EBEBEB"/>
<path d="M91.682 119.869L83.2512 120.856L83.5099 120.903L91.9407 119.917L91.682 119.869Z" fill="#DBDBDB"/>
<path d="M91.7247 119.598L83.2939 120.584L83.2512 120.855L91.682 119.869L91.7247 119.598Z" fill="#DBDBDB"/>
<path d="M94.1915 105.619L93.9555 105.578L93.9145 105.824L91.7246 119.599L91.6819 119.87L91.9406 119.917L110.692 123.344L129.449 126.705L129.586 126.728L129.605 126.59L131.64 112.786L129.364 126.405L110.764 122.87L92.288 119.424L94.3466 106.154C100.486 107.287 106.633 108.382 112.808 109.47L131.64 112.786L112.983 109.18C106.736 107.977 100.463 106.783 94.1915 105.619Z" fill="#DBDBDB"/>
<path d="M149.049 152.157L141.047 156.637L141.234 143.368L149.236 138.889L149.049 152.157Z" fill="#DBDBDB"/>
<path d="M149.571 152.735L141.569 157.214L141.305 157.197L149.306 152.718L149.571 152.735Z" fill="#DBDBDB"/>
<path d="M149.236 138.888L141.234 143.368C134.981 142.963 128.724 142.524 122.448 142.077L130.45 137.598C136.726 138.045 142.984 138.484 149.236 138.888Z" fill="#DBDBDB"/>
<path d="M149.049 152.157L141.047 156.636L122.221 155.473L130.223 150.993L149.049 152.157Z" fill="white"/>
<path d="M130.451 137.598L122.449 142.077L103.293 140.696L111.295 136.217L130.451 137.598Z" fill="#DBDBDB"/>
<path d="M149.236 138.929L149.05 152.396L130.263 151.215L111.345 150.086L111.375 136.217L130.49 137.619C136.752 138.073 142.996 138.518 149.236 138.929Z" fill="white"/>
<path d="M111.265 149.88L103.263 154.359L103.293 140.696L111.295 136.217L111.265 149.88Z" fill="white"/>
<path d="M110.991 150.138L102.989 154.618L102.994 154.479L110.996 150L110.991 150.138Z" fill="#DBDBDB"/>
<path d="M130.223 150.993L122.221 155.473L103.263 154.359L111.265 149.88L130.223 150.993Z" fill="white"/>
<path d="M149.305 152.718L141.305 157.2L122.215 155.942L103.124 154.629L111.124 150.147L130.214 151.466L149.305 152.718Z" fill="#DBDBDB"/>
<path d="M110.996 150L102.994 154.479L103.293 140.696L111.295 136.217L110.996 150Z" fill="#EBEBEB"/>
<path d="M111.125 150.149L103.123 154.628L102.989 154.617L110.991 150.138L111.125 150.149Z" fill="#DBDBDB"/>
<path d="M149.575 152.462L149.572 152.735L149.307 152.718L130.217 151.463L111.126 150.149L110.992 150.138L110.996 150L111.296 136.217L111.266 149.88L130.224 150.993L149.05 152.156L149.237 138.888C142.984 138.484 136.727 138.045 130.452 137.598L111.296 136.217L130.326 137.275C136.695 137.632 143.09 138.003 149.481 138.408L149.721 138.426L149.716 138.673L149.575 152.462Z" fill="#DBDBDB"/>
<path d="M-11.5525 225.572L-6.13104 222.585L13.0678 225.982L7.64638 228.968L-11.5525 225.572Z" fill="#DBDBDB"/>
<path d="M16.8816 213C15.0745 213.995 13.2673 214.991 11.4602 215.986C10.9045 215.881 10.3489 215.775 9.79321 215.669L15.2147 212.683C15.7703 212.788 16.326 212.894 16.8816 213Z" fill="white"/>
<path d="M7.64648 228.968L13.0679 225.981L32.1211 229.417L26.6997 232.403L7.64648 228.968Z" fill="#DBDBDB"/>
<path d="M28.788 219.221L34.2095 216.235L32.1209 229.417L26.6995 232.404L28.788 219.221Z" fill="white"/>
<path d="M29.3488 218.821L34.7702 215.834L34.732 216.081L29.3105 219.068L29.3488 218.821Z" fill="#DBDBDB"/>
<path d="M29.1089 218.777L34.5303 215.79L34.7702 215.834L29.3488 218.82L29.1089 218.777Z" fill="#DBDBDB"/>
<path d="M16.8817 213C22.666 214.099 28.4359 215.183 34.2097 216.235L28.7882 219.222C23.015 218.169 17.2445 217.085 11.4602 215.987C13.1089 215.079 14.7576 214.17 16.4063 213.262C16.4855 213.218 16.5648 213.175 16.644 213.131C16.685 213.109 16.726 213.086 16.7675 213.063C16.7853 213.054 16.8085 213.04 16.8263 213.03C16.8429 213.022 16.8628 213.003 16.8817 213Z" fill="white"/>
<path d="M29.1089 218.777L29.3488 218.821L29.3106 219.068L27.1949 232.769L27.1522 233.041L26.8829 232.991L7.56995 229.438L-11.7286 225.82L-11.8655 225.793L-11.8417 225.66L-9.56416 211.986L-11.5525 225.572L7.64641 228.968L26.7001 232.404L28.7887 219.222C22.4609 218.068 16.1365 216.876 9.79371 215.67L-9.56361 211.987L9.71448 215.336C16.1669 216.46 22.6404 217.604 29.1089 218.777Z" fill="#DBDBDB"/>
<path d="M-9.5647 211.987L-4.14325 209L15.2146 212.683L9.79318 215.67L-9.5647 211.987Z" fill="white"/>
<path d="M-9.5647 211.987L-4.14325 209L15.1348 212.349L9.71339 215.336L-9.5647 211.987Z" fill="#EBEBEB"/>
<path d="M27.1948 232.769L32.6162 229.782L32.5735 230.054L27.1521 233.04L27.1948 232.769Z" fill="#DBDBDB"/>
<path d="M-9.56467 211.986L9.7932 215.669C16.1359 216.876 22.4604 218.068 28.7882 219.221L26.6996 232.403L7.64589 228.968L-11.553 225.571L-9.56467 211.986Z" fill="white"/>
<path d="M9.71338 215.336L15.1348 212.35C21.5884 213.473 28.0619 214.617 34.5304 215.791L29.1089 218.777C22.6404 217.604 16.1669 216.46 9.71338 215.336Z" fill="#EBEBEB"/>
<path d="M29.3106 219.068L34.732 216.081L32.6163 229.782L27.1948 232.769L29.3106 219.068Z" fill="#DBDBDB"/>
<path d="M109.846 237.61L104.865 233.936L105.046 247.664L110.027 251.339L109.846 237.61Z" fill="#DBDBDB"/>
<path d="M110.027 251.339L105.046 247.664L85.5669 248.501L90.5479 252.176L110.027 251.339Z" fill="#DBDBDB"/>
<path d="M83.4973 235.13C85.1577 236.355 86.8174 237.58 88.4778 238.805C89.0423 238.773 89.6074 238.742 90.1719 238.711L85.1915 235.036C84.6264 235.067 84.0618 235.098 83.4973 235.13Z" fill="white"/>
<path d="M90.548 252.176L85.5669 248.501L66.2268 249.396L71.2078 253.071L90.548 252.176Z" fill="#DBDBDB"/>
<path d="M70.8748 239.728L65.8938 236.053L66.2268 249.395L71.2078 253.071L70.8748 239.728Z" fill="white"/>
<path d="M70.3719 239.257L65.3909 235.582L65.3964 235.832L70.3769 239.507L70.3719 239.257Z" fill="#DBDBDB"/>
<path d="M70.6151 239.246L65.6346 235.57L65.3909 235.583L70.3719 239.257L70.6151 239.246Z" fill="#DBDBDB"/>
<path d="M83.4971 235.13C77.6187 235.456 71.7557 235.771 65.8938 236.053L70.8743 239.728C76.7361 239.446 82.5991 239.131 88.4776 238.805C86.963 237.687 85.4483 236.569 83.9337 235.452C83.8611 235.398 83.788 235.344 83.7154 235.291C83.6778 235.263 83.6401 235.235 83.6018 235.207C83.5858 235.195 83.5642 235.179 83.5476 235.167C83.5326 235.156 83.5154 235.135 83.4971 235.13Z" fill="white"/>
<path d="M70.615 239.245L70.3718 239.257L70.3768 239.507L70.6688 253.367L70.6754 253.641L70.9485 253.628L90.5612 252.651L110.168 251.608L110.308 251.599L110.302 251.464L109.847 237.61L110.027 251.339L90.5485 252.176L71.2084 253.07L70.8754 239.728C77.3001 239.418 83.7265 239.07 90.1729 238.71L109.847 237.61L90.2959 238.39C83.7493 238.654 77.1821 238.934 70.615 239.245Z" fill="#DBDBDB"/>
<path d="M109.846 237.61L104.866 233.936L85.1914 235.035L90.1719 238.71L109.846 237.61Z" fill="white"/>
<path d="M109.846 237.61L104.866 233.936L85.3145 234.716L90.2949 238.39L109.846 237.61Z" fill="#EBEBEB"/>
<path d="M70.6688 253.367L65.6877 249.691L65.6944 249.967L70.6754 253.641L70.6688 253.367Z" fill="#DBDBDB"/>
<path d="M109.846 237.61L90.1718 238.71C83.7254 239.07 77.299 239.418 70.8743 239.728L71.2072 253.07L90.5474 252.176L110.027 251.339L109.846 237.61Z" fill="white"/>
<path d="M90.2947 238.39L85.3143 234.716C78.7688 234.979 72.2011 235.26 65.6345 235.571L70.615 239.246C77.1821 238.935 83.7492 238.654 90.2947 238.39Z" fill="#EBEBEB"/>
<path d="M70.3769 239.507L65.3965 235.832L65.6879 249.692L70.6689 253.367L70.3769 239.507Z" fill="#DBDBDB"/>
<path d="M123.017 226.428L121.584 225.265L119.317 212L120.751 213.163L123.017 226.428Z" fill="#DBDBDB"/>
<path d="M120.912 212.624L119.479 211.461L119.724 211.418L121.157 212.581L120.912 212.624Z" fill="#DBDBDB"/>
<path d="M103.668 229.851L102.234 228.688L121.584 225.265L123.017 226.428L103.668 229.851Z" fill="#DBDBDB"/>
<path d="M101.421 216.452L99.9875 215.29C106.448 214.208 112.885 213.121 119.317 212L120.751 213.163C114.318 214.284 107.882 215.371 101.421 216.452Z" fill="white"/>
<path d="M101.236 216.158L99.802 214.995C106.343 213.805 112.909 212.615 119.478 211.461L120.912 212.624C114.342 213.779 107.777 214.968 101.236 216.158Z" fill="#EBEBEB"/>
<path d="M84.1969 233.357L82.7632 232.194L102.234 228.688L103.668 229.85L84.1969 233.357Z" fill="#DBDBDB"/>
<path d="M83.9674 233.683L82.5337 232.52L82.5132 232.38L83.9469 233.543L83.9674 233.683Z" fill="#DBDBDB"/>
<path d="M84.1969 233.357L82.7631 232.194L80.269 218.577L81.7022 219.74L84.1969 233.357Z" fill="white"/>
<path d="M81.7022 219.74L80.269 218.578L99.9876 215.289L101.421 216.452L81.7022 219.74Z" fill="white"/>
<path d="M123.604 226.603L123.651 226.878L123.381 226.925L103.749 230.321L84.1082 233.656L83.968 233.682L83.9475 233.542L81.7021 219.74L84.1968 233.357L103.668 229.85L123.017 226.428L120.751 213.162C114.318 214.283 107.882 215.37 101.421 216.452L81.7021 219.74L101.236 216.157C107.777 214.967 114.342 213.778 120.912 212.623L121.157 212.58L121.2 212.826L123.604 226.603Z" fill="#DBDBDB"/>
<path d="M120.751 213.162L123.017 226.428L103.668 229.85L84.1968 233.357L81.7021 219.74L101.421 216.451C107.882 215.37 114.318 214.283 120.751 213.162Z" fill="white"/>
<path d="M81.7022 219.74L80.269 218.577L99.802 214.994L101.236 216.158L81.7022 219.74Z" fill="#EBEBEB"/>
<path d="M83.9471 233.542L82.5133 232.38L80.269 218.577L81.7022 219.74L83.9471 233.542Z" fill="#DBDBDB"/>
</g>
<defs>
<clipPath id="clip0_39_2176">
<rect width="277" height="277" fill="white" transform="translate(-72)"/>
</clipPath>
</defs>
</svg>
