<svg width="24" height="24" viewBox="0 0 24 24" fill="none" xmlns="http://www.w3.org/2000/svg">
<path d="M18.7154 23.6008C18.6075 23.7274 18.4793 23.8277 18.3383 23.8962C18.1972 23.9647 18.046 24 17.8933 24C17.7406 24 17.5893 23.9647 17.4483 23.8962C17.3072 23.8277 17.1791 23.7274 17.0712 23.6008L14.5992 20.707C14.4912 20.5806 14.4056 20.4306 14.3471 20.2655C14.2887 20.1004 14.2586 19.9234 14.2586 19.7447C14.2586 19.566 14.2887 19.389 14.3471 19.2239C14.4056 19.0588 14.4912 18.9087 14.5992 18.7824C14.8172 18.5271 15.1129 18.3838 15.4212 18.3838C15.5739 18.3838 15.7251 18.419 15.8661 18.4874C16.0072 18.5558 16.1353 18.656 16.2433 18.7824L17.8875 20.707L22.0153 15.8749C22.1233 15.7486 22.2515 15.6483 22.3925 15.5799C22.5336 15.5115 22.6847 15.4763 22.8374 15.4763C22.9901 15.4763 23.1413 15.5115 23.2823 15.5799C23.4234 15.6483 23.5515 15.7486 23.6595 15.8749C23.7674 16.0013 23.8531 16.1513 23.9115 16.3164C23.9699 16.4816 24 16.6585 24 16.8372C24 17.016 23.9699 17.1929 23.9115 17.3581C23.8531 17.5232 23.7674 17.6732 23.6595 17.7996L18.7154 23.6008ZM11.7539 21.84H2.33213C1.04946 21.84 0 20.6115 0 19.11V2.73C0 1.2285 1.04946 0 2.33213 0H20.9892C22.2719 0 23.3213 1.2285 23.3213 2.73V11.8482C22.0777 11.1556 20.7046 10.843 19.3299 10.9393C17.9552 11.0356 16.6238 11.5378 15.4596 12.3991C14.2955 13.2603 13.3366 14.4526 12.6723 15.8647C12.008 17.2769 11.66 18.8629 11.6607 20.475C11.6607 20.9391 11.6956 21.3895 11.7539 21.84ZM11.0426 11.8345C11.4158 12.1075 11.9055 12.1075 12.2787 11.8345L20.5228 5.80124C20.6397 5.72441 20.7421 5.6206 20.8237 5.4961C20.9054 5.3716 20.9646 5.229 20.9979 5.07693C21.0311 4.92486 21.0376 4.76648 21.017 4.61138C20.9964 4.45628 20.9492 4.30768 20.8781 4.17457C20.807 4.04147 20.7136 3.92663 20.6035 3.837C20.4935 3.74738 20.369 3.68483 20.2377 3.65314C20.1063 3.62146 19.9709 3.62129 19.8395 3.65266C19.7081 3.68403 19.5835 3.74628 19.4733 3.83564L11.6607 9.55499L3.84802 3.83564C3.73778 3.74628 3.6132 3.68403 3.48182 3.65266C3.35044 3.62129 3.21498 3.62146 3.08366 3.65314C2.95233 3.68483 2.82786 3.74738 2.71778 3.837C2.6077 3.92663 2.5143 4.04147 2.44324 4.17457C2.37217 4.30768 2.32491 4.45628 2.30433 4.61138C2.28374 4.76648 2.29026 4.92486 2.32348 5.07693C2.35669 5.229 2.41592 5.3716 2.49758 5.4961C2.57924 5.6206 2.68163 5.72441 2.79856 5.80124L11.0426 11.8345Z" fill="#A087F4"/>
</svg>
