<svg width="396" height="375" viewBox="0 0 396 375" fill="none" xmlns="http://www.w3.org/2000/svg">
<path d="M148 27.5C148 23.0817 144.418 19.5 140 19.5C135.582 19.5 132 23.0817 132 27.5C132 31.9183 135.582 35.5 140 35.5C144.418 35.5 148 31.9183 148 27.5ZM140 27.5L140 26L50 26L50 27.5L50 29L140 29L140 27.5Z" fill="#694C55"/>
<path d="M245 24.4529C244.974 28.8711 248.535 32.4739 252.953 32.4999C257.371 32.5259 260.974 28.9653 261 24.5471C261.026 20.1289 257.465 16.5261 253.047 16.5001C248.629 16.4741 245.026 20.0347 245 24.4529ZM253 24.5L252.991 26L340.991 26.5176L341 25.0176L341.009 23.5177L253.009 23L253 24.5Z" fill="#694C55"/>
<rect x="140.5" y="0.5" width="114" height="49" rx="7.5" fill="white"/>
<rect x="140.5" y="0.5" width="114" height="49" rx="7.5" stroke="#694C55"/>
<path d="M172.523 23H171.483C171.472 22.696 171.409 22.429 171.295 22.1989C171.182 21.9688 171.028 21.7756 170.835 21.6193C170.645 21.4602 170.426 21.3409 170.179 21.2614C169.932 21.1818 169.668 21.142 169.386 21.142C168.847 21.142 168.335 21.2798 167.852 21.5554C167.369 21.8281 166.956 22.2301 166.612 22.7614C166.268 23.2898 166.034 23.9375 165.909 24.7045C165.784 25.4489 165.803 26.0753 165.964 26.5838C166.126 27.0923 166.395 27.4773 166.77 27.7386C167.145 28 167.591 28.1307 168.108 28.1307C168.406 28.1307 168.699 28.0909 168.986 28.0114C169.276 27.9318 169.545 27.8139 169.795 27.6577C170.048 27.4986 170.273 27.304 170.469 27.0739C170.668 26.8409 170.824 26.5739 170.938 26.2727H171.994C171.838 26.7187 171.626 27.1179 171.359 27.4702C171.095 27.8224 170.79 28.1222 170.443 28.3693C170.097 28.6136 169.723 28.7997 169.322 28.9276C168.922 29.0554 168.506 29.1193 168.074 29.1193C167.318 29.1193 166.675 28.9347 166.143 28.5653C165.615 28.1932 165.237 27.6676 165.01 26.9886C164.786 26.3068 164.75 25.5 164.903 24.5682C165.057 23.6591 165.351 22.875 165.786 22.2159C166.22 21.554 166.753 21.0455 167.384 20.6903C168.014 20.3324 168.699 20.1534 169.438 20.1534C169.881 20.1534 170.288 20.2173 170.661 20.3452C171.033 20.473 171.357 20.6605 171.632 20.9077C171.908 21.152 172.122 21.4503 172.276 21.8026C172.432 22.152 172.514 22.5511 172.523 23ZM176.559 25.0625L175.911 29H174.905L176.354 20.2727H177.36L176.832 23.4773H176.917C177.121 23.1364 177.394 22.8665 177.735 22.6676C178.079 22.4688 178.511 22.3693 179.03 22.3693C179.474 22.3693 179.847 22.4588 180.151 22.6378C180.458 22.8139 180.674 23.0852 180.799 23.4517C180.927 23.8153 180.945 24.2784 180.854 24.8409L180.155 29H179.15L179.832 24.9091C179.917 24.3892 179.847 23.9872 179.623 23.7031C179.401 23.4162 179.056 23.2727 178.587 23.2727C178.258 23.2727 177.951 23.3423 177.667 23.4815C177.386 23.6207 177.147 23.8239 176.951 24.0909C176.758 24.358 176.627 24.6818 176.559 25.0625ZM185.704 29.1534C185.29 29.1534 184.926 29.0753 184.613 28.919C184.301 28.7599 184.069 28.5312 183.919 28.233C183.768 27.9318 183.727 27.5682 183.795 27.142C183.861 26.767 183.987 26.4631 184.175 26.2301C184.362 25.9943 184.589 25.8097 184.856 25.6761C185.126 25.5398 185.416 25.4389 185.726 25.3736C186.038 25.3054 186.349 25.2528 186.659 25.2159C187.062 25.1648 187.39 25.125 187.643 25.0966C187.896 25.0682 188.087 25.0213 188.214 24.956C188.342 24.8906 188.42 24.7784 188.449 24.6193V24.5852C188.517 24.1676 188.462 23.8423 188.283 23.6094C188.104 23.3736 187.784 23.2557 187.324 23.2557C186.846 23.2557 186.447 23.3608 186.126 23.571C185.805 23.7812 185.568 24.0057 185.415 24.2443L184.528 23.9034C184.761 23.5057 185.04 23.196 185.363 22.9744C185.687 22.75 186.027 22.5937 186.382 22.5057C186.737 22.4148 187.079 22.3693 187.409 22.3693C187.619 22.3693 187.856 22.3949 188.121 22.446C188.385 22.4943 188.632 22.5952 188.862 22.7486C189.095 22.902 189.27 23.1335 189.386 23.4432C189.506 23.7528 189.523 24.1676 189.437 24.6875L188.721 29H187.716L187.869 28.1136H187.818C187.727 28.2557 187.588 28.4077 187.4 28.5696C187.216 28.7315 186.981 28.8693 186.697 28.983C186.416 29.0966 186.085 29.1534 185.704 29.1534ZM185.994 28.25C186.392 28.25 186.74 28.1719 187.038 28.0156C187.339 27.8594 187.581 27.6577 187.763 27.4105C187.947 27.1634 188.062 26.9034 188.108 26.6307L188.261 25.7102C188.21 25.7614 188.109 25.8082 187.959 25.8509C187.808 25.8906 187.638 25.9261 187.447 25.9574C187.26 25.9858 187.077 26.0114 186.898 26.0341C186.721 26.054 186.579 26.071 186.471 26.0852C186.204 26.1193 185.95 26.1747 185.709 26.2514C185.47 26.3253 185.268 26.4375 185.104 26.5881C184.942 26.7358 184.841 26.9375 184.801 27.1932C184.741 27.5426 184.825 27.8068 185.052 27.9858C185.28 28.1619 185.594 28.25 185.994 28.25ZM192.357 29L193.448 22.4545H194.454L193.363 29H192.357ZM194.258 21.3466C194.062 21.3466 193.893 21.2798 193.75 21.1463C193.611 21.0128 193.542 20.8523 193.542 20.6648C193.542 20.4773 193.611 20.3168 193.75 20.1832C193.893 20.0497 194.062 19.983 194.258 19.983C194.454 19.983 194.621 20.0497 194.76 20.1832C194.902 20.3168 194.974 20.4773 194.974 20.6648C194.974 20.8523 194.902 21.0128 194.76 21.1463C194.621 21.2798 194.454 21.3466 194.258 21.3466ZM197.005 29L198.096 22.4545H199.067L198.897 23.4432H198.965C199.135 23.1193 199.395 22.8565 199.745 22.6548C200.094 22.4531 200.465 22.3523 200.857 22.3523C200.934 22.3523 201.026 22.3537 201.134 22.3565C201.242 22.3565 201.326 22.3608 201.385 22.3693L201.215 23.392C201.181 23.3835 201.104 23.3707 200.985 23.3537C200.865 23.3338 200.738 23.3239 200.601 23.3239C200.283 23.3239 199.989 23.3906 199.719 23.5241C199.449 23.6548 199.223 23.8366 199.042 24.0696C198.86 24.2997 198.743 24.5625 198.692 24.858L198.01 29H197.005ZM203.293 29L204.384 22.4545H205.355L205.185 23.4773H205.27C205.466 23.1278 205.732 22.8565 206.067 22.6634C206.405 22.4673 206.787 22.3693 207.213 22.3693C207.64 22.3693 207.982 22.4673 208.24 22.6634C208.499 22.8565 208.679 23.1278 208.782 23.4773H208.85C209.071 23.1364 209.367 22.8665 209.736 22.6676C210.108 22.4688 210.529 22.3693 210.998 22.3693C211.577 22.3693 212.023 22.5526 212.336 22.919C212.651 23.2855 212.745 23.8523 212.617 24.6193L211.884 29H210.878L211.611 24.6193C211.688 24.1335 211.611 23.7884 211.381 23.5838C211.154 23.3764 210.861 23.2727 210.503 23.2727C210.043 23.2727 209.664 23.4105 209.365 23.6861C209.067 23.9616 208.884 24.3125 208.816 24.7386L208.1 29H207.077L207.827 24.517C207.887 24.142 207.816 23.8409 207.614 23.6136C207.412 23.3864 207.12 23.2727 206.736 23.2727C206.475 23.2727 206.219 23.3437 205.969 23.4858C205.719 23.625 205.505 23.8182 205.326 24.0653C205.147 24.3097 205.032 24.5909 204.98 24.9091L204.299 29H203.293ZM217.432 29.1534C217.017 29.1534 216.653 29.0753 216.341 28.919C216.028 28.7599 215.797 28.5312 215.646 28.233C215.496 27.9318 215.454 27.5682 215.523 27.142C215.588 26.767 215.714 26.4631 215.902 26.2301C216.089 25.9943 216.317 25.8097 216.584 25.6761C216.854 25.5398 217.143 25.4389 217.453 25.3736C217.766 25.3054 218.077 25.2528 218.386 25.2159C218.79 25.1648 219.118 25.125 219.371 25.0966C219.624 25.0682 219.814 25.0213 219.942 24.956C220.07 24.8906 220.148 24.7784 220.176 24.6193V24.5852C220.244 24.1676 220.189 23.8423 220.01 23.6094C219.831 23.3736 219.511 23.2557 219.051 23.2557C218.574 23.2557 218.175 23.3608 217.854 23.571C217.533 23.7812 217.295 24.0057 217.142 24.2443L216.256 23.9034C216.489 23.5057 216.767 23.196 217.091 22.9744C217.415 22.75 217.754 22.5937 218.109 22.5057C218.464 22.4148 218.807 22.3693 219.136 22.3693C219.347 22.3693 219.584 22.3949 219.848 22.446C220.112 22.4943 220.359 22.5952 220.589 22.7486C220.822 22.902 220.997 23.1335 221.114 23.4432C221.233 23.7528 221.25 24.1676 221.165 24.6875L220.449 29H219.443L219.597 28.1136H219.545C219.454 28.2557 219.315 28.4077 219.128 28.5696C218.943 28.7315 218.709 28.8693 218.425 28.983C218.143 29.0966 217.812 29.1534 217.432 29.1534ZM217.722 28.25C218.119 28.25 218.467 28.1719 218.766 28.0156C219.067 27.8594 219.308 27.6577 219.49 27.4105C219.675 27.1634 219.79 26.9034 219.835 26.6307L219.989 25.7102C219.937 25.7614 219.837 25.8082 219.686 25.8509C219.535 25.8906 219.365 25.9261 219.175 25.9574C218.987 25.9858 218.804 26.0114 218.625 26.0341C218.449 26.054 218.307 26.071 218.199 26.0852C217.932 26.1193 217.677 26.1747 217.436 26.2514C217.197 26.3253 216.996 26.4375 216.831 26.5881C216.669 26.7358 216.568 26.9375 216.528 27.1932C216.469 27.5426 216.552 27.8068 216.78 27.9858C217.007 28.1619 217.321 28.25 217.722 28.25ZM225.738 25.0625L225.09 29H224.084L225.175 22.4545H226.147L225.976 23.4773H226.062C226.266 23.1449 226.543 22.8778 226.893 22.6761C227.242 22.4716 227.664 22.3693 228.158 22.3693C228.596 22.3693 228.965 22.4602 229.266 22.642C229.57 22.821 229.785 23.0938 229.91 23.4602C230.037 23.8239 230.056 24.2841 229.965 24.8409L229.266 29H228.261L228.942 24.9091C229.028 24.3977 228.961 23.9972 228.742 23.7074C228.526 23.4176 228.184 23.2727 227.715 23.2727C227.391 23.2727 227.091 23.3423 226.816 23.4815C226.543 23.6207 226.312 23.8239 226.121 24.0909C225.934 24.358 225.806 24.6818 225.738 25.0625Z" fill="black"/>
<rect x="0.5" y="102.5" width="116" height="67" rx="7.5" fill="white"/>
<rect x="0.5" y="102.5" width="116" height="67" rx="7.5" stroke="#694C55"/>
<path d="M38.5405 125C38.4979 124.713 38.424 124.456 38.3189 124.229C38.2167 123.999 38.0803 123.804 37.9098 123.645C37.7394 123.483 37.5334 123.359 37.2919 123.274C37.0533 123.186 36.7763 123.142 36.461 123.142C35.9439 123.142 35.4439 123.276 34.961 123.543C34.4809 123.81 34.0647 124.203 33.7124 124.723C33.363 125.243 33.1257 125.881 33.0007 126.636C32.8757 127.392 32.8885 128.03 33.0391 128.55C33.1925 129.07 33.4553 129.463 33.8275 129.73C34.2025 129.997 34.6598 130.131 35.1996 130.131C35.6996 130.131 36.1655 130.024 36.5973 129.811C37.0292 129.595 37.3914 129.291 37.684 128.899C37.9766 128.504 38.1655 128.04 38.2507 127.506L38.5576 127.574H35.9326L36.103 126.636H39.4269L39.2564 127.574C39.1428 128.295 38.89 128.922 38.4979 129.453C38.1059 129.984 37.6172 130.395 37.032 130.685C36.4468 130.974 35.8076 131.119 35.1144 131.119C34.3417 131.119 33.6939 130.938 33.1712 130.574C32.6485 130.21 32.2806 129.693 32.0675 129.023C31.8544 128.352 31.8246 127.557 31.978 126.636C32.0888 125.946 32.282 125.325 32.5576 124.774C32.836 124.22 33.1769 123.749 33.5803 123.359C33.9865 122.97 34.4397 122.672 34.9397 122.464C35.4425 122.257 35.9723 122.153 36.5292 122.153C36.9894 122.153 37.407 122.223 37.782 122.362C38.1598 122.499 38.4851 122.693 38.7578 122.946C39.0306 123.196 39.2422 123.496 39.3928 123.845C39.5434 124.192 39.6229 124.577 39.6314 125H38.5405ZM44.8949 131.136C44.267 131.136 43.7485 130.997 43.3395 130.719C42.9304 130.438 42.6449 130.045 42.4829 129.543C42.321 129.037 42.2954 128.449 42.4062 127.778C42.517 127.108 42.7372 126.517 43.0667 126.006C43.3963 125.491 43.8068 125.091 44.2983 124.804C44.7897 124.514 45.3295 124.369 45.9176 124.369C46.2585 124.369 46.5866 124.426 46.902 124.54C47.2173 124.653 47.49 124.838 47.7201 125.094C47.9503 125.347 48.1108 125.682 48.2017 126.099C48.2926 126.517 48.2869 127.031 48.1846 127.642L48.1164 128.068H43.071L43.2074 127.199H47.2301C47.2954 126.83 47.2784 126.5 47.1789 126.21C47.0824 125.92 46.9133 125.692 46.6718 125.524C46.4332 125.357 46.1306 125.273 45.7642 125.273C45.3863 125.273 45.0341 125.375 44.7074 125.58C44.3806 125.781 44.1079 126.037 43.8892 126.347C43.6704 126.653 43.5341 126.966 43.4801 127.284L43.3608 128.034C43.2755 128.577 43.2883 129.009 43.3991 129.33C43.5128 129.651 43.7102 129.882 43.9914 130.024C44.2727 130.163 44.625 130.233 45.0483 130.233C45.3181 130.233 45.5667 130.196 45.794 130.122C46.0213 130.045 46.2244 129.932 46.4034 129.781C46.5824 129.628 46.7329 129.437 46.8551 129.21L47.7755 129.483C47.6193 129.812 47.3991 130.102 47.115 130.352C46.8338 130.599 46.5042 130.793 46.1264 130.932C45.7514 131.068 45.3409 131.136 44.8949 131.136ZM52.6288 127.062L51.9811 131H50.9754L52.0663 124.455H53.0379L52.8674 125.477H52.9527C53.1572 125.145 53.4342 124.878 53.7836 124.676C54.1331 124.472 54.5549 124.369 55.0493 124.369C55.4868 124.369 55.8561 124.46 56.1572 124.642C56.4612 124.821 56.6757 125.094 56.8007 125.46C56.9285 125.824 56.947 126.284 56.8561 126.841L56.1572 131H55.1515L55.8333 126.909C55.9186 126.398 55.8518 125.997 55.6331 125.707C55.4172 125.418 55.0748 125.273 54.6061 125.273C54.2822 125.273 53.9825 125.342 53.7069 125.482C53.4342 125.621 53.2027 125.824 53.0123 126.091C52.8248 126.358 52.697 126.682 52.6288 127.062ZM62.5222 131.136C61.8944 131.136 61.3759 130.997 60.9668 130.719C60.5577 130.438 60.2722 130.045 60.1103 129.543C59.9483 129.037 59.9228 128.449 60.0336 127.778C60.1444 127.108 60.3645 126.517 60.6941 126.006C61.0236 125.491 61.4341 125.091 61.9256 124.804C62.4171 124.514 62.9569 124.369 63.5449 124.369C63.8858 124.369 64.214 124.426 64.5293 124.54C64.8446 124.653 65.1174 124.838 65.3475 125.094C65.5776 125.347 65.7381 125.682 65.829 126.099C65.9199 126.517 65.9142 127.031 65.812 127.642L65.7438 128.068H60.6983L60.8347 127.199H64.8574C64.9228 126.83 64.9057 126.5 64.8063 126.21C64.7097 125.92 64.5407 125.692 64.2992 125.524C64.0605 125.357 63.758 125.273 63.3915 125.273C63.0137 125.273 62.6614 125.375 62.3347 125.58C62.008 125.781 61.7353 126.037 61.5165 126.347C61.2978 126.653 61.1614 126.966 61.1074 127.284L60.9881 128.034C60.9029 128.577 60.9157 129.009 61.0265 129.33C61.1401 129.651 61.3375 129.882 61.6188 130.024C61.9 130.163 62.2523 130.233 62.6756 130.233C62.9455 130.233 63.1941 130.196 63.4213 130.122C63.6486 130.045 63.8517 129.932 64.0307 129.781C64.2097 129.628 64.3603 129.437 64.4824 129.21L65.4029 129.483C65.2466 129.812 65.0265 130.102 64.7424 130.352C64.4611 130.599 64.1316 130.793 63.7537 130.932C63.3787 131.068 62.9682 131.136 62.5222 131.136ZM68.6027 131L69.6936 124.455H70.6652L70.4948 125.443H70.563C70.7334 125.119 70.9934 124.857 71.3428 124.655C71.6922 124.453 72.063 124.352 72.455 124.352C72.5317 124.352 72.624 124.354 72.732 124.357C72.84 124.357 72.9238 124.361 72.9834 124.369L72.813 125.392C72.7789 125.384 72.7022 125.371 72.5829 125.354C72.4635 125.334 72.3357 125.324 72.1993 125.324C71.8811 125.324 71.5871 125.391 71.3172 125.524C71.0473 125.655 70.8215 125.837 70.6397 126.07C70.4579 126.3 70.3414 126.562 70.2902 126.858L69.6084 131H68.6027ZM76.8001 131.153C76.3853 131.153 76.0217 131.075 75.7092 130.919C75.3967 130.76 75.1652 130.531 75.0146 130.233C74.864 129.932 74.8228 129.568 74.891 129.142C74.9564 128.767 75.0828 128.463 75.2703 128.23C75.4578 127.994 75.685 127.81 75.9521 127.676C76.222 127.54 76.5118 127.439 76.8214 127.374C77.1339 127.305 77.445 127.253 77.7547 127.216C78.1581 127.165 78.4862 127.125 78.739 127.097C78.9919 127.068 79.1822 127.021 79.31 126.956C79.4379 126.891 79.516 126.778 79.5444 126.619V126.585C79.6126 126.168 79.5572 125.842 79.3782 125.609C79.1993 125.374 78.8797 125.256 78.4194 125.256C77.9422 125.256 77.543 125.361 77.222 125.571C76.901 125.781 76.6637 126.006 76.5103 126.244L75.624 125.903C75.8569 125.506 76.1353 125.196 76.4592 124.974C76.7831 124.75 77.1225 124.594 77.4777 124.506C77.8328 124.415 78.1751 124.369 78.5047 124.369C78.7149 124.369 78.9521 124.395 79.2163 124.446C79.4805 124.494 79.7277 124.595 79.9578 124.749C80.1907 124.902 80.3654 125.134 80.4819 125.443C80.6012 125.753 80.6183 126.168 80.5331 126.688L79.8172 131H78.8115L78.9649 130.114H78.9137C78.8228 130.256 78.6836 130.408 78.4961 130.57C78.3115 130.732 78.0771 130.869 77.793 130.983C77.5118 131.097 77.1808 131.153 76.8001 131.153ZM77.0899 130.25C77.4876 130.25 77.8356 130.172 78.1339 130.016C78.435 129.859 78.6765 129.658 78.8583 129.411C79.043 129.163 79.1581 128.903 79.2035 128.631L79.3569 127.71C79.3058 127.761 79.2049 127.808 79.0544 127.851C78.9038 127.891 78.7333 127.926 78.543 127.957C78.3555 127.986 78.1723 128.011 77.9933 128.034C77.8172 128.054 77.6751 128.071 77.5672 128.085C77.3001 128.119 77.0458 128.175 76.8044 128.251C76.5657 128.325 76.364 128.437 76.1993 128.588C76.0373 128.736 75.9365 128.937 75.8967 129.193C75.837 129.543 75.9208 129.807 76.1481 129.986C76.3754 130.162 76.6893 130.25 77.0899 130.25ZM85.9073 122.273L84.4584 131H83.4527L84.9016 122.273H85.9073ZM30.2808 143.92L29.3263 144.176C29.2922 144.023 29.2325 143.875 29.1473 143.733C29.0649 143.588 28.9371 143.47 28.7638 143.379C28.5933 143.286 28.3604 143.239 28.0649 143.239C27.6643 143.239 27.3163 143.331 27.0209 143.516C26.7254 143.697 26.5564 143.929 26.5138 144.21C26.4712 144.457 26.528 144.655 26.6842 144.803C26.8405 144.95 27.1018 145.071 27.4683 145.165L28.4058 145.403C28.9683 145.548 29.3689 145.766 29.6075 146.055C29.849 146.342 29.9314 146.716 29.8547 147.176C29.7922 147.551 29.6288 147.886 29.3646 148.182C29.1004 148.477 28.7624 148.71 28.3504 148.881C27.9385 149.051 27.4797 149.136 26.974 149.136C26.3007 149.136 25.7695 148.991 25.3803 148.702C24.9911 148.409 24.7837 147.986 24.7581 147.432L25.7638 147.193C25.7893 147.543 25.9143 147.807 26.1388 147.986C26.3661 148.162 26.6842 148.25 27.0933 148.25C27.5621 148.25 27.9527 148.151 28.2652 147.952C28.5777 147.75 28.7553 147.509 28.7979 147.227C28.8405 146.997 28.795 146.805 28.6615 146.652C28.5308 146.499 28.3036 146.384 27.9797 146.307L26.9399 146.051C26.3604 145.906 25.9541 145.685 25.7212 145.386C25.4911 145.088 25.4143 144.713 25.4911 144.261C25.5536 143.892 25.7126 143.565 25.9683 143.281C26.2268 142.997 26.5507 142.774 26.9399 142.612C27.332 142.45 27.7581 142.369 28.2183 142.369C28.8661 142.369 29.3504 142.511 29.6714 142.795C29.9925 143.077 30.1956 143.452 30.2808 143.92ZM35.589 149.136C34.9612 149.136 34.4427 148.997 34.0336 148.719C33.6245 148.438 33.339 148.045 33.1771 147.543C33.0151 147.037 32.9896 146.449 33.1004 145.778C33.2112 145.108 33.4313 144.517 33.7609 144.006C34.0904 143.491 34.5009 143.091 34.9924 142.804C35.4839 142.514 36.0237 142.369 36.6117 142.369C36.9526 142.369 37.2808 142.426 37.5961 142.54C37.9114 142.653 38.1842 142.838 38.4143 143.094C38.6444 143.347 38.8049 143.682 38.8958 144.099C38.9867 144.517 38.981 145.031 38.8788 145.642L38.8106 146.068H33.7651L33.9015 145.199H37.9242C37.9896 144.83 37.9725 144.5 37.8731 144.21C37.7765 143.92 37.6075 143.692 37.366 143.524C37.1273 143.357 36.8248 143.273 36.4583 143.273C36.0805 143.273 35.7282 143.375 35.4015 143.58C35.0748 143.781 34.8021 144.037 34.5833 144.347C34.3646 144.653 34.2282 144.966 34.1742 145.284L34.0549 146.034C33.9697 146.577 33.9825 147.009 34.0933 147.33C34.2069 147.651 34.4043 147.882 34.6856 148.024C34.9668 148.163 35.3191 148.233 35.7424 148.233C36.0123 148.233 36.2609 148.196 36.4881 148.122C36.7154 148.045 36.9185 147.932 37.0975 147.781C37.2765 147.628 37.4271 147.437 37.5492 147.21L38.4697 147.483C38.3134 147.812 38.0933 148.102 37.8092 148.352C37.5279 148.599 37.1984 148.793 36.8205 148.932C36.4455 149.068 36.035 149.136 35.589 149.136ZM44.3116 149.136C43.6951 149.136 43.1894 148.991 42.7945 148.702C42.4025 148.412 42.1298 148.013 41.9763 147.504C41.8229 146.996 41.8002 146.415 41.9082 145.761C42.0161 145.097 42.2349 144.51 42.5644 144.001C42.894 143.49 43.3045 143.091 43.796 142.804C44.2874 142.514 44.8286 142.369 45.4195 142.369C45.8798 142.369 46.2803 142.455 46.6212 142.625C46.9621 142.795 47.2249 143.034 47.4096 143.341C47.5942 143.648 47.6809 144.006 47.6695 144.415H46.6638C46.6354 144.116 46.5076 143.852 46.2803 143.622C46.0559 143.389 45.7235 143.273 45.2832 143.273C44.8911 143.273 44.5303 143.375 44.2008 143.58C43.8712 143.781 43.5942 144.067 43.3698 144.436C43.1454 144.803 42.9934 145.233 42.9138 145.727C42.8286 146.233 42.8357 146.673 42.9352 147.048C43.0346 147.423 43.215 147.714 43.4763 147.922C43.7377 148.129 44.0673 148.233 44.465 148.233C44.7263 148.233 44.9707 148.188 45.1979 148.097C45.4252 148.006 45.6269 147.875 45.8031 147.705C45.9792 147.534 46.1184 147.33 46.2207 147.091H47.2263C47.1013 147.477 46.9011 147.825 46.6255 148.135C46.3499 148.442 46.0161 148.686 45.6241 148.868C45.232 149.047 44.7945 149.136 44.3116 149.136ZM50.1727 149L51.2636 142.455H52.2352L52.0647 143.443H52.1329C52.3033 143.119 52.5633 142.857 52.9127 142.655C53.2621 142.453 53.6329 142.352 54.0249 142.352C54.1016 142.352 54.194 142.354 54.3019 142.357C54.4099 142.357 54.4937 142.361 54.5533 142.369L54.3829 143.392C54.3488 143.384 54.2721 143.371 54.1528 143.354C54.0335 143.334 53.9056 143.324 53.7692 143.324C53.4511 143.324 53.157 143.391 52.8871 143.524C52.6173 143.655 52.3914 143.837 52.2096 144.07C52.0278 144.3 51.9113 144.562 51.8602 144.858L51.1783 149H50.1727ZM58.989 149.136C58.3612 149.136 57.8427 148.997 57.4336 148.719C57.0245 148.438 56.739 148.045 56.5771 147.543C56.4151 147.037 56.3896 146.449 56.5004 145.778C56.6112 145.108 56.8313 144.517 57.1609 144.006C57.4904 143.491 57.9009 143.091 58.3924 142.804C58.8839 142.514 59.4237 142.369 60.0117 142.369C60.3526 142.369 60.6808 142.426 60.9961 142.54C61.3114 142.653 61.5842 142.838 61.8143 143.094C62.0444 143.347 62.2049 143.682 62.2958 144.099C62.3867 144.517 62.381 145.031 62.2788 145.642L62.2106 146.068H57.1651L57.3015 145.199H61.3242C61.3896 144.83 61.3725 144.5 61.2731 144.21C61.1765 143.92 61.0075 143.692 60.766 143.524C60.5273 143.357 60.2248 143.273 59.8583 143.273C59.4805 143.273 59.1282 143.375 58.8015 143.58C58.4748 143.781 58.2021 144.037 57.9833 144.347C57.7646 144.653 57.6282 144.966 57.5742 145.284L57.4549 146.034C57.3697 146.577 57.3825 147.009 57.4933 147.33C57.6069 147.651 57.8043 147.882 58.0856 148.024C58.3668 148.163 58.7191 148.233 59.1424 148.233C59.4123 148.233 59.6609 148.196 59.8881 148.122C60.1154 148.045 60.3185 147.932 60.4975 147.781C60.6765 147.628 60.8271 147.437 60.9492 147.21L61.8697 147.483C61.7134 147.812 61.4933 148.102 61.2092 148.352C60.9279 148.599 60.5984 148.793 60.2205 148.932C59.8455 149.068 59.435 149.136 58.989 149.136ZM69.007 142.455L68.8707 143.307H65.4786L65.615 142.455H69.007ZM66.8593 140.886H67.865L66.8252 147.125C66.7798 147.409 66.7869 147.622 66.8465 147.764C66.909 147.903 67.0028 147.997 67.1278 148.045C67.2556 148.091 67.3934 148.114 67.5411 148.114C67.6519 148.114 67.7428 148.108 67.8138 148.097C67.8849 148.082 67.9417 148.071 67.9843 148.062L68.0525 148.966C67.9758 148.991 67.8721 149.017 67.7414 149.043C67.6136 149.071 67.4559 149.085 67.2684 149.085C66.9843 149.085 66.7173 149.024 66.4673 148.902C66.2173 148.78 66.0255 148.594 65.892 148.344C65.7585 148.094 65.7229 147.778 65.7854 147.398L66.8593 140.886ZM73.138 149.153C72.7232 149.153 72.3596 149.075 72.0471 148.919C71.7346 148.76 71.5031 148.531 71.3525 148.233C71.2019 147.932 71.1607 147.568 71.2289 147.142C71.2942 146.767 71.4207 146.463 71.6082 146.23C71.7957 145.994 72.0229 145.81 72.29 145.676C72.5599 145.54 72.8496 145.439 73.1593 145.374C73.4718 145.305 73.7829 145.253 74.0925 145.216C74.496 145.165 74.8241 145.125 75.0769 145.097C75.3298 145.068 75.5201 145.021 75.6479 144.956C75.7758 144.891 75.8539 144.778 75.8823 144.619V144.585C75.9505 144.168 75.8951 143.842 75.7161 143.609C75.5371 143.374 75.2175 143.256 74.7573 143.256C74.28 143.256 73.8809 143.361 73.5599 143.571C73.2388 143.781 73.0016 144.006 72.8482 144.244L71.9619 143.903C72.1948 143.506 72.4732 143.196 72.7971 142.974C73.121 142.75 73.4604 142.594 73.8156 142.506C74.1707 142.415 74.513 142.369 74.8425 142.369C75.0528 142.369 75.29 142.395 75.5542 142.446C75.8184 142.494 76.0656 142.595 76.2957 142.749C76.5286 142.902 76.7033 143.134 76.8198 143.443C76.9391 143.753 76.9562 144.168 76.871 144.688L76.155 149H75.1494L75.3028 148.114H75.2516C75.1607 148.256 75.0215 148.408 74.834 148.57C74.6494 148.732 74.415 148.869 74.1309 148.983C73.8496 149.097 73.5187 149.153 73.138 149.153ZM73.4278 148.25C73.8255 148.25 74.1735 148.172 74.4718 148.016C74.7729 147.859 75.0144 147.658 75.1962 147.411C75.3809 147.163 75.496 146.903 75.5414 146.631L75.6948 145.71C75.6437 145.761 75.5428 145.808 75.3923 145.851C75.2417 145.891 75.0712 145.926 74.8809 145.957C74.6934 145.986 74.5102 146.011 74.3312 146.034C74.155 146.054 74.013 146.071 73.905 146.085C73.638 146.119 73.3837 146.175 73.1423 146.251C72.9036 146.325 72.7019 146.437 72.5371 146.588C72.3752 146.736 72.2744 146.937 72.2346 147.193C72.1749 147.543 72.2587 147.807 72.486 147.986C72.7133 148.162 73.0272 148.25 73.4278 148.25ZM79.7906 149L80.8815 142.455H81.8531L81.6827 143.443H81.7509C81.9213 143.119 82.1812 142.857 82.5307 142.655C82.8801 142.453 83.2509 142.352 83.6429 142.352C83.7196 142.352 83.8119 142.354 83.9199 142.357C84.0278 142.357 84.1116 142.361 84.1713 142.369L84.0009 143.392C83.9668 143.384 83.8901 143.371 83.7707 143.354C83.6514 143.334 83.5236 143.324 83.3872 143.324C83.069 143.324 82.775 143.391 82.5051 143.524C82.2352 143.655 82.0094 143.837 81.8276 144.07C81.6457 144.3 81.5293 144.562 81.4781 144.858L80.7963 149H79.7906ZM86.5253 151.455C86.3548 151.455 86.2043 151.44 86.0736 151.412C85.9457 151.386 85.8577 151.361 85.8094 151.335L86.2185 150.449C86.4514 150.511 86.6588 150.53 86.8406 150.504C87.0253 150.482 87.2 150.392 87.3648 150.236C87.5324 150.082 87.7071 149.841 87.8889 149.511L88.1702 149L86.8577 142.455H87.906L88.8435 147.688H88.9116L91.5878 142.455H92.7213L88.7071 149.946C88.5196 150.295 88.3136 150.581 88.0892 150.803C87.8648 151.024 87.6219 151.188 87.3605 151.293C87.0991 151.401 86.8207 151.455 86.5253 151.455Z" fill="black"/>
<rect x="279.5" y="102.5" width="116" height="67" rx="7.5" fill="white"/>
<rect x="279.5" y="102.5" width="116" height="67" rx="7.5" stroke="#694C55"/>
<path d="M332.523 134H331.483C331.472 133.696 331.409 133.429 331.295 133.199C331.182 132.969 331.028 132.776 330.835 132.619C330.645 132.46 330.426 132.341 330.179 132.261C329.932 132.182 329.668 132.142 329.386 132.142C328.847 132.142 328.335 132.28 327.852 132.555C327.369 132.828 326.956 133.23 326.612 133.761C326.268 134.29 326.034 134.937 325.909 135.705C325.784 136.449 325.803 137.075 325.964 137.584C326.126 138.092 326.395 138.477 326.77 138.739C327.145 139 327.591 139.131 328.108 139.131C328.406 139.131 328.699 139.091 328.986 139.011C329.276 138.932 329.545 138.814 329.795 138.658C330.048 138.499 330.273 138.304 330.469 138.074C330.668 137.841 330.824 137.574 330.938 137.273H331.994C331.838 137.719 331.626 138.118 331.359 138.47C331.095 138.822 330.79 139.122 330.443 139.369C330.097 139.614 329.723 139.8 329.322 139.928C328.922 140.055 328.506 140.119 328.074 140.119C327.318 140.119 326.675 139.935 326.143 139.565C325.615 139.193 325.237 138.668 325.01 137.989C324.786 137.307 324.75 136.5 324.903 135.568C325.057 134.659 325.351 133.875 325.786 133.216C326.22 132.554 326.753 132.045 327.384 131.69C328.014 131.332 328.699 131.153 329.438 131.153C329.881 131.153 330.288 131.217 330.661 131.345C331.033 131.473 331.357 131.661 331.632 131.908C331.908 132.152 332.122 132.45 332.276 132.803C332.432 133.152 332.514 133.551 332.523 134ZM335.042 140L336.491 131.273H341.758L341.604 132.21H337.394L336.9 135.159H340.837L340.684 136.097H336.746L336.252 139.062H340.53L340.377 140H335.042ZM344.014 140L345.463 131.273H350.696L350.542 132.21H346.366L345.872 135.159H349.656L349.502 136.097H345.718L345.071 140H344.014Z" fill="black"/>
<rect x="58.5" y="223.5" width="282" height="151" rx="7.5" stroke="#694C55" stroke-opacity="0.4"/>
<rect x="83" y="239.5" width="67" height="49" rx="7.5" fill="white"/>
<rect x="83" y="239.5" width="67" height="49" rx="7.5" stroke="#694C55"/>
<path d="M115.023 262H113.983C113.972 261.696 113.909 261.429 113.795 261.199C113.682 260.969 113.528 260.776 113.335 260.619C113.145 260.46 112.926 260.341 112.679 260.261C112.432 260.182 112.168 260.142 111.886 260.142C111.347 260.142 110.835 260.28 110.352 260.555C109.869 260.828 109.456 261.23 109.112 261.761C108.768 262.29 108.534 262.937 108.409 263.705C108.284 264.449 108.303 265.075 108.464 265.584C108.626 266.092 108.895 266.477 109.27 266.739C109.645 267 110.091 267.131 110.608 267.131C110.906 267.131 111.199 267.091 111.486 267.011C111.776 266.932 112.045 266.814 112.295 266.658C112.548 266.499 112.773 266.304 112.969 266.074C113.168 265.841 113.324 265.574 113.438 265.273H114.494C114.338 265.719 114.126 266.118 113.859 266.47C113.595 266.822 113.29 267.122 112.943 267.369C112.597 267.614 112.223 267.8 111.822 267.928C111.422 268.055 111.006 268.119 110.574 268.119C109.818 268.119 109.175 267.935 108.643 267.565C108.115 267.193 107.737 266.668 107.51 265.989C107.286 265.307 107.25 264.5 107.403 263.568C107.557 262.659 107.851 261.875 108.286 261.216C108.72 260.554 109.253 260.045 109.884 259.69C110.514 259.332 111.199 259.153 111.938 259.153C112.381 259.153 112.788 259.217 113.161 259.345C113.533 259.473 113.857 259.661 114.132 259.908C114.408 260.152 114.622 260.45 114.776 260.803C114.932 261.152 115.014 261.551 115.023 262ZM125.553 262H124.513C124.502 261.696 124.44 261.429 124.326 261.199C124.212 260.969 124.059 260.776 123.866 260.619C123.675 260.46 123.457 260.341 123.209 260.261C122.962 260.182 122.698 260.142 122.417 260.142C121.877 260.142 121.366 260.28 120.883 260.555C120.4 260.828 119.986 261.23 119.643 261.761C119.299 262.29 119.065 262.937 118.94 263.705C118.815 264.449 118.833 265.075 118.995 265.584C119.157 266.092 119.425 266.477 119.8 266.739C120.175 267 120.621 267.131 121.138 267.131C121.437 267.131 121.729 267.091 122.016 267.011C122.306 266.932 122.576 266.814 122.826 266.658C123.079 266.499 123.303 266.304 123.499 266.074C123.698 265.841 123.854 265.574 123.968 265.273H125.025C124.869 265.719 124.657 266.118 124.39 266.47C124.126 266.822 123.82 267.122 123.474 267.369C123.127 267.614 122.753 267.8 122.353 267.928C121.952 268.055 121.536 268.119 121.104 268.119C120.349 268.119 119.705 267.935 119.174 267.565C118.646 267.193 118.268 266.668 118.04 265.989C117.816 265.307 117.78 264.5 117.934 263.568C118.087 262.659 118.381 261.875 118.816 261.216C119.251 260.554 119.783 260.045 120.414 259.69C121.045 259.332 121.729 259.153 122.468 259.153C122.911 259.153 123.319 259.217 123.691 259.345C124.063 259.473 124.387 259.661 124.663 259.908C124.938 260.152 125.153 260.45 125.306 260.803C125.462 261.152 125.545 261.551 125.553 262Z" fill="black"/>
<rect x="166" y="239.5" width="67" height="49" rx="7.5" fill="white"/>
<rect x="166" y="239.5" width="67" height="49" rx="7.5" stroke="#694C55"/>
<path d="M198.023 262H196.983C196.972 261.696 196.909 261.429 196.795 261.199C196.682 260.969 196.528 260.776 196.335 260.619C196.145 260.46 195.926 260.341 195.679 260.261C195.432 260.182 195.168 260.142 194.886 260.142C194.347 260.142 193.835 260.28 193.352 260.555C192.869 260.828 192.456 261.23 192.112 261.761C191.768 262.29 191.534 262.937 191.409 263.705C191.284 264.449 191.303 265.075 191.464 265.584C191.626 266.092 191.895 266.477 192.27 266.739C192.645 267 193.091 267.131 193.608 267.131C193.906 267.131 194.199 267.091 194.486 267.011C194.776 266.932 195.045 266.814 195.295 266.658C195.548 266.499 195.773 266.304 195.969 266.074C196.168 265.841 196.324 265.574 196.438 265.273H197.494C197.338 265.719 197.126 266.118 196.859 266.47C196.595 266.822 196.29 267.122 195.943 267.369C195.597 267.614 195.223 267.8 194.822 267.928C194.422 268.055 194.006 268.119 193.574 268.119C192.818 268.119 192.175 267.935 191.643 267.565C191.115 267.193 190.737 266.668 190.51 265.989C190.286 265.307 190.25 264.5 190.403 263.568C190.557 262.659 190.851 261.875 191.286 261.216C191.72 260.554 192.253 260.045 192.884 259.69C193.514 259.332 194.199 259.153 194.938 259.153C195.381 259.153 195.788 259.217 196.161 259.345C196.533 259.473 196.857 259.661 197.132 259.908C197.408 260.152 197.622 260.45 197.776 260.803C197.932 261.152 198.014 261.551 198.023 262ZM208.553 262H207.513C207.502 261.696 207.44 261.429 207.326 261.199C207.212 260.969 207.059 260.776 206.866 260.619C206.675 260.46 206.457 260.341 206.209 260.261C205.962 260.182 205.698 260.142 205.417 260.142C204.877 260.142 204.366 260.28 203.883 260.555C203.4 260.828 202.986 261.23 202.643 261.761C202.299 262.29 202.065 262.937 201.94 263.705C201.815 264.449 201.833 265.075 201.995 265.584C202.157 266.092 202.425 266.477 202.8 266.739C203.175 267 203.621 267.131 204.138 267.131C204.437 267.131 204.729 267.091 205.016 267.011C205.306 266.932 205.576 266.814 205.826 266.658C206.079 266.499 206.303 266.304 206.499 266.074C206.698 265.841 206.854 265.574 206.968 265.273H208.025C207.869 265.719 207.657 266.118 207.39 266.47C207.126 266.822 206.82 267.122 206.474 267.369C206.127 267.614 205.753 267.8 205.353 267.928C204.952 268.055 204.536 268.119 204.104 268.119C203.349 268.119 202.705 267.935 202.174 267.565C201.646 267.193 201.268 266.668 201.04 265.989C200.816 265.307 200.78 264.5 200.934 263.568C201.087 262.659 201.381 261.875 201.816 261.216C202.251 260.554 202.783 260.045 203.414 259.69C204.045 259.332 204.729 259.153 205.468 259.153C205.911 259.153 206.319 259.217 206.691 259.345C207.063 259.473 207.387 259.661 207.663 259.908C207.938 260.152 208.153 260.45 208.306 260.803C208.462 261.152 208.545 261.551 208.553 262Z" fill="black"/>
<rect x="249" y="239.5" width="67" height="49" rx="7.5" fill="white"/>
<rect x="249" y="239.5" width="67" height="49" rx="7.5" stroke="#694C55"/>
<path d="M281.023 262H279.983C279.972 261.696 279.909 261.429 279.795 261.199C279.682 260.969 279.528 260.776 279.335 260.619C279.145 260.46 278.926 260.341 278.679 260.261C278.432 260.182 278.168 260.142 277.886 260.142C277.347 260.142 276.835 260.28 276.352 260.555C275.869 260.828 275.456 261.23 275.112 261.761C274.768 262.29 274.534 262.937 274.409 263.705C274.284 264.449 274.303 265.075 274.464 265.584C274.626 266.092 274.895 266.477 275.27 266.739C275.645 267 276.091 267.131 276.608 267.131C276.906 267.131 277.199 267.091 277.486 267.011C277.776 266.932 278.045 266.814 278.295 266.658C278.548 266.499 278.773 266.304 278.969 266.074C279.168 265.841 279.324 265.574 279.438 265.273H280.494C280.338 265.719 280.126 266.118 279.859 266.47C279.595 266.822 279.29 267.122 278.943 267.369C278.597 267.614 278.223 267.8 277.822 267.928C277.422 268.055 277.006 268.119 276.574 268.119C275.818 268.119 275.175 267.935 274.643 267.565C274.115 267.193 273.737 266.668 273.51 265.989C273.286 265.307 273.25 264.5 273.403 263.568C273.557 262.659 273.851 261.875 274.286 261.216C274.72 260.554 275.253 260.045 275.884 259.69C276.514 259.332 277.199 259.153 277.938 259.153C278.381 259.153 278.788 259.217 279.161 259.345C279.533 259.473 279.857 259.661 280.132 259.908C280.408 260.152 280.622 260.45 280.776 260.803C280.932 261.152 281.014 261.551 281.023 262ZM291.553 262H290.513C290.502 261.696 290.44 261.429 290.326 261.199C290.212 260.969 290.059 260.776 289.866 260.619C289.675 260.46 289.457 260.341 289.209 260.261C288.962 260.182 288.698 260.142 288.417 260.142C287.877 260.142 287.366 260.28 286.883 260.555C286.4 260.828 285.986 261.23 285.643 261.761C285.299 262.29 285.065 262.937 284.94 263.705C284.815 264.449 284.833 265.075 284.995 265.584C285.157 266.092 285.425 266.477 285.8 266.739C286.175 267 286.621 267.131 287.138 267.131C287.437 267.131 287.729 267.091 288.016 267.011C288.306 266.932 288.576 266.814 288.826 266.658C289.079 266.499 289.303 266.304 289.499 266.074C289.698 265.841 289.854 265.574 289.968 265.273H291.025C290.869 265.719 290.657 266.118 290.39 266.47C290.126 266.822 289.82 267.122 289.474 267.369C289.127 267.614 288.753 267.8 288.353 267.928C287.952 268.055 287.536 268.119 287.104 268.119C286.349 268.119 285.705 267.935 285.174 267.565C284.646 267.193 284.268 266.668 284.04 265.989C283.816 265.307 283.78 264.5 283.934 263.568C284.087 262.659 284.381 261.875 284.816 261.216C285.251 260.554 285.783 260.045 286.414 259.69C287.045 259.332 287.729 259.153 288.468 259.153C288.911 259.153 289.319 259.217 289.691 259.345C290.063 259.473 290.387 259.661 290.663 259.908C290.938 260.152 291.153 260.45 291.306 260.803C291.462 261.152 291.545 261.551 291.553 262Z" fill="black"/>
<rect x="83" y="309.5" width="67" height="49" rx="7.5" fill="white"/>
<rect x="83" y="309.5" width="67" height="49" rx="7.5" stroke="#694C55"/>
<path d="M115.023 332H113.983C113.972 331.696 113.909 331.429 113.795 331.199C113.682 330.969 113.528 330.776 113.335 330.619C113.145 330.46 112.926 330.341 112.679 330.261C112.432 330.182 112.168 330.142 111.886 330.142C111.347 330.142 110.835 330.28 110.352 330.555C109.869 330.828 109.456 331.23 109.112 331.761C108.768 332.29 108.534 332.937 108.409 333.705C108.284 334.449 108.303 335.075 108.464 335.584C108.626 336.092 108.895 336.477 109.27 336.739C109.645 337 110.091 337.131 110.608 337.131C110.906 337.131 111.199 337.091 111.486 337.011C111.776 336.932 112.045 336.814 112.295 336.658C112.548 336.499 112.773 336.304 112.969 336.074C113.168 335.841 113.324 335.574 113.438 335.273H114.494C114.338 335.719 114.126 336.118 113.859 336.47C113.595 336.822 113.29 337.122 112.943 337.369C112.597 337.614 112.223 337.8 111.822 337.928C111.422 338.055 111.006 338.119 110.574 338.119C109.818 338.119 109.175 337.935 108.643 337.565C108.115 337.193 107.737 336.668 107.51 335.989C107.286 335.307 107.25 334.5 107.403 333.568C107.557 332.659 107.851 331.875 108.286 331.216C108.72 330.554 109.253 330.045 109.884 329.69C110.514 329.332 111.199 329.153 111.938 329.153C112.381 329.153 112.788 329.217 113.161 329.345C113.533 329.473 113.857 329.661 114.132 329.908C114.408 330.152 114.622 330.45 114.776 330.803C114.932 331.152 115.014 331.551 115.023 332ZM125.553 332H124.513C124.502 331.696 124.44 331.429 124.326 331.199C124.212 330.969 124.059 330.776 123.866 330.619C123.675 330.46 123.457 330.341 123.209 330.261C122.962 330.182 122.698 330.142 122.417 330.142C121.877 330.142 121.366 330.28 120.883 330.555C120.4 330.828 119.986 331.23 119.643 331.761C119.299 332.29 119.065 332.937 118.94 333.705C118.815 334.449 118.833 335.075 118.995 335.584C119.157 336.092 119.425 336.477 119.8 336.739C120.175 337 120.621 337.131 121.138 337.131C121.437 337.131 121.729 337.091 122.016 337.011C122.306 336.932 122.576 336.814 122.826 336.658C123.079 336.499 123.303 336.304 123.499 336.074C123.698 335.841 123.854 335.574 123.968 335.273H125.025C124.869 335.719 124.657 336.118 124.39 336.47C124.126 336.822 123.82 337.122 123.474 337.369C123.127 337.614 122.753 337.8 122.353 337.928C121.952 338.055 121.536 338.119 121.104 338.119C120.349 338.119 119.705 337.935 119.174 337.565C118.646 337.193 118.268 336.668 118.04 335.989C117.816 335.307 117.78 334.5 117.934 333.568C118.087 332.659 118.381 331.875 118.816 331.216C119.251 330.554 119.783 330.045 120.414 329.69C121.045 329.332 121.729 329.153 122.468 329.153C122.911 329.153 123.319 329.217 123.691 329.345C124.063 329.473 124.387 329.661 124.663 329.908C124.938 330.152 125.153 330.45 125.306 330.803C125.462 331.152 125.545 331.551 125.553 332Z" fill="black"/>
<rect x="166" y="309.5" width="67" height="49" rx="7.5" fill="white"/>
<rect x="166" y="309.5" width="67" height="49" rx="7.5" stroke="#694C55"/>
<path d="M198.023 332H196.983C196.972 331.696 196.909 331.429 196.795 331.199C196.682 330.969 196.528 330.776 196.335 330.619C196.145 330.46 195.926 330.341 195.679 330.261C195.432 330.182 195.168 330.142 194.886 330.142C194.347 330.142 193.835 330.28 193.352 330.555C192.869 330.828 192.456 331.23 192.112 331.761C191.768 332.29 191.534 332.937 191.409 333.705C191.284 334.449 191.303 335.075 191.464 335.584C191.626 336.092 191.895 336.477 192.27 336.739C192.645 337 193.091 337.131 193.608 337.131C193.906 337.131 194.199 337.091 194.486 337.011C194.776 336.932 195.045 336.814 195.295 336.658C195.548 336.499 195.773 336.304 195.969 336.074C196.168 335.841 196.324 335.574 196.438 335.273H197.494C197.338 335.719 197.126 336.118 196.859 336.47C196.595 336.822 196.29 337.122 195.943 337.369C195.597 337.614 195.223 337.8 194.822 337.928C194.422 338.055 194.006 338.119 193.574 338.119C192.818 338.119 192.175 337.935 191.643 337.565C191.115 337.193 190.737 336.668 190.51 335.989C190.286 335.307 190.25 334.5 190.403 333.568C190.557 332.659 190.851 331.875 191.286 331.216C191.72 330.554 192.253 330.045 192.884 329.69C193.514 329.332 194.199 329.153 194.938 329.153C195.381 329.153 195.788 329.217 196.161 329.345C196.533 329.473 196.857 329.661 197.132 329.908C197.408 330.152 197.622 330.45 197.776 330.803C197.932 331.152 198.014 331.551 198.023 332ZM208.553 332H207.513C207.502 331.696 207.44 331.429 207.326 331.199C207.212 330.969 207.059 330.776 206.866 330.619C206.675 330.46 206.457 330.341 206.209 330.261C205.962 330.182 205.698 330.142 205.417 330.142C204.877 330.142 204.366 330.28 203.883 330.555C203.4 330.828 202.986 331.23 202.643 331.761C202.299 332.29 202.065 332.937 201.94 333.705C201.815 334.449 201.833 335.075 201.995 335.584C202.157 336.092 202.425 336.477 202.8 336.739C203.175 337 203.621 337.131 204.138 337.131C204.437 337.131 204.729 337.091 205.016 337.011C205.306 336.932 205.576 336.814 205.826 336.658C206.079 336.499 206.303 336.304 206.499 336.074C206.698 335.841 206.854 335.574 206.968 335.273H208.025C207.869 335.719 207.657 336.118 207.39 336.47C207.126 336.822 206.82 337.122 206.474 337.369C206.127 337.614 205.753 337.8 205.353 337.928C204.952 338.055 204.536 338.119 204.104 338.119C203.349 338.119 202.705 337.935 202.174 337.565C201.646 337.193 201.268 336.668 201.04 335.989C200.816 335.307 200.78 334.5 200.934 333.568C201.087 332.659 201.381 331.875 201.816 331.216C202.251 330.554 202.783 330.045 203.414 329.69C204.045 329.332 204.729 329.153 205.468 329.153C205.911 329.153 206.319 329.217 206.691 329.345C207.063 329.473 207.387 329.661 207.663 329.908C207.938 330.152 208.153 330.45 208.306 330.803C208.462 331.152 208.545 331.551 208.553 332Z" fill="black"/>
<rect x="249" y="309.5" width="67" height="49" rx="7.5" fill="white"/>
<rect x="249" y="309.5" width="67" height="49" rx="7.5" stroke="#694C55"/>
<path d="M281.023 332H279.983C279.972 331.696 279.909 331.429 279.795 331.199C279.682 330.969 279.528 330.776 279.335 330.619C279.145 330.46 278.926 330.341 278.679 330.261C278.432 330.182 278.168 330.142 277.886 330.142C277.347 330.142 276.835 330.28 276.352 330.555C275.869 330.828 275.456 331.23 275.112 331.761C274.768 332.29 274.534 332.937 274.409 333.705C274.284 334.449 274.303 335.075 274.464 335.584C274.626 336.092 274.895 336.477 275.27 336.739C275.645 337 276.091 337.131 276.608 337.131C276.906 337.131 277.199 337.091 277.486 337.011C277.776 336.932 278.045 336.814 278.295 336.658C278.548 336.499 278.773 336.304 278.969 336.074C279.168 335.841 279.324 335.574 279.438 335.273H280.494C280.338 335.719 280.126 336.118 279.859 336.47C279.595 336.822 279.29 337.122 278.943 337.369C278.597 337.614 278.223 337.8 277.822 337.928C277.422 338.055 277.006 338.119 276.574 338.119C275.818 338.119 275.175 337.935 274.643 337.565C274.115 337.193 273.737 336.668 273.51 335.989C273.286 335.307 273.25 334.5 273.403 333.568C273.557 332.659 273.851 331.875 274.286 331.216C274.72 330.554 275.253 330.045 275.884 329.69C276.514 329.332 277.199 329.153 277.938 329.153C278.381 329.153 278.788 329.217 279.161 329.345C279.533 329.473 279.857 329.661 280.132 329.908C280.408 330.152 280.622 330.45 280.776 330.803C280.932 331.152 281.014 331.551 281.023 332ZM291.553 332H290.513C290.502 331.696 290.44 331.429 290.326 331.199C290.212 330.969 290.059 330.776 289.866 330.619C289.675 330.46 289.457 330.341 289.209 330.261C288.962 330.182 288.698 330.142 288.417 330.142C287.877 330.142 287.366 330.28 286.883 330.555C286.4 330.828 285.986 331.23 285.643 331.761C285.299 332.29 285.065 332.937 284.94 333.705C284.815 334.449 284.833 335.075 284.995 335.584C285.157 336.092 285.425 336.477 285.8 336.739C286.175 337 286.621 337.131 287.138 337.131C287.437 337.131 287.729 337.091 288.016 337.011C288.306 336.932 288.576 336.814 288.826 336.658C289.079 336.499 289.303 336.304 289.499 336.074C289.698 335.841 289.854 335.574 289.968 335.273H291.025C290.869 335.719 290.657 336.118 290.39 336.47C290.126 336.822 289.82 337.122 289.474 337.369C289.127 337.614 288.753 337.8 288.353 337.928C287.952 338.055 287.536 338.119 287.104 338.119C286.349 338.119 285.705 337.935 285.174 337.565C284.646 337.193 284.268 336.668 284.04 335.989C283.816 335.307 283.78 334.5 283.934 333.568C284.087 332.659 284.381 331.875 284.816 331.216C285.251 330.554 285.783 330.045 286.414 329.69C287.045 329.332 287.729 329.153 288.468 329.153C288.911 329.153 289.319 329.217 289.691 329.345C290.063 329.473 290.387 329.661 290.663 329.908C290.938 330.152 291.153 330.45 291.306 330.803C291.462 331.152 291.545 331.551 291.553 332Z" fill="black"/>
<path d="M338 87L330.84 102L348.16 102L341 87L338 87ZM339.5 25L338 25L338 88.5L339.5 88.5L341 88.5L341 25L339.5 25Z" fill="#694C55"/>
<path d="M48.5 87L41.3397 102L58.6603 102L51.5 87L48.5 87ZM50 27L48.5 27L48.5 88.5L50 88.5L51.5 88.5L51.5 27L50 27Z" fill="#694C55"/>
<line x1="32" y1="299" x2="32" y2="170" stroke="#694C55" stroke-width="2"/>
<line x1="361" y1="297" x2="361" y2="170" stroke="#694C55" stroke-width="2"/>
<line x1="33" y1="298" x2="57" y2="298" stroke="#694C55" stroke-width="2"/>
<line x1="362" y1="298" x2="341" y2="298" stroke="#694C55" stroke-width="2"/>
</svg>
