<svg width="56" height="57" viewBox="0 0 56 57" fill="none" xmlns="http://www.w3.org/2000/svg">
<mask id="path-1-outside-1_5_73" maskUnits="userSpaceOnUse" x="0" y="0" width="56" height="57" fill="black">
<rect fill="white" width="56" height="57"/>
<path d="M39.9901 21.1818H40.0093H39.9901ZM40.0093 16.272V10.1373V16.272ZM52 15.7404C52 22.2231 46.6239 27.4808 39.9901 27.4808C39.2093 27.4808 38.4349 27.4073 37.6668 27.2603C37.1148 27.155 36.8412 27.1035 36.6468 27.1329C36.4548 27.1623 36.1812 27.3093 35.6388 27.6082C34.0851 28.4537 32.297 28.7378 30.5651 28.4143C31.2227 27.5862 31.6691 26.5939 31.8683 25.5306C31.9883 24.8814 31.6907 24.2493 31.2443 23.7862C29.1599 21.6483 27.9868 18.7567 27.9802 15.7404C27.9802 9.2577 33.3563 4 39.9901 4C46.6239 4 52 9.2577 52 15.7404ZM17.2039 53H10.5222C9.74695 53 8.96693 52.8873 8.25412 52.5761C5.93566 51.5594 4.75723 50.2144 4.21002 49.374C4.06151 49.1412 3.98854 48.8666 4.00146 48.5892C4.01439 48.3117 4.11254 48.0454 4.28202 47.8281C6.97009 44.1824 13.2006 41.9824 17.2039 41.9824M17.2159 53H23.8953C24.6729 53 25.4505 52.8873 26.1634 52.5761C28.4842 51.5594 29.6602 50.2144 30.2099 49.374C30.3584 49.1412 30.4313 48.8666 30.4184 48.5892C30.4055 48.3117 30.3073 48.0454 30.1379 47.8281C27.4498 44.1824 21.2192 41.9824 17.2159 41.9824M23.8833 29.208C23.8808 31.011 23.177 32.7391 21.9268 34.0126C20.6766 35.2861 18.9821 36.0008 17.2159 35.9995C16.341 36.0007 15.4744 35.8261 14.6656 35.4855C13.8567 35.1449 13.1215 34.645 12.502 34.0144C11.8824 33.3837 11.3906 32.6347 11.0546 31.81C10.7186 30.9853 10.545 30.1012 10.5438 29.208C10.5447 28.3147 10.7181 27.4303 11.0539 26.6053C11.3898 25.7804 11.8815 25.0311 12.5011 24.4002C13.1207 23.7693 13.856 23.2691 14.665 22.9284C15.474 22.5876 16.3408 22.4129 17.2159 22.4142C18.9825 22.4129 20.6773 23.1279 21.9276 24.4019C23.1779 25.6759 23.8814 27.4047 23.8833 29.208Z"/>
</mask>
<path d="M39.9901 17.1818C37.781 17.1818 35.9901 18.9727 35.9901 21.1818C35.9901 23.391 37.781 25.1818 39.9901 25.1818V17.1818ZM40.0093 25.1818C42.2184 25.1818 44.0093 23.391 44.0093 21.1818C44.0093 18.9727 42.2184 17.1818 40.0093 17.1818V25.1818ZM36.0093 16.272C36.0093 18.4812 37.8002 20.272 40.0093 20.272C42.2184 20.272 44.0093 18.4812 44.0093 16.272H36.0093ZM44.0093 10.1373C44.0093 7.92811 42.2184 6.13725 40.0093 6.13725C37.8002 6.13725 36.0093 7.92811 36.0093 10.1373H44.0093ZM37.6668 27.2603L38.4188 23.3316L38.4167 23.3312L37.6668 27.2603ZM36.6468 27.1329L36.0487 23.1779L36.0414 23.179L36.6468 27.1329ZM35.6388 27.6082L37.5508 31.1216C37.557 31.1183 37.5632 31.1149 37.5693 31.1115L35.6388 27.6082ZM30.5651 28.4143L27.4326 25.9267C26.5604 27.0251 26.3272 28.5 26.8179 29.8139C27.3087 31.1278 28.4518 32.0887 29.8305 32.3462L30.5651 28.4143ZM31.8683 25.5306L35.7999 26.2672L35.8017 26.2576L31.8683 25.5306ZM31.2443 23.7862L34.124 21.01C34.1188 21.0046 34.1135 20.9992 34.1083 20.9938L31.2443 23.7862ZM27.9802 15.7404H23.9802L23.9802 15.7491L27.9802 15.7404ZM17.2039 57C19.4131 57 21.2039 55.2091 21.2039 53C21.2039 50.7909 19.4131 49 17.2039 49V57ZM8.25412 52.5761L6.64762 56.2394L6.6539 56.2421L8.25412 52.5761ZM4.21002 49.374L0.837876 51.5254C0.844549 51.5359 0.851271 51.5463 0.858041 51.5567L4.21002 49.374ZM4.28202 47.8281L7.43639 50.2877C7.45847 50.2594 7.48016 50.2308 7.50147 50.2019L4.28202 47.8281ZM17.2039 45.9824C19.4131 45.9824 21.2039 44.1915 21.2039 41.9824C21.2039 39.7732 19.4131 37.9824 17.2039 37.9824V45.9824ZM17.2159 49C15.0068 49 13.2159 50.7909 13.2159 53C13.2159 55.2091 15.0068 57 17.2159 57V49ZM26.1634 52.5761L27.7636 56.2421L27.7685 56.24L26.1634 52.5761ZM30.2099 49.374L33.5575 51.5634C33.5657 51.5508 33.5739 51.5381 33.582 51.5254L30.2099 49.374ZM30.1379 47.8281L26.9184 50.2019C26.9397 50.2308 26.9614 50.2594 26.9835 50.2877L30.1379 47.8281ZM17.2159 37.9824C15.0068 37.9824 13.2159 39.7732 13.2159 41.9824C13.2159 44.1915 15.0068 45.9824 17.2159 45.9824V37.9824ZM23.8833 29.208L27.8833 29.2137L27.8833 29.2038L23.8833 29.208ZM17.2159 35.9995L17.2189 31.9994L17.2101 31.9995L17.2159 35.9995ZM10.5438 29.208L6.54376 29.2038L6.54378 29.2137L10.5438 29.208ZM17.2159 22.4142L17.2101 26.4142L17.2189 26.4142L17.2159 22.4142ZM39.9901 25.1818H40.0093V17.1818H39.9901V25.1818ZM44.0093 16.272V10.1373H36.0093V16.272H44.0093ZM48 15.7404C48 19.9294 44.5003 23.4808 39.9901 23.4808V31.4808C48.7474 31.4808 56 24.5168 56 15.7404H48ZM39.9901 23.4808C39.462 23.4808 38.9393 23.4312 38.4188 23.3316L36.9149 31.189C37.9304 31.3834 38.9566 31.4808 39.9901 31.4808V23.4808ZM38.4167 23.3312C38.1794 23.2859 37.857 23.2234 37.5705 23.1838C37.3006 23.1464 36.7252 23.0756 36.0487 23.1779L37.2449 31.0879C36.9864 31.127 36.7803 31.1273 36.6591 31.1227C36.5975 31.1204 36.5504 31.1165 36.5217 31.1137C36.493 31.1109 36.4762 31.1086 36.4749 31.1084C36.4735 31.1082 36.4818 31.1093 36.5028 31.1128C36.5237 31.1162 36.5524 31.1212 36.5918 31.1283C36.6746 31.1432 36.7747 31.1622 36.917 31.1894L38.4167 23.3312ZM36.0414 23.179C35.3199 23.2895 34.7526 23.5617 34.5271 23.6712C34.255 23.8033 33.9535 23.9698 33.7083 24.1049L37.5693 31.1115C37.7055 31.0364 37.8061 30.9813 37.8886 30.937C37.9726 30.892 38.0105 30.873 38.0213 30.8678C38.0356 30.8608 37.9768 30.8905 37.8709 30.9296C37.7657 30.9685 37.5485 31.0415 37.2522 31.0868L36.0414 23.179ZM33.7268 24.0948C32.9774 24.5026 32.1235 24.6362 31.2996 24.4823L29.8305 32.3462C32.4704 32.8394 35.1928 32.4049 37.5508 31.1216L33.7268 24.0948ZM33.6975 30.9018C34.7741 29.5461 35.485 27.9479 35.7999 26.2672L27.9367 24.794C27.8532 25.2399 27.6713 25.6262 27.4326 25.9267L33.6975 30.9018ZM35.8017 26.2576C36.2346 23.9154 35.1184 22.0415 34.124 21.01L28.3646 26.5624C28.2776 26.4722 28.1445 26.3061 28.0393 26.0349C27.9278 25.7474 27.8407 25.3134 27.9349 24.8036L35.8017 26.2576ZM34.1083 20.9938C32.7584 19.6092 31.9845 17.7195 31.9802 15.7317L23.9802 15.7491C23.989 19.7938 25.5614 23.6874 28.3803 26.5786L34.1083 20.9938ZM31.9802 15.7404C31.9802 11.5515 35.4799 8 39.9901 8V0C31.2328 0 23.9802 6.96395 23.9802 15.7404H31.9802ZM39.9901 8C44.5003 8 48 11.5514 48 15.7404H56C56 6.96395 48.7474 0 39.9901 0V8ZM17.2039 49H10.5222V57H17.2039V49ZM10.5222 49C10.1129 49 9.91685 48.9375 9.85434 48.9102L6.6539 56.2421C8.01702 56.8371 9.38106 57 10.5222 57V49ZM9.86061 48.9129C8.32029 48.2374 7.72416 47.4403 7.56199 47.1913L0.858041 51.5567C1.7903 52.9884 3.55102 54.8814 6.64763 56.2394L9.86061 48.9129ZM7.58216 47.2226C7.88065 47.6904 8.02238 48.2332 7.99713 48.7753L0.00579405 48.4031C-0.0452981 49.5001 0.242365 50.592 0.837876 51.5254L7.58216 47.2226ZM7.99713 48.7753C7.97188 49.3174 7.78006 49.847 7.43639 50.2877L1.12764 45.3684C0.445025 46.2438 0.0568922 47.3059 0.00579405 48.4031L7.99713 48.7753ZM7.50147 50.2019C8.25556 49.1792 9.763 48.0812 11.799 47.2259C13.8023 46.3843 15.8328 45.9824 17.2039 45.9824V37.9824C14.5718 37.9824 11.4853 38.6804 8.70055 39.8503C5.94841 41.0064 2.99654 42.8313 1.06257 45.4542L7.50147 50.2019ZM17.2159 57H23.8953V49H17.2159V57ZM23.8953 57C25.0397 57 26.401 56.8369 27.7636 56.2421L24.5631 48.9102C24.5001 48.9377 24.3062 49 23.8953 49V57ZM27.7685 56.24C30.8713 54.8806 32.6266 52.9867 33.5575 51.5634L26.8623 47.1846C26.6939 47.442 26.0971 48.2382 24.5583 48.9123L27.7685 56.24ZM33.582 51.5254C34.1775 50.592 34.4652 49.5001 34.4141 48.4031L26.4227 48.7753C26.3975 48.2332 26.5392 47.6904 26.8377 47.2226L33.582 51.5254ZM34.4141 48.4031C34.363 47.3059 33.9748 46.2438 33.2922 45.3684L26.9835 50.2877C26.6398 49.847 26.448 49.3174 26.4227 48.7753L34.4141 48.4031ZM33.3573 45.4542C31.4233 42.8313 28.4715 41.0064 25.7193 39.8503C22.9346 38.6804 19.8481 37.9824 17.2159 37.9824V45.9824C18.5871 45.9824 20.6176 46.3843 22.6209 47.2259C24.6569 48.0812 26.1643 49.1792 26.9184 50.2019L33.3573 45.4542ZM19.8833 29.2024C19.8822 29.9712 19.5814 30.692 19.0724 31.2104L24.7812 36.8149C26.7727 34.7863 27.8793 32.0507 27.8833 29.2137L19.8833 29.2024ZM19.0724 31.2104C18.5662 31.726 17.8978 32 17.2189 31.9995L17.213 39.9995C20.0664 40.0016 22.7869 38.8462 24.7812 36.8149L19.0724 31.2104ZM17.2101 31.9995C16.872 32 16.5351 31.9326 16.218 31.799L13.1131 39.172C14.4136 39.7196 15.81 40.0015 17.2218 39.9994L17.2101 31.9995ZM16.218 31.799C15.9006 31.6654 15.6068 31.467 15.3553 31.2111L9.64862 36.8176C10.6363 37.823 11.8128 38.6244 13.1131 39.172L16.218 31.799ZM15.3553 31.2111C15.1037 30.955 14.8998 30.6464 14.759 30.3008L7.35026 33.3193C7.88143 34.623 8.66108 35.8124 9.64862 36.8176L15.3553 31.2111ZM14.759 30.3008C14.6181 29.955 14.5443 29.5816 14.5438 29.2024L6.54378 29.2137C6.54576 30.6208 6.81914 32.0157 7.35026 33.3193L14.759 30.3008ZM14.5438 29.2123C14.5442 28.833 14.6179 28.4595 14.7587 28.1136L7.34917 25.0971C6.81827 26.4011 6.54526 27.7964 6.54378 29.2038L14.5438 29.2123ZM14.7587 28.1136C14.8994 27.7679 15.1034 27.4591 15.355 27.2029L9.64726 21.5974C8.65968 22.603 7.88011 23.7929 7.34917 25.0971L14.7587 28.1136ZM15.355 27.2029C15.6064 26.9469 15.9003 26.7484 16.2177 26.6147L13.1123 19.2421C11.8117 19.7899 10.635 20.5916 9.64726 21.5974L15.355 27.2029ZM16.2177 26.6147C16.535 26.4811 16.8719 26.4137 17.2101 26.4142L17.2218 18.4142C15.8097 18.4121 14.413 18.6942 13.1123 19.2421L16.2177 26.6147ZM17.2189 26.4142C17.898 26.4137 18.5665 26.6878 19.0728 27.2036L24.7825 21.6002C22.7882 19.568 20.0671 18.4121 17.213 18.4142L17.2189 26.4142ZM19.0728 27.2036C19.5818 27.7223 19.8825 28.4433 19.8833 29.2123L27.8833 29.2038C27.8803 26.3661 26.7741 23.6296 24.7825 21.6002L19.0728 27.2036Z" fill="#BC3447" mask="url(#path-1-outside-1_5_73)"/>
</svg>
