<svg width="32" height="26" viewBox="0 0 32 26" fill="none" xmlns="http://www.w3.org/2000/svg">
<path d="M27.5345 16.5298C27.3809 15.4626 26.5569 14.6306 25.4961 14.3826C21.3729 13.4162 20.3393 11.0418 20.1649 8.4082C19.4337 8.2722 18.1329 8.125 15.9249 8.125C13.7169 8.125 12.4161 8.2722 11.6849 8.4082C11.5105 11.0418 10.4769 13.4162 6.35365 14.3826C5.29285 14.6322 4.46885 15.4626 4.31525 16.5298L3.52005 22.037C3.24005 23.9762 4.66405 25.725 6.64485 25.725H25.2049C27.1841 25.725 28.6097 23.9762 28.3297 22.037L27.5345 16.5298ZM15.9249 21.7122C13.6929 21.7122 11.8833 19.9202 11.8833 17.7122C11.8833 15.5042 13.6929 13.7122 15.9249 13.7122C18.1569 13.7122 19.9665 15.5042 19.9665 17.7122C19.9665 19.9202 18.1553 21.7122 15.9249 21.7122ZM31.8449 6.525C31.8065 4.125 25.6977 0.1266 15.9249 0.125C6.15045 0.1266 0.0416505 4.125 0.00485054 6.525C-0.0319495 8.925 0.0384506 12.0482 4.06085 11.5282C8.76645 10.9186 8.47685 9.2754 8.47685 6.9266C8.47685 5.2882 12.3041 4.893 15.9249 4.893C19.5457 4.893 23.3713 5.2882 23.3729 6.9266C23.3729 9.2754 23.0833 10.9186 27.7889 11.5282C31.8097 12.0482 31.8817 8.925 31.8449 6.525Z" fill="#A087F4"/>
</svg>
