<svg width="16" height="17" viewBox="0 0 16 17" fill="none" xmlns="http://www.w3.org/2000/svg">
<path d="M8 1.5C9.85652 1.5 11.637 2.2375 12.9497 3.55025C14.2625 4.86301 15 6.64348 15 8.5C15 10.3565 14.2625 12.137 12.9497 13.4497C11.637 14.7625 9.85652 15.5 8 15.5C6.14348 15.5 4.36301 14.7625 3.05025 13.4497C1.7375 12.137 1 10.3565 1 8.5C1 6.64348 1.7375 4.86301 3.05025 3.55025C4.36301 2.2375 6.14348 1.5 8 1.5ZM8.371 4.492C7.557 4.492 6.919 4.723 6.446 5.185C5.962 5.647 5.731 6.285 5.731 7.099H6.985C6.985 6.637 7.073 6.274 7.26 6.021C7.469 5.713 7.81 5.57 8.294 5.57C8.668 5.57 8.965 5.669 9.174 5.878C9.372 6.087 9.482 6.373 9.482 6.736C9.482 7.011 9.383 7.275 9.185 7.517L9.053 7.671C8.338 8.309 7.909 8.771 7.766 9.068C7.612 9.365 7.546 9.728 7.546 10.146V10.3H8.811V10.146C8.811 9.882 8.866 9.651 8.976 9.431C9.075 9.233 9.218 9.046 9.416 8.881C9.944 8.419 10.263 8.122 10.362 8.012C10.626 7.66 10.769 7.209 10.769 6.659C10.769 5.988 10.549 5.46 10.109 5.075C9.669 4.679 9.086 4.492 8.371 4.492ZM8.173 10.839C7.94871 10.8329 7.73116 10.916 7.568 11.07C7.48744 11.1459 7.42413 11.2382 7.38238 11.3407C7.34063 11.4432 7.3214 11.5534 7.326 11.664C7.326 11.906 7.403 12.104 7.568 12.258C7.72994 12.4152 7.94734 12.5021 8.173 12.5C8.415 12.5 8.613 12.423 8.778 12.269C8.86027 12.1916 8.92531 12.0977 8.9689 11.9934C9.01249 11.8892 9.03365 11.777 9.031 11.664C9.03311 11.5537 9.01274 11.4442 8.97113 11.3421C8.92953 11.24 8.86756 11.1474 8.789 11.07C8.62159 10.9157 8.40058 10.8328 8.173 10.839Z" fill="#00E0E9"/>
</svg>
